<?xml version='1.0' encoding='utf-8'?>
<svg xmlns="http://www.w3.org/2000/svg" height="100%" stroke-miterlimit="10" style="fill-rule:nonzero;clip-rule:evenodd;stroke-linecap:round;stroke-linejoin:round;" version="1.1" viewBox="0 0 3000 3000" width="100%"> <defs> <linearGradient gradientTransform="matrix(1 0 0 1 0 0)" gradientUnits="userSpaceOnUse" id="LinearGradient" x1="1500" x2="2805.81" y1="1500" y2="194.188"> <stop offset="0" stop-color="#7e7e7e"/> <stop offset="0.555825" stop-color="#c8c8c8"/> <stop offset="1" stop-color="#7e7e7e"/> </linearGradient> </defs> <g id="Untitled"> <path d="M1500 1189.05C1328.28 1189.12 1189.13 1328.36 1189.17 1500.08C1189.21 1671.79 1328.44 1810.97 1500.16 1810.95C1671.87 1810.93 1811.06 1671.72 1811.06 1500C1810.93 1328.28 1671.72 1189.12 1500 1189.05ZM2227 950.043C2195 868.955 2130.81 804.765 2049.72 772.768C1927.3 724.441 1635.83 735.284 1500 735.284C1364.17 735.284 1072.99 724.033 950.218 772.768C869.129 804.765 804.94 868.955 772.943 950.043C724.674 1072.46 735.459 1364.23 735.459 1499.94C735.459 1635.65 724.674 1927.07 773.176 2049.9C805.173 2130.99 869.363 2195.18 950.451 2227.17C1072.87 2275.5 1364.35 2264.66 1500.23 2264.66C1636.12 2264.66 1927.19 2275.91 2049.96 2227.17C2131.05 2195.18 2195.24 2130.99 2227.23 2049.9C2275.91 1927.48 2264.72 1635.71 2264.72 1500C2264.72 1364.29 2275.91 1072.93 2227.23 950.102L2227 950.043ZM1500 1978.02C1236 1978.02 1021.98 1764 1021.98 1500C1021.98 1236 1236 1021.98 1500 1021.98C1764 1021.98 1978.02 1236 1978.02 1500C1978.18 1626.83 1927.86 1748.5 1838.18 1838.18C1748.5 1927.86 1626.83 1978.18 1500 1978.02ZM1997.72 1113.5C1936.09 1113.54 1886.11 1063.59 1886.09 1001.96C1886.07 940.335 1936.02 890.36 1997.65 890.349C2059.28 890.338 2109.24 940.296 2109.24 1001.93C2109.37 1031.53 2097.7 1059.96 2076.82 1080.94C2055.94 1101.92 2027.56 1113.72 1997.96 1113.74L1997.72 1113.5ZM2526 194.188L474.005 194.188C319.466 194.188 194.188 319.466 194.188 474.005L194.188 2526C194.188 2680.53 319.466 2805.81 474.005 2805.81L2526 2805.81C2680.53 2805.81 2805.81 2680.53 2805.81 2526L2805.81 474.005C2805.81 319.466 2680.53 194.188 2526 194.188ZM2426.19 1884.75C2418.67 2034.16 2384.57 2166.55 2275.5 2275.33C2166.43 2384.1 2034.16 2418.91 1884.92 2426.02C1730.97 2434.7 1269.38 2434.7 1115.43 2426.02C966.016 2418.5 834.094 2384.34 724.849 2275.33C615.604 2166.31 581.268 2033.87 574.156 1884.75C565.47 1730.73 565.47 1269.09 574.156 1115.25C581.676 965.841 615.371 833.453 724.849 724.674C834.327 615.895 966.599 581.501 1115.43 574.389C1269.38 565.703 1730.97 565.703 1884.92 574.389C2034.33 581.909 2166.66 616.07 2275.5 725.082C2384.34 834.094 2419.08 966.541 2426.19 1115.95C2434.88 1269.38 2434.88 1730.62 2426.19 1884.75Z" fill="url(#LinearGradient)" fill-rule="nonzero" opacity="1" stroke="none"/> </g> </svg>