<?xml version="1.0" ?><!DOCTYPE svg PUBLIC "-//W3C//DTD SVG 1.1//EN" "http://www.w3.org/Graphics/SVG/1.1/DTD/svg11.dtd"><svg xmlns="http://www.w3.org/2000/svg" xmlns:xlink="http://www.w3.org/1999/xlink"><symbol viewBox="0 0 32 32" id="3706875-control-control-sound-control-volum_108699" xmlns="http://www.w3.org/2000/svg">
    <title/>
    <g id="avolumeControl">
        <path d="M6,32H4a2,2,0,0,1-2-2V9.72l1.5.86a2.89,2.89,0,0,0,3,0L8,9.72V30A2,2,0,0,1,6,32ZM4,12.89V30H6V12.89A4.81,4.81,0,0,1,4,12.89Z"/>
        <path d="M8,6.28,6.5,5.42a2.89,2.89,0,0,0-3,0L2,6.28V2A2,2,0,0,1,4,0H6A2,2,0,0,1,8,2ZM5,3a4.86,4.86,0,0,1,1,.11V2H4V3.11A4.86,4.86,0,0,1,5,3Z"/>
        <path d="M17,32H15a2,2,0,0,1-2-2V25.72l1.5.86a2.89,2.89,0,0,0,3,0l1.5-.86V30A2,2,0,0,1,17,32Zm-2-3.11V30h2V28.89A4.81,4.81,0,0,1,15,28.89Z"/>
        <path d="M19,22.28l-1.5-.86a2.89,2.89,0,0,0-3,0l-1.5.86V2a2,2,0,0,1,2-2h2a2,2,0,0,1,2,2ZM16,19a4.86,4.86,0,0,1,1,.11V2H15V19.11A4.86,4.86,0,0,1,16,19Z"/>
        <path d="M28,32H26a2,2,0,0,1-2-2V13.72l1.5.86a2.89,2.89,0,0,0,3,0l1.5-.86V30A2,2,0,0,1,28,32ZM26,16.89V30h2V16.89A4.81,4.81,0,0,1,26,16.89Z"/>
        <path d="M30,10.28l-1.5-.86a2.89,2.89,0,0,0-3,0l-1.5.86V2a2,2,0,0,1,2-2h2a2,2,0,0,1,2,2ZM27,7a4.86,4.86,0,0,1,1,.11V2H26V7.11A4.86,4.86,0,0,1,27,7Z"/>
        <path d="M5,13a5,5,0,1,1,5-5A5,5,0,0,1,5,13ZM5,5A3,3,0,1,0,8,8,3,3,0,0,0,5,5Z"/>
        <path d="M16,29a5,5,0,1,1,5-5A5,5,0,0,1,16,29Zm0-8a3,3,0,1,0,3,3A3,3,0,0,0,16,21Z"/>
        <path d="M27,17a5,5,0,1,1,5-5A5,5,0,0,1,27,17Zm0-8a3,3,0,1,0,3,3A3,3,0,0,0,27,9Z"/>
    </g>
</symbol><symbol id="arrow-up" viewBox="0 0 24 24" xmlns="http://www.w3.org/2000/svg">
    <path d="M12,0C5.383,0,0,5.383,0,12s5.383,12,12,12,12-5.383,12-12S18.617,0,12,0Zm4.361,12h-3.361v5c0,.552-.448,1-1,1s-1-.448-1-1v-5h-3.361c-.695,0-1.044-.852-.552-1.35l4.361-4.418c.305-.309,.799-.309,1.104,0l4.361,4.418c.492,.498,.143,1.35-.552,1.35Z"/>
</symbol><symbol viewBox="0 0 24 24" id="close" xmlns="http://www.w3.org/2000/svg">
    <g id="cSVGRepo_bgCarrier" stroke-width="0"/>
    <g id="cSVGRepo_tracerCarrier" stroke-linecap="round" stroke-linejoin="round"/>
    <g id="cSVGRepo_iconCarrier">
        <title>Close</title>
        <g id="cPage-1" stroke-width="1" fill-rule="evenodd">
            <g id="cClose">
                <rect id="cRectangle" fill-rule="nonzero" x="0" y="0" width="24" height="24"/>
                <line x1="16.9999" y1="7" x2="7.00001" y2="16.9999" id="cPath" stroke-width="2" stroke-linecap="round"/>
                <line x1="7.00006" y1="7" x2="17" y2="16.9999" id="cPath" stroke-width="2" stroke-linecap="round"/>
            </g>
        </g>
    </g>
</symbol><symbol id="complex-protection" style="enable-background:new 0 0 512 512" viewBox="0 0 512 512" xml:space="preserve" xmlns="http://www.w3.org/2000/svg">
    <style type="text/css">.dst0{fill:#2B79C2;}.dst1{fill:#3B4652;}.st2{fill:#333333;}</style>
    <g>
        <path class="dst1" d="M434,195.6c0-0.1,0-0.2,0-0.3v-0.1c0-2.8-1.4-5.3-3.8-6.8l-170-105.9c0,0-0.1,0-0.1-0.1   c-0.3-0.2-0.5-0.3-0.8-0.4c0,0-0.1,0-0.1-0.1c-0.3-0.1-0.6-0.2-1-0.3c-0.1,0-0.1,0-0.2,0c-0.3-0.1-0.5-0.1-0.8-0.2   c-0.1,0-0.2,0-0.2,0c-0.3,0-0.7-0.1-1-0.1s-0.7,0-1,0.1c-0.1,0-0.2,0-0.2,0c-0.3,0-0.5,0.1-0.8,0.2c-0.1,0-0.1,0-0.2,0   c-0.3,0.1-0.6,0.2-1,0.3c0,0-0.1,0-0.1,0.1c-0.3,0.1-0.5,0.3-0.8,0.4c0,0-0.1,0-0.1,0.1l-170,105.9c-2.3,1.5-3.8,4-3.8,6.8v0.1   c0,0.1,0,0.2,0,0.3c0.1,2.3,0,5.8-0.1,10.2c-0.4,25.5-1.4,78.7,20.1,133.1c26.8,67.9,79.1,114.6,155.6,138.8   c0.4,0.1,0.7,0.2,1.1,0.3c0.1,0,0.2,0,0.2,0c0.4,0,0.7,0.1,1.1,0.1s0.7,0,1.1-0.1c0.1,0,0.2,0,0.2,0c0.4-0.1,0.7-0.1,1.1-0.3   c76.4-24.2,128.7-70.9,155.5-138.8c21.5-54.4,20.6-107.6,20.1-133.1C434,201.4,434,197.9,434,195.6z M248,459   C146.7,422.9,111.6,348.9,99.7,287.7H248V459z M415,271.7H264v-168l154,95.9c0,1.9,0.1,4,0.1,6.4   C418.4,220.8,418.8,244.4,415,271.7z"/>
        <path class="dst0" d="M494,185.1l-89.7-57.6V65c0-5.3-4.3-9.7-9.7-9.7H364c-5.3,0-9.7,4.3-9.7,9.7v30.5l-94-60.3   c-2.5-1.6-5.6-1.7-8.2-0.3c-0.3,0.2-0.7,0.4-1,0.6L18,185.2c-3.7,2.4-4.8,7.3-2.4,11.1c1.5,2.4,4.1,3.7,6.7,3.7   c1.5,0,3-0.4,4.3-1.3L256,51.4l229.3,147.2c3.7,2.4,8.7,1.3,11.1-2.4S497.7,187.5,494,185.1z"/>
    </g>
</symbol><symbol class="ficon" viewBox="0 0 1024 1024" id="control" xmlns="http://www.w3.org/2000/svg">
    <path d="M880 112H144c-17.7 0-32 14.3-32 32v736c0 17.7 14.3 32 32 32h736c17.7 0 32-14.3 32-32V144c0-17.7-14.3-32-32-32zm-40 728H184V184h656v656zM340 683v77c0 4.4 3.6 8 8 8h48c4.4 0 8-3.6 8-8v-77c-10.1 3.3-20.8 5-32 5s-21.9-1.8-32-5zm64-198V264c0-4.4-3.6-8-8-8h-48c-4.4 0-8 3.6-8 8v221c10.1-3.3 20.8-5 32-5s21.9 1.8 32 5zm-64 198c10.1 3.3 20.8 5 32 5s21.9-1.8 32-5c41.8-13.5 72-52.7 72-99s-30.2-85.5-72-99c-10.1-3.3-20.8-5-32-5s-21.9 1.8-32 5c-41.8 13.5-72 52.7-72 99s30.2 85.5 72 99zm.1-115.7c.3-.6.7-1.2 1-1.8v-.1l1.2-1.8c.1-.2.2-.3.3-.5.3-.5.7-.9 1-1.4.1-.1.2-.3.3-.4.5-.6.9-1.1 1.4-1.6l.3-.3 1.2-1.2.4-.4c.5-.5 1-.9 1.6-1.4.6-.5 1.1-.9 1.7-1.3.2-.1.3-.2.5-.3.5-.3.9-.7 1.4-1 .1-.1.3-.2.4-.3.6-.4 1.2-.7 1.9-1.1.1-.1.3-.1.4-.2.5-.3 1-.5 1.6-.8l.6-.3c.7-.3 1.3-.6 2-.8.7-.3 1.4-.5 2.1-.7.2-.1.4-.1.6-.2.6-.2 1.1-.3 1.7-.4.2 0 .3-.1.5-.1.7-.2 1.5-.3 2.2-.4.2 0 .3 0 .5-.1.6-.1 1.2-.1 1.8-.2h.6c.8 0 1.5-.1 2.3-.1s1.5 0 2.3.1h.6c.6 0 1.2.1 1.8.2.2 0 .3 0 .5.1.7.1 1.5.2 2.2.4.2 0 .3.1.5.1.6.1 1.2.3 1.7.4.2.1.4.1.6.2.7.2 1.4.4 2.1.7.7.2 1.3.5 2 .8l.6.3c.5.2 1.1.5 1.6.8.1.1.3.1.4.2.6.3 1.3.7 1.9 1.1.1.1.3.2.4.3.5.3 1 .6 1.4 1 .2.1.3.2.5.3.6.4 1.2.9 1.7 1.3s1.1.9 1.6 1.4l.4.4 1.2 1.2.3.3c.5.5 1 1.1 1.4 1.6.1.1.2.3.3.4.4.4.7.9 1 1.4.1.2.2.3.3.5l1.2 1.8s0 .1.1.1a36.18 36.18 0 0 1 5.1 18.5c0 6-1.5 11.7-4.1 16.7-.3.6-.7 1.2-1 1.8 0 0 0 .1-.1.1l-1.2 1.8c-.1.2-.2.3-.3.5-.3.5-.7.9-1 1.4-.1.1-.2.3-.3.4-.5.6-.9 1.1-1.4 1.6l-.3.3-1.2 1.2-.4.4c-.5.5-1 .9-1.6 1.4-.6.5-1.1.9-1.7 1.3-.2.1-.3.2-.5.3-.5.3-.9.7-1.4 1-.1.1-.3.2-.4.3-.6.4-1.2.7-1.9 1.1-.1.1-.3.1-.4.2-.5.3-1 .5-1.6.8l-.6.3c-.7.3-1.3.6-2 .8-.7.3-1.4.5-2.1.7-.2.1-.4.1-.6.2-.6.2-1.1.3-1.7.4-.2 0-.3.1-.5.1-.7.2-1.5.3-2.2.4-.2 0-.3 0-.5.1-.6.1-1.2.1-1.8.2h-.6c-.8 0-1.5.1-2.3.1s-1.5 0-2.3-.1h-.6c-.6 0-1.2-.1-1.8-.2-.2 0-.3 0-.5-.1-.7-.1-1.5-.2-2.2-.4-.2 0-.3-.1-.5-.1-.6-.1-1.2-.3-1.7-.4-.2-.1-.4-.1-.6-.2-.7-.2-1.4-.4-2.1-.7-.7-.2-1.3-.5-2-.8l-.6-.3c-.5-.2-1.1-.5-1.6-.8-.1-.1-.3-.1-.4-.2-.6-.3-1.3-.7-1.9-1.1-.1-.1-.3-.2-.4-.3-.5-.3-1-.6-1.4-1-.2-.1-.3-.2-.5-.3-.6-.4-1.2-.9-1.7-1.3s-1.1-.9-1.6-1.4l-.4-.4-1.2-1.2-.3-.3c-.5-.5-1-1.1-1.4-1.6-.1-.1-.2-.3-.3-.4-.4-.4-.7-.9-1-1.4-.1-.2-.2-.3-.3-.5l-1.2-1.8v-.1c-.4-.6-.7-1.2-1-1.8-2.6-5-4.1-10.7-4.1-16.7s1.5-11.7 4.1-16.7zM620 539v221c0 4.4 3.6 8 8 8h48c4.4 0 8-3.6 8-8V539c-10.1 3.3-20.8 5-32 5s-21.9-1.8-32-5zm64-198v-77c0-4.4-3.6-8-8-8h-48c-4.4 0-8 3.6-8 8v77c10.1-3.3 20.8-5 32-5s21.9 1.8 32 5zm-64 198c10.1 3.3 20.8 5 32 5s21.9-1.8 32-5c41.8-13.5 72-52.7 72-99s-30.2-85.5-72-99c-10.1-3.3-20.8-5-32-5s-21.9 1.8-32 5c-41.8 13.5-72 52.7-72 99s30.2 85.5 72 99zm.1-115.7c.3-.6.7-1.2 1-1.8v-.1l1.2-1.8c.1-.2.2-.3.3-.5.3-.5.7-.9 1-1.4.1-.1.2-.3.3-.4.5-.6.9-1.1 1.4-1.6l.3-.3 1.2-1.2.4-.4c.5-.5 1-.9 1.6-1.4.6-.5 1.1-.9 1.7-1.3.2-.1.3-.2.5-.3.5-.3.9-.7 1.4-1 .1-.1.3-.2.4-.3.6-.4 1.2-.7 1.9-1.1.1-.1.3-.1.4-.2.5-.3 1-.5 1.6-.8l.6-.3c.7-.3 1.3-.6 2-.8.7-.3 1.4-.5 2.1-.7.2-.1.4-.1.6-.2.6-.2 1.1-.3 1.7-.4.2 0 .3-.1.5-.1.7-.2 1.5-.3 2.2-.4.2 0 .3 0 .5-.1.6-.1 1.2-.1 1.8-.2h.6c.8 0 1.5-.1 2.3-.1s1.5 0 2.3.1h.6c.6 0 1.2.1 1.8.2.2 0 .3 0 .5.1.7.1 1.5.2 2.2.4.2 0 .3.1.5.1.6.1 1.2.3 1.7.4.2.1.4.1.6.2.7.2 1.4.4 2.1.7.7.2 1.3.5 2 .8l.6.3c.5.2 1.1.5 1.6.8.1.1.3.1.4.2.6.3 1.3.7 1.9 1.1.1.1.3.2.4.3.5.3 1 .6 1.4 1 .2.1.3.2.5.3.6.4 1.2.9 1.7 1.3s1.1.9 1.6 1.4l.4.4 1.2 1.2.3.3c.5.5 1 1.1 1.4 1.6.1.1.2.3.3.4.4.4.7.9 1 1.4.1.2.2.3.3.5l1.2 1.8v.1a36.18 36.18 0 0 1 5.1 18.5c0 6-1.5 11.7-4.1 16.7-.3.6-.7 1.2-1 1.8v.1l-1.2 1.8c-.1.2-.2.3-.3.5-.3.5-.7.9-1 1.4-.1.1-.2.3-.3.4-.5.6-.9 1.1-1.4 1.6l-.3.3-1.2 1.2-.4.4c-.5.5-1 .9-1.6 1.4-.6.5-1.1.9-1.7 1.3-.2.1-.3.2-.5.3-.5.3-.9.7-1.4 1-.1.1-.3.2-.4.3-.6.4-1.2.7-1.9 1.1-.1.1-.3.1-.4.2-.5.3-1 .5-1.6.8l-.6.3c-.7.3-1.3.6-2 .8-.7.3-1.4.5-2.1.7-.2.1-.4.1-.6.2-.6.2-1.1.3-1.7.4-.2 0-.3.1-.5.1-.7.2-1.5.3-2.2.4-.2 0-.3 0-.5.1-.6.1-1.2.1-1.8.2h-.6c-.8 0-1.5.1-2.3.1s-1.5 0-2.3-.1h-.6c-.6 0-1.2-.1-1.8-.2-.2 0-.3 0-.5-.1-.7-.1-1.5-.2-2.2-.4-.2 0-.3-.1-.5-.1-.6-.1-1.2-.3-1.7-.4-.2-.1-.4-.1-.6-.2-.7-.2-1.4-.4-2.1-.7-.7-.2-1.3-.5-2-.8l-.6-.3c-.5-.2-1.1-.5-1.6-.8-.1-.1-.3-.1-.4-.2-.6-.3-1.3-.7-1.9-1.1-.1-.1-.3-.2-.4-.3-.5-.3-1-.6-1.4-1-.2-.1-.3-.2-.5-.3-.6-.4-1.2-.9-1.7-1.3s-1.1-.9-1.6-1.4l-.4-.4-1.2-1.2-.3-.3c-.5-.5-1-1.1-1.4-1.6-.1-.1-.2-.3-.3-.4-.4-.4-.7-.9-1-1.4-.1-.2-.2-.3-.3-.5l-1.2-1.8v-.1c-.4-.6-.7-1.2-1-1.8-2.6-5-4.1-10.7-4.1-16.7s1.5-11.7 4.1-16.7z"/>
</symbol><symbol viewBox="0 0 1024 1024" class="eicon" id="control-svgrepo-com" xmlns="http://www.w3.org/2000/svg">
    <path d="M880 112H144c-17.7 0-32 14.3-32 32v736c0 17.7 14.3 32 32 32h736c17.7 0 32-14.3 32-32V144c0-17.7-14.3-32-32-32zm-40 728H184V184h656v656zM340 683v77c0 4.4 3.6 8 8 8h48c4.4 0 8-3.6 8-8v-77c-10.1 3.3-20.8 5-32 5s-21.9-1.8-32-5zm64-198V264c0-4.4-3.6-8-8-8h-48c-4.4 0-8 3.6-8 8v221c10.1-3.3 20.8-5 32-5s21.9 1.8 32 5zm-64 198c10.1 3.3 20.8 5 32 5s21.9-1.8 32-5c41.8-13.5 72-52.7 72-99s-30.2-85.5-72-99c-10.1-3.3-20.8-5-32-5s-21.9 1.8-32 5c-41.8 13.5-72 52.7-72 99s30.2 85.5 72 99zm.1-115.7c.3-.6.7-1.2 1-1.8v-.1l1.2-1.8c.1-.2.2-.3.3-.5.3-.5.7-.9 1-1.4.1-.1.2-.3.3-.4.5-.6.9-1.1 1.4-1.6l.3-.3 1.2-1.2.4-.4c.5-.5 1-.9 1.6-1.4.6-.5 1.1-.9 1.7-1.3.2-.1.3-.2.5-.3.5-.3.9-.7 1.4-1 .1-.1.3-.2.4-.3.6-.4 1.2-.7 1.9-1.1.1-.1.3-.1.4-.2.5-.3 1-.5 1.6-.8l.6-.3c.7-.3 1.3-.6 2-.8.7-.3 1.4-.5 2.1-.7.2-.1.4-.1.6-.2.6-.2 1.1-.3 1.7-.4.2 0 .3-.1.5-.1.7-.2 1.5-.3 2.2-.4.2 0 .3 0 .5-.1.6-.1 1.2-.1 1.8-.2h.6c.8 0 1.5-.1 2.3-.1s1.5 0 2.3.1h.6c.6 0 1.2.1 1.8.2.2 0 .3 0 .5.1.7.1 1.5.2 2.2.4.2 0 .3.1.5.1.6.1 1.2.3 1.7.4.2.1.4.1.6.2.7.2 1.4.4 2.1.7.7.2 1.3.5 2 .8l.6.3c.5.2 1.1.5 1.6.8.1.1.3.1.4.2.6.3 1.3.7 1.9 1.1.1.1.3.2.4.3.5.3 1 .6 1.4 1 .2.1.3.2.5.3.6.4 1.2.9 1.7 1.3s1.1.9 1.6 1.4l.4.4 1.2 1.2.3.3c.5.5 1 1.1 1.4 1.6.1.1.2.3.3.4.4.4.7.9 1 1.4.1.2.2.3.3.5l1.2 1.8s0 .1.1.1a36.18 36.18 0 0 1 5.1 18.5c0 6-1.5 11.7-4.1 16.7-.3.6-.7 1.2-1 1.8 0 0 0 .1-.1.1l-1.2 1.8c-.1.2-.2.3-.3.5-.3.5-.7.9-1 1.4-.1.1-.2.3-.3.4-.5.6-.9 1.1-1.4 1.6l-.3.3-1.2 1.2-.4.4c-.5.5-1 .9-1.6 1.4-.6.5-1.1.9-1.7 1.3-.2.1-.3.2-.5.3-.5.3-.9.7-1.4 1-.1.1-.3.2-.4.3-.6.4-1.2.7-1.9 1.1-.1.1-.3.1-.4.2-.5.3-1 .5-1.6.8l-.6.3c-.7.3-1.3.6-2 .8-.7.3-1.4.5-2.1.7-.2.1-.4.1-.6.2-.6.2-1.1.3-1.7.4-.2 0-.3.1-.5.1-.7.2-1.5.3-2.2.4-.2 0-.3 0-.5.1-.6.1-1.2.1-1.8.2h-.6c-.8 0-1.5.1-2.3.1s-1.5 0-2.3-.1h-.6c-.6 0-1.2-.1-1.8-.2-.2 0-.3 0-.5-.1-.7-.1-1.5-.2-2.2-.4-.2 0-.3-.1-.5-.1-.6-.1-1.2-.3-1.7-.4-.2-.1-.4-.1-.6-.2-.7-.2-1.4-.4-2.1-.7-.7-.2-1.3-.5-2-.8l-.6-.3c-.5-.2-1.1-.5-1.6-.8-.1-.1-.3-.1-.4-.2-.6-.3-1.3-.7-1.9-1.1-.1-.1-.3-.2-.4-.3-.5-.3-1-.6-1.4-1-.2-.1-.3-.2-.5-.3-.6-.4-1.2-.9-1.7-1.3s-1.1-.9-1.6-1.4l-.4-.4-1.2-1.2-.3-.3c-.5-.5-1-1.1-1.4-1.6-.1-.1-.2-.3-.3-.4-.4-.4-.7-.9-1-1.4-.1-.2-.2-.3-.3-.5l-1.2-1.8v-.1c-.4-.6-.7-1.2-1-1.8-2.6-5-4.1-10.7-4.1-16.7s1.5-11.7 4.1-16.7zM620 539v221c0 4.4 3.6 8 8 8h48c4.4 0 8-3.6 8-8V539c-10.1 3.3-20.8 5-32 5s-21.9-1.8-32-5zm64-198v-77c0-4.4-3.6-8-8-8h-48c-4.4 0-8 3.6-8 8v77c10.1-3.3 20.8-5 32-5s21.9 1.8 32 5zm-64 198c10.1 3.3 20.8 5 32 5s21.9-1.8 32-5c41.8-13.5 72-52.7 72-99s-30.2-85.5-72-99c-10.1-3.3-20.8-5-32-5s-21.9 1.8-32 5c-41.8 13.5-72 52.7-72 99s30.2 85.5 72 99zm.1-115.7c.3-.6.7-1.2 1-1.8v-.1l1.2-1.8c.1-.2.2-.3.3-.5.3-.5.7-.9 1-1.4.1-.1.2-.3.3-.4.5-.6.9-1.1 1.4-1.6l.3-.3 1.2-1.2.4-.4c.5-.5 1-.9 1.6-1.4.6-.5 1.1-.9 1.7-1.3.2-.1.3-.2.5-.3.5-.3.9-.7 1.4-1 .1-.1.3-.2.4-.3.6-.4 1.2-.7 1.9-1.1.1-.1.3-.1.4-.2.5-.3 1-.5 1.6-.8l.6-.3c.7-.3 1.3-.6 2-.8.7-.3 1.4-.5 2.1-.7.2-.1.4-.1.6-.2.6-.2 1.1-.3 1.7-.4.2 0 .3-.1.5-.1.7-.2 1.5-.3 2.2-.4.2 0 .3 0 .5-.1.6-.1 1.2-.1 1.8-.2h.6c.8 0 1.5-.1 2.3-.1s1.5 0 2.3.1h.6c.6 0 1.2.1 1.8.2.2 0 .3 0 .5.1.7.1 1.5.2 2.2.4.2 0 .3.1.5.1.6.1 1.2.3 1.7.4.2.1.4.1.6.2.7.2 1.4.4 2.1.7.7.2 1.3.5 2 .8l.6.3c.5.2 1.1.5 1.6.8.1.1.3.1.4.2.6.3 1.3.7 1.9 1.1.1.1.3.2.4.3.5.3 1 .6 1.4 1 .2.1.3.2.5.3.6.4 1.2.9 1.7 1.3s1.1.9 1.6 1.4l.4.4 1.2 1.2.3.3c.5.5 1 1.1 1.4 1.6.1.1.2.3.3.4.4.4.7.9 1 1.4.1.2.2.3.3.5l1.2 1.8v.1a36.18 36.18 0 0 1 5.1 18.5c0 6-1.5 11.7-4.1 16.7-.3.6-.7 1.2-1 1.8v.1l-1.2 1.8c-.1.2-.2.3-.3.5-.3.5-.7.9-1 1.4-.1.1-.2.3-.3.4-.5.6-.9 1.1-1.4 1.6l-.3.3-1.2 1.2-.4.4c-.5.5-1 .9-1.6 1.4-.6.5-1.1.9-1.7 1.3-.2.1-.3.2-.5.3-.5.3-.9.7-1.4 1-.1.1-.3.2-.4.3-.6.4-1.2.7-1.9 1.1-.1.1-.3.1-.4.2-.5.3-1 .5-1.6.8l-.6.3c-.7.3-1.3.6-2 .8-.7.3-1.4.5-2.1.7-.2.1-.4.1-.6.2-.6.2-1.1.3-1.7.4-.2 0-.3.1-.5.1-.7.2-1.5.3-2.2.4-.2 0-.3 0-.5.1-.6.1-1.2.1-1.8.2h-.6c-.8 0-1.5.1-2.3.1s-1.5 0-2.3-.1h-.6c-.6 0-1.2-.1-1.8-.2-.2 0-.3 0-.5-.1-.7-.1-1.5-.2-2.2-.4-.2 0-.3-.1-.5-.1-.6-.1-1.2-.3-1.7-.4-.2-.1-.4-.1-.6-.2-.7-.2-1.4-.4-2.1-.7-.7-.2-1.3-.5-2-.8l-.6-.3c-.5-.2-1.1-.5-1.6-.8-.1-.1-.3-.1-.4-.2-.6-.3-1.3-.7-1.9-1.1-.1-.1-.3-.2-.4-.3-.5-.3-1-.6-1.4-1-.2-.1-.3-.2-.5-.3-.6-.4-1.2-.9-1.7-1.3s-1.1-.9-1.6-1.4l-.4-.4-1.2-1.2-.3-.3c-.5-.5-1-1.1-1.4-1.6-.1-.1-.2-.3-.3-.4-.4-.4-.7-.9-1-1.4-.1-.2-.2-.3-.3-.5l-1.2-1.8v-.1c-.4-.6-.7-1.2-1-1.8-2.6-5-4.1-10.7-4.1-16.7s1.5-11.7 4.1-16.7z"/>
</symbol><symbol id="control_panel_icon_125317" viewBox="-249 151 100 100" style="enable-background:new -249 151 100 100" xml:space="preserve" xmlns="http://www.w3.org/2000/svg">
    <g>
        <path d="M-241.9,154.3v93.2c0,1.4,1.1,2.5,2.5,2.5h80.8c1.4,0,2.5-1.1,2.5-2.5v-93.2c0-1.4-1.1-2.5-2.5-2.5h-80.8   C-240.8,151.8-241.9,153-241.9,154.3z M-161.1,245h-75.8v-88.2h75.8V245z"/>
        <path d="M-218.2,185.1h12.7v-6.6h31.1c1.4,0,2.5-1.1,2.5-2.5l0,0c0-1.4-1.1-2.5-2.5-2.5h-31.1v-5.2c0-1.4-1.1-2.5-2.5-2.5h-7.7   c-1.4,0-2.5,1.1-2.5,2.5v5.2h-5.4c-1.4,0-2.5,1.1-2.5,2.5l0,0c0,1.4,1.1,2.5,2.5,2.5h5.4V185.1z M-213.2,178.4v-5v-2.7h2.7v2.7v5   v1.6h-2.7V178.4z"/>
        <path d="M-186.7,211.1h7.7c1.4,0,2.5-1.1,2.5-2.5v-5.1h2.1c1.4,0,2.5-1.1,2.5-2.5l0,0c0-1.4-1.1-2.5-2.5-2.5h-2.1v-4.2   c0-1.4-1.1-2.5-2.5-2.5h-7.7c-1.4,0-2.5,1.1-2.5,2.5v4.2h-34.4c-1.4,0-2.5,1.1-2.5,2.5l0,0c0,1.4,1.1,2.5,2.5,2.5h34.4v5.1   C-189.2,210-188,211.1-186.7,211.1z M-184.2,203.4v-5v-1.7h2.7v1.7v5v2.6h-2.7V203.4z"/>
        <path d="M-205.7,236.1h7.7c1.4,0,2.5-1.1,2.5-2.5v-5.1h21.1c1.4,0,2.5-1.1,2.5-2.5l0,0c0-1.4-1.1-2.5-2.5-2.5h-21.1v-4.2   c0-1.4-1.1-2.5-2.5-2.5h-7.7c-1.4,0-2.5,1.1-2.5,2.5v4.2h-15.4c-1.4,0-2.5,1.1-2.5,2.5l0,0c0,1.4,1.1,2.5,2.5,2.5h15.4v5.1   C-208.2,235-207,236.1-205.7,236.1z M-203.2,228.4v-5v-1.7h2.7v1.7v5v2.6h-2.7V228.4z"/>
    </g>
</symbol><symbol viewBox="0 0 1920 1920" id="email" xmlns="http://www.w3.org/2000/svg">
    <path d="M1920 428.266v1189.54l-464.16-580.146-88.203 70.585 468.679 585.904H83.684l468.679-585.904-88.202-70.585L0 1617.805V428.265l959.944 832.441L1920 428.266ZM1919.932 226v52.627l-959.943 832.44L.045 278.628V226h1919.887Z" fill-rule="evenodd"/>
</symbol><symbol id="emergency" viewBox="0 0 16.933334 16.933333" xmlns="http://www.w3.org/2000/svg">
    <defs id="idefs973"/>
    <sodipodi:namedview xmlns:inkscape="http://www.inkscape.org/namespaces/inkscape" inkscape:snap-nodes="false" inkscape:bbox-nodes="true" inkscape:snap-bbox="true" inkscape:document-rotation="0" inkscape:window-maximized="1" inkscape:window-y="-8" inkscape:window-x="-8" inkscape:window-height="715" inkscape:window-width="1366" units="pt" showgrid="false" inkscape:current-layer="layer1" inkscape:document-units="pt" inkscape:cy="23.300758" inkscape:cx="7.3002642" inkscape:zoom="6.0435533" inkscape:pageshadow="2" inkscape:pageopacity="0.0" borderopacity="1.0" bordercolor="#666666" pagecolor="#ffffff" id="ibase" xmlns:sodipodi="http://sodipodi.sourceforge.net/DTD/sodipodi-0.dtd">
        <inkscape:grid id="igrid1526" type="xygrid"/>
        <sodipodi:guide inkscape:locked="false" id="iguide1528" orientation="56.666615,0" position="0.97013909,15.963209"/>
        <sodipodi:guide inkscape:locked="false" id="iguide1530" orientation="0,56.666667" position="0.97013909,0.97016731"/>
        <sodipodi:guide inkscape:locked="false" id="iguide1532" orientation="-56.666615,0" position="15.963195,0.97016731"/>
        <sodipodi:guide inkscape:locked="false" id="iguide1534" orientation="0,-56.666667" position="15.963195,15.963209"/>
    </sodipodi:namedview>
    <metadata id="imetadata976">
        <rdf:RDF xmlns:rdf="http://www.w3.org/1999/02/22-rdf-syntax-ns#">
            <cc:Work rdf:about="" xmlns:cc="http://creativecommons.org/ns#">
                <dc:format xmlns:dc="http://purl.org/dc/elements/1.1/">
                    image/svg+xml
                </dc:format>
                <dc:type rdf:resource="http://purl.org/dc/dcmitype/StillImage" xmlns:dc="http://purl.org/dc/elements/1.1/"/>
                <dc:title xmlns:dc="http://purl.org/dc/elements/1.1/"/>
            </cc:Work>
        </rdf:RDF>
    </metadata>
    <g transform="translate(0,-280.06668)" id="ilayer1" xmlns:inkscape="http://www.inkscape.org/namespaces/inkscape" inkscape:groupmode="layer" inkscape:label="Layer 1">
        <path d="m 1.529889,282.64376 c -0.00715,-3e-5 -0.014296,1.9e-4 -0.02143,6.4e-4 -0.1002334,0.006 -0.1917961,0.059 -0.247697,0.14245 -0.09953,0.14807 -0.060002,0.34883 0.088238,0.44812 l 1.9368268,1.29143 c 0.148615,0.0985 0.3490403,0.0579 0.4474933,-0.0907 0.097444,-0.14808 0.057203,-0.34703 -0.090129,-0.4456 L 1.7088853,282.6993 C 1.6560193,282.6636 1.593727,282.6442 1.529888,282.6438 Z m 13.876074,6.4e-4 c -0.06442,-1.8e-4 -0.127415,0.0189 -0.180887,0.0549 l -1.934305,1.29079 c -0.147552,0.0983 -0.18808,0.29736 -0.09075,0.4456 0.09849,0.14912 0.299384,0.1898 0.448123,0.0907 l 1.936825,-1.29142 c 0.148023,-0.0995 0.187263,-0.30021 0.08761,-0.44813 -0.05976,-0.0888 -0.159619,-0.14209 -0.266607,-0.14244 z m -9.1175173,0.64541 c -0.7489464,0 -1.3926854,0.53174 -1.5328231,1.26747 l -1.613497,5.86595 c -0.1189831,0.62466 0.3316994,1.19914 0.9504505,1.25675 H 2.6580765 c -0.3564431,0 -0.6453989,0.49073 -0.6453989,1.09668 v 0.54897 c 0,0.60598 0.2889558,1.0973 0.6453989,1.0973 H 13.952557 c 0.356444,0 0.645399,-0.49132 0.645399,-1.0973 v -0.54897 c 0,-0.60595 -0.288955,-1.09668 -0.645399,-1.09668 h -1.433241 c 0.61837,-0.0579 1.068132,-0.63231 0.949192,-1.25675 l -1.371473,-5.86595 c -0.140139,-0.73573 -0.783879,-1.26747 -1.532822,-1.26747 z m 0.8470856,0.96683 c 0.1792083,-7.1e-4 0.3246578,0.14476 0.3239577,0.32396 -3.232e-4,0.17847 -0.1454922,0.32277 -0.3239577,0.32207 -0.5960484,0 -1.103638,0.41977 -1.2151654,1.00529 -0.00195,0.009 -0.00427,0.0173 -0.00695,0.0259 l -1.0223015,3.72365 c -0.048052,0.17159 -0.2260958,0.27176 -0.3977018,0.22375 -0.1713525,-0.047 -0.2724971,-0.22363 -0.2262679,-0.39518 l 1.0241929,-3.72366 -0.00439,0.0265 c 0.1687461,-0.88592 0.9467482,-1.5322 1.8485901,-1.5322 z m 1.1691554,0 h 1.2914278 c 0.179207,-7.1e-4 0.3246577,0.14476 0.3239576,0.32396 -3.232e-4,0.17847 -0.1454922,0.32277 -0.3239576,0.32207 H 8.3046867 c -0.1774837,-6.8e-4 -0.3210952,-0.14459 -0.3214404,-0.32207 -6.452e-4,-0.17823 0.1432176,-0.32327 0.3214404,-0.32396 z m -6.8416065,1.29142 c -0.1782166,7.2e-4 -0.3221279,0.14574 -0.321439,0.32396 6.777e-4,0.17724 0.1442002,0.32074 0.321439,0.32143 h 1.6796756 c 0.1772387,-6.8e-4 0.320748,-0.14419 0.321439,-0.32143 7.099e-4,-0.17823 -0.1432166,-0.32327 -0.321439,-0.32397 z m 12.3281268,0 c -0.17847,3.6e-4 -0.322768,0.1455 -0.32207,0.32397 6.45e-4,0.17748 0.144585,0.3211 0.32207,0.32144 h 1.679044 c 0.177239,-6.9e-4 0.32075,-0.1442 0.32144,-0.32144 6.46e-4,-0.17823 -0.143216,-0.32327 -0.32144,-0.32397 z m -5.485891,0.32333 c 0.3564443,0 0.6453992,0.28895 0.6453992,0.64541 v 5.16318 H 7.659918 v -5.16318 c 0,-0.35646 0.2889549,-0.64541 0.645398,-0.64541 z m -5.4997559,1.29018 c -0.00589,2.5e-4 -0.011782,6.8e-4 -0.017648,0.001 -0.045456,0.005 -0.089285,0.02 -0.1285754,0.0435 l -1.5271498,0.88112 c -0.15455651,0.0888 -0.20789039,0.28601 -0.1191222,0.44055 0.089622,0.15365 0.2866691,0.20581 0.4405605,0.1166 l 1.5271498,-0.88112 c 0.1545566,-0.0888 0.2078901,-0.28601 0.1191209,-0.44057 -0.06022,-0.10464 -0.1737717,-0.16683 -0.2943355,-0.16134 z m 11.3190599,0.001 c -0.118965,-0.005 -0.230647,0.0572 -0.290556,0.1601 -0.08877,0.15455 -0.03543,0.35179 0.119123,0.44056 l 1.526519,0.88112 c 0.153892,0.0892 0.350939,0.0371 0.440563,-0.1166 0.08877,-0.15454 0.03543,-0.35179 -0.119123,-0.44055 l -1.526517,-0.88112 c -0.04569,-0.0266 -0.09719,-0.0415 -0.150006,-0.0435 z" style="color:#000000;font-style:normal;font-variant:normal;font-weight:normal;font-stretch:normal;font-size:medium;line-height:normal;font-family:sans-serif;font-variant-ligatures:normal;font-variant-position:normal;font-variant-caps:normal;font-variant-numeric:normal;font-variant-alternates:normal;font-variant-east-asian:normal;font-feature-settings:normal;font-variation-settings:normal;text-indent:0;text-align:start;text-decoration:none;text-decoration-line:none;text-decoration-style:solid;text-decoration-color:#000000;letter-spacing:normal;word-spacing:normal;text-transform:none;writing-mode:lr-tb;direction:ltr;text-orientation:mixed;dominant-baseline:auto;baseline-shift:baseline;text-anchor:start;white-space:normal;shape-padding:0;shape-margin:0;inline-size:0;clip-rule:nonzero;display:inline;overflow:visible;visibility:visible;isolation:auto;mix-blend-mode:normal;color-interpolation:sRGB;color-interpolation-filters:linearRGB;solid-color:#000000;solid-opacity:1;vector-effect:none;fill:#000000;fill-opacity:1;fill-rule:nonzero;stroke:none;stroke-width:0.645399;stroke-linecap:round;stroke-linejoin:round;stroke-miterlimit:4;stroke-dasharray:none;stroke-dashoffset:0;stroke-opacity:1;color-rendering:auto;image-rendering:auto;shape-rendering:auto;text-rendering:auto;enable-background:accumulate;stop-color:#000000" id="ipath1491" xmlns:sodipodi="http://sodipodi.sourceforge.net/DTD/sodipodi-0.dtd" sodipodi:nodetypes="ccccccccccccccccccscccsssssssscccssscccccccccssccccccccsccscccsccsccssccssscccccccsscccccccc"/>
    </g>
</symbol><symbol viewBox="0 0 32 32" id="facebook" xml:space="preserve" xmlns="http://www.w3.org/2000/svg">
    <style type="text/css">.jst0{fill-rule:evenodd;clip-rule:evenodd;fill:#FFFFFF;}</style>
    <path d="M6,2h20c2.2,0,4,1.8,4,4v20c0,2.2-1.8,4-4,4H6c-2.2,0-4-1.8-4-4V6C2,3.8,3.8,2,6,2z"/>
    <path class="jst0" d="M13.2,16.1v9.7c0,0.1,0.1,0.3,0.3,0.3h3.9c0.2,0,0.3-0.1,0.3-0.3v-9.8h2.8c0.1,0,0.3-0.1,0.3-0.2l0.3-3  c0-0.2-0.1-0.3-0.3-0.3h-3.1v-2.1c0-0.5,0.4-0.9,1-0.9h2.2c0.2,0,0.3-0.1,0.3-0.3V6.3C21,6.1,20.9,6,20.7,6h-3.6  c-2.1,0-3.9,1.6-3.9,3.6v2.9h-1.9c-0.2,0-0.3,0.1-0.3,0.3v3c0,0.1,0.1,0.3,0.3,0.3h1.9V16.1z"/>
</symbol><symbol viewBox="0 0 24 24" id="football-helmet-svgrepo-com" xmlns="http://www.w3.org/2000/svg">
    <path fill-rule="evenodd" clip-rule="evenodd" d="M5.97014 8.17779C7.26162 8.65722 8.42967 9.62878 8.97582 10.8339C9.12507 11.1632 9.08493 11.5474 8.87084 11.8388C8.83199 11.8917 8.79426 11.9454 8.7577 12H8.76898H8.79479H8.82056H8.84628H8.87195H8.89758H8.92316H8.94868H8.97416H8.99959H9.02496H9.05028H9.07555H9.10077H9.12593H9.15103H9.17607H9.20106H9.226H9.25087H9.27568H9.30043H9.32512H9.34975H9.37432H9.39882H9.42326H9.44763H9.47194H9.49618H9.52035H9.54445H9.56849H9.59245H9.61635H9.64017H9.66392H9.6876H9.7112H9.73473H9.75819H9.78157H9.80487H9.82809H9.85124H9.8743H9.89729H9.92019H9.94302H9.96576H9.98841H10.011H10.0335H10.0559H10.0782H10.1004H10.1226H10.1446H10.1666H10.1885H10.2102H10.2319H10.2535H10.275H10.2965H10.3178H10.339H10.3601H10.3811H10.4021H10.4229H10.4436H10.4643H10.4848H10.5052H10.5255H10.5458H10.5659H10.5859H10.6058H10.6256H10.6453H10.6649H10.6843H10.7037H10.723H10.7421H10.7611H10.78H10.7989H10.8175H10.8361H10.8546H10.8729H10.8911H10.9092H10.9272H10.9451H10.9628H10.9805H10.998H11.0153H11.0326H11.0497H11.0667H11.0836H11.1004H11.117H11.1335H11.1498H11.1661H11.1822H11.1982H11.214H11.2297H11.2453H11.2607H11.2675C11.6133 11.4022 12.2597 11 13 11C14.1045 11 15 11.8954 15 13C15 14.1046 14.1045 15 13 15C12.8335 15 12.6718 14.9797 12.5172 14.9413L10.4922 17.3713C10.4755 17.7616 10.4313 18.1234 10.3571 18.458C10.9943 18.8037 11.7242 19 12.5001 19C13.8971 19 15.1449 18.3646 15.9718 17.3632C16.1618 17.1332 16.4446 17 16.7429 17H19.2454C20.3439 15.63 21 13.8927 21 12C21 7.58172 17.4183 4 13 4C9.9673 4 7.32685 5.68789 5.97014 8.17779ZM9.44862 20.2407C10.3585 20.7253 11.3972 21 12.5001 21C14.3437 21 16.0086 20.2314 17.1905 19H19.7083C19.9928 19 20.2638 18.8789 20.4535 18.6669C22.0363 16.8984 23 14.5605 23 12C23 6.47715 18.5229 2 13 2C8.69964 2 5.03568 4.71401 3.62272 8.51929C3.51439 8.81104 3.54807 9.13661 3.71383 9.40001C3.8796 9.66341 4.15855 9.83462 4.46846 9.86316C5.39892 9.94887 6.35931 10.5204 6.88808 11.2187C6.74151 11.4689 6.61117 11.7298 6.49852 12H6.49105H6.46424H6.43745H6.41069H6.38395H6.35723H6.33054H6.30388H6.27724H6.25063H6.22405H6.1975H6.17098H6.1445H6.11804H6.09161H6.06522H6.03887H6.01254H5.98626H5.96001H5.9338H5.90762H5.88149H5.85539H5.82934H5.80332H5.77735H5.75142H5.72553H5.69969H5.6739H5.64815H5.62244H5.59679H5.57118H5.54562H5.52011H5.49465H5.46925H5.44389H5.41859H5.39334H5.36815H5.34301H5.31793H5.2929H5.26793H5.24302H5.21817H5.19338H5.16865H5.14399H5.11938H5.09484H5.07036H5.04595H5.0216H4.99732H4.9731H4.94895H4.92487H4.90087H4.87693H4.85306H4.82926H4.80554H4.78189H4.75831H4.73481H4.71138H4.68803H4.66476H4.64157H4.61845H4.59542H4.57246H4.54958H4.52679H4.50408H4.48146H4.45891H4.43646H4.41408H4.3918H4.3696H4.34749H4.32547H4.30354H4.2817H4.25995H4.2383H4.21673H4.19526H4.17388H4.1526H4.13142H4.11033H4.08934H4.06845H4.04766H4.02696H4.00637H3.98588H3.96549H3.9452H3.92502H3.90494H3.88497H3.86511H3.84535H3.8257H3.80615H3.78672H3.7674H3.74818H3.72908H3.71009H3.69122H3.67246H3.65381H3.63528H3.61686H3.59857H3.58039H3.56233H3.54438H3.52656H3.50886H3.49128H3.47383H3.45649H3.43929H3.4222H3.40524H3.38841H3.37171H3.35513H3.33869H3.32237H3.30618H3.29012H3.2742H3.25841H3.24275H3.22723H3.21184H3.19659H3.18147H3.16649H3.15165H3.13695H3.12239H3.10797H3.09369H3.07955H3.06556H3.05171H3.038H3.02444H3.01102H2.99776H2.98463H2.97166H2.95884H2.94617H2.93364H2.92127H2.90905H2.89699H2.88508H2.87332H2.86172H2.85027H2.83899H2.82786H2.81688H2.80607H2.79542H2.78493H2.7746H2.76443H2.75443H2.74459H2.73491H2.7254H2.71606H2.70688H2.69787H2.68903H2.68037H2.67187H2.66354H2.65538H2.6474H2.63959H2.63195H2.62449H2.6172H2.61009H2.60316H2.59641H2.58983H2.58344H2.57722H2.57119H2.56534H2.55967H2.55419H2.54889H2.54377H2.53884H2.5341H2.52954H2.52518H2.521H2.51701H2.51322H2.50961H2.5062H2.50297H2.49995C2.10492 12 1.74692 12.2325 1.58632 12.5934C1.27342 13.2966 1.0824 14.2702 0.989671 15.1582C0.896829 16.0473 0.886885 17.0028 1.01771 17.6876C1.22951 18.7964 1.64804 19.7661 2.00391 20.4489C2.18334 20.7931 2.35067 21.0717 2.47505 21.2668C2.53734 21.3646 2.58915 21.4419 2.6267 21.4965C2.64549 21.5238 2.66073 21.5456 2.67197 21.5614L2.68576 21.5807L2.6903 21.5869L2.69196 21.5892L2.69264 21.5901L2.69294 21.5905C2.69307 21.5907 2.69321 21.5909 3.49995 21L2.69321 21.5909C2.88156 21.8481 3.18121 22 3.49995 22L3.49995 21C3.49995 22 3.50008 22 3.50022 22H3.50053H3.5013L3.50338 22L3.50972 22L3.53091 21.9998C3.54874 21.9997 3.57389 21.9994 3.60576 21.9989C3.66947 21.9978 3.76017 21.9957 3.8729 21.9915C4.09794 21.9832 4.41303 21.9666 4.77798 21.9334C5.49441 21.8683 6.45832 21.7346 7.31618 21.4487C8.04196 21.2068 8.83624 20.8844 9.44862 20.2407ZM7.12791 18.1604C7.33641 18.4658 7.57028 18.7525 7.82648 19.0175C7.57714 19.2094 7.22112 19.3722 6.68372 19.5513C6.04157 19.7654 5.25548 19.8817 4.59691 19.9416C4.38665 19.9607 4.19503 19.9736 4.03258 19.9823C3.95614 19.8539 3.86895 19.7 3.77745 19.5245C3.6131 19.2092 3.43942 18.8328 3.28905 18.4163L7.12791 18.1604ZM8.2848 16.0788L9.00598 16.0307L10.6982 14H10.6843H10.6649H10.6453H10.6256H10.6058H10.5859H10.5659H10.5458H10.5255H10.5052H10.4848H10.4643H10.4436H10.4229H10.4021H10.3811H10.3601H10.339H10.3178H10.2965H10.275H10.2535H10.2319H10.2102H10.1885H10.1666H10.1446H10.1226H10.1004H10.0782H10.0559H10.0335H10.011H9.98841H9.96576H9.94302H9.92019H9.89729H9.8743H9.85124H9.82809H9.80487H9.78157H9.75819H9.73473H9.7112H9.6876H9.66392H9.64017H9.61635H9.59245H9.56849H9.54445H9.52035H9.49618H9.47194H9.44763H9.42326H9.39882H9.37432H9.34975H9.32512H9.30043H9.27568H9.25087H9.226H9.20106H9.17607H9.15103H9.12593H9.10077H9.07555H9.05028H9.02496H8.99959H8.97416H8.94868H8.92316H8.89758H8.87195H8.84628H8.82056H8.79479H8.76898H8.74312H8.71722H8.69127H8.66529H8.63926H8.61319H8.58708H8.56093H8.53474H8.50851H8.48225H8.45595H8.42961H8.40324H8.37684H8.3504H8.32393H8.29743H8.2709H8.24434H8.21775H8.19113H8.16449H8.13781H8.11111H8.08439H8.05764H8.03087H8.02745C8.00935 14.1641 8.00006 14.3309 8.00006 14.5C8.00006 15.0555 8.10072 15.5875 8.2848 16.0788ZM6.01904 14C6.00646 14.1651 6.00006 14.3318 6.00006 14.5C6.00006 15.0939 6.07971 15.6692 6.22892 16.2158L2.9197 16.4365C2.92014 16.1142 2.93892 15.7484 2.97886 15.3659C3.03152 14.8616 3.11488 14.3874 3.21559 14H3.22723H3.24275H3.25841H3.2742H3.29012H3.30618H3.32237H3.33869H3.35513H3.37171H3.38841H3.40524H3.4222H3.43929H3.45649H3.47383H3.49128H3.50886H3.52656H3.54438H3.56233H3.58039H3.59857H3.61686H3.63528H3.65381H3.67246H3.69122H3.71009H3.72908H3.74818H3.7674H3.78672H3.80615H3.8257H3.84535H3.86511H3.88497H3.90494H3.92502H3.9452H3.96549H3.98588H4.00637H4.02696H4.04766H4.06845H4.08934H4.11033H4.13142H4.1526H4.17388H4.19526H4.21673H4.2383H4.25995H4.2817H4.30354H4.32547H4.34749H4.3696H4.3918H4.41408H4.43646H4.45891H4.48146H4.50408H4.52679H4.54958H4.57246H4.59542H4.61845H4.64157H4.66476H4.68803H4.71138H4.73481H4.75831H4.78189H4.80554H4.82926H4.85306H4.87693H4.90087H4.92487H4.94895H4.9731H4.99732H5.0216H5.04595H5.07036H5.09484H5.11938H5.14399H5.16865H5.19338H5.21817H5.24302H5.26793H5.2929H5.31793H5.34301H5.36815H5.39334H5.41859H5.44389H5.46925H5.49465H5.52011H5.54562H5.57118H5.59679H5.62244H5.64815H5.6739H5.69969H5.72553H5.75142H5.77735H5.80332H5.82934H5.85539H5.88149H5.90762H5.9338H5.96001H5.98626H6.01254H6.01904Z"/>
</symbol><symbol stroke-miterlimit="10" style="fill-rule:nonzero;clip-rule:evenodd;stroke-linecap:round;stroke-linejoin:round" viewBox="0 0 3000 3000" id="instagram" xmlns="http://www.w3.org/2000/svg">
    <defs>
        <linearGradient gradientTransform="matrix(1 0 0 1 0 0)" gradientUnits="userSpaceOnUse" id="lLinearGradient" x1="1500" x2="2805.81" y1="1500" y2="194.188">
            <stop offset="0" stop-color="#7e7e7e"/>
            <stop offset="0.555825" stop-color="#c8c8c8"/>
            <stop offset="1" stop-color="#7e7e7e"/>
        </linearGradient>
    </defs>
    <g id="lUntitled">
        <path d="M1500 1189.05C1328.28 1189.12 1189.13 1328.36 1189.17 1500.08C1189.21 1671.79 1328.44 1810.97 1500.16 1810.95C1671.87 1810.93 1811.06 1671.72 1811.06 1500C1810.93 1328.28 1671.72 1189.12 1500 1189.05ZM2227 950.043C2195 868.955 2130.81 804.765 2049.72 772.768C1927.3 724.441 1635.83 735.284 1500 735.284C1364.17 735.284 1072.99 724.033 950.218 772.768C869.129 804.765 804.94 868.955 772.943 950.043C724.674 1072.46 735.459 1364.23 735.459 1499.94C735.459 1635.65 724.674 1927.07 773.176 2049.9C805.173 2130.99 869.363 2195.18 950.451 2227.17C1072.87 2275.5 1364.35 2264.66 1500.23 2264.66C1636.12 2264.66 1927.19 2275.91 2049.96 2227.17C2131.05 2195.18 2195.24 2130.99 2227.23 2049.9C2275.91 1927.48 2264.72 1635.71 2264.72 1500C2264.72 1364.29 2275.91 1072.93 2227.23 950.102L2227 950.043ZM1500 1978.02C1236 1978.02 1021.98 1764 1021.98 1500C1021.98 1236 1236 1021.98 1500 1021.98C1764 1021.98 1978.02 1236 1978.02 1500C1978.18 1626.83 1927.86 1748.5 1838.18 1838.18C1748.5 1927.86 1626.83 1978.18 1500 1978.02ZM1997.72 1113.5C1936.09 1113.54 1886.11 1063.59 1886.09 1001.96C1886.07 940.335 1936.02 890.36 1997.65 890.349C2059.28 890.338 2109.24 940.296 2109.24 1001.93C2109.37 1031.53 2097.7 1059.96 2076.82 1080.94C2055.94 1101.92 2027.56 1113.72 1997.96 1113.74L1997.72 1113.5ZM2526 194.188L474.005 194.188C319.466 194.188 194.188 319.466 194.188 474.005L194.188 2526C194.188 2680.53 319.466 2805.81 474.005 2805.81L2526 2805.81C2680.53 2805.81 2805.81 2680.53 2805.81 2526L2805.81 474.005C2805.81 319.466 2680.53 194.188 2526 194.188ZM2426.19 1884.75C2418.67 2034.16 2384.57 2166.55 2275.5 2275.33C2166.43 2384.1 2034.16 2418.91 1884.92 2426.02C1730.97 2434.7 1269.38 2434.7 1115.43 2426.02C966.016 2418.5 834.094 2384.34 724.849 2275.33C615.604 2166.31 581.268 2033.87 574.156 1884.75C565.47 1730.73 565.47 1269.09 574.156 1115.25C581.676 965.841 615.371 833.453 724.849 724.674C834.327 615.895 966.599 581.501 1115.43 574.389C1269.38 565.703 1730.97 565.703 1884.92 574.389C2034.33 581.909 2166.66 616.07 2275.5 725.082C2384.34 834.094 2419.08 966.541 2426.19 1115.95C2434.88 1269.38 2434.88 1730.62 2426.19 1884.75Z" fill-rule="nonzero" opacity="1"/>
    </g>
</symbol><symbol id="license" viewBox="0 0 791.91 791.91" style="enable-background:new 0 0 791.91 791.91" xml:space="preserve" xmlns="http://www.w3.org/2000/svg">
    <g>
        <path d="M532.659,322.978c0,9.671-7.701,17.371-17.371,17.371H220.336c-9.671,0-17.371-7.701-17.371-17.371   s7.701-17.371,17.371-17.371h293.967C523.973,304.622,532.659,312.323,532.659,322.978z M197.144,214.722v-78.349   c0-15.491,12.536-29.012,29.012-29.012h279.461c15.491,0,29.012,12.536,29.012,29.012v78.349c0,15.491-12.536,29.012-29.012,29.012   H226.156C209.68,243.734,197.144,231.108,197.144,214.722z M232.872,207.917h265.94v-64.828h-265.94L232.872,207.917   L232.872,207.917z M651.66,612.11l-0.985,147.028c0,29.997-20.326,31.877-24.176,31.877c-5.82,0-12.536-1.97-18.356-6.805   l-48.353-40.652l-46.383,38.682c-4.835,3.85-12.536,9.671-21.311,9.671c-10.656,0-21.311-7.701-23.191-23.191   c0-0.985,0-0.985,0-1.97v-28.922H145.837c-26.146,0-47.368-21.311-47.368-47.368V47.368C98.469,21.221,119.78,0,145.837,0h449.681   c26.146,0,47.368,21.311,47.368,47.368v362.646c14.506,10.656,26.146,25.161,34.832,41.548   C706.728,505.734,694.193,572.532,651.66,612.11z M645.84,469.022c-7.701-14.506-19.341-27.042-32.862-35.817   c-2.865-1.97-5.82-2.865-7.701-4.835c-0.985,0-1.97-0.985-2.865-0.985c-3.85-1.97-6.805-2.865-10.656-4.835c0,0,0,0-0.985,0   c-20.326-6.805-43.517-6.805-63.844,0.985h-0.985c-3.85,1.97-7.701,2.865-11.64,5.82c-32.862,17.371-51.218,51.218-51.218,86.05   l0,0l0,0c0,15.491,3.85,30.982,11.64,46.383c1.97,3.85,3.85,6.805,6.805,10.656c0.985,0.985,0.985,1.97,1.97,2.865   c1.97,2.865,3.85,4.835,5.82,6.805c0.985,0.985,0.985,0.985,1.97,1.97c2.865,2.865,5.82,5.82,8.686,7.701l0.985,0.985   c2.865,1.97,4.835,3.85,7.701,5.82l0.985,0.985c0.985,0,0.985,0.985,1.97,0.985s1.97,0.985,2.865,0.985   c0.985,0.985,2.865,0.985,3.85,1.97c22.206,10.656,47.368,12.536,71.544,5.82c0.985,0,2.865-0.985,3.85-0.985   c0.985,0,0.985,0,1.97-0.985c0.985,0,1.97-0.985,2.865-0.985c2.865-0.985,5.82-2.865,8.686-3.85c2.865-1.97,5.82-2.865,7.701-4.835   c2.865-1.97,4.835-3.85,7.701-5.82C657.48,561.877,669.031,510.569,645.84,469.022z M468.905,700.13v-68.679H220.336   c-9.671,0-17.371-7.701-17.371-17.371c0-9.671,7.701-17.371,17.371-17.371h233.078l0,0c-0.985-1.97-1.97-2.865-3.85-4.835   c-0.985-0.985-1.97-1.97-1.97-2.865c-1.97-1.97-2.865-4.835-4.835-7.701l-0.985-0.985c-1.97-3.85-3.85-7.701-5.82-12.536l0,0   c-3.85-10.656-6.805-21.311-8.686-31.877H220.336c-9.671,0-17.371-7.701-17.371-17.371c0-9.671,7.701-17.371,17.371-17.371h206.932   c0.985-6.805,1.97-13.521,3.85-20.326c4.835-14.506,11.64-28.027,20.326-39.667H220.336c-9.671,0-17.371-7.701-17.371-17.371   s7.701-17.371,17.371-17.371h269.79c1.97-0.985,3.85-1.97,5.82-3.85c3.85-1.97,7.701-3.85,12.536-5.82h0.985   c15.491-6.805,32.862-9.671,50.323-9.671c16.476,0,31.877,2.865,46.383,8.686l0,0V47.368c0-6.805-4.835-11.64-11.64-11.64H145.837   c-6.805,0-11.64,4.835-11.64,11.64v640.226c0,6.805,4.835,11.64,11.64,11.64h322.978v0.895H468.905z M615.843,637.271   c-0.985,0-0.985,0-1.97,0.985c0,0-0.985,0-0.985,0.985h-0.985c-1.97,0.985-3.85,0.985-5.82,1.97c-0.985,0-0.985,0-1.97,0.985   c-0.985,0-1.97,0.985-2.865,0.985c0,0,0,0-0.985,0c0,0,0,0-0.985,0s-0.985,0-1.97,0.985h-0.985c-0.985,0-1.97,0-2.865,0.985   c-0.985,0-2.865,0.985-4.835,0.985c-0.985,0-2.865,0.985-3.85,0.985l0,0l0,0c-1.97,0-3.85,0.985-6.805,0.985   c-0.985,0-2.865,0-3.85,0.985h-0.985c-0.985,0-0.985,0-1.97,0l0,0c-0.985,0-0.985,0-1.97,0c-2.865,0-5.82,0-7.701,0l0,0l0,0   c-0.985,0-0.985,0-1.97,0c-0.985,0-0.985,0-1.97,0l0,0l0,0c-2.865,0-6.805,0-9.671-0.985l0,0l0,0l0,0h-0.985h-0.985   c-12.536-0.985-25.161-4.835-35.817-9.671l0,0l0,0c-0.985-0.985-2.865-0.985-3.85-1.97l0,0l-0.985,105.391l43.517-36.712   c2.865-2.865,7.701-3.85,11.641-3.85s8.686,0.985,11.641,3.85l43.517,36.712L615.843,637.271z"/>
    </g>
    <g/>
    <g/>
    <g/>
    <g/>
    <g/>
    <g/>
    <g/>
    <g/>
    <g/>
    <g/>
    <g/>
    <g/>
    <g/>
    <g/>
    <g/>
</symbol><symbol viewBox="0 0 32 32" id="license-maintenance-svgrepo-com" xmlns="http://www.w3.org/2000/svg">
    <defs>
        <style>.mcls-1 {
        fill: none;
      }</style>
    </defs>
    <rect x="8" y="14" width="6" height="2"/>
    <rect x="8" y="6" width="12" height="2"/>
    <rect x="8" y="10" width="12" height="2"/>
    <rect x="8" y="24" width="6" height="2"/>
    <path d="M30,24V22H27.8989a4.9678,4.9678,0,0,0-.7319-1.7529l1.49-1.49-1.414-1.414-1.49,1.49A4.9678,4.9678,0,0,0,24,18.1011V16H22v2.1011a4.9678,4.9678,0,0,0-1.7529.7319l-1.49-1.49-1.414,1.414,1.49,1.49A4.9678,4.9678,0,0,0,18.1011,22H16v2h2.1011a4.9678,4.9678,0,0,0,.7319,1.7529l-1.49,1.49,1.414,1.414,1.49-1.49A4.9678,4.9678,0,0,0,22,27.8989V30h2V27.8989a4.9678,4.9678,0,0,0,1.7529-.7319l1.49,1.49,1.414-1.414-1.49-1.49A4.9678,4.9678,0,0,0,27.8989,24Zm-7,2a3,3,0,1,1,3-3A3.0033,3.0033,0,0,1,23,26Z"/>
    <path d="M14,30H6a2.0021,2.0021,0,0,1-2-2V4A2.0021,2.0021,0,0,1,6,2H22a2.0021,2.0021,0,0,1,2,2V14H22V4H6V28h8Z"/>
    <rect id="m_Transparent_Rectangle_" data-name="&lt;Transparent Rectangle&gt;" class="mcls-1" width="32" height="32"/>
</symbol><symbol viewBox="0 0 24 24" id="phone" xmlns="http://www.w3.org/2000/svg">
    <path d="M16.5562 12.9062L16.1007 13.359C16.1007 13.359 15.0181 14.4355 12.0631 11.4972C9.10812 8.55901 10.1907 7.48257 10.1907 7.48257L10.4775 7.19738C11.1841 6.49484 11.2507 5.36691 10.6342 4.54348L9.37326 2.85908C8.61028 1.83992 7.13596 1.70529 6.26145 2.57483L4.69185 4.13552C4.25823 4.56668 3.96765 5.12559 4.00289 5.74561C4.09304 7.33182 4.81071 10.7447 8.81536 14.7266C13.0621 18.9492 17.0468 19.117 18.6763 18.9651C19.1917 18.9171 19.6399 18.6546 20.0011 18.2954L21.4217 16.883C22.3806 15.9295 22.1102 14.2949 20.8833 13.628L18.9728 12.5894C18.1672 12.1515 17.1858 12.2801 16.5562 12.9062Z"/>
</symbol><symbol viewBox="0 0 256 256" id="protection-rain-umbrella-svgrepo-com" xml:space="preserve" xmlns="http://www.w3.org/2000/svg">
    <g>
        <path d="M100.4,113.6l2,1.3l2.3-0.8c11-4.1,24-5.2,30.8-5.4l0.9,0V144c0,2.7,2.2,4.8,4.8,4.8s4.8-2.2,4.8-4.8v-35.5l0.9,0   c8.3,0.4,20.4,1.6,30.8,5.4l2.3,0.8l2-1.3c15.2-9.7,36.3-14.6,57.9-13.6l6.1,0.3l-1.1-6c-7.3-40-50.9-67.3-88.2-72.7   c-2.9-0.4-6-0.7-9.2-0.8c-0.5,0-1,0-1.4,0v-8.5c0-2.7-2.2-4.8-4.8-4.8s-4.8,2.2-4.8,4.8v8.5c-0.4,0-0.8,0-1.3,0   c-3.4,0.1-6.5,0.4-9.4,0.8C88.4,27,44.8,54.3,37.5,94.2l-1.1,6l6.1-0.3C64.1,98.9,85.2,103.9,100.4,113.6z M127.1,31.2   c2.6-0.4,5.3-0.6,8.5-0.7c3.7-0.2,7.5-0.2,11.4,0c3,0.1,5.7,0.3,8.3,0.7h0c32.1,4.6,69.2,26.6,78.7,59c-20.6,0-39.9,4.9-55.2,14   c-11-3.7-23.1-4.9-31.4-5.2l-3.1-0.1c-1.1,0-2.1,0-2.8,0H141c-0.8,0-1.7,0-2.7,0l-3.2,0.1c-8.4,0.4-20.5,1.6-31.5,5.2   c-15.3-9.1-34.6-14-55.2-14C57.9,57.8,95,35.8,127.1,31.2z"/>
        <path d="M224,162.3l-59.8,25.1c-2.5,1-3.6,3.9-2.6,6.3c1,2.5,3.9,3.6,6.3,2.6l59.8-25.1c2.6-1.1,5.5-0.3,7.2,1.8   c1.1,1.4,1.6,3.1,1.3,4.8c-0.3,1.8-1.3,3.3-2.8,4.2c-26.1,17-85.4,50.6-88.2,52.2c-0.1,0.1-0.2,0.1-0.3,0.2v0   c-7.2,4.3-15.3,5.4-25.5,3.6c-0.6-0.1-14.4-1.8-47.1-5.8l-16.8-2.1v-65.3c2.7-0.2,5.1-0.3,6.1-0.3l0.6,0   c22.5-1.4,44.1,2.9,66.9,7.5c2.9,0.6,5.8,1.2,8.8,1.8c3.1,0.6,5.4,3.3,5.4,6.5c0,0.2,0,0.4-0.1,0.8c-0.2,1.8-1.2,3.1-1.9,3.9   c-1.2,1.2-2.9,1.9-4.7,1.9H91.1c-2.7,0-4.8,2.2-4.8,4.8s2.2,4.8,4.8,4.8h45.7c4.3,0,8.5-1.7,11.6-4.8c2.6-2.7,4.2-6,4.6-9.4   c0.1-0.7,0.2-1.4,0.2-2.2c0-7.8-5.5-14.5-13.2-16c-2.9-0.6-5.8-1.2-8.7-1.8c-22.4-4.5-45.6-9.2-69.4-7.7l-0.5,0   c-1.1,0-3.3,0.2-5.9,0.3c-0.6-2.1-2.4-3.6-4.6-3.6h-36c-2.7,0-4.8,2.2-4.8,4.8v81.4c0,2.7,2.2,4.8,4.8,4.8h36   c1.9,0,3.6-1.2,4.4-2.8l16.1,2c19.2,2.4,45.5,5.6,46.6,5.7c3.6,0.6,7,1,10.3,1c8,0,15.1-1.9,21.6-5.7c0.1,0,0.1-0.1,0.2-0.1   c0.6-0.3,62-35,88.8-52.5c3.8-2.5,6.3-6.4,7-10.8c0.7-4.4-0.5-8.9-3.3-12.4C238,161.4,230.6,159.5,224,162.3z M46,233.1H19.6v-71.7   H46V233.1z"/>
    </g>
</symbol><symbol id="shield" viewBox="0 0 24 24" xmlns="http://www.w3.org/2000/svg">
    <title/>
    <path d="M20,4c-3.609,0-7.363-2.772-7.4-2.8a1,1,0,0,0-1.2,0C11.363,1.228,7.609,4,4,4A1,1,0,0,0,3,5c0,.6.1,14.73,8.649,17.937a1.009,1.009,0,0,0,.7,0C20.9,19.73,21,5.6,21,5A1,1,0,0,0,20,4ZM12,20.921C6.2,18.4,5.205,8.973,5.035,5.943A16.968,16.968,0,0,0,12,3.216a16.968,16.968,0,0,0,6.965,2.727C18.8,8.973,17.8,18.4,12,20.921Z"/>
    <path d="M8,11a4,4,0,1,0,4-4A4,4,0,0,0,8,11Zm6,0a2,2,0,1,1-2-2A2,2,0,0,1,14,11Z"/>
</symbol><symbol viewBox="0 0 16 16" id="shield-check-svgrepo-com" xmlns="http://www.w3.org/2000/svg">
    <g>
        <path d="M11.28 5.47a.75.75 0 010 1.06l-4 4a.75.75 0 01-1.06 0l-2-2a.75.75 0 011.06-1.06l1.47 1.47 3.47-3.47a.75.75 0 011.06 0z"/>
        <path fill-rule="evenodd" d="M7.26.213a2.25 2.25 0 011.48 0l4.75 1.653A2.25 2.25 0 0115 3.991v4.01c0 2.048-1.181 3.747-2.45 4.991-1.282 1.255-2.757 2.15-3.573 2.598a2.024 2.024 0 01-1.954 0c-.816-.447-2.291-1.342-3.572-2.598C2.18 11.748 1 10.05 1 8V3.991c0-.957.606-1.81 1.51-2.125L7.26.213zm.986 1.417a.75.75 0 00-.493 0l-4.75 1.653a.75.75 0 00-.503.708v4.01c0 1.455.847 2.79 2 3.92 1.142 1.118 2.483 1.937 3.244 2.353.163.09.35.09.512 0 .761-.416 2.102-1.235 3.244-2.353 1.153-1.13 2-2.465 2-3.92V3.99a.75.75 0 00-.504-.708L8.246 1.63z" clip-rule="evenodd"/>
    </g>
</symbol><symbol viewBox="0 0 16.933334 16.933333" id="siren_hooter_police_emergency_icon_191252" xmlns="http://www.w3.org/2000/svg">
    <defs id="sdefs973"/>
    <sodipodi:namedview id="sbase" pagecolor="#ffffff" bordercolor="#666666" borderopacity="1.0" xmlns:inkscape="http://www.inkscape.org/namespaces/inkscape" inkscape:pageopacity="0.0" inkscape:pageshadow="2" inkscape:zoom="6.0435533" inkscape:cx="27.659409" inkscape:cy="30.473392" inkscape:document-units="pt" inkscape:current-layer="layer1" showgrid="false" units="pt" inkscape:window-width="1366" inkscape:window-height="715" inkscape:window-x="-8" inkscape:window-y="-8" inkscape:window-maximized="1" inkscape:document-rotation="0" inkscape:snap-bbox="true" inkscape:bbox-nodes="true" inkscape:snap-nodes="false" xmlns:sodipodi="http://sodipodi.sourceforge.net/DTD/sodipodi-0.dtd">
        <inkscape:grid type="xygrid" id="sgrid1526"/>
        <sodipodi:guide position="0.97013909,15.963209" orientation="56.666615,0" id="sguide1528" inkscape:locked="false"/>
        <sodipodi:guide position="0.97013909,0.97016731" orientation="0,56.666667" id="sguide1530" inkscape:locked="false"/>
        <sodipodi:guide position="15.963195,0.97016731" orientation="-56.666615,0" id="sguide1532" inkscape:locked="false"/>
        <sodipodi:guide position="15.963195,15.963209" orientation="0,-56.666667" id="sguide1534" inkscape:locked="false"/>
    </sodipodi:namedview>
    <metadata id="smetadata976">
        <rdf:RDF xmlns:rdf="http://www.w3.org/1999/02/22-rdf-syntax-ns#">
            <cc:Work rdf:about="" xmlns:cc="http://creativecommons.org/ns#">
                <dc:format xmlns:dc="http://purl.org/dc/elements/1.1/">
                    image/svg+xml
                </dc:format>
                <dc:type rdf:resource="http://purl.org/dc/dcmitype/StillImage" xmlns:dc="http://purl.org/dc/elements/1.1/"/>
                <dc:title xmlns:dc="http://purl.org/dc/elements/1.1/"/>
            </cc:Work>
        </rdf:RDF>
    </metadata>
    <g xmlns:inkscape="http://www.inkscape.org/namespaces/inkscape" inkscape:label="Layer 1" inkscape:groupmode="layer" id="slayer1" transform="translate(0,-280.06668)">
        <path xmlns:sodipodi="http://sodipodi.sourceforge.net/DTD/sodipodi-0.dtd" sodipodi:nodetypes="cccccccccccccccccscccccssssscssssssccccsssscccsccsccsscscssccsccscccsccccccccsccsccsccccccccccccccccssccssccccccccccccccccccccccccccccccssssssssssc" d="m 1.5279724,282.28391 c -0.00694,-10e-6 -0.013875,2e-4 -0.020781,6.4e-4 -0.099661,0.007 -0.1904277,0.0599 -0.2457937,0.14306 -0.099093,0.14796 -0.059606,0.34821 0.088235,0.44746 l 1.9367236,1.29137 c 0.1486079,0.0985 0.3490226,0.0579 0.44747,-0.0907 0.098726,-0.14845 0.058369,-0.34882 -0.090127,-0.44747 l -1.9367235,-1.28883 c -0.052865,-0.0359 -0.1151522,-0.0551 -0.1789886,-0.0555 z m 13.8778636,6.4e-4 c -0.06442,-2e-4 -0.12741,0.0189 -0.180879,0.0549 l -1.936724,1.28884 c -0.14784,0.0993 -0.187327,0.29951 -0.08824,0.44746 0.09848,0.14911 0.299368,0.18979 0.4481,0.0907 l 1.936723,-1.29137 c 0.147623,-0.0994 0.186822,-0.29968 0.0876,-0.44747 -0.05961,-0.0889 -0.159492,-0.14257 -0.266591,-0.14306 z m -8.9563259,0.23571 c -0.9058858,0 -1.6811527,0.66282 -1.8484922,1.56487 l 0.005,-0.0233 -1.6153024,6.10953 c -0.00159,0.009 -0.00329,0.016 -0.00439,0.0239 -0.070041,0.37758 0.022428,0.74251 0.2142801,1.03863 H 2.657341 c -0.2689008,0 -0.5621868,0.11074 -0.82435,0.35483 -0.2621665,0.24403 -0.4644883,0.63653 -0.4644883,1.14578 v 0.54766 c 0,0.50399 0.1912118,0.89706 0.4506227,1.14326 0.2594107,0.2462 0.5626288,0.35735 0.8382156,0.35735 3.8721911,10e-6 7.745005,10e-6 11.617196,0 0.275588,0 0.58133,-0.11111 0.84074,-0.35735 0.259411,-0.2462 0.449991,-0.63927 0.449991,-1.14326 v -0.54766 c 0,-0.50925 -0.202323,-0.90175 -0.464489,-1.14578 -0.262163,-0.24403 -0.55734,-0.35483 -0.826242,-0.35483 h -0.540744 c 0.191851,-0.29612 0.284323,-0.66105 0.214281,-1.03863 -0.0016,-0.004 -0.0033,-0.009 -0.005,-0.0122 l -1.366976,-6.09819 c -0.167341,-0.90204 -0.945131,-1.56488 -1.851013,-1.56488 z m 0,0.64535 h 4.2755409 c 0.591923,0 1.102179,0.42993 1.2151,1.03864 6.45e-4,0.004 0.0016,0.009 0.0026,0.0122 l 1.369508,6.09566 c 0.09053,0.488 -0.262072,0.92205 -0.731079,0.92205 H 9.4343547 v -2.90603 H 10.07972 c 0.352604,0 0.645359,-0.29089 0.645365,-0.64348 v -0.96931 c -6e-6,-0.3526 -0.292773,-0.64536 -0.645365,-0.64536 H 9.4343547 c -0.00293,0 -0.00585,5.8e-4 -0.00878,6.4e-4 -0.04421,-0.49097 -0.456856,-0.88233 -0.9585915,-0.88233 -0.5017356,0 -0.916034,0.39136 -0.9604831,0.88233 -0.00293,-3e-5 -0.00585,-6.4e-4 -0.00878,-6.4e-4 H 6.8548727 c -0.3525911,0 -0.6459907,0.29276 -0.6459968,0.64536 v 0.96931 c 6.1e-6,0.35259 0.2933886,0.64348 0.6459968,0.64348 h 0.6428417 v 2.90603 H 4.3534527 c -0.4690055,0 -0.8216038,-0.43405 -0.7310751,-0.92205 l 1.6077385,-6.08369 c 0.00195,-0.007 0.00366,-0.0159 0.005,-0.0239 0.1129215,-0.60871 0.6225441,-1.03864 1.2144693,-1.03864 z m 0.7266639,0.64601 c -0.9017929,0 -1.6797514,0.6431 -1.8484886,1.52896 l -0.7361218,2.72766 c -0.046052,0.17232 0.056418,0.34931 0.2287786,0.39516 0.1715447,0.0462 0.3481872,-0.0549 0.3951596,-0.22624 l 0.7411599,-2.751 c 0.00159,-0.009 0.00329,-0.016 0.00439,-0.0239 0.111519,-0.58549 0.6190817,-1.00524 1.2150987,-1.00524 0.1782108,-7e-4 0.3221172,-0.14573 0.3214208,-0.32393 -6.451e-4,-0.17723 -0.1441905,-0.32074 -0.3214208,-0.32142 z m 1.1287593,0 c -0.1772304,6.8e-4 -0.3207331,0.14419 -0.3214233,0.32142 -6.452e-4,0.17821 0.1432087,0.32324 0.3214233,0.32393 h 0.4840234 c 0.1791988,7.2e-4 0.3246418,-0.14474 0.3239406,-0.32393 -6.452e-4,-0.17822 -0.1457297,-0.32212 -0.3239406,-0.32142 z m -6.8406132,1.37644 c -0.1784596,3.5e-4 -0.3227503,0.14548 -0.3220533,0.32394 3.227e-4,0.17772 0.1443326,0.3217 0.3220533,0.32205 h 1.678955 c 0.1774755,-6.7e-4 0.3210782,-0.14457 0.3214233,-0.32205 6.452e-4,-0.17822 -0.1432087,-0.32325 -0.3214233,-0.32394 z m 12.3268429,0 c -0.17846,3.5e-4 -0.32275,0.14548 -0.322053,0.32394 3.22e-4,0.17772 0.144332,0.3217 0.322053,0.32205 h 1.678959 c 0.177475,-7.1e-4 0.321074,-0.14457 0.32142,-0.32205 6.46e-4,-0.17822 -0.14321,-0.32325 -0.32142,-0.32394 z m -5.3242589,0.64599 c 0.1820319,0 0.3220526,0.13938 0.3220526,0.32142 v 5.07847 H 8.1429599 v -5.07847 c 0,-0.18204 0.1419124,-0.32142 0.3239442,-0.32142 z m -1.6121497,0.88107 h 0.6428405 v 0.96931 H 6.8547544 Z m 2.5795674,0 h 0.6453652 v 0.96931 H 9.4343218 Z m 4.6631382,0.0857 c -0.109653,0.006 -0.208902,0.0667 -0.263441,0.16197 -0.08876,0.15455 -0.03543,0.35178 0.119117,0.44054 l 1.526439,0.8817 c 0.154049,0.089 0.351137,0.0366 0.440539,-0.1172 0.08887,-0.15437 0.03583,-0.35157 -0.118483,-0.44054 l -1.527069,-0.88106 c -0.04551,-0.0272 -0.09703,-0.0428 -0.149998,-0.0454 -0.009,-3.9e-4 -0.01807,-3.9e-4 -0.02711,0 z m -11.2913623,0.001 c -0.0059,2.6e-4 -0.011781,6.8e-4 -0.017651,10e-4 -0.046276,0.005 -0.090993,0.0193 -0.1310896,0.0428 l -1.5270683,0.88108 c -0.15363551,0.0896 -0.20578419,0.28665 -0.116595,0.44054 0.089403,0.15386 0.2864904,0.2063 0.4405389,0.1172 l 1.5270691,-0.88159 c 0.1545484,-0.0888 0.2078773,-0.286 0.119117,-0.44053 -0.060382,-0.1044 -0.1738972,-0.16633 -0.2943224,-0.16072 z m -0.1487373,5.07721 c 3.8764183,0.005 7.7405736,0 11.6171966,0 0.05378,0 0.24452,0.0494 0.385705,0.18088 0.141187,0.13141 0.25966,0.3272 0.25966,0.67435 v 0.54768 c 0,0.34988 -0.114702,0.54827 -0.250204,0.67688 -0.135507,0.1286 -0.314326,0.17835 -0.395161,0.17835 -3.872188,10e-6 -7.7450091,10e-6 -11.6171966,0 -0.080835,0 -0.2596528,-0.0498 -0.3951567,-0.17835 -0.1355072,-0.12861 -0.2476845,-0.327 -0.2476845,-0.67688 v -0.54768 c 0,-0.34715 0.1184731,-0.54294 0.259656,-0.67435 0.1411864,-0.13142 0.3293973,-0.18088 0.3831852,-0.18088 z" style="color:#000000;font-style:normal;font-variant:normal;font-weight:normal;font-stretch:normal;font-size:medium;line-height:normal;font-family:sans-serif;font-variant-ligatures:normal;font-variant-position:normal;font-variant-caps:normal;font-variant-numeric:normal;font-variant-alternates:normal;font-variant-east-asian:normal;font-feature-settings:normal;font-variation-settings:normal;text-indent:0;text-align:start;text-decoration:none;text-decoration-line:none;text-decoration-style:solid;text-decoration-color:#000000;letter-spacing:normal;word-spacing:normal;text-transform:none;writing-mode:lr-tb;direction:ltr;text-orientation:mixed;dominant-baseline:auto;baseline-shift:baseline;text-anchor:start;white-space:normal;shape-padding:0;shape-margin:0;inline-size:0;clip-rule:nonzero;display:inline;overflow:visible;visibility:visible;opacity:1;isolation:auto;mix-blend-mode:normal;color-interpolation:sRGB;color-interpolation-filters:linearRGB;solid-color:#000000;solid-opacity:1;vector-effect:none;fill:#000000;fill-opacity:1;fill-rule:nonzero;stroke:none;stroke-width:0.645365;stroke-linecap:round;stroke-linejoin:round;stroke-miterlimit:4;stroke-dasharray:none;stroke-dashoffset:0;stroke-opacity:1;color-rendering:auto;image-rendering:auto;shape-rendering:auto;text-rendering:auto;enable-background:accumulate;stop-color:#000000;stop-opacity:1" id="spath983"/>
    </g>
</symbol><symbol viewBox="0 0 512 512" style="enable-background:new 0 0 512 512" xml:space="preserve" id="weapon_security_defense_durable_shield_icon_259718" xmlns="http://www.w3.org/2000/svg">
    <g id="t_x34_5_x2C__Shield_x2C__durable_x2C__defence_x2C__security_x2C__weapon_x2C__durable">
        <g>
            <g>
                <path style="fill:#DC5461" d="M334.477,185.628c-21.572-21.572-54.856-22.904-77.85-5.863     c-23.018-17.045-56.287-15.701-77.85,5.863c-23.37,23.37-23.388,61.249,0.001,84.638l70.19,70.191     c4.311,4.407,11.082,4.236,15.17,0.146l70.339-70.338C357.812,246.931,357.812,208.963,334.477,185.628z M319.451,255.239     l-62.823,62.823l-62.823-62.823c-15.068-15.066-15.082-39.505,0-54.585c15.083-15.083,39.503-15.094,54.599,0.005l0.716,0.715     c4.132,4.124,10.812,4.144,14.966,0.049l0.78-0.769c15.084-15.086,39.499-15.088,54.585,0     C334.5,215.704,334.5,240.19,319.451,255.239z"/>
                <path style="fill:#283954" d="M477.883,126.989c-2.197-38.129-1.945-35.878-2.419-37.527c-1.223-4.262-4.953-7.274-9.247-7.658     l-35.127-3.188c-52.107-4.726-101.514-24.088-142.877-55.991L263.064,3.214c-3.844-2.967-9.211-2.951-13.036,0.04l-25.033,19.571     c-41.154,32.175-90.434,51.859-142.513,56.924L45.41,83.361c-5.238,0.511-9.313,4.778-9.581,10.035l-1.793,35.184     c-0.187,3.285-5.492,103.884,28.625,182.616c12.75,29.397,29.454,57.35,49.647,83.082c3.635,4.629,10.316,5.41,14.919,1.799     c4.616-3.623,5.421-10.302,1.799-14.919c-19.073-24.303-34.843-50.687-46.868-78.414     c-31.991-73.827-26.967-171.961-26.907-172.931c0.111-2.061-0.371,7.281,1.334-26.189L84.54,100.9     c56.106-5.457,109.2-26.665,153.543-61.333l18.53-14.487l18.619,14.37c44.57,34.377,97.802,55.239,153.939,60.33l26.003,2.359     l1.495,26.084c0.238,4.035,5.467,99.688-25.828,173.202c-41.088,96.522-116.196,152.136-157.309,176.695l-16.586,9.904     c-10.377-6.537-54.801-28.771-100.666-75.786c-4.1-4.201-10.824-4.283-15.025-0.186c-4.2,4.097-4.283,10.824-0.186,15.025     c32.945,33.77,66.455,56.516,88.769,69.653l21.759,12.803c3.31,1.947,7.463,1.977,10.836-0.035l21.995-13.134     c43.334-25.886,122.519-84.552,165.966-186.615C483.621,231.694,478.132,131.211,477.883,126.989z"/>
                <path style="fill:#283954" d="M412.97,217.745c5.809,0.721,11.126-3.423,11.843-9.247c3.767-30.598,3.856-57.418,3.573-70.682     c-0.113-5.314-4.136-9.726-9.416-10.33c-56.383-6.442-110.286-27.662-155.882-61.367c-3.775-2.79-8.933-2.773-12.687,0.042     c-45.928,34.413-100.382,56.064-157.476,62.612c-5.274,0.605-9.293,5.011-9.411,10.319c-0.207,9.234-1.257,91.956,24.886,152.277     c37.611,86.759,105.667,137.555,142.888,160.113c3.401,2.062,7.669,2.051,11.061-0.029     c37.17-22.793,105.068-74.048,142.176-161.23c4.902-11.51,9.134-24.528,12.577-38.692c1.386-5.702-2.113-11.448-7.814-12.834     c-5.701-1.385-11.448,2.112-12.834,7.814c-3.17,13.037-7.032,24.943-11.48,35.388c-33.037,77.619-92.337,125.012-128.211,147.979     c-35.932-22.74-95.382-69.723-128.864-146.96c-20.466-47.221-23.013-110.175-23.188-134.237     c54.822-7.813,107.083-28.727,152.106-60.883c44.649,31.453,96.318,51.925,150.42,59.608c0,14.005-0.632,35.099-3.512,58.498     C403.006,211.726,407.146,217.028,412.97,217.745z"/>
            </g>
        </g>
    </g>
    <g id="tLayer_1"/>
</symbol></svg>