<?xml version="1.0" encoding="UTF-8"?><!DOCTYPE svg  PUBLIC '-//W3C//DTD SVG 1.1//EN'  'http://www.w3.org/Graphics/SVG/1.1/DTD/svg11.dtd'><svg xmlns="http://www.w3.org/2000/svg" xmlns:xlink="http://www.w3.org/1999/xlink"><symbol id="arrow-up" viewBox="0 0 24 24" xmlns="http://www.w3.org/2000/svg">
    <path d="M12,0C5.383,0,0,5.383,0,12s5.383,12,12,12,12-5.383,12-12S18.617,0,12,0Zm4.361,12h-3.361v5c0,.552-.448,1-1,1s-1-.448-1-1v-5h-3.361c-.695,0-1.044-.852-.552-1.35l4.361-4.418c.305-.309,.799-.309,1.104,0l4.361,4.418c.492,.498,.143,1.35-.552,1.35Z"/>
</symbol><symbol viewBox="0 0 32 32" enable-background="new 0 0 32 32" id="choice" xml:space="preserve" xmlns="http://www.w3.org/2000/svg">
    <g id="bCheck_x2C__click_x2C__decision_x2C__hand_x2C__choice_x2C__approval">
        <g id="bXMLID_3788_">
            <g id="bTDD_testing_x2C__code_coding_laptop_6_">
                <g id="bXMLID_3861_">
                    <path d="      M13.89,26.034l-1.4-1.244c-0.7-0.63-1.24-1.41-1.58-2.29L8.9,16.95c-0.17-0.47,0.05-0.99,0.5-1.2c0.24-0.11,0.48-0.16,0.73-0.16      c0.63,0,1.24,0.351,1.55,0.95l1.84,3.7c0.62-0.46,0.98-1.19,0.98-1.95V6.5C14.5,5.67,15.17,5,16,5s1.5,0.67,1.5,1.5v8      c0-0.83,0.67-1.5,1.5-1.5s1.5,0.67,1.5,1.5V15c0-0.83,0.67-1.5,1.5-1.5s1.5,0.67,1.5,1.5v1c0-0.83,0.67-1.5,1.5-1.5      s1.5,0.67,1.5,1.5v8.09c0,0.675-0.203,1.333-0.574,1.891" id="bXMLID_3863_" stroke-linecap="round" stroke-linejoin="round" stroke-miterlimit="10"/>
                    <polyline id="bXMLID_3862_" points="      13.5,30.5 13.5,27.5 26.5,27.5 26.5,30.5     " stroke-linecap="round" stroke-linejoin="round" stroke-miterlimit="10"/>
                </g>
                <g id="bXMLID_3789_">
                    <path d="      M10.477,5.541C10.492,5.691,10.5,5.845,10.5,6c0,2.479-2.009,4.488-4.488,4.488S1.524,8.479,1.524,6s2.01-4.488,4.488-4.488      c0.793,0,1.539,0.207,2.186,0.568" id="bXMLID_3860_" stroke-linecap="round" stroke-linejoin="round" stroke-miterlimit="10"/>
                    <polyline id="bXMLID_3794_" points="      10.313,2.842 6.012,7.143 3.94,5.071     " stroke-linecap="round" stroke-linejoin="round" stroke-miterlimit="10"/>
                    <circle cx="26" cy="6" id="bXMLID_3793_" r="4.5" stroke-miterlimit="10"/>
                    <g id="bXMLID_3790_">
                        <line id="bXMLID_3792_" stroke-linecap="round" stroke-linejoin="round" stroke-miterlimit="10" x1="27.5" x2="24.5" y1="7.5" y2="4.5"/>
                        <line id="bXMLID_3791_" stroke-linecap="round" stroke-linejoin="round" stroke-miterlimit="10" x1="27.5" x2="24.5" y1="4.5" y2="7.5"/>
                    </g>
                </g>
            </g>
        </g>
        <g id="bXMLID_2861_">
            <g id="bTDD_testing_x2C__code_coding_laptop_5_">
                <g id="bXMLID_3573_">
                    <path d="      M13.89,26.034l-1.4-1.244c-0.7-0.63-1.24-1.41-1.58-2.29L8.9,16.95c-0.17-0.47,0.05-0.99,0.5-1.2c0.24-0.11,0.48-0.16,0.73-0.16      c0.63,0,1.24,0.351,1.55,0.95l1.84,3.7c0.62-0.46,0.98-1.19,0.98-1.95V6.5C14.5,5.67,15.17,5,16,5s1.5,0.67,1.5,1.5v8      c0-0.83,0.67-1.5,1.5-1.5s1.5,0.67,1.5,1.5V15c0-0.83,0.67-1.5,1.5-1.5s1.5,0.67,1.5,1.5v1c0-0.83,0.67-1.5,1.5-1.5      s1.5,0.67,1.5,1.5v8.09c0,0.675-0.203,1.333-0.574,1.891" id="bXMLID_3575_" stroke-linecap="round" stroke-linejoin="round" stroke-miterlimit="10"/>
                    <polyline id="bXMLID_3574_" points="      13.5,30.5 13.5,27.5 26.5,27.5 26.5,30.5     " stroke-linecap="round" stroke-linejoin="round" stroke-miterlimit="10"/>
                </g>
                <g id="bXMLID_2862_">
                    <path d="      M10.477,5.541C10.492,5.691,10.5,5.845,10.5,6c0,2.479-2.009,4.488-4.488,4.488S1.524,8.479,1.524,6s2.01-4.488,4.488-4.488      c0.793,0,1.539,0.207,2.186,0.568" id="bXMLID_3572_" stroke-linecap="round" stroke-linejoin="round" stroke-miterlimit="10"/>
                    <polyline id="bXMLID_3571_" points="      10.313,2.842 6.012,7.143 3.94,5.071     " stroke-linecap="round" stroke-linejoin="round" stroke-miterlimit="10"/>
                    <circle cx="26" cy="6" id="bXMLID_3570_" r="4.5" stroke-linecap="round" stroke-linejoin="round" stroke-miterlimit="10"/>
                    <g id="bXMLID_3567_">
                        <line id="bXMLID_3569_" stroke-linecap="round" stroke-linejoin="round" stroke-miterlimit="10" x1="27.5" x2="24.5" y1="7.5" y2="4.5"/>
                        <line id="bXMLID_3568_" stroke-linecap="round" stroke-linejoin="round" stroke-miterlimit="10" x1="27.5" x2="24.5" y1="4.5" y2="7.5"/>
                    </g>
                </g>
            </g>
        </g>
    </g>
</symbol><symbol viewBox="0 0 24 24" id="close" xmlns="http://www.w3.org/2000/svg">
    <g id="cSVGRepo_bgCarrier" stroke-width="0"/>
    <g id="cSVGRepo_tracerCarrier" stroke-linecap="round" stroke-linejoin="round"/>
    <g id="cSVGRepo_iconCarrier">
        <title>Close</title>
        <g id="cPage-1" stroke-width="1" fill-rule="evenodd">
            <g id="cClose">
                <rect id="cRectangle" fill-rule="nonzero" x="0" y="0" width="24" height="24"/>
                <line x1="16.9999" y1="7" x2="7.00001" y2="16.9999" id="cPath" stroke-width="2" stroke-linecap="round"/>
                <line x1="7.00006" y1="7" x2="17" y2="16.9999" id="cPath" stroke-width="2" stroke-linecap="round"/>
            </g>
        </g>
    </g>
</symbol><symbol id="delivery" viewBox="0 0 512 512" xml:space="preserve" xmlns="http://www.w3.org/2000/svg">
    <style type="text/css">.dst0{fill:#b52670;}</style>
    <g>
        <path class="dst0" d="M311.069,130.515c-0.963-5.641-5.851-9.768-11.578-9.768H35.43c-7.61,0-13.772,6.169-13.772,13.765   c0,7.61,6.162,13.772,13.772,13.772h64.263c7.61,0,13.772,6.17,13.772,13.773c0,7.603-6.162,13.772-13.772,13.772H13.772   C6.169,175.829,0,181.998,0,189.601c0,7.603,6.169,13.764,13.772,13.764h117.114c6.72,0,12.172,5.46,12.172,12.18   c0,6.72-5.452,12.172-12.172,12.172H68.665c-7.61,0-13.772,6.17-13.772,13.773c0,7.602,6.162,13.772,13.772,13.772h45.857   c6.726,0,12.179,5.452,12.179,12.172c0,6.719-5.453,12.172-12.179,12.172H51.215c-7.61,0-13.772,6.169-13.772,13.772   c0,7.603,6.162,13.772,13.772,13.772h87.014l5.488,31.042h31.52c-1.854,4.504-2.911,9.421-2.911,14.598   c0,21.245,17.218,38.464,38.464,38.464c21.237,0,38.456-17.219,38.456-38.464c0-5.177-1.057-10.094-2.911-14.598h100.04   L311.069,130.515z M227.342,352.789c0,9.146-7.407,16.553-16.553,16.553c-9.152,0-16.56-7.407-16.56-16.553   c0-6.364,3.627-11.824,8.892-14.598h15.329C223.714,340.965,227.342,346.424,227.342,352.789z"/>
        <path class="dst0" d="M511.598,314.072l-15.799-77.941l-57.689-88.759H333.074l32.534,190.819h38.42   c-1.846,4.504-2.904,9.421-2.904,14.598c0,21.245,17.219,38.464,38.456,38.464c21.246,0,38.464-17.219,38.464-38.464   c0-5.177-1.057-10.094-2.91-14.598h16.741c6.039,0,11.759-2.708,15.582-7.386C511.273,326.136,512.8,319.988,511.598,314.072z    M392.529,182.882h26.314l34.162,52.547h-51.512L392.529,182.882z M456.14,352.789c0,9.146-7.407,16.553-16.56,16.553   c-9.138,0-16.552-7.407-16.552-16.553c0-6.364,3.635-11.824,8.892-14.598h15.329C452.513,340.965,456.14,346.424,456.14,352.789z"/>
    </g>
</symbol><symbol viewBox="0 0 1920 1920" id="email" xmlns="http://www.w3.org/2000/svg">
    <path d="M1920 428.266v1189.54l-464.16-580.146-88.203 70.585 468.679 585.904H83.684l468.679-585.904-88.202-70.585L0 1617.805V428.265l959.944 832.441L1920 428.266ZM1919.932 226v52.627l-959.943 832.44L.045 278.628V226h1919.887Z" fill-rule="evenodd"/>
</symbol><symbol viewBox="0 0 32 32" id="facebook" xml:space="preserve" xmlns="http://www.w3.org/2000/svg">
    <style type="text/css">.fst0{fill-rule:evenodd;clip-rule:evenodd;fill:#FFFFFF;}</style>
    <path d="M6,2h20c2.2,0,4,1.8,4,4v20c0,2.2-1.8,4-4,4H6c-2.2,0-4-1.8-4-4V6C2,3.8,3.8,2,6,2z"/>
    <path class="fst0" d="M13.2,16.1v9.7c0,0.1,0.1,0.3,0.3,0.3h3.9c0.2,0,0.3-0.1,0.3-0.3v-9.8h2.8c0.1,0,0.3-0.1,0.3-0.2l0.3-3  c0-0.2-0.1-0.3-0.3-0.3h-3.1v-2.1c0-0.5,0.4-0.9,1-0.9h2.2c0.2,0,0.3-0.1,0.3-0.3V6.3C21,6.1,20.9,6,20.7,6h-3.6  c-2.1,0-3.9,1.6-3.9,3.6v2.9h-1.9c-0.2,0-0.3,0.1-0.3,0.3v3c0,0.1,0.1,0.3,0.3,0.3h1.9V16.1z"/>
</symbol><symbol stroke-miterlimit="10" style="fill-rule:nonzero;clip-rule:evenodd;stroke-linecap:round;stroke-linejoin:round" viewBox="0 0 3000 3000" id="instagram" xmlns="http://www.w3.org/2000/svg">
    <defs>
        <linearGradient gradientTransform="matrix(1 0 0 1 0 0)" gradientUnits="userSpaceOnUse" id="gLinearGradient" x1="1500" x2="2805.81" y1="1500" y2="194.188">
            <stop offset="0" stop-color="#7e7e7e"/>
            <stop offset="0.555825" stop-color="#c8c8c8"/>
            <stop offset="1" stop-color="#7e7e7e"/>
        </linearGradient>
    </defs>
    <g id="gUntitled">
        <path d="M1500 1189.05C1328.28 1189.12 1189.13 1328.36 1189.17 1500.08C1189.21 1671.79 1328.44 1810.97 1500.16 1810.95C1671.87 1810.93 1811.06 1671.72 1811.06 1500C1810.93 1328.28 1671.72 1189.12 1500 1189.05ZM2227 950.043C2195 868.955 2130.81 804.765 2049.72 772.768C1927.3 724.441 1635.83 735.284 1500 735.284C1364.17 735.284 1072.99 724.033 950.218 772.768C869.129 804.765 804.94 868.955 772.943 950.043C724.674 1072.46 735.459 1364.23 735.459 1499.94C735.459 1635.65 724.674 1927.07 773.176 2049.9C805.173 2130.99 869.363 2195.18 950.451 2227.17C1072.87 2275.5 1364.35 2264.66 1500.23 2264.66C1636.12 2264.66 1927.19 2275.91 2049.96 2227.17C2131.05 2195.18 2195.24 2130.99 2227.23 2049.9C2275.91 1927.48 2264.72 1635.71 2264.72 1500C2264.72 1364.29 2275.91 1072.93 2227.23 950.102L2227 950.043ZM1500 1978.02C1236 1978.02 1021.98 1764 1021.98 1500C1021.98 1236 1236 1021.98 1500 1021.98C1764 1021.98 1978.02 1236 1978.02 1500C1978.18 1626.83 1927.86 1748.5 1838.18 1838.18C1748.5 1927.86 1626.83 1978.18 1500 1978.02ZM1997.72 1113.5C1936.09 1113.54 1886.11 1063.59 1886.09 1001.96C1886.07 940.335 1936.02 890.36 1997.65 890.349C2059.28 890.338 2109.24 940.296 2109.24 1001.93C2109.37 1031.53 2097.7 1059.96 2076.82 1080.94C2055.94 1101.92 2027.56 1113.72 1997.96 1113.74L1997.72 1113.5ZM2526 194.188L474.005 194.188C319.466 194.188 194.188 319.466 194.188 474.005L194.188 2526C194.188 2680.53 319.466 2805.81 474.005 2805.81L2526 2805.81C2680.53 2805.81 2805.81 2680.53 2805.81 2526L2805.81 474.005C2805.81 319.466 2680.53 194.188 2526 194.188ZM2426.19 1884.75C2418.67 2034.16 2384.57 2166.55 2275.5 2275.33C2166.43 2384.1 2034.16 2418.91 1884.92 2426.02C1730.97 2434.7 1269.38 2434.7 1115.43 2426.02C966.016 2418.5 834.094 2384.34 724.849 2275.33C615.604 2166.31 581.268 2033.87 574.156 1884.75C565.47 1730.73 565.47 1269.09 574.156 1115.25C581.676 965.841 615.371 833.453 724.849 724.674C834.327 615.895 966.599 581.501 1115.43 574.389C1269.38 565.703 1730.97 565.703 1884.92 574.389C2034.33 581.909 2166.66 616.07 2275.5 725.082C2384.34 834.094 2419.08 966.541 2426.19 1115.95C2434.88 1269.38 2434.88 1730.62 2426.19 1884.75Z" fill-rule="nonzero" opacity="1"/>
    </g>
</symbol><symbol id="new" viewBox="0 0 37.4 37.4" xml:space="preserve" xmlns="http://www.w3.org/2000/svg">
    <g>
        <path d="M33.917,18.7l2.268-3.492c0.438-0.678,0.551-1.518,0.302-2.287c-0.25-0.768-0.833-1.383-1.587-1.674l-3.888-1.492   l-0.22-4.158c-0.043-0.807-0.446-1.551-1.101-2.024c-0.653-0.476-1.486-0.629-2.269-0.42l-4.021,1.075L20.78,0.993   C20.273,0.365,19.508,0,18.699,0c-0.808,0-1.571,0.365-2.082,0.992l-2.621,3.235L9.975,3.152c-0.778-0.207-1.613-0.056-2.268,0.42   C7.054,4.048,6.649,4.793,6.606,5.598L6.388,9.754l-3.887,1.492c-0.754,0.291-1.337,0.906-1.587,1.674   c-0.25,0.771-0.139,1.609,0.302,2.287L3.482,18.7l-2.267,3.492c-0.439,0.678-0.551,1.518-0.302,2.284   c0.25,0.771,0.833,1.386,1.587,1.675l3.887,1.491l0.219,4.158c0.042,0.81,0.447,1.553,1.101,2.026   c0.654,0.476,1.487,0.631,2.269,0.42l4.021-1.075l2.621,3.233c0.509,0.63,1.273,0.995,2.082,0.995s1.572-0.365,2.082-0.994   l2.621-3.232l4.021,1.074c0.778,0.211,1.612,0.057,2.269-0.42c0.653-0.477,1.058-1.219,1.102-2.025l0.219-4.158l3.888-1.492   c0.754-0.289,1.337-0.904,1.587-1.674c0.249-0.77,0.138-1.607-0.302-2.285L33.917,18.7z M10.067,22.717l-0.776-3.099   c-0.216-0.858-0.426-1.895-0.533-2.836l-0.04,0.012c-0.273,1.062-0.593,2.191-0.99,3.503l-0.733,2.42H5.326l2.436-8.032h2.121   l0.775,2.943c0.221,0.847,0.394,1.847,0.477,2.753h0.036c0.202-1.062,0.495-2.146,0.859-3.349l0.712-2.348h1.668l-2.435,8.031   h-1.908V22.717z M20.491,16.173h-3.134l-0.505,1.67h2.955l-0.448,1.477h-2.956l-0.578,1.904h3.301l-0.451,1.49h-5.124l2.435-8.031   h4.958L20.491,16.173z M27.566,22.717h-1.966l0.368-3.455c0.091-0.812,0.188-1.562,0.37-2.479h-0.023   c-0.416,0.904-0.779,1.668-1.217,2.479l-1.811,3.455H21.3l0.527-8.032h1.942l-0.396,3.313c-0.11,0.953-0.258,1.99-0.372,2.801   h0.023c0.395-0.869,0.877-1.834,1.38-2.823l1.676-3.289h1.931l-0.382,3.385c-0.107,0.939-0.237,1.799-0.389,2.691h0.022   c0.391-0.895,0.854-1.834,1.312-2.788l1.651-3.289h1.848L27.566,22.717z"/>
    </g>
</symbol><symbol viewBox="0 0 24 24" id="phone" xmlns="http://www.w3.org/2000/svg">
    <path d="M16.5562 12.9062L16.1007 13.359C16.1007 13.359 15.0181 14.4355 12.0631 11.4972C9.10812 8.55901 10.1907 7.48257 10.1907 7.48257L10.4775 7.19738C11.1841 6.49484 11.2507 5.36691 10.6342 4.54348L9.37326 2.85908C8.61028 1.83992 7.13596 1.70529 6.26145 2.57483L4.69185 4.13552C4.25823 4.56668 3.96765 5.12559 4.00289 5.74561C4.09304 7.33182 4.81071 10.7447 8.81536 14.7266C13.0621 18.9492 17.0468 19.117 18.6763 18.9651C19.1917 18.9171 19.6399 18.6546 20.0011 18.2954L21.4217 16.883C22.3806 15.9295 22.1102 14.2949 20.8833 13.628L18.9728 12.5894C18.1672 12.1515 17.1858 12.2801 16.5562 12.9062Z"/>
</symbol><symbol id="presentation" viewBox="0 0 512.015 512.015" xml:space="preserve" xmlns="http://www.w3.org/2000/svg">
    <g>
        <g>
            <path d="M102.409,0c-42.351,0.009-76.8,34.458-76.8,76.809c0,42.351,34.449,76.792,76.8,76.792c42.351,0,76.8-34.449,76.8-76.8    C179.209,34.449,144.76,0,102.409,0z M102.409,128.009c-28.279,0-51.2-22.921-51.2-51.2s22.921-51.2,51.2-51.2    s51.2,22.921,51.2,51.2S130.689,128.009,102.409,128.009z"/>
        </g>
    </g>
    <g>
        <g>
            <path d="M486.409,128h-256c-14.14,0-25.6,11.46-25.6,25.6v19.55l25.6,12.8V153.6h256v204.791h-256v-30.43l-25.6-6.391v36.821    c0,14.14,11.46,25.6,25.6,25.6h105.404l-65.178,108.621c-3.652,6.05-1.673,13.926,4.403,17.553    c5.999,3.678,13.901,1.698,17.553-4.403l53.018-88.371v81.792c0,7.074,5.726,12.8,12.8,12.8s12.8-5.726,12.8-12.8v-81.792    l53.026,88.363c2.398,4.002,6.647,6.221,10.974,6.221c2.253,0,4.523-0.572,6.579-1.826c6.076-3.627,8.047-11.503,4.403-17.553    l-65.178-108.621h105.395c14.14,0,25.6-11.46,25.6-25.6V153.6C512.009,139.46,500.549,128,486.409,128z"/>
        </g>
    </g>
    <g>
        <g>
            <path d="M447.506,201.276c-1.929-6.801-9.003-10.803-15.821-8.772l-157.961,45.133c-1.843-1.783-3.908-3.345-6.263-4.531    l-102.4-51.2c-3.558-1.775-7.475-2.705-11.452-2.705h-102.4c-12.373,0-22.972,8.849-25.19,21.018l-25.6,140.791    c-1.357,7.467,0.666,15.155,5.53,20.983s12.066,9.199,19.661,9.199h16.358l9.327,117.222c1.058,13.312,12.16,23.569,25.515,23.569    h51.2c13.047,0,24.004-9.805,25.446-22.767l22.366-201.276l73.984,18.492c2.048,0.512,4.13,0.759,6.204,0.759    c5.649,0,11.204-1.869,15.753-5.419c6.212-4.847,9.847-12.297,9.847-20.181V261.99l157.124-44.894    C445.535,215.168,449.46,208.068,447.506,201.276z M256.009,281.6l-102.4-25.6l-25.6,230.392h-51.2l-11.196-140.8H25.609    l25.6-140.791h38.4v77.875c0,7.074,5.726,12.8,12.8,12.8c7.074,0,12.8-5.726,12.8-12.8V204.8h38.4l102.4,51.2V281.6z"/>
        </g>
    </g>
</symbol><symbol id="service" viewBox="0 0 512 512" xml:space="preserve" xmlns="http://www.w3.org/2000/svg">
    <style type="text/css">.kst0{fill:#b52670;}</style>
    <g>
        <path class="kst0" d="M149.193,103.525c15.994,0,28.964-12.97,28.964-28.972V28.964C178.157,12.97,165.187,0,149.193,0   C133.19,0,120.22,12.97,120.22,28.964v45.589C120.22,90.556,133.19,103.525,149.193,103.525z"/>
        <path class="kst0" d="M362.815,103.525c15.994,0,28.964-12.97,28.964-28.972V28.964C391.78,12.97,378.81,0,362.815,0   c-16.003,0-28.972,12.97-28.972,28.964v45.589C333.843,90.556,346.813,103.525,362.815,103.525z"/>
        <path class="kst0" d="M435.164,41.287h-17.925v33.266c0,30.017-24.415,54.431-54.423,54.431c-30.017,0-54.431-24.414-54.431-54.431   V41.287H203.615v33.266c0,30.017-24.414,54.431-54.422,54.431c-30.018,0-54.432-24.414-54.432-54.431V41.287H76.836   c-38.528,0-69.763,31.235-69.763,69.763v331.187C7.073,480.765,38.308,512,76.836,512h358.328   c38.528,0,69.763-31.235,69.763-69.763V111.05C504.927,72.522,473.691,41.287,435.164,41.287z M470.982,442.237   c0,19.748-16.07,35.818-35.818,35.818H76.836c-19.749,0-35.818-16.07-35.818-35.818V155.138h429.964V442.237z"/>
        <rect x="183.676" y="377.571" class="kst0" width="56.727" height="56.727"/>
        <rect x="183.676" y="289.65" class="kst0" width="56.727" height="56.727"/>
        <rect x="95.765" y="377.571" class="kst0" width="56.718" height="56.727"/>
        <rect x="95.765" y="289.65" class="kst0" width="56.718" height="56.727"/>
        <rect x="359.517" y="201.73" class="kst0" width="56.718" height="56.727"/>
        <rect x="271.597" y="201.73" class="kst0" width="56.735" height="56.727"/>
        <rect x="271.597" y="289.65" class="kst0" width="56.735" height="56.727"/>
        <rect x="359.517" y="377.571" class="kst0" width="56.718" height="56.727"/>
        <rect x="359.517" y="289.65" class="kst0" width="56.718" height="56.727"/>
        <rect x="271.597" y="377.571" class="kst0" width="56.735" height="56.727"/>
        <rect x="183.676" y="201.73" class="kst0" width="56.727" height="56.727"/>
        <rect x="95.765" y="201.73" class="kst0" width="56.718" height="56.727"/>
    </g>
</symbol></svg>