<?xml version="1.0" encoding="UTF-8"?><!DOCTYPE svg PUBLIC "-//W3C//DTD SVG 1.1//EN" "http://www.w3.org/Graphics/SVG/1.1/DTD/svg11.dtd"><svg xmlns="http://www.w3.org/2000/svg" xmlns:xlink="http://www.w3.org/1999/xlink"><symbol id="arrow-up" viewBox="0 0 24 24" xmlns="http://www.w3.org/2000/svg">
    <path d="M12,0C5.383,0,0,5.383,0,12s5.383,12,12,12,12-5.383,12-12S18.617,0,12,0Zm4.361,12h-3.361v5c0,.552-.448,1-1,1s-1-.448-1-1v-5h-3.361c-.695,0-1.044-.852-.552-1.35l4.361-4.418c.305-.309,.799-.309,1.104,0l4.361,4.418c.492,.498,.143,1.35-.552,1.35Z"/>
</symbol><symbol viewBox="0 0 24 24" id="close" xmlns="http://www.w3.org/2000/svg">
    <g id="bSVGRepo_bgCarrier" stroke-width="0"/>
    <g id="bSVGRepo_tracerCarrier" stroke-linecap="round" stroke-linejoin="round"/>
    <g id="bSVGRepo_iconCarrier">
        <title>Close</title>
        <g id="bPage-1" stroke-width="1" fill-rule="evenodd">
            <g id="bClose">
                <rect id="bRectangle" fill-rule="nonzero" x="0" y="0" width="24" height="24"/>
                <line x1="16.9999" y1="7" x2="7.00001" y2="16.9999" id="bPath" stroke-width="2" stroke-linecap="round"/>
                <line x1="7.00006" y1="7" x2="17" y2="16.9999" id="bPath" stroke-width="2" stroke-linecap="round"/>
            </g>
        </g>
    </g>
</symbol><symbol id="complex-protection" style="enable-background:new 0 0 512 512" viewBox="0 0 512 512" xml:space="preserve" xmlns="http://www.w3.org/2000/svg">
    <style type="text/css">.cst0{fill:#2B79C2;}.cst1{fill:#3B4652;}.st2{fill:#333333;}</style>
    <g>
        <path class="cst1" d="M434,195.6c0-0.1,0-0.2,0-0.3v-0.1c0-2.8-1.4-5.3-3.8-6.8l-170-105.9c0,0-0.1,0-0.1-0.1   c-0.3-0.2-0.5-0.3-0.8-0.4c0,0-0.1,0-0.1-0.1c-0.3-0.1-0.6-0.2-1-0.3c-0.1,0-0.1,0-0.2,0c-0.3-0.1-0.5-0.1-0.8-0.2   c-0.1,0-0.2,0-0.2,0c-0.3,0-0.7-0.1-1-0.1s-0.7,0-1,0.1c-0.1,0-0.2,0-0.2,0c-0.3,0-0.5,0.1-0.8,0.2c-0.1,0-0.1,0-0.2,0   c-0.3,0.1-0.6,0.2-1,0.3c0,0-0.1,0-0.1,0.1c-0.3,0.1-0.5,0.3-0.8,0.4c0,0-0.1,0-0.1,0.1l-170,105.9c-2.3,1.5-3.8,4-3.8,6.8v0.1   c0,0.1,0,0.2,0,0.3c0.1,2.3,0,5.8-0.1,10.2c-0.4,25.5-1.4,78.7,20.1,133.1c26.8,67.9,79.1,114.6,155.6,138.8   c0.4,0.1,0.7,0.2,1.1,0.3c0.1,0,0.2,0,0.2,0c0.4,0,0.7,0.1,1.1,0.1s0.7,0,1.1-0.1c0.1,0,0.2,0,0.2,0c0.4-0.1,0.7-0.1,1.1-0.3   c76.4-24.2,128.7-70.9,155.5-138.8c21.5-54.4,20.6-107.6,20.1-133.1C434,201.4,434,197.9,434,195.6z M248,459   C146.7,422.9,111.6,348.9,99.7,287.7H248V459z M415,271.7H264v-168l154,95.9c0,1.9,0.1,4,0.1,6.4   C418.4,220.8,418.8,244.4,415,271.7z"/>
        <path class="cst0" d="M494,185.1l-89.7-57.6V65c0-5.3-4.3-9.7-9.7-9.7H364c-5.3,0-9.7,4.3-9.7,9.7v30.5l-94-60.3   c-2.5-1.6-5.6-1.7-8.2-0.3c-0.3,0.2-0.7,0.4-1,0.6L18,185.2c-3.7,2.4-4.8,7.3-2.4,11.1c1.5,2.4,4.1,3.7,6.7,3.7   c1.5,0,3-0.4,4.3-1.3L256,51.4l229.3,147.2c3.7,2.4,8.7,1.3,11.1-2.4S497.7,187.5,494,185.1z"/>
    </g>
</symbol><symbol class="dicon" viewBox="0 0 1024 1024" id="control" xmlns="http://www.w3.org/2000/svg">
    <path d="M880 112H144c-17.7 0-32 14.3-32 32v736c0 17.7 14.3 32 32 32h736c17.7 0 32-14.3 32-32V144c0-17.7-14.3-32-32-32zm-40 728H184V184h656v656zM340 683v77c0 4.4 3.6 8 8 8h48c4.4 0 8-3.6 8-8v-77c-10.1 3.3-20.8 5-32 5s-21.9-1.8-32-5zm64-198V264c0-4.4-3.6-8-8-8h-48c-4.4 0-8 3.6-8 8v221c10.1-3.3 20.8-5 32-5s21.9 1.8 32 5zm-64 198c10.1 3.3 20.8 5 32 5s21.9-1.8 32-5c41.8-13.5 72-52.7 72-99s-30.2-85.5-72-99c-10.1-3.3-20.8-5-32-5s-21.9 1.8-32 5c-41.8 13.5-72 52.7-72 99s30.2 85.5 72 99zm.1-115.7c.3-.6.7-1.2 1-1.8v-.1l1.2-1.8c.1-.2.2-.3.3-.5.3-.5.7-.9 1-1.4.1-.1.2-.3.3-.4.5-.6.9-1.1 1.4-1.6l.3-.3 1.2-1.2.4-.4c.5-.5 1-.9 1.6-1.4.6-.5 1.1-.9 1.7-1.3.2-.1.3-.2.5-.3.5-.3.9-.7 1.4-1 .1-.1.3-.2.4-.3.6-.4 1.2-.7 1.9-1.1.1-.1.3-.1.4-.2.5-.3 1-.5 1.6-.8l.6-.3c.7-.3 1.3-.6 2-.8.7-.3 1.4-.5 2.1-.7.2-.1.4-.1.6-.2.6-.2 1.1-.3 1.7-.4.2 0 .3-.1.5-.1.7-.2 1.5-.3 2.2-.4.2 0 .3 0 .5-.1.6-.1 1.2-.1 1.8-.2h.6c.8 0 1.5-.1 2.3-.1s1.5 0 2.3.1h.6c.6 0 1.2.1 1.8.2.2 0 .3 0 .5.1.7.1 1.5.2 2.2.4.2 0 .3.1.5.1.6.1 1.2.3 1.7.4.2.1.4.1.6.2.7.2 1.4.4 2.1.7.7.2 1.3.5 2 .8l.6.3c.5.2 1.1.5 1.6.8.1.1.3.1.4.2.6.3 1.3.7 1.9 1.1.1.1.3.2.4.3.5.3 1 .6 1.4 1 .2.1.3.2.5.3.6.4 1.2.9 1.7 1.3s1.1.9 1.6 1.4l.4.4 1.2 1.2.3.3c.5.5 1 1.1 1.4 1.6.1.1.2.3.3.4.4.4.7.9 1 1.4.1.2.2.3.3.5l1.2 1.8s0 .1.1.1a36.18 36.18 0 0 1 5.1 18.5c0 6-1.5 11.7-4.1 16.7-.3.6-.7 1.2-1 1.8 0 0 0 .1-.1.1l-1.2 1.8c-.1.2-.2.3-.3.5-.3.5-.7.9-1 1.4-.1.1-.2.3-.3.4-.5.6-.9 1.1-1.4 1.6l-.3.3-1.2 1.2-.4.4c-.5.5-1 .9-1.6 1.4-.6.5-1.1.9-1.7 1.3-.2.1-.3.2-.5.3-.5.3-.9.7-1.4 1-.1.1-.3.2-.4.3-.6.4-1.2.7-1.9 1.1-.1.1-.3.1-.4.2-.5.3-1 .5-1.6.8l-.6.3c-.7.3-1.3.6-2 .8-.7.3-1.4.5-2.1.7-.2.1-.4.1-.6.2-.6.2-1.1.3-1.7.4-.2 0-.3.1-.5.1-.7.2-1.5.3-2.2.4-.2 0-.3 0-.5.1-.6.1-1.2.1-1.8.2h-.6c-.8 0-1.5.1-2.3.1s-1.5 0-2.3-.1h-.6c-.6 0-1.2-.1-1.8-.2-.2 0-.3 0-.5-.1-.7-.1-1.5-.2-2.2-.4-.2 0-.3-.1-.5-.1-.6-.1-1.2-.3-1.7-.4-.2-.1-.4-.1-.6-.2-.7-.2-1.4-.4-2.1-.7-.7-.2-1.3-.5-2-.8l-.6-.3c-.5-.2-1.1-.5-1.6-.8-.1-.1-.3-.1-.4-.2-.6-.3-1.3-.7-1.9-1.1-.1-.1-.3-.2-.4-.3-.5-.3-1-.6-1.4-1-.2-.1-.3-.2-.5-.3-.6-.4-1.2-.9-1.7-1.3s-1.1-.9-1.6-1.4l-.4-.4-1.2-1.2-.3-.3c-.5-.5-1-1.1-1.4-1.6-.1-.1-.2-.3-.3-.4-.4-.4-.7-.9-1-1.4-.1-.2-.2-.3-.3-.5l-1.2-1.8v-.1c-.4-.6-.7-1.2-1-1.8-2.6-5-4.1-10.7-4.1-16.7s1.5-11.7 4.1-16.7zM620 539v221c0 4.4 3.6 8 8 8h48c4.4 0 8-3.6 8-8V539c-10.1 3.3-20.8 5-32 5s-21.9-1.8-32-5zm64-198v-77c0-4.4-3.6-8-8-8h-48c-4.4 0-8 3.6-8 8v77c10.1-3.3 20.8-5 32-5s21.9 1.8 32 5zm-64 198c10.1 3.3 20.8 5 32 5s21.9-1.8 32-5c41.8-13.5 72-52.7 72-99s-30.2-85.5-72-99c-10.1-3.3-20.8-5-32-5s-21.9 1.8-32 5c-41.8 13.5-72 52.7-72 99s30.2 85.5 72 99zm.1-115.7c.3-.6.7-1.2 1-1.8v-.1l1.2-1.8c.1-.2.2-.3.3-.5.3-.5.7-.9 1-1.4.1-.1.2-.3.3-.4.5-.6.9-1.1 1.4-1.6l.3-.3 1.2-1.2.4-.4c.5-.5 1-.9 1.6-1.4.6-.5 1.1-.9 1.7-1.3.2-.1.3-.2.5-.3.5-.3.9-.7 1.4-1 .1-.1.3-.2.4-.3.6-.4 1.2-.7 1.9-1.1.1-.1.3-.1.4-.2.5-.3 1-.5 1.6-.8l.6-.3c.7-.3 1.3-.6 2-.8.7-.3 1.4-.5 2.1-.7.2-.1.4-.1.6-.2.6-.2 1.1-.3 1.7-.4.2 0 .3-.1.5-.1.7-.2 1.5-.3 2.2-.4.2 0 .3 0 .5-.1.6-.1 1.2-.1 1.8-.2h.6c.8 0 1.5-.1 2.3-.1s1.5 0 2.3.1h.6c.6 0 1.2.1 1.8.2.2 0 .3 0 .5.1.7.1 1.5.2 2.2.4.2 0 .3.1.5.1.6.1 1.2.3 1.7.4.2.1.4.1.6.2.7.2 1.4.4 2.1.7.7.2 1.3.5 2 .8l.6.3c.5.2 1.1.5 1.6.8.1.1.3.1.4.2.6.3 1.3.7 1.9 1.1.1.1.3.2.4.3.5.3 1 .6 1.4 1 .2.1.3.2.5.3.6.4 1.2.9 1.7 1.3s1.1.9 1.6 1.4l.4.4 1.2 1.2.3.3c.5.5 1 1.1 1.4 1.6.1.1.2.3.3.4.4.4.7.9 1 1.4.1.2.2.3.3.5l1.2 1.8v.1a36.18 36.18 0 0 1 5.1 18.5c0 6-1.5 11.7-4.1 16.7-.3.6-.7 1.2-1 1.8v.1l-1.2 1.8c-.1.2-.2.3-.3.5-.3.5-.7.9-1 1.4-.1.1-.2.3-.3.4-.5.6-.9 1.1-1.4 1.6l-.3.3-1.2 1.2-.4.4c-.5.5-1 .9-1.6 1.4-.6.5-1.1.9-1.7 1.3-.2.1-.3.2-.5.3-.5.3-.9.7-1.4 1-.1.1-.3.2-.4.3-.6.4-1.2.7-1.9 1.1-.1.1-.3.1-.4.2-.5.3-1 .5-1.6.8l-.6.3c-.7.3-1.3.6-2 .8-.7.3-1.4.5-2.1.7-.2.1-.4.1-.6.2-.6.2-1.1.3-1.7.4-.2 0-.3.1-.5.1-.7.2-1.5.3-2.2.4-.2 0-.3 0-.5.1-.6.1-1.2.1-1.8.2h-.6c-.8 0-1.5.1-2.3.1s-1.5 0-2.3-.1h-.6c-.6 0-1.2-.1-1.8-.2-.2 0-.3 0-.5-.1-.7-.1-1.5-.2-2.2-.4-.2 0-.3-.1-.5-.1-.6-.1-1.2-.3-1.7-.4-.2-.1-.4-.1-.6-.2-.7-.2-1.4-.4-2.1-.7-.7-.2-1.3-.5-2-.8l-.6-.3c-.5-.2-1.1-.5-1.6-.8-.1-.1-.3-.1-.4-.2-.6-.3-1.3-.7-1.9-1.1-.1-.1-.3-.2-.4-.3-.5-.3-1-.6-1.4-1-.2-.1-.3-.2-.5-.3-.6-.4-1.2-.9-1.7-1.3s-1.1-.9-1.6-1.4l-.4-.4-1.2-1.2-.3-.3c-.5-.5-1-1.1-1.4-1.6-.1-.1-.2-.3-.3-.4-.4-.4-.7-.9-1-1.4-.1-.2-.2-.3-.3-.5l-1.2-1.8v-.1c-.4-.6-.7-1.2-1-1.8-2.6-5-4.1-10.7-4.1-16.7s1.5-11.7 4.1-16.7z"/>
</symbol><symbol viewBox="0 0 1920 1920" id="email" xmlns="http://www.w3.org/2000/svg">
    <path d="M1920 428.266v1189.54l-464.16-580.146-88.203 70.585 468.679 585.904H83.684l468.679-585.904-88.202-70.585L0 1617.805V428.265l959.944 832.441L1920 428.266ZM1919.932 226v52.627l-959.943 832.44L.045 278.628V226h1919.887Z" fill-rule="evenodd"/>
</symbol><symbol id="emergency" viewBox="0 0 16.933334 16.933333" xmlns="http://www.w3.org/2000/svg">
    <defs id="fdefs973"/>
    <sodipodi:namedview xmlns:inkscape="http://www.inkscape.org/namespaces/inkscape" inkscape:snap-nodes="false" inkscape:bbox-nodes="true" inkscape:snap-bbox="true" inkscape:document-rotation="0" inkscape:window-maximized="1" inkscape:window-y="-8" inkscape:window-x="-8" inkscape:window-height="715" inkscape:window-width="1366" units="pt" showgrid="false" inkscape:current-layer="layer1" inkscape:document-units="pt" inkscape:cy="23.300758" inkscape:cx="7.3002642" inkscape:zoom="6.0435533" inkscape:pageshadow="2" inkscape:pageopacity="0.0" borderopacity="1.0" bordercolor="#666666" pagecolor="#ffffff" id="fbase" xmlns:sodipodi="http://sodipodi.sourceforge.net/DTD/sodipodi-0.dtd">
        <inkscape:grid id="fgrid1526" type="xygrid"/>
        <sodipodi:guide inkscape:locked="false" id="fguide1528" orientation="56.666615,0" position="0.97013909,15.963209"/>
        <sodipodi:guide inkscape:locked="false" id="fguide1530" orientation="0,56.666667" position="0.97013909,0.97016731"/>
        <sodipodi:guide inkscape:locked="false" id="fguide1532" orientation="-56.666615,0" position="15.963195,0.97016731"/>
        <sodipodi:guide inkscape:locked="false" id="fguide1534" orientation="0,-56.666667" position="15.963195,15.963209"/>
    </sodipodi:namedview>
    <metadata id="fmetadata976">
        <rdf:RDF xmlns:rdf="http://www.w3.org/1999/02/22-rdf-syntax-ns#">
            <cc:Work rdf:about="" xmlns:cc="http://creativecommons.org/ns#">
                <dc:format xmlns:dc="http://purl.org/dc/elements/1.1/">
                    image/svg+xml
                </dc:format>
                <dc:type rdf:resource="http://purl.org/dc/dcmitype/StillImage" xmlns:dc="http://purl.org/dc/elements/1.1/"/>
                <dc:title xmlns:dc="http://purl.org/dc/elements/1.1/"/>
            </cc:Work>
        </rdf:RDF>
    </metadata>
    <g transform="translate(0,-280.06668)" id="flayer1" xmlns:inkscape="http://www.inkscape.org/namespaces/inkscape" inkscape:groupmode="layer" inkscape:label="Layer 1">
        <path d="m 1.529889,282.64376 c -0.00715,-3e-5 -0.014296,1.9e-4 -0.02143,6.4e-4 -0.1002334,0.006 -0.1917961,0.059 -0.247697,0.14245 -0.09953,0.14807 -0.060002,0.34883 0.088238,0.44812 l 1.9368268,1.29143 c 0.148615,0.0985 0.3490403,0.0579 0.4474933,-0.0907 0.097444,-0.14808 0.057203,-0.34703 -0.090129,-0.4456 L 1.7088853,282.6993 C 1.6560193,282.6636 1.593727,282.6442 1.529888,282.6438 Z m 13.876074,6.4e-4 c -0.06442,-1.8e-4 -0.127415,0.0189 -0.180887,0.0549 l -1.934305,1.29079 c -0.147552,0.0983 -0.18808,0.29736 -0.09075,0.4456 0.09849,0.14912 0.299384,0.1898 0.448123,0.0907 l 1.936825,-1.29142 c 0.148023,-0.0995 0.187263,-0.30021 0.08761,-0.44813 -0.05976,-0.0888 -0.159619,-0.14209 -0.266607,-0.14244 z m -9.1175173,0.64541 c -0.7489464,0 -1.3926854,0.53174 -1.5328231,1.26747 l -1.613497,5.86595 c -0.1189831,0.62466 0.3316994,1.19914 0.9504505,1.25675 H 2.6580765 c -0.3564431,0 -0.6453989,0.49073 -0.6453989,1.09668 v 0.54897 c 0,0.60598 0.2889558,1.0973 0.6453989,1.0973 H 13.952557 c 0.356444,0 0.645399,-0.49132 0.645399,-1.0973 v -0.54897 c 0,-0.60595 -0.288955,-1.09668 -0.645399,-1.09668 h -1.433241 c 0.61837,-0.0579 1.068132,-0.63231 0.949192,-1.25675 l -1.371473,-5.86595 c -0.140139,-0.73573 -0.783879,-1.26747 -1.532822,-1.26747 z m 0.8470856,0.96683 c 0.1792083,-7.1e-4 0.3246578,0.14476 0.3239577,0.32396 -3.232e-4,0.17847 -0.1454922,0.32277 -0.3239577,0.32207 -0.5960484,0 -1.103638,0.41977 -1.2151654,1.00529 -0.00195,0.009 -0.00427,0.0173 -0.00695,0.0259 l -1.0223015,3.72365 c -0.048052,0.17159 -0.2260958,0.27176 -0.3977018,0.22375 -0.1713525,-0.047 -0.2724971,-0.22363 -0.2262679,-0.39518 l 1.0241929,-3.72366 -0.00439,0.0265 c 0.1687461,-0.88592 0.9467482,-1.5322 1.8485901,-1.5322 z m 1.1691554,0 h 1.2914278 c 0.179207,-7.1e-4 0.3246577,0.14476 0.3239576,0.32396 -3.232e-4,0.17847 -0.1454922,0.32277 -0.3239576,0.32207 H 8.3046867 c -0.1774837,-6.8e-4 -0.3210952,-0.14459 -0.3214404,-0.32207 -6.452e-4,-0.17823 0.1432176,-0.32327 0.3214404,-0.32396 z m -6.8416065,1.29142 c -0.1782166,7.2e-4 -0.3221279,0.14574 -0.321439,0.32396 6.777e-4,0.17724 0.1442002,0.32074 0.321439,0.32143 h 1.6796756 c 0.1772387,-6.8e-4 0.320748,-0.14419 0.321439,-0.32143 7.099e-4,-0.17823 -0.1432166,-0.32327 -0.321439,-0.32397 z m 12.3281268,0 c -0.17847,3.6e-4 -0.322768,0.1455 -0.32207,0.32397 6.45e-4,0.17748 0.144585,0.3211 0.32207,0.32144 h 1.679044 c 0.177239,-6.9e-4 0.32075,-0.1442 0.32144,-0.32144 6.46e-4,-0.17823 -0.143216,-0.32327 -0.32144,-0.32397 z m -5.485891,0.32333 c 0.3564443,0 0.6453992,0.28895 0.6453992,0.64541 v 5.16318 H 7.659918 v -5.16318 c 0,-0.35646 0.2889549,-0.64541 0.645398,-0.64541 z m -5.4997559,1.29018 c -0.00589,2.5e-4 -0.011782,6.8e-4 -0.017648,0.001 -0.045456,0.005 -0.089285,0.02 -0.1285754,0.0435 l -1.5271498,0.88112 c -0.15455651,0.0888 -0.20789039,0.28601 -0.1191222,0.44055 0.089622,0.15365 0.2866691,0.20581 0.4405605,0.1166 l 1.5271498,-0.88112 c 0.1545566,-0.0888 0.2078901,-0.28601 0.1191209,-0.44057 -0.06022,-0.10464 -0.1737717,-0.16683 -0.2943355,-0.16134 z m 11.3190599,0.001 c -0.118965,-0.005 -0.230647,0.0572 -0.290556,0.1601 -0.08877,0.15455 -0.03543,0.35179 0.119123,0.44056 l 1.526519,0.88112 c 0.153892,0.0892 0.350939,0.0371 0.440563,-0.1166 0.08877,-0.15454 0.03543,-0.35179 -0.119123,-0.44055 l -1.526517,-0.88112 c -0.04569,-0.0266 -0.09719,-0.0415 -0.150006,-0.0435 z" style="color:#000000;font-style:normal;font-variant:normal;font-weight:normal;font-stretch:normal;font-size:medium;line-height:normal;font-family:sans-serif;font-variant-ligatures:normal;font-variant-position:normal;font-variant-caps:normal;font-variant-numeric:normal;font-variant-alternates:normal;font-variant-east-asian:normal;font-feature-settings:normal;font-variation-settings:normal;text-indent:0;text-align:start;text-decoration:none;text-decoration-line:none;text-decoration-style:solid;text-decoration-color:#000000;letter-spacing:normal;word-spacing:normal;text-transform:none;writing-mode:lr-tb;direction:ltr;text-orientation:mixed;dominant-baseline:auto;baseline-shift:baseline;text-anchor:start;white-space:normal;shape-padding:0;shape-margin:0;inline-size:0;clip-rule:nonzero;display:inline;overflow:visible;visibility:visible;isolation:auto;mix-blend-mode:normal;color-interpolation:sRGB;color-interpolation-filters:linearRGB;solid-color:#000000;solid-opacity:1;vector-effect:none;fill:#000000;fill-opacity:1;fill-rule:nonzero;stroke:none;stroke-width:0.645399;stroke-linecap:round;stroke-linejoin:round;stroke-miterlimit:4;stroke-dasharray:none;stroke-dashoffset:0;stroke-opacity:1;color-rendering:auto;image-rendering:auto;shape-rendering:auto;text-rendering:auto;enable-background:accumulate;stop-color:#000000" id="fpath1491" xmlns:sodipodi="http://sodipodi.sourceforge.net/DTD/sodipodi-0.dtd" sodipodi:nodetypes="ccccccccccccccccccscccsssssssscccssscccccccccssccccccccsccscccsccsccssccssscccccccsscccccccc"/>
    </g>
</symbol><symbol viewBox="0 0 32 32" id="facebook" xml:space="preserve" xmlns="http://www.w3.org/2000/svg">
    <style type="text/css">.gst0{fill-rule:evenodd;clip-rule:evenodd;fill:#FFFFFF;}</style>
    <path d="M6,2h20c2.2,0,4,1.8,4,4v20c0,2.2-1.8,4-4,4H6c-2.2,0-4-1.8-4-4V6C2,3.8,3.8,2,6,2z"/>
    <path class="gst0" d="M13.2,16.1v9.7c0,0.1,0.1,0.3,0.3,0.3h3.9c0.2,0,0.3-0.1,0.3-0.3v-9.8h2.8c0.1,0,0.3-0.1,0.3-0.2l0.3-3  c0-0.2-0.1-0.3-0.3-0.3h-3.1v-2.1c0-0.5,0.4-0.9,1-0.9h2.2c0.2,0,0.3-0.1,0.3-0.3V6.3C21,6.1,20.9,6,20.7,6h-3.6  c-2.1,0-3.9,1.6-3.9,3.6v2.9h-1.9c-0.2,0-0.3,0.1-0.3,0.3v3c0,0.1,0.1,0.3,0.3,0.3h1.9V16.1z"/>
</symbol><symbol stroke-miterlimit="10" style="fill-rule:nonzero;clip-rule:evenodd;stroke-linecap:round;stroke-linejoin:round" viewBox="0 0 3000 3000" id="instagram" xmlns="http://www.w3.org/2000/svg">
    <defs>
        <linearGradient gradientTransform="matrix(1 0 0 1 0 0)" gradientUnits="userSpaceOnUse" id="hLinearGradient" x1="1500" x2="2805.81" y1="1500" y2="194.188">
            <stop offset="0" stop-color="#7e7e7e"/>
            <stop offset="0.555825" stop-color="#c8c8c8"/>
            <stop offset="1" stop-color="#7e7e7e"/>
        </linearGradient>
    </defs>
    <g id="hUntitled">
        <path d="M1500 1189.05C1328.28 1189.12 1189.13 1328.36 1189.17 1500.08C1189.21 1671.79 1328.44 1810.97 1500.16 1810.95C1671.87 1810.93 1811.06 1671.72 1811.06 1500C1810.93 1328.28 1671.72 1189.12 1500 1189.05ZM2227 950.043C2195 868.955 2130.81 804.765 2049.72 772.768C1927.3 724.441 1635.83 735.284 1500 735.284C1364.17 735.284 1072.99 724.033 950.218 772.768C869.129 804.765 804.94 868.955 772.943 950.043C724.674 1072.46 735.459 1364.23 735.459 1499.94C735.459 1635.65 724.674 1927.07 773.176 2049.9C805.173 2130.99 869.363 2195.18 950.451 2227.17C1072.87 2275.5 1364.35 2264.66 1500.23 2264.66C1636.12 2264.66 1927.19 2275.91 2049.96 2227.17C2131.05 2195.18 2195.24 2130.99 2227.23 2049.9C2275.91 1927.48 2264.72 1635.71 2264.72 1500C2264.72 1364.29 2275.91 1072.93 2227.23 950.102L2227 950.043ZM1500 1978.02C1236 1978.02 1021.98 1764 1021.98 1500C1021.98 1236 1236 1021.98 1500 1021.98C1764 1021.98 1978.02 1236 1978.02 1500C1978.18 1626.83 1927.86 1748.5 1838.18 1838.18C1748.5 1927.86 1626.83 1978.18 1500 1978.02ZM1997.72 1113.5C1936.09 1113.54 1886.11 1063.59 1886.09 1001.96C1886.07 940.335 1936.02 890.36 1997.65 890.349C2059.28 890.338 2109.24 940.296 2109.24 1001.93C2109.37 1031.53 2097.7 1059.96 2076.82 1080.94C2055.94 1101.92 2027.56 1113.72 1997.96 1113.74L1997.72 1113.5ZM2526 194.188L474.005 194.188C319.466 194.188 194.188 319.466 194.188 474.005L194.188 2526C194.188 2680.53 319.466 2805.81 474.005 2805.81L2526 2805.81C2680.53 2805.81 2805.81 2680.53 2805.81 2526L2805.81 474.005C2805.81 319.466 2680.53 194.188 2526 194.188ZM2426.19 1884.75C2418.67 2034.16 2384.57 2166.55 2275.5 2275.33C2166.43 2384.1 2034.16 2418.91 1884.92 2426.02C1730.97 2434.7 1269.38 2434.7 1115.43 2426.02C966.016 2418.5 834.094 2384.34 724.849 2275.33C615.604 2166.31 581.268 2033.87 574.156 1884.75C565.47 1730.73 565.47 1269.09 574.156 1115.25C581.676 965.841 615.371 833.453 724.849 724.674C834.327 615.895 966.599 581.501 1115.43 574.389C1269.38 565.703 1730.97 565.703 1884.92 574.389C2034.33 581.909 2166.66 616.07 2275.5 725.082C2384.34 834.094 2419.08 966.541 2426.19 1115.95C2434.88 1269.38 2434.88 1730.62 2426.19 1884.75Z" fill-rule="nonzero" opacity="1"/>
    </g>
</symbol><symbol id="license" viewBox="0 0 791.91 791.91" style="enable-background:new 0 0 791.91 791.91" xml:space="preserve" xmlns="http://www.w3.org/2000/svg">
    <g>
        <path d="M532.659,322.978c0,9.671-7.701,17.371-17.371,17.371H220.336c-9.671,0-17.371-7.701-17.371-17.371   s7.701-17.371,17.371-17.371h293.967C523.973,304.622,532.659,312.323,532.659,322.978z M197.144,214.722v-78.349   c0-15.491,12.536-29.012,29.012-29.012h279.461c15.491,0,29.012,12.536,29.012,29.012v78.349c0,15.491-12.536,29.012-29.012,29.012   H226.156C209.68,243.734,197.144,231.108,197.144,214.722z M232.872,207.917h265.94v-64.828h-265.94L232.872,207.917   L232.872,207.917z M651.66,612.11l-0.985,147.028c0,29.997-20.326,31.877-24.176,31.877c-5.82,0-12.536-1.97-18.356-6.805   l-48.353-40.652l-46.383,38.682c-4.835,3.85-12.536,9.671-21.311,9.671c-10.656,0-21.311-7.701-23.191-23.191   c0-0.985,0-0.985,0-1.97v-28.922H145.837c-26.146,0-47.368-21.311-47.368-47.368V47.368C98.469,21.221,119.78,0,145.837,0h449.681   c26.146,0,47.368,21.311,47.368,47.368v362.646c14.506,10.656,26.146,25.161,34.832,41.548   C706.728,505.734,694.193,572.532,651.66,612.11z M645.84,469.022c-7.701-14.506-19.341-27.042-32.862-35.817   c-2.865-1.97-5.82-2.865-7.701-4.835c-0.985,0-1.97-0.985-2.865-0.985c-3.85-1.97-6.805-2.865-10.656-4.835c0,0,0,0-0.985,0   c-20.326-6.805-43.517-6.805-63.844,0.985h-0.985c-3.85,1.97-7.701,2.865-11.64,5.82c-32.862,17.371-51.218,51.218-51.218,86.05   l0,0l0,0c0,15.491,3.85,30.982,11.64,46.383c1.97,3.85,3.85,6.805,6.805,10.656c0.985,0.985,0.985,1.97,1.97,2.865   c1.97,2.865,3.85,4.835,5.82,6.805c0.985,0.985,0.985,0.985,1.97,1.97c2.865,2.865,5.82,5.82,8.686,7.701l0.985,0.985   c2.865,1.97,4.835,3.85,7.701,5.82l0.985,0.985c0.985,0,0.985,0.985,1.97,0.985s1.97,0.985,2.865,0.985   c0.985,0.985,2.865,0.985,3.85,1.97c22.206,10.656,47.368,12.536,71.544,5.82c0.985,0,2.865-0.985,3.85-0.985   c0.985,0,0.985,0,1.97-0.985c0.985,0,1.97-0.985,2.865-0.985c2.865-0.985,5.82-2.865,8.686-3.85c2.865-1.97,5.82-2.865,7.701-4.835   c2.865-1.97,4.835-3.85,7.701-5.82C657.48,561.877,669.031,510.569,645.84,469.022z M468.905,700.13v-68.679H220.336   c-9.671,0-17.371-7.701-17.371-17.371c0-9.671,7.701-17.371,17.371-17.371h233.078l0,0c-0.985-1.97-1.97-2.865-3.85-4.835   c-0.985-0.985-1.97-1.97-1.97-2.865c-1.97-1.97-2.865-4.835-4.835-7.701l-0.985-0.985c-1.97-3.85-3.85-7.701-5.82-12.536l0,0   c-3.85-10.656-6.805-21.311-8.686-31.877H220.336c-9.671,0-17.371-7.701-17.371-17.371c0-9.671,7.701-17.371,17.371-17.371h206.932   c0.985-6.805,1.97-13.521,3.85-20.326c4.835-14.506,11.64-28.027,20.326-39.667H220.336c-9.671,0-17.371-7.701-17.371-17.371   s7.701-17.371,17.371-17.371h269.79c1.97-0.985,3.85-1.97,5.82-3.85c3.85-1.97,7.701-3.85,12.536-5.82h0.985   c15.491-6.805,32.862-9.671,50.323-9.671c16.476,0,31.877,2.865,46.383,8.686l0,0V47.368c0-6.805-4.835-11.64-11.64-11.64H145.837   c-6.805,0-11.64,4.835-11.64,11.64v640.226c0,6.805,4.835,11.64,11.64,11.64h322.978v0.895H468.905z M615.843,637.271   c-0.985,0-0.985,0-1.97,0.985c0,0-0.985,0-0.985,0.985h-0.985c-1.97,0.985-3.85,0.985-5.82,1.97c-0.985,0-0.985,0-1.97,0.985   c-0.985,0-1.97,0.985-2.865,0.985c0,0,0,0-0.985,0c0,0,0,0-0.985,0s-0.985,0-1.97,0.985h-0.985c-0.985,0-1.97,0-2.865,0.985   c-0.985,0-2.865,0.985-4.835,0.985c-0.985,0-2.865,0.985-3.85,0.985l0,0l0,0c-1.97,0-3.85,0.985-6.805,0.985   c-0.985,0-2.865,0-3.85,0.985h-0.985c-0.985,0-0.985,0-1.97,0l0,0c-0.985,0-0.985,0-1.97,0c-2.865,0-5.82,0-7.701,0l0,0l0,0   c-0.985,0-0.985,0-1.97,0c-0.985,0-0.985,0-1.97,0l0,0l0,0c-2.865,0-6.805,0-9.671-0.985l0,0l0,0l0,0h-0.985h-0.985   c-12.536-0.985-25.161-4.835-35.817-9.671l0,0l0,0c-0.985-0.985-2.865-0.985-3.85-1.97l0,0l-0.985,105.391l43.517-36.712   c2.865-2.865,7.701-3.85,11.641-3.85s8.686,0.985,11.641,3.85l43.517,36.712L615.843,637.271z"/>
    </g>
    <g/>
    <g/>
    <g/>
    <g/>
    <g/>
    <g/>
    <g/>
    <g/>
    <g/>
    <g/>
    <g/>
    <g/>
    <g/>
    <g/>
    <g/>
</symbol><symbol viewBox="0 0 24 24" id="phone" xmlns="http://www.w3.org/2000/svg">
    <path d="M16.5562 12.9062L16.1007 13.359C16.1007 13.359 15.0181 14.4355 12.0631 11.4972C9.10812 8.55901 10.1907 7.48257 10.1907 7.48257L10.4775 7.19738C11.1841 6.49484 11.2507 5.36691 10.6342 4.54348L9.37326 2.85908C8.61028 1.83992 7.13596 1.70529 6.26145 2.57483L4.69185 4.13552C4.25823 4.56668 3.96765 5.12559 4.00289 5.74561C4.09304 7.33182 4.81071 10.7447 8.81536 14.7266C13.0621 18.9492 17.0468 19.117 18.6763 18.9651C19.1917 18.9171 19.6399 18.6546 20.0011 18.2954L21.4217 16.883C22.3806 15.9295 22.1102 14.2949 20.8833 13.628L18.9728 12.5894C18.1672 12.1515 17.1858 12.2801 16.5562 12.9062Z"/>
</symbol><symbol id="shield" viewBox="0 0 24 24" xmlns="http://www.w3.org/2000/svg">
    <title/>
    <path d="M20,4c-3.609,0-7.363-2.772-7.4-2.8a1,1,0,0,0-1.2,0C11.363,1.228,7.609,4,4,4A1,1,0,0,0,3,5c0,.6.1,14.73,8.649,17.937a1.009,1.009,0,0,0,.7,0C20.9,19.73,21,5.6,21,5A1,1,0,0,0,20,4ZM12,20.921C6.2,18.4,5.205,8.973,5.035,5.943A16.968,16.968,0,0,0,12,3.216a16.968,16.968,0,0,0,6.965,2.727C18.8,8.973,17.8,18.4,12,20.921Z"/>
    <path d="M8,11a4,4,0,1,0,4-4A4,4,0,0,0,8,11Zm6,0a2,2,0,1,1-2-2A2,2,0,0,1,14,11Z"/>
</symbol></svg>