<?xml version="1.0" encoding="utf-8"?><!DOCTYPE svg PUBLIC "-//W3C//DTD SVG 1.1//EN" "http://www.w3.org/Graphics/SVG/1.1/DTD/svg11.dtd"><svg xmlns="http://www.w3.org/2000/svg" xmlns:xlink="http://www.w3.org/1999/xlink"><symbol viewBox="0 0 24 24" id="arrow-left" xmlns="http://www.w3.org/2000/svg">
    <path d="M6 12H18M6 12L11 7M6 12L11 17" stroke-width="2" stroke-linecap="round" stroke-linejoin="round"/>
</symbol><symbol viewBox="0 0 24 24" id="arrow-right" xmlns="http://www.w3.org/2000/svg">
    <path d="M6 12H18M18 12L13 7M18 12L13 17" stroke-width="2" stroke-linecap="round" stroke-linejoin="round"/>
</symbol><symbol id="arrow-up" viewBox="0 0 24 24" xmlns="http://www.w3.org/2000/svg">
    <path d="M12,0C5.383,0,0,5.383,0,12s5.383,12,12,12,12-5.383,12-12S18.617,0,12,0Zm4.361,12h-3.361v5c0,.552-.448,1-1,1s-1-.448-1-1v-5h-3.361c-.695,0-1.044-.852-.552-1.35l4.361-4.418c.305-.309,.799-.309,1.104,0l4.361,4.418c.492,.498,.143,1.35-.552,1.35Z"/>
</symbol><symbol viewBox="0 0 24 24" id="close" xmlns="http://www.w3.org/2000/svg">
    <g id="dSVGRepo_bgCarrier" stroke-width="0"/>
    <g id="dSVGRepo_tracerCarrier" stroke-linecap="round" stroke-linejoin="round"/>
    <g id="dSVGRepo_iconCarrier">
        <title>Close</title>
        <g id="dPage-1" stroke-width="1" fill-rule="evenodd">
            <g id="dClose">
                <rect id="dRectangle" fill-rule="nonzero" x="0" y="0" width="24" height="24"/>
                <line x1="16.9999" y1="7" x2="7.00001" y2="16.9999" id="dPath" stroke-width="2" stroke-linecap="round"/>
                <line x1="7.00006" y1="7" x2="17" y2="16.9999" id="dPath" stroke-width="2" stroke-linecap="round"/>
            </g>
        </g>
    </g>
</symbol><symbol viewBox="0 0 24 24" id="cloud" xmlns="http://www.w3.org/2000/svg">
    <path fill-rule="evenodd" clip-rule="evenodd" d="M11.4697 15.4697C11.7626 15.1768 12.2374 15.1768 12.5303 15.4697L14.5303 17.4697C14.8232 17.7626 14.8232 18.2374 14.5303 18.5303C14.2374 18.8232 13.7626 18.8232 13.4697 18.5303L12.75 17.8107V22C12.75 22.4142 12.4142 22.75 12 22.75C11.5858 22.75 11.25 22.4142 11.25 22V17.8107L10.5303 18.5303C10.2374 18.8232 9.76256 18.8232 9.46967 18.5303C9.17678 18.2374 9.17678 17.7626 9.46967 17.4697L11.4697 15.4697Z"/>
    <path d="M12.4762 3.75C9.7261 3.75 7.5119 5.95083 7.5119 8.64706C7.5119 9.10922 7.5766 9.55551 7.69729 9.97813C8.19449 10.1216 8.65991 10.3389 9.08045 10.6171C9.42592 10.8456 9.52072 11.3109 9.29219 11.6564C9.06366 12.0019 8.59835 12.0967 8.25288 11.8681C7.87207 11.6162 7.43917 11.4355 6.9733 11.3451C6.75147 11.3021 6.52165 11.2794 6.28571 11.2794C4.3246 11.2794 2.75 12.8482 2.75 14.7647C2.75 16.6812 4.3246 18.25 6.28571 18.25C6.69993 18.25 7.03571 18.5858 7.03571 19C7.03571 19.4142 6.69993 19.75 6.28571 19.75C3.51296 19.75 1.25 17.5264 1.25 14.7647C1.25 12.0605 3.41987 9.87207 6.11351 9.78228C6.04673 9.41355 6.0119 9.03413 6.0119 8.64706C6.0119 5.10572 8.91446 2.25 12.4762 2.25C15.6343 2.25 18.2724 4.49369 18.8314 7.47127C21.1313 8.44751 22.75 10.7093 22.75 13.3529C22.75 16.4269 20.5623 18.9843 17.6568 19.6057C17.2518 19.6923 16.8532 19.4341 16.7666 19.0291C16.68 18.624 16.9381 18.2254 17.3432 18.1388C19.5829 17.6598 21.25 15.693 21.25 13.3529C21.25 11.2162 19.8607 9.39087 17.9124 8.72463C17.4038 8.55072 16.8568 8.45588 16.2857 8.45588C15.7031 8.45588 15.1455 8.55458 14.6283 8.73526C14.2372 8.87185 13.8095 8.66557 13.6729 8.27453C13.5363 7.88348 13.7426 7.45575 14.1336 7.31916C14.8079 7.08364 15.5326 6.95588 16.2857 6.95588C16.5812 6.95588 16.8723 6.97555 17.1577 7.01367C16.477 5.11631 14.6422 3.75 12.4762 3.75Z"/>
</symbol><symbol id="complex-protection" style="enable-background:new 0 0 512 512" viewBox="0 0 512 512" xml:space="preserve" xmlns="http://www.w3.org/2000/svg">
    <style type="text/css">.fst0{fill:#2B79C2;}.fst1{fill:#ea6211;}.st2{fill:#333333;}</style>
    <g>
        <path class="fst1" d="M434,195.6c0-0.1,0-0.2,0-0.3v-0.1c0-2.8-1.4-5.3-3.8-6.8l-170-105.9c0,0-0.1,0-0.1-0.1   c-0.3-0.2-0.5-0.3-0.8-0.4c0,0-0.1,0-0.1-0.1c-0.3-0.1-0.6-0.2-1-0.3c-0.1,0-0.1,0-0.2,0c-0.3-0.1-0.5-0.1-0.8-0.2   c-0.1,0-0.2,0-0.2,0c-0.3,0-0.7-0.1-1-0.1s-0.7,0-1,0.1c-0.1,0-0.2,0-0.2,0c-0.3,0-0.5,0.1-0.8,0.2c-0.1,0-0.1,0-0.2,0   c-0.3,0.1-0.6,0.2-1,0.3c0,0-0.1,0-0.1,0.1c-0.3,0.1-0.5,0.3-0.8,0.4c0,0-0.1,0-0.1,0.1l-170,105.9c-2.3,1.5-3.8,4-3.8,6.8v0.1   c0,0.1,0,0.2,0,0.3c0.1,2.3,0,5.8-0.1,10.2c-0.4,25.5-1.4,78.7,20.1,133.1c26.8,67.9,79.1,114.6,155.6,138.8   c0.4,0.1,0.7,0.2,1.1,0.3c0.1,0,0.2,0,0.2,0c0.4,0,0.7,0.1,1.1,0.1s0.7,0,1.1-0.1c0.1,0,0.2,0,0.2,0c0.4-0.1,0.7-0.1,1.1-0.3   c76.4-24.2,128.7-70.9,155.5-138.8c21.5-54.4,20.6-107.6,20.1-133.1C434,201.4,434,197.9,434,195.6z M248,459   C146.7,422.9,111.6,348.9,99.7,287.7H248V459z M415,271.7H264v-168l154,95.9c0,1.9,0.1,4,0.1,6.4   C418.4,220.8,418.8,244.4,415,271.7z"/>
        <path class="fst0" d="M494,185.1l-89.7-57.6V65c0-5.3-4.3-9.7-9.7-9.7H364c-5.3,0-9.7,4.3-9.7,9.7v30.5l-94-60.3   c-2.5-1.6-5.6-1.7-8.2-0.3c-0.3,0.2-0.7,0.4-1,0.6L18,185.2c-3.7,2.4-4.8,7.3-2.4,11.1c1.5,2.4,4.1,3.7,6.7,3.7   c1.5,0,3-0.4,4.3-1.3L256,51.4l229.3,147.2c3.7,2.4,8.7,1.3,11.1-2.4S497.7,187.5,494,185.1z"/>
    </g>
</symbol><symbol id="control" viewBox="-249 151 100 100" style="enable-background:new -249 151 100 100" xml:space="preserve" stroke-width="0.01" xmlns="http://www.w3.org/2000/svg">
    <g>
        <path d="M-241.9,154.3v93.2c0,1.4,1.1,2.5,2.5,2.5h80.8c1.4,0,2.5-1.1,2.5-2.5v-93.2c0-1.4-1.1-2.5-2.5-2.5h-80.8   C-240.8,151.8-241.9,153-241.9,154.3z M-161.1,245h-75.8v-88.2h75.8V245z"/>
        <path d="M-218.2,185.1h12.7v-6.6h31.1c1.4,0,2.5-1.1,2.5-2.5l0,0c0-1.4-1.1-2.5-2.5-2.5h-31.1v-5.2c0-1.4-1.1-2.5-2.5-2.5h-7.7   c-1.4,0-2.5,1.1-2.5,2.5v5.2h-5.4c-1.4,0-2.5,1.1-2.5,2.5l0,0c0,1.4,1.1,2.5,2.5,2.5h5.4V185.1z M-213.2,178.4v-5v-2.7h2.7v2.7v5   v1.6h-2.7V178.4z"/>
        <path d="M-186.7,211.1h7.7c1.4,0,2.5-1.1,2.5-2.5v-5.1h2.1c1.4,0,2.5-1.1,2.5-2.5l0,0c0-1.4-1.1-2.5-2.5-2.5h-2.1v-4.2   c0-1.4-1.1-2.5-2.5-2.5h-7.7c-1.4,0-2.5,1.1-2.5,2.5v4.2h-34.4c-1.4,0-2.5,1.1-2.5,2.5l0,0c0,1.4,1.1,2.5,2.5,2.5h34.4v5.1   C-189.2,210-188,211.1-186.7,211.1z M-184.2,203.4v-5v-1.7h2.7v1.7v5v2.6h-2.7V203.4z"/>
        <path d="M-205.7,236.1h7.7c1.4,0,2.5-1.1,2.5-2.5v-5.1h21.1c1.4,0,2.5-1.1,2.5-2.5l0,0c0-1.4-1.1-2.5-2.5-2.5h-21.1v-4.2   c0-1.4-1.1-2.5-2.5-2.5h-7.7c-1.4,0-2.5,1.1-2.5,2.5v4.2h-15.4c-1.4,0-2.5,1.1-2.5,2.5l0,0c0,1.4,1.1,2.5,2.5,2.5h15.4v5.1   C-208.2,235-207,236.1-205.7,236.1z M-203.2,228.4v-5v-1.7h2.7v1.7v5v2.6h-2.7V228.4z"/>
    </g>
</symbol><symbol viewBox="0 0 1920 1920" id="email" xmlns="http://www.w3.org/2000/svg">
    <path d="M1920 428.266v1189.54l-464.16-580.146-88.203 70.585 468.679 585.904H83.684l468.679-585.904-88.202-70.585L0 1617.805V428.265l959.944 832.441L1920 428.266ZM1919.932 226v52.627l-959.943 832.44L.045 278.628V226h1919.887Z" fill-rule="evenodd"/>
</symbol><symbol viewBox="0 0 16.933334 16.933333" id="emergency" xmlns="http://www.w3.org/2000/svg">
    <defs id="idefs973"/>
    <sodipodi:namedview id="ibase" pagecolor="#ffffff" bordercolor="#666666" borderopacity="1.0" xmlns:inkscape="http://www.inkscape.org/namespaces/inkscape" inkscape:pageopacity="0.0" inkscape:pageshadow="2" inkscape:zoom="6.0435533" inkscape:cx="27.659409" inkscape:cy="30.473392" inkscape:document-units="pt" inkscape:current-layer="layer1" showgrid="false" units="pt" inkscape:window-width="1366" inkscape:window-height="715" inkscape:window-x="-8" inkscape:window-y="-8" inkscape:window-maximized="1" inkscape:document-rotation="0" inkscape:snap-bbox="true" inkscape:bbox-nodes="true" inkscape:snap-nodes="false" xmlns:sodipodi="http://sodipodi.sourceforge.net/DTD/sodipodi-0.dtd">
        <inkscape:grid type="xygrid" id="igrid1526"/>
        <sodipodi:guide position="0.97013909,15.963209" orientation="56.666615,0" id="iguide1528" inkscape:locked="false"/>
        <sodipodi:guide position="0.97013909,0.97016731" orientation="0,56.666667" id="iguide1530" inkscape:locked="false"/>
        <sodipodi:guide position="15.963195,0.97016731" orientation="-56.666615,0" id="iguide1532" inkscape:locked="false"/>
        <sodipodi:guide position="15.963195,15.963209" orientation="0,-56.666667" id="iguide1534" inkscape:locked="false"/>
    </sodipodi:namedview>
    <metadata id="imetadata976">
        <rdf:RDF xmlns:rdf="http://www.w3.org/1999/02/22-rdf-syntax-ns#">
            <cc:Work rdf:about="" xmlns:cc="http://creativecommons.org/ns#">
                <dc:format xmlns:dc="http://purl.org/dc/elements/1.1/">
                    image/svg+xml
                </dc:format>
                <dc:type rdf:resource="http://purl.org/dc/dcmitype/StillImage" xmlns:dc="http://purl.org/dc/elements/1.1/"/>
                <dc:title xmlns:dc="http://purl.org/dc/elements/1.1/"/>
            </cc:Work>
        </rdf:RDF>
    </metadata>
    <g xmlns:inkscape="http://www.inkscape.org/namespaces/inkscape" inkscape:label="Layer 1" inkscape:groupmode="layer" id="ilayer1" transform="translate(0,-280.06668)">
        <path xmlns:sodipodi="http://sodipodi.sourceforge.net/DTD/sodipodi-0.dtd" sodipodi:nodetypes="cccccccccccccccccscccccssssscssssssccccsssscccsccsccsscscssccsccscccsccccccccsccsccsccccccccccccccccssccssccccccccccccccccccccccccccccccssssssssssc" d="m 1.5279724,282.28391 c -0.00694,-10e-6 -0.013875,2e-4 -0.020781,6.4e-4 -0.099661,0.007 -0.1904277,0.0599 -0.2457937,0.14306 -0.099093,0.14796 -0.059606,0.34821 0.088235,0.44746 l 1.9367236,1.29137 c 0.1486079,0.0985 0.3490226,0.0579 0.44747,-0.0907 0.098726,-0.14845 0.058369,-0.34882 -0.090127,-0.44747 l -1.9367235,-1.28883 c -0.052865,-0.0359 -0.1151522,-0.0551 -0.1789886,-0.0555 z m 13.8778636,6.4e-4 c -0.06442,-2e-4 -0.12741,0.0189 -0.180879,0.0549 l -1.936724,1.28884 c -0.14784,0.0993 -0.187327,0.29951 -0.08824,0.44746 0.09848,0.14911 0.299368,0.18979 0.4481,0.0907 l 1.936723,-1.29137 c 0.147623,-0.0994 0.186822,-0.29968 0.0876,-0.44747 -0.05961,-0.0889 -0.159492,-0.14257 -0.266591,-0.14306 z m -8.9563259,0.23571 c -0.9058858,0 -1.6811527,0.66282 -1.8484922,1.56487 l 0.005,-0.0233 -1.6153024,6.10953 c -0.00159,0.009 -0.00329,0.016 -0.00439,0.0239 -0.070041,0.37758 0.022428,0.74251 0.2142801,1.03863 H 2.657341 c -0.2689008,0 -0.5621868,0.11074 -0.82435,0.35483 -0.2621665,0.24403 -0.4644883,0.63653 -0.4644883,1.14578 v 0.54766 c 0,0.50399 0.1912118,0.89706 0.4506227,1.14326 0.2594107,0.2462 0.5626288,0.35735 0.8382156,0.35735 3.8721911,10e-6 7.745005,10e-6 11.617196,0 0.275588,0 0.58133,-0.11111 0.84074,-0.35735 0.259411,-0.2462 0.449991,-0.63927 0.449991,-1.14326 v -0.54766 c 0,-0.50925 -0.202323,-0.90175 -0.464489,-1.14578 -0.262163,-0.24403 -0.55734,-0.35483 -0.826242,-0.35483 h -0.540744 c 0.191851,-0.29612 0.284323,-0.66105 0.214281,-1.03863 -0.0016,-0.004 -0.0033,-0.009 -0.005,-0.0122 l -1.366976,-6.09819 c -0.167341,-0.90204 -0.945131,-1.56488 -1.851013,-1.56488 z m 0,0.64535 h 4.2755409 c 0.591923,0 1.102179,0.42993 1.2151,1.03864 6.45e-4,0.004 0.0016,0.009 0.0026,0.0122 l 1.369508,6.09566 c 0.09053,0.488 -0.262072,0.92205 -0.731079,0.92205 H 9.4343547 v -2.90603 H 10.07972 c 0.352604,0 0.645359,-0.29089 0.645365,-0.64348 v -0.96931 c -6e-6,-0.3526 -0.292773,-0.64536 -0.645365,-0.64536 H 9.4343547 c -0.00293,0 -0.00585,5.8e-4 -0.00878,6.4e-4 -0.04421,-0.49097 -0.456856,-0.88233 -0.9585915,-0.88233 -0.5017356,0 -0.916034,0.39136 -0.9604831,0.88233 -0.00293,-3e-5 -0.00585,-6.4e-4 -0.00878,-6.4e-4 H 6.8548727 c -0.3525911,0 -0.6459907,0.29276 -0.6459968,0.64536 v 0.96931 c 6.1e-6,0.35259 0.2933886,0.64348 0.6459968,0.64348 h 0.6428417 v 2.90603 H 4.3534527 c -0.4690055,0 -0.8216038,-0.43405 -0.7310751,-0.92205 l 1.6077385,-6.08369 c 0.00195,-0.007 0.00366,-0.0159 0.005,-0.0239 0.1129215,-0.60871 0.6225441,-1.03864 1.2144693,-1.03864 z m 0.7266639,0.64601 c -0.9017929,0 -1.6797514,0.6431 -1.8484886,1.52896 l -0.7361218,2.72766 c -0.046052,0.17232 0.056418,0.34931 0.2287786,0.39516 0.1715447,0.0462 0.3481872,-0.0549 0.3951596,-0.22624 l 0.7411599,-2.751 c 0.00159,-0.009 0.00329,-0.016 0.00439,-0.0239 0.111519,-0.58549 0.6190817,-1.00524 1.2150987,-1.00524 0.1782108,-7e-4 0.3221172,-0.14573 0.3214208,-0.32393 -6.451e-4,-0.17723 -0.1441905,-0.32074 -0.3214208,-0.32142 z m 1.1287593,0 c -0.1772304,6.8e-4 -0.3207331,0.14419 -0.3214233,0.32142 -6.452e-4,0.17821 0.1432087,0.32324 0.3214233,0.32393 h 0.4840234 c 0.1791988,7.2e-4 0.3246418,-0.14474 0.3239406,-0.32393 -6.452e-4,-0.17822 -0.1457297,-0.32212 -0.3239406,-0.32142 z m -6.8406132,1.37644 c -0.1784596,3.5e-4 -0.3227503,0.14548 -0.3220533,0.32394 3.227e-4,0.17772 0.1443326,0.3217 0.3220533,0.32205 h 1.678955 c 0.1774755,-6.7e-4 0.3210782,-0.14457 0.3214233,-0.32205 6.452e-4,-0.17822 -0.1432087,-0.32325 -0.3214233,-0.32394 z m 12.3268429,0 c -0.17846,3.5e-4 -0.32275,0.14548 -0.322053,0.32394 3.22e-4,0.17772 0.144332,0.3217 0.322053,0.32205 h 1.678959 c 0.177475,-7.1e-4 0.321074,-0.14457 0.32142,-0.32205 6.46e-4,-0.17822 -0.14321,-0.32325 -0.32142,-0.32394 z m -5.3242589,0.64599 c 0.1820319,0 0.3220526,0.13938 0.3220526,0.32142 v 5.07847 H 8.1429599 v -5.07847 c 0,-0.18204 0.1419124,-0.32142 0.3239442,-0.32142 z m -1.6121497,0.88107 h 0.6428405 v 0.96931 H 6.8547544 Z m 2.5795674,0 h 0.6453652 v 0.96931 H 9.4343218 Z m 4.6631382,0.0857 c -0.109653,0.006 -0.208902,0.0667 -0.263441,0.16197 -0.08876,0.15455 -0.03543,0.35178 0.119117,0.44054 l 1.526439,0.8817 c 0.154049,0.089 0.351137,0.0366 0.440539,-0.1172 0.08887,-0.15437 0.03583,-0.35157 -0.118483,-0.44054 l -1.527069,-0.88106 c -0.04551,-0.0272 -0.09703,-0.0428 -0.149998,-0.0454 -0.009,-3.9e-4 -0.01807,-3.9e-4 -0.02711,0 z m -11.2913623,0.001 c -0.0059,2.6e-4 -0.011781,6.8e-4 -0.017651,10e-4 -0.046276,0.005 -0.090993,0.0193 -0.1310896,0.0428 l -1.5270683,0.88108 c -0.15363551,0.0896 -0.20578419,0.28665 -0.116595,0.44054 0.089403,0.15386 0.2864904,0.2063 0.4405389,0.1172 l 1.5270691,-0.88159 c 0.1545484,-0.0888 0.2078773,-0.286 0.119117,-0.44053 -0.060382,-0.1044 -0.1738972,-0.16633 -0.2943224,-0.16072 z m -0.1487373,5.07721 c 3.8764183,0.005 7.7405736,0 11.6171966,0 0.05378,0 0.24452,0.0494 0.385705,0.18088 0.141187,0.13141 0.25966,0.3272 0.25966,0.67435 v 0.54768 c 0,0.34988 -0.114702,0.54827 -0.250204,0.67688 -0.135507,0.1286 -0.314326,0.17835 -0.395161,0.17835 -3.872188,10e-6 -7.7450091,10e-6 -11.6171966,0 -0.080835,0 -0.2596528,-0.0498 -0.3951567,-0.17835 -0.1355072,-0.12861 -0.2476845,-0.327 -0.2476845,-0.67688 v -0.54768 c 0,-0.34715 0.1184731,-0.54294 0.259656,-0.67435 0.1411864,-0.13142 0.3293973,-0.18088 0.3831852,-0.18088 z" style="color:#000000;font-style:normal;font-variant:normal;font-weight:normal;font-stretch:normal;font-size:medium;line-height:normal;font-family:sans-serif;font-variant-ligatures:normal;font-variant-position:normal;font-variant-caps:normal;font-variant-numeric:normal;font-variant-alternates:normal;font-variant-east-asian:normal;font-feature-settings:normal;font-variation-settings:normal;text-indent:0;text-align:start;text-decoration:none;text-decoration-line:none;text-decoration-style:solid;text-decoration-color:#000000;letter-spacing:normal;word-spacing:normal;text-transform:none;writing-mode:lr-tb;direction:ltr;text-orientation:mixed;dominant-baseline:auto;baseline-shift:baseline;text-anchor:start;white-space:normal;shape-padding:0;shape-margin:0;inline-size:0;clip-rule:nonzero;display:inline;overflow:visible;visibility:visible;opacity:1;isolation:auto;mix-blend-mode:normal;color-interpolation:sRGB;color-interpolation-filters:linearRGB;solid-color:#000000;solid-opacity:1;vector-effect:none;fill:#ea6211;fill-opacity:1;fill-rule:nonzero;stroke:none;stroke-width:0.645365;stroke-linecap:round;stroke-linejoin:round;stroke-miterlimit:4;stroke-dasharray:none;stroke-dashoffset:0;stroke-opacity:1;color-rendering:auto;image-rendering:auto;shape-rendering:auto;text-rendering:auto;enable-background:accumulate;stop-color:#000000;stop-opacity:1" id="ipath983"/>
    </g>
</symbol><symbol viewBox="0 0 32 32" id="facebook" xml:space="preserve" xmlns="http://www.w3.org/2000/svg">
    <style type="text/css">.jst0{fill-rule:evenodd;clip-rule:evenodd;fill:#FFFFFF;}</style>
    <path d="M6,2h20c2.2,0,4,1.8,4,4v20c0,2.2-1.8,4-4,4H6c-2.2,0-4-1.8-4-4V6C2,3.8,3.8,2,6,2z"/>
    <path class="jst0" d="M13.2,16.1v9.7c0,0.1,0.1,0.3,0.3,0.3h3.9c0.2,0,0.3-0.1,0.3-0.3v-9.8h2.8c0.1,0,0.3-0.1,0.3-0.2l0.3-3  c0-0.2-0.1-0.3-0.3-0.3h-3.1v-2.1c0-0.5,0.4-0.9,1-0.9h2.2c0.2,0,0.3-0.1,0.3-0.3V6.3C21,6.1,20.9,6,20.7,6h-3.6  c-2.1,0-3.9,1.6-3.9,3.6v2.9h-1.9c-0.2,0-0.3,0.1-0.3,0.3v3c0,0.1,0.1,0.3,0.3,0.3h1.9V16.1z"/>
</symbol><symbol viewBox="0 0 1024 1024" class="kicon" id="gift1" xmlns="http://www.w3.org/2000/svg">
    <path d="M902.3 517.4l-3.2 4.9c-0.6 1-63.7 96.2-145 209.5-62.8 87.5-135.9 99.1-170.5 99.1-11.6 0-18.9-1.3-20.1-1.5H356l-14.5-14.3h223.4c5.4 0.9 99.1 17.3 177.5-91.7 70.5-98.1 127-182.5 141.2-203.8-10.2-8.3-43-35.2-74.6-30.1-10.2 1.7-25.6 13.2-42.5 29.9l-2.3-2.3v-16.9c16.2-13.8 31.3-23.1 42.6-24.9 47.3-7.7 89.6 36.4 91.2 38l4.3 4.1z"/>
    <path d="M883.6 519.6c-14.2 21.4-70.7 105.8-141.2 203.8-78.4 109-172.1 92.6-177.5 91.7H341.5L186.8 661.9C200.6 638.4 274 530.7 440 582c7.5 6.3 44.5 31.2 130.8 11.3 11.6-2.7 21.7-3.8 30.6-3.8 26.7 0 41.6 10.5 49.6 20.8 13.7 17.4 13.7 41.3 6.8 55.1-14.1 28.1-37.5 40.6-75.8 40.6H454.5v14.3H582c44 0 72.1-15.5 88.7-48.6 3.2-6.5 5.2-14.8 5.6-23.7l0.1 0.3c13.4-36.6 55-94 90.2-128.9 16.9-16.8 32.2-28.3 42.5-29.9 31.5-5.1 64.3 21.7 74.5 30.1z"/>
    <path d="M796.5 265.2v75.6c0 16.4-13.3 29.7-29.7 29.7h-2.6v129.8c-4.5 4-9.1 8.2-13.8 12.7V370.5H605.1v204.9c-5-0.3-10.4-0.1-16.1 0.5V252.5c-1.4 0-2.6 0.1-4 0.1-11 0-22.6-0.4-34.9-1H546.6c-4.9 0.3-9.5 0.4-14.1 0.6v332.9c-5.8 0.6-11.1 1-16.1 1.2V370.5H367v183.9c-4.7-0.4-9.3-0.4-13.8-0.4V370.5h-6.5c-16.4 0-29.8-13.3-29.8-29.7v-75.6c0-16.4 13.4-29.7 29.8-29.7h66.5c-11.5-6.1-20.1-13.6-25.3-22.8-15.9-28.1 4.7-58.8 5.6-60.1 14.8-18 31.5-25.8 50-23.7 47.1 5.2 90.5 75.8 104.9 101.5 14.5-25.7 57.9-96.3 105-101.5 18.4-2.2 35.2 5.6 49.6 23 1.3 1.9 21.9 32.6 6 60.7-5.2 9.2-13.8 16.6-25.3 22.8h83.2c16.3 0.1 29.6 13.4 29.6 29.8z m-16.1 75.6v-75.6c0-7.5-6.1-13.6-13.6-13.6H614.3c-3.1 0.1-6 0.4-9.2 0.5v102.2h161.8c7.4 0 13.5-6 13.5-13.5zM694.9 205c11-19.4-4.7-43-4.9-43.2-10.5-12.5-22.1-18.3-34.9-16.8-34.8 3.8-73 58.8-91 90.5H616c51.2-3.9 71.6-17.7 78.9-30.5z m-214.5 30.5h52.2c-18-31.7-56.1-86.7-90.9-90.5-12.9-1.4-24.6 4.2-35.4 17.4 0.1 0-15.2 23.3-4.3 42.6 7.2 12.6 27.3 26.6 78.4 30.5z m36.1 118.8V252.7h-4.7c-10.5 0-20.1-0.4-29.3-1H346.7c-7.5 0-13.6 6-13.6 13.6v75.6c0 7.5 6 13.6 13.6 13.6h169.8z"/>
    <path d="M780.4 265.2v75.6c0 7.5-6.1 13.6-13.6 13.6H605.1V252.2c3.2-0.1 6.1-0.4 9.2-0.5h152.6c7.4 0 13.5 6 13.5 13.5z"/>
    <path d="M764.3 517.1l2.3 2.3c-35.2 34.9-76.7 92.3-90.2 128.9l-0.1-0.3c0.6-8.6-0.4-17.9-3.5-26.9 15.1-36.2 46.8-78.5 77.6-108.3v10.9l8.4-6.6h5.5z"/>
    <path d="M764.3 500.2v16.9h-5.4l-8.4 6.6v-10.9c4.7-4.4 9.3-8.6 13.8-12.6z"/>
    <path d="M750.5 370.5V513c-30.8 29.8-62.5 72.1-77.6 108.3-2.3-6.9-5.8-13.7-10.6-19.8-8.2-10.4-25.2-24.9-57.2-26.1V370.5h145.4z"/>
    <path d="M690 161.8c0.1 0.3 15.9 23.8 4.9 43.2-7.3 12.8-27.6 26.6-78.9 30.6h-52c18-31.7 56.3-86.7 91-90.5 12.9-1.6 24.5 4.1 35 16.7z"/>
    <path d="M672.9 621.2c3.1 9 4.1 18.3 3.5 26.9l-6.1-20.1c0.7-2.2 1.5-4.5 2.6-6.8z"/>
    <path d="M670.2 628l6.1 20.1c-0.4 8.8-2.4 17.1-5.6 23.7-16.6 33.1-44.8 48.6-88.7 48.6H454.5V706H582c38.4 0 61.8-12.5 75.8-40.7 6.9-13.8 6.9-37.7-6.8-55.1-8.1-10.4-22.9-20.8-49.6-20.8v-4h3.7v-10.1c32 1.2 49 15.7 57.2 26.1 4.9 6.1 8.3 12.9 10.6 19.8-1.1 2.3-1.9 4.6-2.7 6.8z"/>
    <path d="M605.1 575.3v10.1h-3.7l-12.4 0.3v-9.8c5.7-0.7 11.1-0.8 16.1-0.6z"/>
    <path d="M601.4 585.4v4c-8.8 0-18.9 1.2-30.6 3.8-86.3 19.9-123.3-5-130.8-11.3-166-51.3-239.4 56.4-253.2 79.9l-10.4-10.4c15.5-24.9 69.4-96.5 176.7-97.6v6.1H367v-5.8c23.7 0.9 49.9 5.5 78.6 14.5l1.7 0.5 1.3 1.2c0.3 0.3 19.1 17.4 67.9 15.9v5h5l11.1-0.1v-6c10.5-1 22.1-2.9 35-5.9 7.7-1.7 14.8-2.8 21.4-3.5v9.8l12.4-0.1z"/>
    <path d="M589 252.5v323.3c-6.5 0.6-13.7 1.8-21.4 3.5-12.9 2.9-24.6 4.9-35 5.9V252.3c4.6-0.3 9.2-0.4 14.1-0.6H550.2c12.3 0.6 23.9 1 34.9 1 1.3 0 2.5-0.2 3.9-0.2z"/>
    <path d="M532.6 585.2v6l-11.1 0.1h-5v-5c5-0.1 10.3-0.5 16.1-1.1z"/>
    <path d="M532.6 235.5h-52.2c-51.2-4-71.2-17.9-78.5-30.6-10.9-19.3 4.5-42.6 4.3-42.6 10.9-13.2 22.5-18.8 35.4-17.4 34.9 3.9 73 58.9 91 90.6z"/>
    <path d="M516.5 370.5v215.9c-48.8 1.5-67.6-15.6-67.9-15.9l-1.3-1.2-1.7-0.5c-28.8-9-55-13.6-78.6-14.5V370.5h149.5z"/>
    <path d="M516.5 252.7v101.7H346.7c-7.5 0-13.6-6-13.6-13.6v-75.6c0-7.5 6-13.6 13.6-13.6h135.8c9.2 0.6 18.8 1 29.3 1 1.5 0.1 3.1 0.1 4.7 0.1z"/>
    <path d="M367 554.3v5.8h-13.8V554c4.5 0 9.1 0 13.8 0.3zM360.6 834c19.2 19.1 19.4 50.3 0.3 69.4l-21.6 21.9c-9.2 9.3-21.5 14.5-34.7 14.5h-0.3c-13 0-25.3-5-34.5-14.1L72.5 730.3C63.3 721 58 708.7 58 695.5s5-25.4 14.2-34.8l21.6-21.9c9.2-9.2 21.5-14.5 34.7-14.5h0.3c13 0 25.3 5 34.7 14.2l13 12.9c-3.2 5.1-4.7 8.3-4.9 8.6l12.8 6.1c0.1-0.1 0.9-1.7 2.4-4.3L341.5 815H334v12.7l-180.7-179c-6.5-6.4-15.2-10-24.6-10h-0.1c-9.3 0-18.2 3.7-24.7 10.2l-21.6 21.9c-6.5 6.5-10 15.3-10 24.7 0 9.3 3.7 18 10.2 24.6l197.3 195.4c6.5 6.5 15.2 10.1 24.4 10.1h0.3c9.3-0.1 18-3.7 24.6-10.4l21.6-21.7c13.6-13.7 13.4-35.8-0.3-49.4l-14.8-14.7H356l4.6 4.6z"/>
    <path d="M356 829.4h-20.3l-1.7-1.7v-12.6h7.5z"/>
    <path d="M350.5 844.1c13.7 13.6 13.8 35.7 0.3 49.4l-21.6 21.7c-6.5 6.6-15.2 10.2-24.6 10.4h-0.3c-9.2 0-17.9-3.6-24.4-10.1L82.6 720.1c-6.5-6.5-10.2-15.2-10.2-24.6 0-9.3 3.5-18.2 10-24.7l21.6-21.9c6.5-6.5 15.3-10.2 24.7-10.2h0.1c9.3 0 18 3.6 24.6 10l180.7 179v1.7h1.7l14.7 14.7z"/>
    <path d="M335.7 829.4H334v-1.7zM176.4 651.5l10.4 10.4c-1.5 2.7-2.3 4.2-2.4 4.3l-12.8-6.1c0.1-0.3 1.7-3.5 4.8-8.6z"/>
</symbol><symbol viewBox="0 0 1024 1024" class="licon" id="gift2" xmlns="http://www.w3.org/2000/svg">
    <path d="M900.5 370.6v92.6c0 9.4-5.9 17.8-14.8 20.9l-151.9 52.2V396.5l-101.9-33.1 105.6-45.6c11.9-6.1 21.9-12 30-17.8l117.3 48c9.4 3.5 15.7 12.6 15.7 22.6z"/>
    <path d="M887.1 492.2v4.4l-12.3 4.2v-8.6z"/>
    <path d="M874.8 500.8v262.3l-141 54V549.2z"/>
    <path d="M912.8 370.6v92.6c0 14.7-9.3 27.8-23.2 32.6l-2.5 0.9v-4.4h-12.3v8.6l-141 48.4v-13L885.6 484c8.9-3.1 14.8-11.5 14.8-20.9v-92.6c0-10-6.3-19-15.7-22.5l-117.3-48c4.2-2.8 7.9-5.7 11.1-8.6l110.6 45.2c14.2 5.1 23.7 18.8 23.7 34zM771.9 213.5c12.8 17.8 17.5 32.5 14.6 44.9-2.1 9.1-8.4 17.8-19.5 26.8-8.6 6.9-20.1 14-34.8 21.5l-116.4 50.1c-3.8-20.9-24.2-38.3-53-47.2l92.2-101c14.1-19.3 33.3-30.5 54.5-31.5 17.8-1 35.6 6.1 46.2 18l16.2 18.4z"/>
    <path d="M769 287.5l9.6 4c-3.2 3-6.9 5.8-11.1 8.6l-3.1-1.2 4.6-11.4zM733.8 817.1v6.2h-12.4v-1.5zM733.8 536.3v12.9l-3.1 1.2-4.1-11.7zM721.4 405.5v416.3L635 854.9v-419l-58.4-22.4c21.5-9.8 36.2-24.8 39.3-42.4l105.5 34.4zM635 854.9v8.9h-12.4v-4.2z"/>
    <path d="M635 435.9v419l-12.3 4.7V600.2l8.4-3.1-4.3-11.6-4.1 1.5V444.3l-63.8-24.5c6.3-1.6 12.3-3.8 17.8-6.3l58.3 22.4z"/>
    <path d="M764.4 298.8l3.1 1.2c-8.2 5.8-18.2 11.7-30 17.8l-105.6 45.6 101.9 33.1v139.8l-7.2 2.5 4.1 11.6 3.1-1.1v267.8l-12.3 4.7V405.5l-105.6-34.3c0.4-2.2 0.6-4.7 0.6-7 0-2.5-0.2-4.9-0.7-7.3l116.4-50.1c14.7-7.5 26.2-14.6 34.8-21.5l2 2.2-4.6 11.3zM626.7 585.5l4.3 11.7-8.4 3V587z"/>
    <path d="M622.6 600.2v259.3l-110 42.1-123-47.4V588.5L497 632.7c6.1 2.6 12.3 3.8 18.8 3.8 5.4 0 11-1 16.3-2.8l90.5-33.5z"/>
    <path d="M622.6 444.3V587l-94.7 35.1c-8.5 3.1-17.7 2.8-26.1-0.7l-112.2-46.1V440.9l65.4-29.6c17 8.6 38.9 13.8 63.2 13.8 14.6 0 28.2-1.9 40.5-5.3l63.9 24.5z"/>
    <path d="M621.4 233.2l-4.7 11.4-8-3.3 8.7-9.7z"/>
    <path d="M781.4 205.8c15.6 21.2 21 39.3 17 55.6-2.6 10.6-8.9 20.4-19.9 30l-9.6-4-2-2.2c11.1-9 17.4-17.7 19.5-26.8 3-12.5-1.7-27.2-14.6-44.9l-16.3-18.3c-10.6-12-28.4-19-46.2-18-21.1 1-40.4 12.2-54.5 31.5l-92.2 101c-4.3-1.4-8.8-2.5-13.5-3.3l59.4-65.1 8 3.3 4.7-11.4-4-1.6 28-30.7c15.8-21.9 38.5-34.9 63.3-36.1 21.7-1.1 42.7 7.2 55.9 22.1l17 18.9zM615.7 356.9c0.5 2.3 0.7 4.8 0.7 7.3 0 2.3-0.2 4.8-0.6 7l-7.4-2.5-0.1-8.8 4.1-1.6 3.3-1.4z"/>
    <path d="M608.7 241.3l-59.4 65.1c-9.6-2.1-20.1-3.1-31-3.1-9.3 0-18.2 0.7-26.7 2.2l-55.4-71.7 70-24.7c8.5-3.3 17.8-3.2 26.2 0.4l76.3 31.8z"/>
    <path d="M561.1 407.6l15.4 5.9c-5.4 2.5-11.5 4.7-17.8 6.3l-2.1-0.7 4.5-11.5zM562.7 309.7l-6.8 7.5-9-8.3 2.3-2.6c4.8 0.9 9.2 2 13.5 3.4zM518.3 315.6c46.6 0 85.8 22.2 85.8 48.5 0 17.8-17.7 33.6-43.5 42.1-12.5 4.2-27 6.5-42.4 6.5-46.7 0-85.9-22.2-85.9-48.7 0-4.6 1.2-9 3.5-13.3 10.5-19.9 43.9-35.1 82.5-35.1zM506.2 209l-70 24.7-7.9-10.2 73.6-25.9c11.2-4.4 23.8-4.3 35.3 0.4l80.3 33.7-8.8 9.6-76.3-31.9c-8.4-3.6-17.7-3.7-26.2-0.4zM501.9 621.4c8.4 3.6 17.5 3.8 26.1 0.7l94.7-35.1v13.2l-90.5 33.5c-5.3 1.9-10.9 2.8-16.3 2.8-6.4 0-12.7-1.2-18.8-3.8l-107.4-44.2v-13.2l112.2 46.1zM491.6 305.5l0.1 0.1-9.8 7.5-3.7-4.8c4.4-1.1 8.8-2.1 13.4-2.8z"/>
    <path d="M384.3 186.8l94 121.5c-22.7 6.2-40.8 17.4-50.5 31.6l-1.6 0.7-118.4-57.4a43.9 43.9 0 0 1-24.5-33.7c-2.1-14.6 3.5-29.1 14.6-39l33.1-28.9c7.7-6.8 17.5-10 27.8-9 10.2 1 19.2 6.1 25.5 14.2zM442.5 403.4l8.5-3.8 5.1 11.2-1 0.5c-4.6-2.5-8.8-5.1-12.6-7.9z"/>
    <path d="M482 313.1l9.8-7.5-0.1-0.1c8.5-1.5 17.4-2.2 26.7-2.2 10.9 0 21.4 1 31 3.1l-2.3 2.6 9 8.3 6.8-7.5c28.8 8.9 49.1 26.3 53 47.2l-3.3 1.5-4.1 1.6 0.1 8.8 7.4 2.5c-3.1 17.5-17.8 32.6-39.3 42.4l-15.4-5.9-0.5-1.4c25.8-8.5 43.5-24.3 43.5-42.1 0-26.3-39.3-48.5-85.8-48.5-38.5 0-72 15.2-82.5 35.2l-1.1-0.5-4.9-11.2-2 0.9c9.8-14.2 27.8-25.4 50.5-31.6l3.5 4.4zM442.5 403.4L377.3 433v416.4l-80.8-31.1V412.2l124.2-55.6c-0.5 2.5-0.7 4.9-0.7 7.5 0 15.1 8.4 28.8 22.5 39.3zM428.3 223.5l7.9 10.2-8.1 2.9-4-11.6z"/>
    <path d="M451 399.6l-8.5 3.8c-14.1-10.5-22.5-24.2-22.5-39.3 0-2.6 0.2-5.1 0.7-7.5l14-6.3 1.1 0.5c-2.2 4.3-3.5 8.8-3.5 13.3 0 26.4 39.3 48.7 85.9 48.7 15.3 0 29.9-2.3 42.4-6.5l0.5 1.4-4.4 11.5 2.1 0.7c-12.3 3.5-25.9 5.3-40.5 5.3-24.3 0-46.2-5.2-63.2-13.8l1-0.5-5.1-11.3zM428.7 341.9l-5.3 11.1-1.6-0.7c1.1-4 3-7.7 5.2-11.2l1.7 0.8z"/>
    <path d="M426.2 340.7l1.6-0.7c-0.2 0.4-0.5 0.7-0.7 1.1l-0.9-0.4z"/>
    <path d="M426.2 340.7l0.9 0.4c-2.2 3.6-4.1 7.3-5.2 11.2l-10.4-5.1 14.7-6.5z"/>
    <path d="M429.7 339.1l4.9 11.2-14 6.3c0.2-1.5 0.6-3 1.1-4.3l1.6 0.7 5.3-11.1-1.6-0.9c0.2-0.4 0.5-0.7 0.7-1.1l2-0.8zM389.6 854.3v4.2h-12.3v-9.1z"/>
    <path d="M389.6 588.5v265.8l-12.3-4.9V584.7h2.9zM389.6 575.3v13.2l-9.4-3.8 4.7-11.4z"/>
    <path d="M377.3 584.7V433l65.2-29.6c3.8 2.8 8 5.4 12.6 7.9l-65.4 29.6v134.4l-4.7-2-4.7 11.4h-3zM296.5 818.3v6.9h-12.4v-11.7z"/>
    <path d="M296.5 412.2v406.1l-12.3-4.8v-266l4.3 1.4 3.7-11.7-8-2.5V404.1l127.3-56.9 10.4 5.1c-0.5 1.4-0.9 2.8-1.1 4.3l-124.3 55.6zM887.1 496.6v274.9L512.6 914.9l-228.9-88.3 0.4-1.4h12.4v-6.9l80.8 31.1v9.1h12.3v-4.2l123 47.4 110-42.1v4.2H635v-8.9l86.4-33.1v1.5h12.4v-6.2l141-54V500.8z"/>
    <path d="M292.5 289.4l-0.6-1.6c3.2 2.7 6.7 4.8 10.4 6.7l109.2 52.7-127.3 56.9v130.5L164 496.9v-0.2h-0.7l-28.3-8.9c-7.4-2.2-12.5-9-12.5-16.8V369.7c0-8.5 5.1-16.1 12.8-19.3l157.2-61z"/>
    <path d="M292.2 537.1l-3.7 11.8-4.4-1.4v-12.8zM288.1 277.9l3.8 9.9c-3.1-2.3-5.9-5.1-8.4-8.2l4.6-1.7z"/>
    <path d="M284.1 547.5v266l-101.5-39.1c-11.1-4.3-18.6-15.2-18.6-27.2V509.9l120.1 37.6z"/>
    <path d="M284.1 534.7v12.8L164 509.9v-13zM270.9 251.3c-2.5-18.8 4.4-37.5 18.8-50l33.1-28.9c10.2-9.1 23.5-13.3 37.2-12 13.6 1.2 25.7 8 34.1 18.9l34.2 44.2-4.2 1.5 4.1 11.6 8-2.8 55.4 71.7c-4.6 0.7-9 1.7-13.3 2.8l-94-121.5c-6.3-8.2-15.3-13.2-25.6-14.2-10.2-1-20.1 2.2-27.8 9l-33.1 28.9c-11.1 9.9-16.7 24.5-14.6 39 2 14.7 11.1 27.3 24.5 33.7l118.4 57.4-14.7 6.5-109.2-52.7c-3.7-1.9-7.2-4-10.4-6.7l-3.8-9.9-4.6 1.7c-6.5-7.7-11-17.6-12.5-28.2zM164 496.9v13l-12.4-3.9v-9.4h11.7z"/>
    <path d="M164 496.6v0.3l-0.7-0.3z"/>
    <path d="M151.6 747.2V506l12.3 3.8v237.3c0 12 7.5 22.8 18.6 27.2L284 813.4v11.7l-0.5 1.4L178 785.7c-15.6-5.9-26.4-21.5-26.4-38.5z"/>
    <path d="M110.2 369.7c0-13.5 8.2-25.6 20.6-30.7l152.8-59.3c2.5 3.1 5.3 5.8 8.4 8.2l0.6 1.6-157.2 61c-7.8 3.2-12.8 10.7-12.8 19.3V471c0 7.8 5.1 14.6 12.5 16.8l28.3 8.9h-11.6v9.4l-20.4-6.4c-12.6-4-21.1-15.4-21.1-28.6V369.7z"/>
</symbol><symbol id="gift3" viewBox="0 0 512 512" xml:space="preserve" xmlns="http://www.w3.org/2000/svg">
    <g>
        <path style="fill:#F15642" d="M496,479.999c0,8.8-7.2,16-16,16H32c-8.8,0-16-7.2-16-16v-264c0-8.8,7.2-16,16-16h448   c8.8,0,16,7.2,16,16V479.999z"/>
        <path style="fill:#F15642" d="M512,199.999c0,8.8-7.2,16-16,16H16c-8.8,0-16-7.2-16-16v-72c0-8.8,7.2-16,16-16h480   c8.8,0,16,7.2,16,16V199.999z"/>
    </g>
    <rect x="15.992" y="215.999" style="fill:#D2473C" width="480" height="24"/>
    <g>
        <path style="fill:#D3463C" d="M301.92,111.999h-10.216c-3.368,3.76-7.312,6.984-11.704,9.52v9.016   C288.824,126.343,296.376,119.943,301.92,111.999z"/>
        <path style="fill:#D3463C" d="M232,130.535v-9.016c-4.392-2.536-8.336-5.768-11.704-9.52H210.08   C215.632,119.943,223.184,126.343,232,130.535z"/>
    </g>
    <g>
        <rect x="231.992" y="111.999" style="fill:#FCD063" width="48" height="384"/>
        <rect x="15.992" y="279.999" style="fill:#FCD063" width="480" height="48"/>
    </g>
    <g>
        <path style="fill:#F7B84E" d="M386.288,18.127l-89.912,35.968c4.8,7.472,7.624,16.352,7.624,25.904   c0,12.312-4.672,23.504-12.296,32H416v-73.76C416,20.639,402.632,11.591,386.288,18.127z"/>
        <rect x="231.992" y="215.999" style="fill:#F7B84E" width="48" height="24"/>
        <path style="fill:#F7B84E" d="M280,130.535v-9.016c-7.064,4.096-15.248,6.48-24,6.48c-8.752,0-16.936-2.384-24-6.48v9.016   c7.28,3.464,15.4,5.464,24,5.464C264.6,135.999,272.72,133.999,280,130.535z"/>
        <path style="fill:#F7B84E" d="M125.712,18.127l89.912,35.968c-4.8,7.472-7.624,16.352-7.624,25.904   c0,12.312,4.672,23.504,12.296,32H96v-73.76C96,20.639,109.368,11.591,125.712,18.127z"/>
    </g>
    <g>
        <polygon style="fill:#D89C45" points="416,111.999 288,111.999 296,103.999 416,103.999  "/>
        <polygon style="fill:#D89C45" points="224,111.999 96,111.999 96,103.999 216,103.999  "/>
    </g>
    <circle style="fill:#FCD063" cx="255.992" cy="79.999" r="48"/>
    <path style="fill:#EFC55F" d="M280.952,39.047c4.44,7.28,7.048,15.808,7.048,24.952c0,26.512-21.496,48-48,48  c-9.16,0-17.672-2.608-24.952-7.048c8.44,13.808,23.6,23.048,40.952,23.048c26.504,0,48-21.488,48-48  C304,62.639,294.752,47.479,280.952,39.047z"/>
    <g>
        <rect x="279.992" y="279.999" style="fill:#F7B84E" width="8" height="48"/>
        <rect x="223.992" y="279.999" style="fill:#F7B84E" width="8" height="48"/>
    </g>
</symbol><symbol viewBox="0 0 1024 1024" class="nicon" id="gift4" xmlns="http://www.w3.org/2000/svg">
    <path d="M188.497 377.512h647.006V960H188.497z"/>
    <path d="M467.308 399.028h52.471V960h-52.471z"/>
    <path d="M485.764 399.028h52.471V960h-52.471zM719.989 82.722c-35.235-35.24-108.329-19.276-163.256 35.653-20.618 20.618-35.743 43.795-44.733 66.568-8.991-22.773-24.116-45.95-44.734-66.568-54.928-54.929-128.022-70.893-163.257-35.653-35.235 35.234-19.273 108.331 35.653 163.256 54.929 54.929 128.022 70.893 163.257 35.653 3.602-3.6 6.534-7.69 9.079-12.021 2.546 4.331 5.476 8.421 9.08 12.021 35.237 35.24 108.329 19.276 163.257-35.653 54.929-54.925 70.891-128.022 35.654-163.256zM502.361 281.073c-18.915 18.914-63.108 5.389-98.708-30.21-35.601-35.606-49.127-79.798-30.213-98.713 18.916-18.914 63.108-5.388 98.709 30.216 13.636 13.634 23.961 28.517 30.536 42.767-0.939 14.986 1.32 28.883 7.132 40.628-1.191 5.962-3.443 11.297-7.456 15.312z m117.985-30.211c-35.601 35.599-79.793 49.125-98.709 30.21-4.011-4.014-6.263-9.35-7.455-15.311 5.812-11.745 8.07-25.642 7.131-40.628 6.576-14.251 16.9-29.133 30.537-42.767 35.601-35.604 79.792-49.131 98.708-30.216 18.916 18.915 5.388 63.107-30.212 98.712z"/>
    <path d="M650.67 208.632c-5.876 12.562-14.915 25.53-26.306 37.759h59.533c0.143-0.145 0.296-0.27 0.44-0.415a211.524 211.524 0 0 0 29.745-37.344H650.67zM521.314 225.132c2.512-5.442 5.737-10.976 9.32-16.5h-37.268c3.581 5.524 6.808 11.058 9.32 16.5-0.465 7.399-0.131 14.518 1.005 21.259h16.618c1.137-6.741 1.47-13.859 1.005-21.259zM379.208 221.194l-58.869 2.524c8.079 12.908 7.534 10.471 19.326 22.258 0.143 0.145 0.296 0.27 0.44 0.415h59.533c-11.393-12.228-14.554-12.635-20.43-25.197z"/>
    <path d="M107.621 246.39h808.758v217.144H107.621z"/>
    <path d="M834.51 569.946l-646.033-73.822v-32.59H834.51z"/>
</symbol><symbol stroke-miterlimit="10" style="fill-rule:nonzero;clip-rule:evenodd;stroke-linecap:round;stroke-linejoin:round" viewBox="0 0 3000 3000" id="instagram" xmlns="http://www.w3.org/2000/svg">
    <defs>
        <linearGradient gradientTransform="matrix(1 0 0 1 0 0)" gradientUnits="userSpaceOnUse" id="oLinearGradient" x1="1500" x2="2805.81" y1="1500" y2="194.188">
            <stop offset="0" stop-color="#7e7e7e"/>
            <stop offset="0.555825" stop-color="#c8c8c8"/>
            <stop offset="1" stop-color="#7e7e7e"/>
        </linearGradient>
    </defs>
    <g id="oUntitled">
        <path d="M1500 1189.05C1328.28 1189.12 1189.13 1328.36 1189.17 1500.08C1189.21 1671.79 1328.44 1810.97 1500.16 1810.95C1671.87 1810.93 1811.06 1671.72 1811.06 1500C1810.93 1328.28 1671.72 1189.12 1500 1189.05ZM2227 950.043C2195 868.955 2130.81 804.765 2049.72 772.768C1927.3 724.441 1635.83 735.284 1500 735.284C1364.17 735.284 1072.99 724.033 950.218 772.768C869.129 804.765 804.94 868.955 772.943 950.043C724.674 1072.46 735.459 1364.23 735.459 1499.94C735.459 1635.65 724.674 1927.07 773.176 2049.9C805.173 2130.99 869.363 2195.18 950.451 2227.17C1072.87 2275.5 1364.35 2264.66 1500.23 2264.66C1636.12 2264.66 1927.19 2275.91 2049.96 2227.17C2131.05 2195.18 2195.24 2130.99 2227.23 2049.9C2275.91 1927.48 2264.72 1635.71 2264.72 1500C2264.72 1364.29 2275.91 1072.93 2227.23 950.102L2227 950.043ZM1500 1978.02C1236 1978.02 1021.98 1764 1021.98 1500C1021.98 1236 1236 1021.98 1500 1021.98C1764 1021.98 1978.02 1236 1978.02 1500C1978.18 1626.83 1927.86 1748.5 1838.18 1838.18C1748.5 1927.86 1626.83 1978.18 1500 1978.02ZM1997.72 1113.5C1936.09 1113.54 1886.11 1063.59 1886.09 1001.96C1886.07 940.335 1936.02 890.36 1997.65 890.349C2059.28 890.338 2109.24 940.296 2109.24 1001.93C2109.37 1031.53 2097.7 1059.96 2076.82 1080.94C2055.94 1101.92 2027.56 1113.72 1997.96 1113.74L1997.72 1113.5ZM2526 194.188L474.005 194.188C319.466 194.188 194.188 319.466 194.188 474.005L194.188 2526C194.188 2680.53 319.466 2805.81 474.005 2805.81L2526 2805.81C2680.53 2805.81 2805.81 2680.53 2805.81 2526L2805.81 474.005C2805.81 319.466 2680.53 194.188 2526 194.188ZM2426.19 1884.75C2418.67 2034.16 2384.57 2166.55 2275.5 2275.33C2166.43 2384.1 2034.16 2418.91 1884.92 2426.02C1730.97 2434.7 1269.38 2434.7 1115.43 2426.02C966.016 2418.5 834.094 2384.34 724.849 2275.33C615.604 2166.31 581.268 2033.87 574.156 1884.75C565.47 1730.73 565.47 1269.09 574.156 1115.25C581.676 965.841 615.371 833.453 724.849 724.674C834.327 615.895 966.599 581.501 1115.43 574.389C1269.38 565.703 1730.97 565.703 1884.92 574.389C2034.33 581.909 2166.66 616.07 2275.5 725.082C2384.34 834.094 2419.08 966.541 2426.19 1115.95C2434.88 1269.38 2434.88 1730.62 2426.19 1884.75Z" fill-rule="nonzero" opacity="1"/>
    </g>
</symbol><symbol viewBox="0 0 24 24" id="license" xmlns="http://www.w3.org/2000/svg">
    <path fill-rule="evenodd" clip-rule="evenodd" d="M10.5936 2.31883C11.483 1.89372 12.517 1.89372 13.4064 2.31883C13.7928 2.50351 14.1468 2.80551 14.6371 3.22367C14.6625 3.24538 14.6884 3.2674 14.7146 3.28973C14.9526 3.49262 15.0276 3.555 15.1035 3.60585C15.2965 3.73519 15.5132 3.82495 15.7411 3.86995C15.8307 3.88764 15.9278 3.89654 16.2396 3.92143C16.2739 3.92417 16.3078 3.92685 16.3411 3.92949C16.9834 3.98046 17.4473 4.01727 17.8511 4.15991C18.7807 4.48822 19.5118 5.21935 19.8401 6.14885C19.9827 6.55267 20.0195 7.01656 20.0705 7.6589C20.0732 7.69224 20.0758 7.72607 20.0786 7.76039C20.1035 8.0722 20.1124 8.16933 20.1301 8.25894C20.175 8.48684 20.2648 8.70355 20.3941 8.89652C20.445 8.97239 20.5074 9.04737 20.7103 9.28545C20.7326 9.31166 20.7546 9.33748 20.7763 9.36293C21.1945 9.85316 21.4965 10.2072 21.6812 10.5936C22.1063 11.483 22.1063 12.517 21.6812 13.4064C21.4965 13.7928 21.1945 14.1468 20.7763 14.6371C20.7546 14.6625 20.7326 14.6883 20.7103 14.7146C20.5074 14.9526 20.445 15.0276 20.3941 15.1035C20.2648 15.2965 20.175 15.5132 20.1301 15.7411C20.1124 15.8307 20.1035 15.9278 20.0786 16.2396C20.0758 16.2739 20.0732 16.3078 20.0705 16.3411C20.0195 16.9834 19.9827 17.4473 19.8401 17.8511C19.5118 18.7807 18.7807 19.5118 17.8511 19.8401C17.4473 19.9827 16.9834 20.0195 16.3411 20.0705C16.3078 20.0732 16.2739 20.0758 16.2396 20.0786C15.9278 20.1035 15.8307 20.1124 15.7411 20.1301C15.5132 20.175 15.2965 20.2648 15.1035 20.3941C15.0276 20.445 14.9526 20.5074 14.7146 20.7103C14.6883 20.7326 14.6625 20.7546 14.6371 20.7763C14.1468 21.1945 13.7928 21.4965 13.4064 21.6812C12.517 22.1063 11.483 22.1063 10.5936 21.6812C10.2072 21.4965 9.85315 21.1945 9.3629 20.7763C9.33746 20.7546 9.31165 20.7326 9.28545 20.7103C9.04736 20.5074 8.97239 20.445 8.89652 20.3941C8.70355 20.2648 8.48684 20.175 8.25894 20.1301C8.16933 20.1124 8.0722 20.1035 7.76039 20.0786C7.72607 20.0758 7.69225 20.0732 7.6589 20.0705C7.01656 20.0195 6.55267 19.9827 6.14885 19.8401C5.21935 19.5118 4.48822 18.7807 4.15991 17.8511C4.01727 17.4473 3.98046 16.9834 3.92949 16.3411C3.92685 16.3078 3.92417 16.2739 3.92143 16.2396C3.89654 15.9278 3.88764 15.8307 3.86995 15.7411C3.82495 15.5132 3.73519 15.2965 3.60585 15.1035C3.555 15.0276 3.49262 14.9526 3.28973 14.7146C3.2674 14.6884 3.24538 14.6625 3.22368 14.6371C2.80551 14.1469 2.50351 13.7928 2.31883 13.4064C1.89372 12.517 1.89372 11.483 2.31883 10.5936C2.50351 10.2072 2.80551 9.85315 3.22367 9.36291C3.24537 9.33747 3.26739 9.31165 3.28973 9.28545C3.49262 9.04736 3.555 8.97239 3.60585 8.89652C3.73519 8.70355 3.82495 8.48684 3.86995 8.25894C3.88764 8.16933 3.89654 8.0722 3.92143 7.76039C3.92417 7.72607 3.92685 7.69225 3.92949 7.6589C3.98046 7.01657 4.01727 6.55267 4.15991 6.14885C4.48822 5.21935 5.21935 4.48822 6.14885 4.15991C6.55267 4.01727 7.01657 3.98046 7.6589 3.92949C7.69225 3.92685 7.72607 3.92417 7.76039 3.92143C8.0722 3.89654 8.16933 3.88764 8.25894 3.86995C8.48684 3.82495 8.70355 3.73519 8.89652 3.60585C8.97239 3.555 9.04736 3.49262 9.28545 3.28973C9.31165 3.26739 9.33746 3.24538 9.36291 3.22367C9.85315 2.80551 10.2072 2.50351 10.5936 2.31883ZM12.7573 3.6769C12.2784 3.44799 11.7216 3.44799 11.2427 3.6769C11.0576 3.76539 10.8624 3.92352 10.2618 4.43537C10.2519 4.44378 10.2422 4.45207 10.2326 4.46026C10.0354 4.6283 9.89156 4.75097 9.73456 4.8562C9.37619 5.09639 8.97373 5.2631 8.55048 5.34666C8.36505 5.38327 8.17657 5.39827 7.91837 5.41883C7.90579 5.41983 7.89304 5.42084 7.88012 5.42187C7.09348 5.48465 6.84366 5.51084 6.65016 5.57919C6.14966 5.75597 5.75597 6.14966 5.57919 6.65016C5.51084 6.84366 5.48465 7.09348 5.42187 7.88012C5.42084 7.89304 5.41983 7.90579 5.41883 7.91837C5.39827 8.17657 5.38327 8.36505 5.34666 8.55048C5.2631 8.97373 5.09639 9.37619 4.8562 9.73456C4.75097 9.89156 4.6283 10.0354 4.46025 10.2326C4.45207 10.2422 4.44377 10.2519 4.43537 10.2618C3.92352 10.8624 3.76539 11.0576 3.6769 11.2427C3.44799 11.7216 3.44799 12.2784 3.6769 12.7573C3.76539 12.9424 3.92352 13.1376 4.43537 13.7382C4.44378 13.7481 4.45207 13.7578 4.46026 13.7674C4.6283 13.9646 4.75097 14.1084 4.8562 14.2654C5.09639 14.6238 5.2631 15.0263 5.34666 15.4495C5.38327 15.6349 5.39827 15.8234 5.41883 16.0816C5.41983 16.0942 5.42084 16.107 5.42187 16.1199C5.48465 16.9065 5.51084 17.1563 5.57919 17.3498C5.75597 17.8503 6.14966 18.244 6.65016 18.4208C6.84366 18.4892 7.09348 18.5154 7.88012 18.5781L7.91836 18.5812C8.17658 18.6017 8.36506 18.6167 8.55048 18.6533C8.97373 18.7369 9.37619 18.9036 9.73456 19.1438C9.89156 19.249 10.0354 19.3717 10.2326 19.5397L10.2618 19.5646C10.8624 20.0765 11.0576 20.2346 11.2427 20.3231C11.7216 20.552 12.2784 20.552 12.7573 20.3231C12.9424 20.2346 13.1376 20.0765 13.7382 19.5646L13.7675 19.5397C13.9646 19.3717 14.1084 19.249 14.2654 19.1438C14.6238 18.9036 15.0263 18.7369 15.4495 18.6533C15.6349 18.6167 15.8234 18.6017 16.0816 18.5812L16.1199 18.5781C16.9065 18.5154 17.1563 18.4892 17.3498 18.4208C17.8503 18.244 18.244 17.8503 18.4208 17.3498C18.4892 17.1563 18.5154 16.9065 18.5781 16.1199L18.5812 16.0816C18.6017 15.8234 18.6167 15.6349 18.6533 15.4495C18.7369 15.0263 18.9036 14.6238 19.1438 14.2654C19.249 14.1084 19.3717 13.9646 19.5397 13.7675L19.5646 13.7382C20.0765 13.1376 20.2346 12.9424 20.3231 12.7573C20.552 12.2784 20.552 11.7216 20.3231 11.2427C20.2346 11.0576 20.0765 10.8624 19.5646 10.2618L19.5397 10.2325C19.3717 10.0354 19.249 9.89155 19.1438 9.73456C18.9036 9.37619 18.7369 8.97373 18.6533 8.55048C18.6167 8.36505 18.6017 8.17658 18.5812 7.91836L18.5781 7.88012C18.5154 7.09348 18.4892 6.84366 18.4208 6.65016C18.244 6.14966 17.8503 5.75597 17.3498 5.57919C17.1563 5.51084 16.9065 5.48465 16.1199 5.42187C16.107 5.42084 16.0942 5.41983 16.0816 5.41883C15.8234 5.39827 15.6349 5.38327 15.4495 5.34666C15.0263 5.2631 14.6238 5.09639 14.2654 4.8562C14.1084 4.75097 13.9646 4.6283 13.7674 4.46025C13.7578 4.45207 13.7481 4.44377 13.7382 4.43537C13.1376 3.92352 12.9424 3.76539 12.7573 3.6769ZM16.0443 8.95913C16.3383 9.25304 16.3383 9.72957 16.0443 10.0235L11.027 15.0409C10.733 15.3348 10.2565 15.3348 9.96261 15.0409L7.95565 13.0339C7.66174 12.74 7.66174 12.2635 7.95565 11.9696C8.24957 11.6757 8.72609 11.6757 9.02 11.9696L10.4948 13.4443L14.98 8.95913C15.2739 8.66522 15.7504 8.66522 16.0443 8.95913Z"/>
</symbol><symbol viewBox="0 0 32 32" id="licenses" xmlns="http://www.w3.org/2000/svg">
    <defs>
        <style>.qcls-1 {
        fill: none;
      }</style>
    </defs>
    <rect x="8" y="14" width="6" height="2"/>
    <rect x="8" y="6" width="12" height="2"/>
    <rect x="8" y="10" width="12" height="2"/>
    <rect x="8" y="24" width="6" height="2"/>
    <path d="M30,24V22H27.8989a4.9678,4.9678,0,0,0-.7319-1.7529l1.49-1.49-1.414-1.414-1.49,1.49A4.9678,4.9678,0,0,0,24,18.1011V16H22v2.1011a4.9678,4.9678,0,0,0-1.7529.7319l-1.49-1.49-1.414,1.414,1.49,1.49A4.9678,4.9678,0,0,0,18.1011,22H16v2h2.1011a4.9678,4.9678,0,0,0,.7319,1.7529l-1.49,1.49,1.414,1.414,1.49-1.49A4.9678,4.9678,0,0,0,22,27.8989V30h2V27.8989a4.9678,4.9678,0,0,0,1.7529-.7319l1.49,1.49,1.414-1.414-1.49-1.49A4.9678,4.9678,0,0,0,27.8989,24Zm-7,2a3,3,0,1,1,3-3A3.0033,3.0033,0,0,1,23,26Z"/>
    <path d="M14,30H6a2.0021,2.0021,0,0,1-2-2V4A2.0021,2.0021,0,0,1,6,2H22a2.0021,2.0021,0,0,1,2,2V14H22V4H6V28h8Z"/>
    <rect id="q_Transparent_Rectangle_" data-name="&lt;Transparent Rectangle&gt;" class="qcls-1" width="32" height="32"/>
</symbol><symbol viewBox="0 0 135 28" id="logo_I-Work" xmlns="http://www.w3.org/2000/svg">
    <path d="M11.799 23.0553H18.3795V26.9262H0V23.0553H6.56616V12.4176H1.46232V8.61841H11.799V23.0553Z"/>
    <path d="M9.18984 6.53237C8.32607 6.60971 7.46397 6.3674 6.76698 5.85138C6.29115 5.17844 6.03564 4.37453 6.03564 3.55036C6.03564 2.72618 6.29115 1.92228 6.76698 1.24934C7.45898 0.720592 8.32154 0.46539 9.18984 0.532512C10.0537 0.46557 10.9117 0.720937 11.5984 1.24934C12.0654 1.9258 12.3155 2.72834 12.3155 3.55036C12.3155 4.37237 12.0654 5.17492 11.5984 5.85138C10.9067 6.36705 10.0491 6.60951 9.18984 6.53237Z"/>
    <path d="M37.0813 8.6543H42.0776L38.8304 26.9263H33.0527L30.8234 16.2168L28.594 26.9263H22.8236L19.5835 8.6543H24.5726L26.1425 21.378L28.7876 8.6543H32.8735L35.5114 21.3422L37.0813 8.6543Z"/>
    <path d="M83.0156 23.0553H89.5101L91.381 12.4176H86.2987L87.0155 8.58257H97.1085L96.6139 11.5789C97.8908 10.4916 99.2911 9.55813 100.786 8.79762C101.91 8.2815 103.133 8.0196 104.37 8.03061C104.835 8.03738 105.3 8.0733 105.761 8.13814L104.442 12.6685C103.67 12.5179 102.876 12.5179 102.105 12.6685C101.053 12.7272 100.029 13.0317 99.1156 13.5574C97.9513 14.257 96.8462 15.0505 95.811 15.9301L94.5279 23.0482H101.08L100.363 26.9191H82.3203L83.0156 23.0553Z"/>
    <path d="M121.266 26.9261L115.302 19.3206L113.037 21.5213V26.9261H107.825V1.26367H113.037V15.93L120.32 8.61833H126.527L118.226 16.5393L127.223 26.9261H121.266Z"/>
    <path d="M79.6757 10.2957C78.1226 8.8143 75.6591 8.07119 72.2852 8.06641H53.6477C50.1687 8.06641 47.6717 8.84537 46.1568 10.4033C44.6419 11.9612 43.8797 14.4247 43.8701 17.7938C43.8701 21.2346 44.6586 23.6933 46.2428 25.213C47.827 26.7326 50.2786 27.4781 53.6477 27.4781H72.2852C75.7308 27.4781 78.211 26.6992 79.7259 25.1413C81.2456 23.5929 82.0126 21.127 82.0126 17.7938C82.0126 14.2742 81.2241 11.7796 79.6757 10.2957ZM75.7332 22.1234C75.088 22.9119 73.9268 23.3062 72.2494 23.3062H53.6118C51.9536 23.3062 50.8066 22.9119 50.1711 22.1234C49.5355 21.3349 49.2129 19.9013 49.2033 17.8225C49.2033 15.672 49.5259 14.181 50.1495 13.414C50.7732 12.6469 51.9344 12.267 53.6118 12.267H72.2494C73.9507 12.267 75.1119 12.6493 75.7332 13.414C76.3568 14.181 76.6794 15.6576 76.6794 17.8225C76.6794 19.9873 76.3568 21.4066 75.7332 22.1234Z"/>
    <path d="M131.875 27.3418C131.012 27.4172 130.152 27.1778 129.452 26.668C128.976 25.9935 128.721 25.1885 128.721 24.3634C128.721 23.5382 128.976 22.7332 129.452 22.0588C130.152 21.5489 131.012 21.3095 131.875 21.3849C132.733 21.3058 133.591 21.5456 134.283 22.0588C134.75 22.7367 135 23.5403 135 24.3634C135 25.1864 134.75 25.99 134.283 26.668C133.591 27.1811 132.733 27.421 131.875 27.3418Z"/>
</symbol><symbol viewBox="0 0 24 24" id="phone" xmlns="http://www.w3.org/2000/svg">
    <path d="M16.5562 12.9062L16.1007 13.359C16.1007 13.359 15.0181 14.4355 12.0631 11.4972C9.10812 8.55901 10.1907 7.48257 10.1907 7.48257L10.4775 7.19738C11.1841 6.49484 11.2507 5.36691 10.6342 4.54348L9.37326 2.85908C8.61028 1.83992 7.13596 1.70529 6.26145 2.57483L4.69185 4.13552C4.25823 4.56668 3.96765 5.12559 4.00289 5.74561C4.09304 7.33182 4.81071 10.7447 8.81536 14.7266C13.0621 18.9492 17.0468 19.117 18.6763 18.9651C19.1917 18.9171 19.6399 18.6546 20.0011 18.2954L21.4217 16.883C22.3806 15.9295 22.1102 14.2949 20.8833 13.628L18.9728 12.5894C18.1672 12.1515 17.1858 12.2801 16.5562 12.9062Z"/>
</symbol><symbol viewBox="0 0 24 24" id="protection" xmlns="http://www.w3.org/2000/svg">
    <path fill-rule="evenodd" clip-rule="evenodd" d="M6.25 12C6.25 11.2449 6.39873 10.4972 6.68769 9.79957C6.97666 9.10195 7.4002 8.46807 7.93414 7.93414C8.46807 7.4002 9.10195 6.97666 9.79957 6.68769C10.4972 6.39873 11.2449 6.25 12 6.25C12.7551 6.25 13.5028 6.39873 14.2004 6.68769C14.8981 6.97666 15.5319 7.4002 16.0659 7.93414C16.5998 8.46807 17.0233 9.10195 17.3123 9.79957C17.6013 10.4972 17.75 11.2449 17.75 12C17.75 12.7551 17.6013 13.5028 17.3123 14.2004C17.0233 14.8981 16.5998 15.5319 16.0659 16.0659C15.5319 16.5998 14.8981 17.0233 14.2004 17.3123C13.5028 17.6013 12.7551 17.75 12 17.75C11.2449 17.75 10.4972 17.6013 9.79957 17.3123C9.10195 17.0233 8.46807 16.5998 7.93414 16.0659C7.4002 15.5319 6.97666 14.8981 6.68769 14.2004C6.39873 13.5028 6.25 12.7551 6.25 12ZM11.9438 7.76762C11.9785 7.75034 11.9956 7.75 12 7.75C12.0044 7.75 12.0215 7.75034 12.0562 7.76762C12.0936 7.78619 12.1518 7.82491 12.2259 7.9016C12.3786 8.05973 12.5539 8.33309 12.7179 8.74301C12.8795 9.14714 13.0143 9.64428 13.1078 10.2092C13.1631 10.5427 13.2027 10.8921 13.2259 11.25H10.7741C10.7973 10.8921 10.8369 10.5427 10.8922 10.2092C10.9857 9.64428 11.1205 9.14714 11.2821 8.74301C11.4461 8.33308 11.6214 8.05973 11.7741 7.9016C11.8482 7.82491 11.9064 7.78619 11.9438 7.76762ZM9.27133 11.25C9.29642 10.811 9.34356 10.379 9.41233 9.96399C9.5089 9.38112 9.64788 8.8331 9.82738 8.3473C9.52472 8.52732 9.24492 8.74467 8.9948 8.9948C8.60015 9.38944 8.28709 9.85796 8.07351 10.3736C7.9564 10.6563 7.87045 10.9502 7.8167 11.25H9.27133ZM7.8167 12.75H9.27133C9.29642 13.189 9.34356 13.621 9.41233 14.036C9.5089 14.6189 9.64788 15.1669 9.82738 15.6527C9.52472 15.4727 9.24492 15.2553 8.9948 15.0052C8.60015 14.6106 8.28709 14.142 8.07351 13.6264C7.9564 13.3437 7.87045 13.0498 7.8167 12.75ZM16.1833 11.25C16.1296 10.9502 16.0436 10.6563 15.9265 10.3736C15.7129 9.85796 15.3999 9.38945 15.0052 8.9948C14.7551 8.74467 14.4753 8.52732 14.1726 8.3473C14.3521 8.8331 14.4911 9.38113 14.5877 9.96399C14.6564 10.379 14.7036 10.811 14.7287 11.25H16.1833ZM14.7287 12.75H16.1833C16.1296 13.0498 16.0436 13.3437 15.9265 13.6264C15.7129 14.142 15.3999 14.6106 15.0052 15.0052C14.7551 15.2553 14.4753 15.4727 14.1726 15.6527C14.3521 15.1669 14.4911 14.6189 14.5877 14.036C14.6564 13.621 14.7036 13.189 14.7287 12.75ZM13.2259 12.75C13.2027 13.1079 13.1631 13.4573 13.1078 13.7908C13.0143 14.3557 12.8795 14.8529 12.7179 15.257C12.5539 15.6669 12.3786 15.9403 12.2259 16.0984C12.1518 16.1751 12.0936 16.2138 12.0562 16.2324C12.0215 16.2497 12.0044 16.25 12 16.25C11.9956 16.25 11.9785 16.2497 11.9438 16.2324C11.9064 16.2138 11.8482 16.1751 11.7741 16.0984C11.6214 15.9403 11.4461 15.6669 11.2821 15.257C11.1205 14.8529 10.9857 14.3557 10.8922 13.7908C10.8369 13.4573 10.7973 13.1079 10.7741 12.75H13.2259Z"/>
    <path fill-rule="evenodd" clip-rule="evenodd" d="M12 1.25C11.0625 1.25 10.1673 1.55658 8.72339 2.05112L7.99596 2.30013C6.51463 2.8072 5.37141 3.19852 4.55303 3.53099C4.14078 3.69846 3.78637 3.86067 3.50098 4.02641C3.22634 4.1859 2.95082 4.38484 2.76363 4.65154C2.5786 4.91516 2.48293 5.23924 2.42281 5.55122C2.36031 5.87556 2.32262 6.26464 2.2983 6.71136C2.25 7.59836 2.25 8.81351 2.25 10.3896V11.9914C2.25 18.0924 6.85803 21.0175 9.59833 22.2146L9.62543 22.2264C9.96523 22.3749 10.2846 22.5144 10.6516 22.6084C11.0391 22.7076 11.4507 22.75 12 22.75C12.5493 22.75 12.9609 22.7076 13.3484 22.6084C13.7154 22.5144 14.0348 22.3749 14.3745 22.2264L14.4017 22.2146C17.142 21.0175 21.75 18.0924 21.75 11.9914V10.3898C21.75 8.81361 21.75 7.5984 21.7017 6.71136C21.6774 6.26464 21.6397 5.87556 21.5772 5.55122C21.5171 5.23924 21.4214 4.91516 21.2364 4.65154C21.0492 4.38484 20.7737 4.1859 20.499 4.02641C20.2136 3.86067 19.8592 3.69846 19.447 3.53099C18.6286 3.19852 17.4854 2.8072 16.004 2.30013L15.2766 2.05112C13.8327 1.55658 12.9375 1.25 12 1.25ZM9.08062 3.5143C10.6951 2.96164 11.3423 2.75 12 2.75C12.6577 2.75 13.3049 2.96164 14.9194 3.5143L15.4922 3.71037C17.0048 4.22814 18.1079 4.60605 18.8824 4.92069C19.269 5.07774 19.5491 5.20935 19.7457 5.32353C19.8428 5.3799 19.9097 5.42642 19.9543 5.46273C19.9922 5.49349 20.0066 5.51092 20.0087 5.51348C20.0106 5.5166 20.0231 5.53737 20.0406 5.58654C20.0606 5.64265 20.0827 5.72309 20.1043 5.83506C20.148 6.06169 20.1811 6.37301 20.2039 6.79292C20.2497 7.63411 20.25 8.80833 20.25 10.4167V11.9914C20.25 17.1665 16.3801 19.7135 13.8012 20.84C13.4297 21.0023 13.2152 21.0941 12.9764 21.1552C12.7483 21.2136 12.47 21.25 12 21.25C11.53 21.25 11.2517 21.2136 11.0236 21.1552C10.7848 21.0941 10.5703 21.0023 10.1988 20.84C7.6199 19.7135 3.75 17.1665 3.75 11.9914V10.4167C3.75 8.80833 3.75028 7.63411 3.79608 6.79292C3.81894 6.37301 3.85204 6.06169 3.89571 5.83506C3.91729 5.72309 3.93944 5.64265 3.95943 5.58654C3.97693 5.5374 3.98936 5.51663 3.99129 5.51349C3.99336 5.51095 4.0078 5.49351 4.04567 5.46273C4.09034 5.42642 4.15722 5.3799 4.25429 5.32353C4.4509 5.20935 4.731 5.07774 5.11759 4.92069C5.8921 4.60605 6.99521 4.22814 8.5078 3.71037L9.08062 3.5143Z"/>
</symbol><symbol viewBox="0 0 256 256" id="protection-umbrella" xml:space="preserve" xmlns="http://www.w3.org/2000/svg">
    <g>
        <path d="M100.4,113.6l2,1.3l2.3-0.8c11-4.1,24-5.2,30.8-5.4l0.9,0V144c0,2.7,2.2,4.8,4.8,4.8s4.8-2.2,4.8-4.8v-35.5l0.9,0   c8.3,0.4,20.4,1.6,30.8,5.4l2.3,0.8l2-1.3c15.2-9.7,36.3-14.6,57.9-13.6l6.1,0.3l-1.1-6c-7.3-40-50.9-67.3-88.2-72.7   c-2.9-0.4-6-0.7-9.2-0.8c-0.5,0-1,0-1.4,0v-8.5c0-2.7-2.2-4.8-4.8-4.8s-4.8,2.2-4.8,4.8v8.5c-0.4,0-0.8,0-1.3,0   c-3.4,0.1-6.5,0.4-9.4,0.8C88.4,27,44.8,54.3,37.5,94.2l-1.1,6l6.1-0.3C64.1,98.9,85.2,103.9,100.4,113.6z M127.1,31.2   c2.6-0.4,5.3-0.6,8.5-0.7c3.7-0.2,7.5-0.2,11.4,0c3,0.1,5.7,0.3,8.3,0.7h0c32.1,4.6,69.2,26.6,78.7,59c-20.6,0-39.9,4.9-55.2,14   c-11-3.7-23.1-4.9-31.4-5.2l-3.1-0.1c-1.1,0-2.1,0-2.8,0H141c-0.8,0-1.7,0-2.7,0l-3.2,0.1c-8.4,0.4-20.5,1.6-31.5,5.2   c-15.3-9.1-34.6-14-55.2-14C57.9,57.8,95,35.8,127.1,31.2z"/>
        <path d="M224,162.3l-59.8,25.1c-2.5,1-3.6,3.9-2.6,6.3c1,2.5,3.9,3.6,6.3,2.6l59.8-25.1c2.6-1.1,5.5-0.3,7.2,1.8   c1.1,1.4,1.6,3.1,1.3,4.8c-0.3,1.8-1.3,3.3-2.8,4.2c-26.1,17-85.4,50.6-88.2,52.2c-0.1,0.1-0.2,0.1-0.3,0.2v0   c-7.2,4.3-15.3,5.4-25.5,3.6c-0.6-0.1-14.4-1.8-47.1-5.8l-16.8-2.1v-65.3c2.7-0.2,5.1-0.3,6.1-0.3l0.6,0   c22.5-1.4,44.1,2.9,66.9,7.5c2.9,0.6,5.8,1.2,8.8,1.8c3.1,0.6,5.4,3.3,5.4,6.5c0,0.2,0,0.4-0.1,0.8c-0.2,1.8-1.2,3.1-1.9,3.9   c-1.2,1.2-2.9,1.9-4.7,1.9H91.1c-2.7,0-4.8,2.2-4.8,4.8s2.2,4.8,4.8,4.8h45.7c4.3,0,8.5-1.7,11.6-4.8c2.6-2.7,4.2-6,4.6-9.4   c0.1-0.7,0.2-1.4,0.2-2.2c0-7.8-5.5-14.5-13.2-16c-2.9-0.6-5.8-1.2-8.7-1.8c-22.4-4.5-45.6-9.2-69.4-7.7l-0.5,0   c-1.1,0-3.3,0.2-5.9,0.3c-0.6-2.1-2.4-3.6-4.6-3.6h-36c-2.7,0-4.8,2.2-4.8,4.8v81.4c0,2.7,2.2,4.8,4.8,4.8h36   c1.9,0,3.6-1.2,4.4-2.8l16.1,2c19.2,2.4,45.5,5.6,46.6,5.7c3.6,0.6,7,1,10.3,1c8,0,15.1-1.9,21.6-5.7c0.1,0,0.1-0.1,0.2-0.1   c0.6-0.3,62-35,88.8-52.5c3.8-2.5,6.3-6.4,7-10.8c0.7-4.4-0.5-8.9-3.3-12.4C238,161.4,230.6,159.5,224,162.3z M46,233.1H19.6v-71.7   H46V233.1z"/>
    </g>
</symbol><symbol viewBox="0 0 16 16" id="shield" xmlns="http://www.w3.org/2000/svg">
    <g>
        <path d="M11.28 5.47a.75.75 0 010 1.06l-4 4a.75.75 0 01-1.06 0l-2-2a.75.75 0 011.06-1.06l1.47 1.47 3.47-3.47a.75.75 0 011.06 0z"/>
        <path fill-rule="evenodd" d="M7.26.213a2.25 2.25 0 011.48 0l4.75 1.653A2.25 2.25 0 0115 3.991v4.01c0 2.048-1.181 3.747-2.45 4.991-1.282 1.255-2.757 2.15-3.573 2.598a2.024 2.024 0 01-1.954 0c-.816-.447-2.291-1.342-3.572-2.598C2.18 11.748 1 10.05 1 8V3.991c0-.957.606-1.81 1.51-2.125L7.26.213zm.986 1.417a.75.75 0 00-.493 0l-4.75 1.653a.75.75 0 00-.503.708v4.01c0 1.455.847 2.79 2 3.92 1.142 1.118 2.483 1.937 3.244 2.353.163.09.35.09.512 0 .761-.416 2.102-1.235 3.244-2.353 1.153-1.13 2-2.465 2-3.92V3.99a.75.75 0 00-.504-.708L8.246 1.63z" clip-rule="evenodd"/>
    </g>
</symbol><symbol viewBox="0 0 24 24" id="siren" xmlns="http://www.w3.org/2000/svg">
    <path d="M12.75 2C12.75 1.58579 12.4142 1.25 12 1.25C11.5858 1.25 11.25 1.58579 11.25 2V5C11.25 5.41421 11.5858 5.75 12 5.75C12.4142 5.75 12.75 5.41421 12.75 5V2Z"/>
    <path d="M14.5719 10.8048C14.188 10.6494 13.7507 10.8346 13.5953 11.2186C13.4399 11.6025 13.6252 12.0398 14.0091 12.1952C14.8235 12.5249 15.4749 13.1762 15.8046 13.9907C15.96 14.3746 16.3972 14.5599 16.7812 14.4044C17.1651 14.249 17.3504 13.8118 17.195 13.4278C16.7129 12.2369 15.7629 11.2869 14.5719 10.8048Z"/>
    <path fill-rule="evenodd" clip-rule="evenodd" d="M12 7.25C7.16751 7.25 3.25 11.1675 3.25 16V21.25H2C1.58579 21.25 1.25 21.5858 1.25 22C1.25 22.4142 1.58579 22.75 2 22.75H22C22.4142 22.75 22.75 22.4142 22.75 22C22.75 21.5858 22.4142 21.25 22 21.25H20.75V16C20.75 11.1675 16.8325 7.25 12 7.25ZM12.75 21.25H19.25V16C19.25 11.9959 16.0041 8.75 12 8.75C7.99594 8.75 4.75 11.9959 4.75 16V21.25H11.25V19.622C10.3761 19.3131 9.75 18.4797 9.75 17.5C9.75 16.2574 10.7574 15.25 12 15.25C13.2426 15.25 14.25 16.2574 14.25 17.5C14.25 18.4797 13.6239 19.3131 12.75 19.622V21.25ZM12 18.25C12.4142 18.25 12.75 17.9142 12.75 17.5C12.75 17.0858 12.4142 16.75 12 16.75C11.5858 16.75 11.25 17.0858 11.25 17.5C11.25 17.9142 11.5858 18.25 12 18.25Z"/>
    <path d="M21.5303 5.46967C21.8232 5.76256 21.8232 6.23744 21.5303 6.53033L20.0303 8.03033C19.7374 8.32322 19.2626 8.32322 18.9697 8.03033C18.6768 7.73744 18.6768 7.26256 18.9697 6.96967L20.4697 5.46967C20.7626 5.17678 21.2374 5.17678 21.5303 5.46967Z"/>
    <path d="M3.53033 5.46967C3.23744 5.17678 2.76256 5.17678 2.46967 5.46967C2.17678 5.76256 2.17678 6.23744 2.46967 6.53033L3.96967 8.03033C4.26256 8.32322 4.73744 8.32322 5.03033 8.03033C5.32322 7.73744 5.32322 7.26256 5.03033 6.96967L3.53033 5.46967Z"/>
</symbol><symbol viewBox="0 0 24 24" id="tuning" xmlns="http://www.w3.org/2000/svg">
    <path fill-rule="evenodd" clip-rule="evenodd" d="M7.25 16C7.25 14.4812 8.48122 13.25 10 13.25C11.5188 13.25 12.75 14.4812 12.75 16C12.75 17.5188 11.5188 18.75 10 18.75C8.48122 18.75 7.25 17.5188 7.25 16ZM10 14.75C9.30964 14.75 8.75 15.3096 8.75 16C8.75 16.6904 9.30964 17.25 10 17.25C10.6904 17.25 11.25 16.6904 11.25 16C11.25 15.3096 10.6904 14.75 10 14.75Z"/>
    <path fill-rule="evenodd" clip-rule="evenodd" d="M16.75 8C16.75 9.51878 15.5188 10.75 14 10.75C12.4812 10.75 11.25 9.51878 11.25 8C11.25 6.48122 12.4812 5.25 14 5.25C15.5188 5.25 16.75 6.48122 16.75 8ZM14 9.25C14.6904 9.25 15.25 8.69036 15.25 8C15.25 7.30964 14.6904 6.75 14 6.75C13.3096 6.75 12.75 7.30964 12.75 8C12.75 8.69036 13.3096 9.25 14 9.25Z"/>
    <path d="M13.25 16C13.25 15.5858 13.5858 15.25 14 15.25H19C19.4142 15.25 19.75 15.5858 19.75 16C19.75 16.4142 19.4142 16.75 19 16.75H14C13.5858 16.75 13.25 16.4142 13.25 16Z"/>
    <path d="M10 7.25C10.4142 7.25 10.75 7.58579 10.75 8C10.75 8.41421 10.4142 8.75 10 8.75H5C4.58579 8.75 4.25 8.41421 4.25 8C4.25 7.58579 4.58579 7.25 5 7.25H10Z"/>
    <path d="M4.25 16C4.25 15.5858 4.58579 15.25 5 15.25H6C6.41421 15.25 6.75 15.5858 6.75 16C6.75 16.4142 6.41421 16.75 6 16.75H5C4.58579 16.75 4.25 16.4142 4.25 16Z"/>
    <path d="M19 7.25C19.4142 7.25 19.75 7.58579 19.75 8C19.75 8.41421 19.4142 8.75 19 8.75H18C17.5858 8.75 17.25 8.41421 17.25 8C17.25 7.58579 17.5858 7.25 18 7.25H19Z"/>
    <path fill-rule="evenodd" clip-rule="evenodd" d="M11.9426 1.25H12.0574C14.3658 1.24999 16.1748 1.24998 17.5863 1.43975C19.031 1.63399 20.1711 2.03933 21.0659 2.93414C21.9607 3.82895 22.366 4.96897 22.5603 6.41371C22.75 7.82519 22.75 9.63423 22.75 11.9426V12.0574C22.75 14.3658 22.75 16.1748 22.5603 17.5863C22.366 19.031 21.9607 20.1711 21.0659 21.0659C20.1711 21.9607 19.031 22.366 17.5863 22.5603C16.1748 22.75 14.3658 22.75 12.0574 22.75H11.9426C9.63423 22.75 7.82519 22.75 6.41371 22.5603C4.96897 22.366 3.82895 21.9607 2.93414 21.0659C2.03933 20.1711 1.63399 19.031 1.43975 17.5863C1.24998 16.1748 1.24999 14.3658 1.25 12.0574V11.9426C1.24999 9.63423 1.24998 7.82519 1.43975 6.41371C1.63399 4.96897 2.03933 3.82895 2.93414 2.93414C3.82895 2.03933 4.96897 1.63399 6.41371 1.43975C7.82519 1.24998 9.63423 1.24999 11.9426 1.25ZM6.61358 2.92637C5.33517 3.09825 4.56445 3.42514 3.9948 3.9948C3.42514 4.56445 3.09825 5.33517 2.92637 6.61358C2.75159 7.91356 2.75 9.62178 2.75 12C2.75 14.3782 2.75159 16.0864 2.92637 17.3864C3.09825 18.6648 3.42514 19.4355 3.9948 20.0052C4.56445 20.5749 5.33517 20.9018 6.61358 21.0736C7.91356 21.2484 9.62178 21.25 12 21.25C14.3782 21.25 16.0864 21.2484 17.3864 21.0736C18.6648 20.9018 19.4355 20.5749 20.0052 20.0052C20.5749 19.4355 20.9018 18.6648 21.0736 17.3864C21.2484 16.0864 21.25 14.3782 21.25 12C21.25 9.62178 21.2484 7.91356 21.0736 6.61358C20.9018 5.33517 20.5749 4.56445 20.0052 3.9948C19.4355 3.42514 18.6648 3.09825 17.3864 2.92637C16.0864 2.75159 14.3782 2.75 12 2.75C9.62178 2.75 7.91356 2.75159 6.61358 2.92637Z"/>
</symbol><symbol viewBox="0 0 24 24" id="umbrella" xmlns="http://www.w3.org/2000/svg">
    <path fill-rule="evenodd" clip-rule="evenodd" d="M11.5238 1.25C5.84974 1.25 1.25 5.84974 1.25 11.5238C1.25 12.201 1.79898 12.75 2.47619 12.75H11.25V20C11.25 20.6904 10.6904 21.25 10 21.25C9.30964 21.25 8.75 20.6904 8.75 20V19C8.75 18.5858 8.41421 18.25 8 18.25C7.58579 18.25 7.25 18.5858 7.25 19V20C7.25 21.5188 8.48122 22.75 10 22.75C11.5188 22.75 12.75 21.5188 12.75 20V12.75H21.5238C22.201 12.75 22.75 12.201 22.75 11.5238C22.75 5.84974 18.1503 1.25 12.4762 1.25H11.5238ZM8.84386 3.16683C5.39174 4.27297 2.87041 7.4588 2.75419 11.25H6.41544C6.59146 9.80771 6.94148 7.65426 7.60615 5.73755C7.92504 4.81796 8.32834 3.91674 8.84386 3.16683ZM7.92709 11.25C8.10314 9.86814 8.43343 7.93018 9.02335 6.229C9.38457 5.18734 9.82539 4.28791 10.3479 3.66173C10.8617 3.04589 11.4026 2.75 12 2.75C12.5974 2.75 13.1383 3.04589 13.6521 3.66173C14.1746 4.28791 14.6154 5.18734 14.9767 6.229C15.5666 7.93018 15.8969 9.86814 16.0729 11.25H7.92709ZM17.5846 11.25C17.4086 9.80771 17.0585 7.65426 16.3939 5.73755C16.075 4.81796 15.6717 3.91675 15.1562 3.16684C18.6083 4.27298 21.1296 7.45881 21.2458 11.25H17.5846Z"/>
</symbol></svg>