<?xml version="1.0" encoding="UTF-8"?><!DOCTYPE svg  PUBLIC '-//W3C//DTD SVG 1.1//EN'  'http://www.w3.org/Graphics/SVG/1.1/DTD/svg11.dtd'><svg viewBox="0 0 2000 2000" xmlns="http://www.w3.org/2000/svg" xmlns:xlink="http://www.w3.org/1999/xlink"><style>:root>svg{display:none}:root>svg:target{display:block}</style><svg data-name="Layer 1" viewBox="0 0 24 24" id="arrow-up" xmlns="http://www.w3.org/2000/svg"><path d="M12 0C5.383 0 0 5.383 0 12s5.383 12 12 12 12-5.383 12-12S18.617 0 12 0Zm4.361 12H13v5a1 1 0 0 1-2 0v-5H7.639c-.695 0-1.044-.852-.552-1.35l4.361-4.418a.773.773 0 0 1 1.104 0l4.361 4.418c.492.498.143 1.35-.552 1.35Z"/></svg><svg viewBox="0 0 32 32" xml:space="preserve" id="choice" xmlns="http://www.w3.org/2000/svg"><g fill="none" stroke="#455A64" stroke-miterlimit="10"><g stroke-linecap="round" stroke-linejoin="round"><path d="m13.89 26.034-1.4-1.244a5.97 5.97 0 0 1-1.58-2.29L8.9 16.95c-.17-.47.05-.99.5-1.2.24-.11.48-.16.73-.16.63 0 1.24.351 1.55.95l1.84 3.7c.62-.46.98-1.19.98-1.95V6.5c0-.83.67-1.5 1.5-1.5s1.5.67 1.5 1.5v8c0-.83.67-1.5 1.5-1.5s1.5.67 1.5 1.5v.5c0-.83.67-1.5 1.5-1.5s1.5.67 1.5 1.5v1c0-.83.67-1.5 1.5-1.5s1.5.67 1.5 1.5v8.09a3.42 3.42 0 0 1-.574 1.891M13.5 30.5v-3h13v3"/></g><path d="M10.477 5.541A4.488 4.488 0 1 1 8.198 2.08" stroke-linecap="round" stroke-linejoin="round"/><path stroke-linecap="round" stroke-linejoin="round" d="M10.313 2.842 6.012 7.143 3.94 5.071"/><circle cx="26" cy="6" r="4.5"/><g stroke-linecap="round" stroke-linejoin="round"><path d="m27.5 7.5-3-3M27.5 4.5l-3 3"/></g></g><g fill="none" stroke="#263238" stroke-linecap="round" stroke-linejoin="round" stroke-miterlimit="10"><path d="m13.89 26.034-1.4-1.244a5.97 5.97 0 0 1-1.58-2.29L8.9 16.95c-.17-.47.05-.99.5-1.2.24-.11.48-.16.73-.16.63 0 1.24.351 1.55.95l1.84 3.7c.62-.46.98-1.19.98-1.95V6.5c0-.83.67-1.5 1.5-1.5s1.5.67 1.5 1.5v8c0-.83.67-1.5 1.5-1.5s1.5.67 1.5 1.5v.5c0-.83.67-1.5 1.5-1.5s1.5.67 1.5 1.5v1c0-.83.67-1.5 1.5-1.5s1.5.67 1.5 1.5v8.09a3.42 3.42 0 0 1-.574 1.891M13.5 30.5v-3h13v3M10.477 5.541A4.488 4.488 0 1 1 8.198 2.08"/><path d="M10.313 2.842 6.012 7.143 3.94 5.071"/><circle cx="26" cy="6" r="4.5"/><path d="m27.5 7.5-3-3M27.5 4.5l-3 3"/></g></svg><svg viewBox="0 0 24 24" id="close" xmlns="http://www.w3.org/2000/svg"><g fill="none" fill-rule="evenodd"><path d="M0 0h24v24H0z"/><path stroke="#0C0310" stroke-width="2" stroke-linecap="round" d="M17 7 7 17M7 7l10 10"/></g></svg><svg version="1.1" id="delivery" viewBox="0 0 512 512" xml:space="preserve" xmlns="http://www.w3.org/2000/svg"><style>.dst0{fill:#b52670}</style><path class="dst0" d="M311.069 130.515a11.744 11.744 0 0 0-11.578-9.768H35.43c-7.61 0-13.772 6.169-13.772 13.765 0 7.61 6.162 13.772 13.772 13.772h64.263c7.61 0 13.772 6.17 13.772 13.773s-6.162 13.772-13.772 13.772H13.772C6.169 175.829 0 181.998 0 189.601c0 7.603 6.169 13.764 13.772 13.764h117.114c6.72 0 12.172 5.46 12.172 12.18s-5.452 12.172-12.172 12.172H68.665c-7.61 0-13.772 6.17-13.772 13.773 0 7.602 6.162 13.772 13.772 13.772h45.857c6.726 0 12.179 5.452 12.179 12.172 0 6.719-5.453 12.172-12.179 12.172H51.215c-7.61 0-13.772 6.169-13.772 13.772 0 7.603 6.162 13.772 13.772 13.772h87.014l5.488 31.042h31.52c-1.854 4.504-2.911 9.421-2.911 14.598 0 21.245 17.218 38.464 38.464 38.464 21.237 0 38.456-17.219 38.456-38.464 0-5.177-1.057-10.094-2.911-14.598h100.04l-35.306-207.677zm-83.727 222.274c0 9.146-7.407 16.553-16.553 16.553-9.152 0-16.56-7.407-16.56-16.553 0-6.364 3.627-11.824 8.892-14.598h15.329c5.264 2.774 8.892 8.233 8.892 14.598zM511.598 314.072l-15.799-77.941-57.689-88.759H333.074l32.534 190.819h38.42c-1.846 4.504-2.904 9.421-2.904 14.598 0 21.245 17.219 38.464 38.456 38.464 21.246 0 38.464-17.219 38.464-38.464 0-5.177-1.057-10.094-2.91-14.598h16.741a20.119 20.119 0 0 0 19.723-24.119zm-119.069-131.19h26.314l34.162 52.547h-51.512l-8.964-52.547zm63.611 169.907c0 9.146-7.407 16.553-16.56 16.553-9.138 0-16.552-7.407-16.552-16.553 0-6.364 3.635-11.824 8.892-14.598h15.329c5.264 2.774 8.891 8.233 8.891 14.598z"/></svg><svg viewBox="0 0 1920 1920" id="email" xmlns="http://www.w3.org/2000/svg"><path d="M1920 428.266v1189.54l-464.16-580.146-88.203 70.585 468.679 585.904H83.684l468.679-585.904-88.202-70.585L0 1617.805V428.265l959.944 832.441L1920 428.266ZM1919.932 226v52.627l-959.943 832.44L.045 278.628V226h1919.887Z" fill-rule="evenodd"/></svg><svg viewBox="0 0 32 32" xml:space="preserve" id="facebook" xmlns="http://www.w3.org/2000/svg"><path d="M6 2h20c2.2 0 4 1.8 4 4v20c0 2.2-1.8 4-4 4H6c-2.2 0-4-1.8-4-4V6c0-2.2 1.8-4 4-4z"/><path d="M13.2 16.1v9.7c0 .1.1.3.3.3h3.9c.2 0 .3-.1.3-.3V16h2.8c.1 0 .3-.1.3-.2l.3-3c0-.2-.1-.3-.3-.3h-3.1v-2.1c0-.5.4-.9 1-.9h2.2c.2 0 .3-.1.3-.3V6.3c-.2-.2-.3-.3-.5-.3h-3.6c-2.1 0-3.9 1.6-3.9 3.6v2.9h-1.9c-.2 0-.3.1-.3.3v3c0 .1.1.3.3.3h1.9z" style="fill-rule:evenodd;clip-rule:evenodd;fill:#fff"/></svg><svg stroke-miterlimit="10" style="fill-rule:nonzero;clip-rule:evenodd;stroke-linecap:round;stroke-linejoin:round" viewBox="0 0 3000 3000" id="instagram" xmlns="http://www.w3.org/2000/svg"><defs><linearGradient gradientUnits="userSpaceOnUse" id="ga" x1="1500" x2="2805.81" y1="1500" y2="194.188"><stop offset="0" stop-color="#7e7e7e"/><stop offset=".556" stop-color="#c8c8c8"/><stop offset="1" stop-color="#7e7e7e"/></linearGradient></defs><path d="M1500 1189.05c-171.72.07-310.87 139.31-310.83 311.03.04 171.71 139.27 310.89 310.99 310.87 171.71-.02 310.9-139.23 310.9-310.95-.13-171.72-139.34-310.88-311.06-310.95Zm727-239.007a314.806 314.806 0 0 0-177.28-177.275c-122.42-48.327-413.89-37.484-549.72-37.484-135.83 0-427.01-11.251-549.782 37.484a314.792 314.792 0 0 0-177.275 177.275c-48.269 122.417-37.484 414.187-37.484 549.897 0 135.71-10.785 427.13 37.717 549.96a314.76 314.76 0 0 0 177.275 177.27c122.419 48.33 413.899 37.49 549.779 37.49 135.89 0 426.96 11.25 549.73-37.49a314.725 314.725 0 0 0 177.27-177.27c48.68-122.42 37.49-414.19 37.49-549.9 0-135.71 11.19-427.07-37.49-549.898l-.23-.059ZM1500 1978.02c-264 0-478.02-214.02-478.02-478.02S1236 1021.98 1500 1021.98 1978.02 1236 1978.02 1500c.16 126.83-50.16 248.5-139.84 338.18s-211.35 140-338.18 139.84Zm497.72-864.52c-61.63.04-111.61-49.91-111.63-111.54-.02-61.625 49.93-111.6 111.56-111.611 61.63-.011 111.59 49.947 111.59 111.581.13 29.6-11.54 58.03-32.42 79.01a111.367 111.367 0 0 1-78.86 32.8l-.24-.24ZM2526 194.188H474.005c-154.539 0-279.817 125.278-279.817 279.817V2526c0 154.53 125.278 279.81 279.817 279.81H2526c154.53 0 279.81-125.28 279.81-279.81V474.005c0-154.539-125.28-279.817-279.81-279.817Zm-99.81 1690.562c-7.52 149.41-41.62 281.8-150.69 390.58-109.07 108.77-241.34 143.58-390.58 150.69-153.95 8.68-615.54 8.68-769.49 0-149.414-7.52-281.336-41.68-390.581-150.69-109.245-109.02-143.581-241.46-150.693-390.58-8.686-154.02-8.686-615.66 0-769.5 7.52-149.409 41.215-281.797 150.693-390.576 109.478-108.779 241.75-143.173 390.581-150.285 153.95-8.686 615.54-8.686 769.49 0 149.41 7.52 281.74 41.681 390.58 150.693 108.84 109.012 143.58 241.459 150.69 390.868 8.69 153.43 8.69 614.67 0 768.8Z" fill="url(#ga)"/></svg><svg viewBox="0 0 37.4 37.4" xml:space="preserve" id="new" xmlns="http://www.w3.org/2000/svg"><path d="m33.917 18.7 2.268-3.492a2.69 2.69 0 0 0 .302-2.287 2.686 2.686 0 0 0-1.587-1.674l-3.888-1.492-.22-4.158a2.676 2.676 0 0 0-3.37-2.444l-4.021 1.075L20.78.993A2.674 2.674 0 0 0 18.699 0c-.808 0-1.571.365-2.082.992l-2.621 3.235-4.021-1.075a2.686 2.686 0 0 0-2.268.42 2.687 2.687 0 0 0-1.101 2.026l-.218 4.156-3.887 1.492A2.686 2.686 0 0 0 .914 12.92a2.675 2.675 0 0 0 .302 2.287L3.482 18.7l-2.267 3.492A2.68 2.68 0 0 0 2.5 26.151l3.887 1.491.219 4.158c.042.81.447 1.553 1.101 2.026a2.67 2.67 0 0 0 2.269.42l4.021-1.075 2.621 3.233a2.674 2.674 0 0 0 4.164.001l2.621-3.232 4.021 1.074a2.672 2.672 0 0 0 2.269-.42 2.69 2.69 0 0 0 1.102-2.025l.219-4.158 3.888-1.492a2.676 2.676 0 0 0 1.285-3.959l-2.27-3.493zm-23.85 4.017-.776-3.099a22.684 22.684 0 0 1-.533-2.836l-.04.012a85.777 85.777 0 0 1-.99 3.503l-.733 2.42H5.326l2.436-8.032h2.121l.775 2.943c.221.847.394 1.847.477 2.753h.036c.202-1.062.495-2.146.859-3.349l.712-2.348h1.668l-2.435 8.031h-1.908v.002zm10.424-6.544h-3.134l-.505 1.67h2.955l-.448 1.477h-2.956l-.578 1.904h3.301l-.451 1.49h-5.124l2.435-8.031h4.958l-.453 1.49zm7.075 6.544H25.6l.368-3.455c.091-.812.188-1.562.37-2.479h-.023a41.853 41.853 0 0 1-1.217 2.479l-1.811 3.455H21.3l.527-8.032h1.942l-.396 3.313c-.11.953-.258 1.99-.372 2.801h.023c.395-.869.877-1.834 1.38-2.823l1.676-3.289h1.931l-.382 3.385a48.076 48.076 0 0 1-.389 2.691h.022c.391-.895.854-1.834 1.312-2.788l1.651-3.289h1.848l-4.507 8.031z"/></svg><svg viewBox="0 0 24 24" fill="none" id="phone" xmlns="http://www.w3.org/2000/svg"><path d="m16.556 12.906-.455.453s-1.083 1.076-4.038-1.862-1.872-4.014-1.872-4.014l.286-.286c.707-.702.774-1.83.157-2.654L9.374 2.86C8.61 1.84 7.135 1.705 6.26 2.575l-1.57 1.56c-.433.432-.723.99-.688 1.61.09 1.587.808 5 4.812 8.982 4.247 4.222 8.232 4.39 9.861 4.238.516-.048.964-.31 1.325-.67l1.42-1.412c.96-.953.69-2.588-.538-3.255l-1.91-1.039c-.806-.438-1.787-.309-2.417.317Z" fill="#1C274C"/></svg><svg viewBox="0 0 512.015 512.015" xml:space="preserve" id="presentation" xmlns="http://www.w3.org/2000/svg"><path d="M102.409 0c-42.351.009-76.8 34.458-76.8 76.809s34.449 76.792 76.8 76.792 76.8-34.449 76.8-76.8C179.209 34.449 144.76 0 102.409 0zm0 128.009c-28.279 0-51.2-22.921-51.2-51.2s22.921-51.2 51.2-51.2 51.2 22.921 51.2 51.2-22.92 51.2-51.2 51.2zM486.409 128h-256c-14.14 0-25.6 11.46-25.6 25.6v19.55l25.6 12.8V153.6h256v204.791h-256v-30.43l-25.6-6.391v36.821c0 14.14 11.46 25.6 25.6 25.6h105.404l-65.178 108.621c-3.652 6.05-1.673 13.926 4.403 17.553 5.999 3.678 13.901 1.698 17.553-4.403l53.018-88.371v81.792c0 7.074 5.726 12.8 12.8 12.8s12.8-5.726 12.8-12.8v-81.792l53.026 88.363a12.794 12.794 0 0 0 10.974 6.221c2.253 0 4.523-.572 6.579-1.826 6.076-3.627 8.047-11.503 4.403-17.553l-65.178-108.621h105.395c14.14 0 25.6-11.46 25.6-25.6V153.6c.001-14.14-11.459-25.6-25.599-25.6z"/><path d="M447.506 201.276c-1.929-6.801-9.003-10.803-15.821-8.772l-157.961 45.133c-1.843-1.783-3.908-3.345-6.263-4.531l-102.4-51.2a25.65 25.65 0 0 0-11.452-2.705h-102.4c-12.373 0-22.972 8.849-25.19 21.018L.419 341.01c-1.357 7.467.666 15.155 5.53 20.983s12.066 9.199 19.661 9.199h16.358l9.327 117.222c1.058 13.312 12.16 23.569 25.515 23.569h51.2c13.047 0 24.004-9.805 25.446-22.767l22.366-201.276 73.984 18.492a25.56 25.56 0 0 0 6.204.759 25.599 25.599 0 0 0 25.6-25.6V261.99l157.124-44.894c6.801-1.928 10.726-9.028 8.772-15.82zM256.009 281.6l-102.4-25.6-25.6 230.392h-51.2l-11.196-140.8H25.609l25.6-140.791h38.4v77.875c0 7.074 5.726 12.8 12.8 12.8 7.074 0 12.8-5.726 12.8-12.8V204.8h38.4l102.4 51.2v25.6z"/></svg><svg version="1.1" id="service" viewBox="0 0 512 512" xml:space="preserve" xmlns="http://www.w3.org/2000/svg"><style>.kst0{fill:#b52670}</style><path class="kst0" d="M149.193 103.525c15.994 0 28.964-12.97 28.964-28.972V28.964C178.157 12.97 165.187 0 149.193 0 133.19 0 120.22 12.97 120.22 28.964v45.589c0 16.003 12.97 28.972 28.973 28.972zM362.815 103.525c15.994 0 28.964-12.97 28.964-28.972V28.964C391.78 12.97 378.81 0 362.815 0c-16.003 0-28.972 12.97-28.972 28.964v45.589c0 16.003 12.97 28.972 28.972 28.972z"/><path class="kst0" d="M435.164 41.287h-17.925v33.266c0 30.017-24.415 54.431-54.423 54.431-30.017 0-54.431-24.414-54.431-54.431V41.287h-104.77v33.266c0 30.017-24.414 54.431-54.422 54.431-30.018 0-54.432-24.414-54.432-54.431V41.287H76.836c-38.528 0-69.763 31.235-69.763 69.763v331.187C7.073 480.765 38.308 512 76.836 512h358.328c38.528 0 69.763-31.235 69.763-69.763V111.05c0-38.528-31.236-69.763-69.763-69.763zm35.818 400.95c0 19.748-16.07 35.818-35.818 35.818H76.836c-19.749 0-35.818-16.07-35.818-35.818V155.138h429.964v287.099z"/><path class="kst0" d="M183.676 377.571h56.727v56.727h-56.727zM183.676 289.65h56.727v56.727h-56.727zM95.765 377.571h56.718v56.727H95.765zM95.765 289.65h56.718v56.727H95.765zM359.517 201.73h56.718v56.727h-56.718zM271.597 201.73h56.735v56.727h-56.735zM271.597 289.65h56.735v56.727h-56.735zM359.517 377.571h56.718v56.727h-56.718zM359.517 289.65h56.718v56.727h-56.718zM271.597 377.571h56.735v56.727h-56.735zM183.676 201.73h56.727v56.727h-56.727zM95.765 201.73h56.718v56.727H95.765z"/></svg></svg>