<?xml version="1.0" encoding="utf-8"?><!DOCTYPE svg PUBLIC "-//W3C//DTD SVG 1.1//EN" "http://www.w3.org/Graphics/SVG/1.1/DTD/svg11.dtd"><svg viewBox="0 0 2000 2000" xmlns="http://www.w3.org/2000/svg" xmlns:xlink="http://www.w3.org/1999/xlink"><style>:root>svg{display:none}:root>svg:target{display:block}</style><svg viewBox="0 0 24 24" fill="none" id="arrow-left" xmlns="http://www.w3.org/2000/svg"><path d="M6 12h12M6 12l5-5m-5 5 5 5" stroke="#000" stroke-width="2" stroke-linecap="round" stroke-linejoin="round"/></svg><svg viewBox="0 0 24 24" fill="none" id="arrow-right" xmlns="http://www.w3.org/2000/svg"><path d="M6 12h12m0 0-5-5m5 5-5 5" stroke="#000" stroke-width="2" stroke-linecap="round" stroke-linejoin="round"/></svg><svg data-name="Layer 1" viewBox="0 0 24 24" id="arrow-up" xmlns="http://www.w3.org/2000/svg"><path d="M12 0C5.383 0 0 5.383 0 12s5.383 12 12 12 12-5.383 12-12S18.617 0 12 0Zm4.361 12H13v5a1 1 0 0 1-2 0v-5H7.639c-.695 0-1.044-.852-.552-1.35l4.361-4.418a.773.773 0 0 1 1.104 0l4.361 4.418c.492.498.143 1.35-.552 1.35Z"/></svg><svg viewBox="0 0 61.8 61.8" id="avatar_female" xmlns="http://www.w3.org/2000/svg"><path fill="#ffe8be" fill-rule="evenodd" d="M31.129 8.432c21.281 0 12.987 35.266 0 35.266-12.266 0-21.281-35.266 0-35.266z"/><circle cx="30.9" cy="30.9" r="30.9" fill="#58b0e0"/><path fill="#60350a" fill-rule="evenodd" d="m45.487 19.987-29.173.175s1.048 16.148-2.619 21.21h35.701c-.92-1.35-3.353-1.785-3.909-21.385z"/><path fill="#d5e1ed" fill-rule="evenodd" d="m18.135 45.599 7.206-3.187 11.55-.3 7.42 3.897-5.357 11.215-7.613 4.088-7.875-4.35-5.331-11.363z"/><path fill="#f9dca4" fill-rule="evenodd" d="m24.744 38.68 12.931.084v8.949l-12.931-.085V38.68z"/><path fill-rule="evenodd" d="M37.677 38.778v3.58a9.168 9.168 0 0 1-.04 1.226 6.898 6.898 0 0 1-.313 1.327c-4.37 4.165-11.379.78-12.49-6.333z" opacity=".11"/><path fill="#434955" fill-rule="evenodd" d="M52.797 52.701a30.896 30.896 0 0 1-44.08-.293l1.221-3.098 9.103-4.122c3.262 5.98 6.81 11.524 12.317 15.455A45.397 45.397 0 0 0 43.2 45.483l8.144 3.853z"/><path fill="#f9dca4" fill-rule="evenodd" d="M19.11 24.183c-2.958 1.29-.442 7.41 1.42 7.383a30.842 30.842 0 0 1-1.42-7.383zm24.397-.001c2.96 1.292.443 7.411-1.419 7.384a30.832 30.832 0 0 0 1.419-7.384z"/><path fill="#ffe8be" fill-rule="evenodd" d="M31.114 8.666c8.722 0 12.377 6.2 12.601 13.367.307 9.81-5.675 21.43-12.6 21.43-6.56 0-12.706-12.018-12.333-21.928.26-6.953 3.814-12.869 12.332-12.869z"/><path fill="#464449" fill-rule="evenodd" d="M33.399 24.983a7.536 7.536 0 0 1 5.223-.993h.005c5.154.63 5.234 2.232 4.733 2.601a2.885 2.885 0 0 0-.785 1.022 6.566 6.566 0 0 1-1.052 2.922 5.175 5.175 0 0 1-3.464 2.312c-.168.027-.34.048-.516.058a4.345 4.345 0 0 1-3.65-1.554 8.33 8.33 0 0 1-1.478-2.53v.003s-.797-1.636-2.072-.114a8.446 8.446 0 0 1-1.52 2.64 4.347 4.347 0 0 1-3.651 1.555 5.242 5.242 0 0 1-.516-.058 5.176 5.176 0 0 1-3.464-2.312 6.568 6.568 0 0 1-1.052-2.921 2.75 2.75 0 0 0-.77-1.023c-.5-.37-.425-1.973 4.729-2.603h.002a7.545 7.545 0 0 1 5.24 1.01l-.001-.001.003.002.215.131a3.93 3.93 0 0 0 3.842-.148l-.001.001zm-4.672.638a6.638 6.638 0 0 0-6.157-.253c-1.511.686-1.972 1.17-1.386 3.163a5.617 5.617 0 0 0 .712 1.532 4.204 4.204 0 0 0 3.326 1.995 3.536 3.536 0 0 0 2.966-1.272 7.597 7.597 0 0 0 1.36-2.37c.679-1.78.862-1.863-.82-2.795zm10.947-.45a6.727 6.727 0 0 0-5.886.565c-1.538.911-1.258 1.063-.578 2.79a7.476 7.476 0 0 0 1.316 2.26 3.536 3.536 0 0 0 2.967 1.272 4.228 4.228 0 0 0 .43-.048 4.34 4.34 0 0 0 2.896-1.947 5.593 5.593 0 0 0 .684-1.44c.702-2.25.076-2.751-1.828-3.451z"/><path fill="#8a5c42" fill-rule="evenodd" d="M17.89 25.608c0-.638.984-.886 1.598 2.943a22.164 22.164 0 0 0 .956-4.813c1.162.225 2.278 2.848 1.927 5.148 3.166-.777 11.303-5.687 13.949-12.324 6.772 3.901 6.735 12.094 6.735 12.094s.358-1.9.558-3.516c.066-.538.293-.733.798-.213C48.073 17.343 42.3 5.75 31.297 5.57c-15.108-.246-17.03 16.114-13.406 20.039z"/><path fill="#fff" fill-rule="evenodd" d="M24.765 42.431a14.125 14.125 0 0 0 6.463 5.236l-4.208 6.144-5.917-9.78z"/><path fill="#fff" fill-rule="evenodd" d="M37.682 42.431a14.126 14.126 0 0 1-6.463 5.236l4.209 6.144 5.953-9.668z"/><circle cx="31.223" cy="52.562" r=".839" fill="#434955"/><circle cx="31.223" cy="56.291" r=".839" fill="#434955"/><path fill="#464449" fill-rule="evenodd" d="M41.997 24.737c1.784.712 1.719 1.581 1.367 1.841a2.886 2.886 0 0 0-.785 1.022 6.618 6.618 0 0 1-.582 2.086v-4.949zm-21.469 4.479a6.619 6.619 0 0 1-.384-1.615 2.748 2.748 0 0 0-.77-1.023c-.337-.249-.413-1.06 1.154-1.754z"/></svg><svg viewBox="0 0 61.8 61.8" id="avatar_male" xmlns="http://www.w3.org/2000/svg"><circle cx="30.9" cy="30.9" r="30.9" fill="#58b0e0"/><path fill="#f9dca4" fill-rule="evenodd" d="m23.255 38.68 15.907.121v12.918l-15.907-.121V38.68z"/><path fill="#e6e6e6" fill-rule="evenodd" d="M43.971 58.905a30.967 30.967 0 0 1-25.843.14V48.417H43.97z"/><path fill="#e9573e" fill-rule="evenodd" d="M33.403 61.7q-1.238.099-2.503.1-.955 0-1.895-.057l1.03-8.988h2.41z"/><path fill="#677079" fill-rule="evenodd" d="M25.657 61.332A34.072 34.072 0 0 1 15.9 57.92a31.033 31.033 0 0 1-7.857-6.225l1.284-3.1 13.925-6.212c0 5.212 1.711 13.482 2.405 18.95z"/><path fill-rule="evenodd" d="M39.165 38.759v3.231c-4.732 5.527-13.773 4.745-15.8-3.412z" opacity=".11"/><path fill="#ffe8be" fill-rule="evenodd" d="M31.129 8.432c21.281 0 12.987 35.266 0 35.266-12.267 0-21.281-35.266 0-35.266z"/><path fill="#f9dca4" fill-rule="evenodd" d="M18.365 24.046c-3.07 1.339-.46 7.686 1.472 7.658a31.972 31.972 0 0 1-1.472-7.659zm25.775-.001c3.07 1.339.46 7.687-1.471 7.658a31.993 31.993 0 0 0 1.471-7.658z"/><path fill="#464449" fill-rule="evenodd" d="M21.931 14.328c-3.334 3.458-2.161 13.03-2.161 13.03l-1.05-.495c-6.554-25.394 31.634-25.395 25.043 0l-1.05.495s1.174-9.572-2.16-13.03c-4.119 3.995-14.526 3.974-18.622 0z"/><path fill="#677079" fill-rule="evenodd" d="M36.767 61.243a30.863 30.863 0 0 0 17.408-10.018l-1.09-2.631-13.924-6.212c0 5.212-1.7 13.393-2.394 18.861z"/><path fill="#fff" fill-rule="evenodd" d="m39.162 41.98-7.926 6.465 6.573 5.913s1.752-9.704 1.353-12.378z"/><path fill="#fff" fill-rule="evenodd" d="m23.253 41.98 7.989 6.465-6.645 5.913s-1.746-9.704-1.344-12.378z"/><path fill="#e9573e" fill-rule="evenodd" d="m28.109 51.227 3.137-2.818 3.137 2.818-3.137 2.817-3.137-2.817z"/><path fill="#434955" fill-rule="evenodd" d="M25.767 61.373a30.815 30.815 0 0 1-3.779-.88 2.652 2.652 0 0 1-.114-.093l-3.535-6.39 4.541-3.26h-4.752l1.017-6.851 4.11-2.599c.178 7.37 1.759 15.656 2.512 20.073zm10.878-.107c.588-.098 1.17-.234 1.747-.384a56.83 56.83 0 0 0 2.034-.579l.134-.043 3.511-6.315-4.541-3.242h4.752l-1.017-6.817-4.11-2.586c-.178 7.332-1.758 15.571-2.51 19.966z"/></svg><svg viewBox="0 0 24 24" id="close" xmlns="http://www.w3.org/2000/svg"><g fill="none" fill-rule="evenodd"><path d="M0 0h24v24H0z"/><path stroke="#0C0310" stroke-width="2" stroke-linecap="round" d="M17 7 7 17M7 7l10 10"/></g></svg><svg viewBox="0 0 24 24" fill="none" id="cloud" xmlns="http://www.w3.org/2000/svg"><path fill-rule="evenodd" clip-rule="evenodd" d="M11.47 15.47a.75.75 0 0 1 1.06 0l2 2a.75.75 0 1 1-1.06 1.06l-.72-.72V22a.75.75 0 0 1-1.5 0v-4.19l-.72.72a.75.75 0 1 1-1.06-1.06l2-2Z" fill="#1C274C"/><path d="M12.476 3.75c-2.75 0-4.964 2.2-4.964 4.897 0 .462.065.909.185 1.331.497.144.963.36 1.383.64a.75.75 0 1 1-.827 1.25 3.54 3.54 0 0 0-1.967-.589c-1.961 0-3.536 1.57-3.536 3.486 0 1.916 1.575 3.485 3.536 3.485a.75.75 0 0 1 0 1.5c-2.773 0-5.036-2.224-5.036-4.985 0-2.705 2.17-4.893 4.864-4.983a6.366 6.366 0 0 1-.102-1.135c0-3.541 2.902-6.397 6.464-6.397 3.158 0 5.796 2.244 6.355 5.221 2.3.977 3.919 3.238 3.919 5.882 0 3.074-2.188 5.631-5.093 6.253a.75.75 0 0 1-.314-1.467c2.24-.48 3.907-2.446 3.907-4.786 0-2.137-1.39-3.962-3.338-4.628a5.018 5.018 0 0 0-1.626-.27c-.583 0-1.14.1-1.658.28a.75.75 0 0 1-.494-1.416 6.517 6.517 0 0 1 3.024-.305 4.962 4.962 0 0 0-4.682-3.264Z" fill="#1C274C"/></svg><svg id="complex-protection" style="enable-background:new 0 0 512 512" version="1.1" viewBox="0 0 512 512" xml:space="preserve" xmlns="http://www.w3.org/2000/svg"><style>.st2{fill:#333}</style><path d="M434 195.6v-.4c0-2.8-1.4-5.3-3.8-6.8l-170-105.9s-.1 0-.1-.1c-.3-.2-.5-.3-.8-.4 0 0-.1 0-.1-.1-.3-.1-.6-.2-1-.3h-.2c-.3-.1-.5-.1-.8-.2h-.2c-.3 0-.7-.1-1-.1s-.7 0-1 .1h-.2c-.3 0-.5.1-.8.2h-.2c-.3.1-.6.2-1 .3 0 0-.1 0-.1.1-.3.1-.5.3-.8.4 0 0-.1 0-.1.1l-170 105.9c-2.3 1.5-3.8 4-3.8 6.8v.4c.1 2.3 0 5.8-.1 10.2-.4 25.5-1.4 78.7 20.1 133.1 26.8 67.9 79.1 114.6 155.6 138.8.4.1.7.2 1.1.3h.2c.4 0 .7.1 1.1.1s.7 0 1.1-.1h.2c.4-.1.7-.1 1.1-.3 76.4-24.2 128.7-70.9 155.5-138.8 21.5-54.4 20.6-107.6 20.1-133.1v-10.2zM248 459C146.7 422.9 111.6 348.9 99.7 287.7H248V459zm167-187.3H264v-168l154 95.9c0 1.9.1 4 .1 6.4.3 14.8.7 38.4-3.1 65.7z" style="fill:#ea6211"/><path d="m494 185.1-89.7-57.6V65c0-5.3-4.3-9.7-9.7-9.7H364c-5.3 0-9.7 4.3-9.7 9.7v30.5l-94-60.3c-2.5-1.6-5.6-1.7-8.2-.3-.3.2-.7.4-1 .6L18 185.2c-3.7 2.4-4.8 7.3-2.4 11.1 1.5 2.4 4.1 3.7 6.7 3.7 1.5 0 3-.4 4.3-1.3L256 51.4l229.3 147.2c3.7 2.4 8.7 1.3 11.1-2.4s1.3-8.7-2.4-11.1z" style="fill:#2b79c2"/></svg><svg viewBox="-249 151 100 100" style="enable-background:new -249 151 100 100" xml:space="preserve" fill="#ea6211" stroke="#ea6211" stroke-width=".01" id="control" xmlns="http://www.w3.org/2000/svg"><path d="M-241.9 154.3v93.2c0 1.4 1.1 2.5 2.5 2.5h80.8c1.4 0 2.5-1.1 2.5-2.5v-93.2c0-1.4-1.1-2.5-2.5-2.5h-80.8c-1.4 0-2.5 1.2-2.5 2.5zm80.8 90.7h-75.8v-88.2h75.8V245z"/><path d="M-218.2 185.1h12.7v-6.6h31.1c1.4 0 2.5-1.1 2.5-2.5s-1.1-2.5-2.5-2.5h-31.1v-5.2c0-1.4-1.1-2.5-2.5-2.5h-7.7c-1.4 0-2.5 1.1-2.5 2.5v5.2h-5.4c-1.4 0-2.5 1.1-2.5 2.5s1.1 2.5 2.5 2.5h5.4v6.6zm5-6.7v-7.7h2.7v9.3h-2.7v-1.6zM-186.7 211.1h7.7c1.4 0 2.5-1.1 2.5-2.5v-5.1h2.1c1.4 0 2.5-1.1 2.5-2.5s-1.1-2.5-2.5-2.5h-2.1v-4.2c0-1.4-1.1-2.5-2.5-2.5h-7.7c-1.4 0-2.5 1.1-2.5 2.5v4.2h-34.4c-1.4 0-2.5 1.1-2.5 2.5s1.1 2.5 2.5 2.5h34.4v5.1c0 1.4 1.2 2.5 2.5 2.5zm2.5-7.7v-6.7h2.7v9.3h-2.7v-2.6zM-205.7 236.1h7.7c1.4 0 2.5-1.1 2.5-2.5v-5.1h21.1c1.4 0 2.5-1.1 2.5-2.5s-1.1-2.5-2.5-2.5h-21.1v-4.2c0-1.4-1.1-2.5-2.5-2.5h-7.7c-1.4 0-2.5 1.1-2.5 2.5v4.2h-15.4c-1.4 0-2.5 1.1-2.5 2.5s1.1 2.5 2.5 2.5h15.4v5.1c0 1.4 1.2 2.5 2.5 2.5zm2.5-7.7v-6.7h2.7v9.3h-2.7v-2.6z"/></svg><svg viewBox="0 0 1920 1920" id="email" xmlns="http://www.w3.org/2000/svg"><path d="M1920 428.266v1189.54l-464.16-580.146-88.203 70.585 468.679 585.904H83.684l468.679-585.904-88.202-70.585L0 1617.805V428.265l959.944 832.441L1920 428.266ZM1919.932 226v52.627l-959.943 832.44L.045 278.628V226h1919.887Z" fill-rule="evenodd"/></svg><svg viewBox="0 0 16.933 16.933" id="emergency" xmlns="http://www.w3.org/2000/svg"><path d="M1.528 282.284a.32.32 0 0 0-.267.144c-.099.148-.06.348.089.447l1.936 1.291a.323.323 0 0 0 .358-.538l-1.937-1.289a.322.322 0 0 0-.179-.055zm13.878 0a.322.322 0 0 0-.181.055l-1.937 1.29c-.148.099-.187.299-.088.447.098.149.3.19.448.09l1.937-1.29a.323.323 0 0 0-.18-.591zm-8.956.236c-.906 0-1.682.663-1.849 1.565l.005-.023-1.615 6.11-.005.023c-.07.378.023.743.215 1.039h-.544c-.269 0-.562.11-.824.355-.262.244-.464.636-.464 1.145v.548c0 .504.19.897.45 1.143.26.247.563.358.838.358h11.618c.275 0 .58-.111.84-.358.26-.246.45-.639.45-1.143v-.548c0-.509-.202-.901-.464-1.145s-.558-.355-.826-.355h-.541c.192-.296.284-.661.214-1.039l-.005-.012-1.367-6.098c-.167-.902-.945-1.565-1.85-1.565zm0 .646h4.275a1.245 1.245 0 0 1 1.218 1.05l1.37 6.096c.09.488-.263.922-.732.922H9.434v-2.906h.646c.352 0 .645-.29.645-.643v-.97a.65.65 0 0 0-.645-.645h-.654a.969.969 0 0 0-.959-.882.97.97 0 0 0-.96.883l-.01-.001h-.642a.65.65 0 0 0-.646.645v.97a.65.65 0 0 0 .646.643h.643v2.906H4.353c-.469 0-.821-.434-.73-.922l1.607-6.084a.248.248 0 0 0 .005-.023c.113-.61.623-1.04 1.215-1.04zm.726.646c-.902 0-1.68.643-1.848 1.529l-.736 2.727a.323.323 0 0 0 .624.17l.74-2.752.005-.024a1.233 1.233 0 0 1 1.215-1.005.323.323 0 0 0 0-.645zm1.129 0a.323.323 0 0 0 0 .645h.484a.323.323 0 1 0 0-.645zm-6.84 1.376a.323.323 0 0 0 0 .646h1.678a.323.323 0 0 0 0-.646zm12.326 0a.323.323 0 0 0 0 .646h1.68a.323.323 0 0 0 0-.646zm-5.324.646c.182 0 .322.14.322.321v5.079h-.646v-5.079c0-.182.142-.321.324-.321zm-1.612.881h.643v.97h-.643Zm2.58 0h.645v.97h-.646Zm4.662.086a.324.324 0 0 0-.144.602l1.527.882a.323.323 0 1 0 .322-.558l-1.527-.88a.323.323 0 0 0-.178-.046zm-11.29 0-.019.002a.329.329 0 0 0-.13.043l-1.528.88a.323.323 0 0 0 .324.558l1.527-.881a.323.323 0 0 0-.175-.601zm-.15 5.078c3.877.005 7.74 0 11.618 0 .053 0 .244.05.385.18.141.132.26.328.26.675v.548c0 .35-.115.548-.25.677a.66.66 0 0 1-.395.178H2.657a.66.66 0 0 1-.395-.178c-.135-.129-.247-.327-.247-.677v-.548c0-.347.118-.543.26-.674a.71.71 0 0 1 .382-.181z" style="color:#000;font-style:normal;font-variant:normal;font-weight:400;font-stretch:normal;font-size:medium;line-height:normal;font-family:sans-serif;font-variant-ligatures:normal;font-variant-position:normal;font-variant-caps:normal;font-variant-numeric:normal;font-variant-alternates:normal;font-variant-east-asian:normal;font-feature-settings:normal;font-variation-settings:normal;text-indent:0;text-align:start;text-decoration:none;text-decoration-line:none;text-decoration-style:solid;text-decoration-color:#000;letter-spacing:normal;word-spacing:normal;text-transform:none;writing-mode:lr-tb;direction:ltr;text-orientation:mixed;dominant-baseline:auto;baseline-shift:baseline;text-anchor:start;white-space:normal;shape-padding:0;shape-margin:0;inline-size:0;clip-rule:nonzero;display:inline;overflow:visible;visibility:visible;opacity:1;isolation:auto;mix-blend-mode:normal;color-interpolation:sRGB;color-interpolation-filters:linearRGB;solid-color:#000;solid-opacity:1;vector-effect:none;fill:#ea6211;fill-opacity:1;fill-rule:nonzero;stroke:none;stroke-width:.645365;stroke-linecap:round;stroke-linejoin:round;stroke-miterlimit:4;stroke-dasharray:none;stroke-dashoffset:0;stroke-opacity:1;color-rendering:auto;image-rendering:auto;shape-rendering:auto;text-rendering:auto;enable-background:accumulate;stop-color:#000;stop-opacity:1" transform="translate(0 -280.067)"/></svg><svg viewBox="0 0 32 32" xml:space="preserve" id="facebook" xmlns="http://www.w3.org/2000/svg"><path d="M6 2h20c2.2 0 4 1.8 4 4v20c0 2.2-1.8 4-4 4H6c-2.2 0-4-1.8-4-4V6c0-2.2 1.8-4 4-4z"/><path d="M13.2 16.1v9.7c0 .1.1.3.3.3h3.9c.2 0 .3-.1.3-.3V16h2.8c.1 0 .3-.1.3-.2l.3-3c0-.2-.1-.3-.3-.3h-3.1v-2.1c0-.5.4-.9 1-.9h2.2c.2 0 .3-.1.3-.3V6.3c-.2-.2-.3-.3-.5-.3h-3.6c-2.1 0-3.9 1.6-3.9 3.6v2.9h-1.9c-.2 0-.3.1-.3.3v3c0 .1.1.3.3.3h1.9z" style="fill-rule:evenodd;clip-rule:evenodd;fill:#fff"/></svg><svg viewBox="0 0 1024 1024" class="amicon" id="gift1" xmlns="http://www.w3.org/2000/svg"><path d="m902.3 517.4-3.2 4.9c-.6 1-63.7 96.2-145 209.5-62.8 87.5-135.9 99.1-170.5 99.1-11.6 0-18.9-1.3-20.1-1.5H356l-14.5-14.3h223.4c5.4.9 99.1 17.3 177.5-91.7 70.5-98.1 127-182.5 141.2-203.8-10.2-8.3-43-35.2-74.6-30.1-10.2 1.7-25.6 13.2-42.5 29.9l-2.3-2.3v-16.9c16.2-13.8 31.3-23.1 42.6-24.9 47.3-7.7 89.6 36.4 91.2 38l4.3 4.1z" fill="#C9971C"/><path d="M883.6 519.6c-14.2 21.4-70.7 105.8-141.2 203.8-78.4 109-172.1 92.6-177.5 91.7H341.5L186.8 661.9C200.6 638.4 274 530.7 440 582c7.5 6.3 44.5 31.2 130.8 11.3 11.6-2.7 21.7-3.8 30.6-3.8 26.7 0 41.6 10.5 49.6 20.8 13.7 17.4 13.7 41.3 6.8 55.1-14.1 28.1-37.5 40.6-75.8 40.6H454.5v14.3H582c44 0 72.1-15.5 88.7-48.6 3.2-6.5 5.2-14.8 5.6-23.7l.1.3c13.4-36.6 55-94 90.2-128.9 16.9-16.8 32.2-28.3 42.5-29.9 31.5-5.1 64.3 21.7 74.5 30.1z" fill="#FFF0C2"/><path d="M796.5 265.2v75.6c0 16.4-13.3 29.7-29.7 29.7h-2.6v129.8c-4.5 4-9.1 8.2-13.8 12.7V370.5H605.1v204.9c-5-.3-10.4-.1-16.1.5V252.5c-1.4 0-2.6.1-4 .1-11 0-22.6-.4-34.9-1h-3.5c-4.9.3-9.5.4-14.1.6v332.9c-5.8.6-11.1 1-16.1 1.2V370.5H367v183.9c-4.7-.4-9.3-.4-13.8-.4V370.5h-6.5c-16.4 0-29.8-13.3-29.8-29.7v-75.6c0-16.4 13.4-29.7 29.8-29.7h66.5c-11.5-6.1-20.1-13.6-25.3-22.8-15.9-28.1 4.7-58.8 5.6-60.1 14.8-18 31.5-25.8 50-23.7 47.1 5.2 90.5 75.8 104.9 101.5 14.5-25.7 57.9-96.3 105-101.5 18.4-2.2 35.2 5.6 49.6 23 1.3 1.9 21.9 32.6 6 60.7-5.2 9.2-13.8 16.6-25.3 22.8h83.2c16.3.1 29.6 13.4 29.6 29.8zm-16.1 75.6v-75.6c0-7.5-6.1-13.6-13.6-13.6H614.3c-3.1.1-6 .4-9.2.5v102.2h161.8c7.4 0 13.5-6 13.5-13.5zM694.9 205c11-19.4-4.7-43-4.9-43.2-10.5-12.5-22.1-18.3-34.9-16.8-34.8 3.8-73 58.8-91 90.5H616c51.2-3.9 71.6-17.7 78.9-30.5zm-214.5 30.5h52.2c-18-31.7-56.1-86.7-90.9-90.5-12.9-1.4-24.6 4.2-35.4 17.4.1 0-15.2 23.3-4.3 42.6 7.2 12.6 27.3 26.6 78.4 30.5zm36.1 118.8V252.7h-4.7c-10.5 0-20.1-.4-29.3-1H346.7c-7.5 0-13.6 6-13.6 13.6v75.6c0 7.5 6 13.6 13.6 13.6h169.8z" fill="#EF4666"/><path d="M780.4 265.2v75.6c0 7.5-6.1 13.6-13.6 13.6H605.1V252.2c3.2-.1 6.1-.4 9.2-.5h152.6c7.4 0 13.5 6 13.5 13.5z" fill="#FFF0C2"/><path d="m764.3 517.1 2.3 2.3c-35.2 34.9-76.7 92.3-90.2 128.9l-.1-.3c.6-8.6-.4-17.9-3.5-26.9 15.1-36.2 46.8-78.5 77.6-108.3v10.9l8.4-6.6h5.5z" fill="#C9971C"/><path d="M764.3 500.2v16.9h-5.4l-8.4 6.6v-10.9c4.7-4.4 9.3-8.6 13.8-12.6z" fill="#C9971C"/><path d="M750.5 370.5V513c-30.8 29.8-62.5 72.1-77.6 108.3-2.3-6.9-5.8-13.7-10.6-19.8-8.2-10.4-25.2-24.9-57.2-26.1V370.5h145.4z" fill="#FFE085"/><path d="M690 161.8c.1.3 15.9 23.8 4.9 43.2-7.3 12.8-27.6 26.6-78.9 30.6h-52c18-31.7 56.3-86.7 91-90.5 12.9-1.6 24.5 4.1 35 16.7z" fill="#F59A9B"/><path d="M672.9 621.2c3.1 9 4.1 18.3 3.5 26.9l-6.1-20.1c.7-2.2 1.5-4.5 2.6-6.8z" fill="#C9971C"/><path d="m670.2 628 6.1 20.1c-.4 8.8-2.4 17.1-5.6 23.7-16.6 33.1-44.8 48.6-88.7 48.6H454.5V706H582c38.4 0 61.8-12.5 75.8-40.7 6.9-13.8 6.9-37.7-6.8-55.1-8.1-10.4-22.9-20.8-49.6-20.8v-4h3.7v-10.1c32 1.2 49 15.7 57.2 26.1 4.9 6.1 8.3 12.9 10.6 19.8-1.1 2.3-1.9 4.6-2.7 6.8z" fill="#C9971C"/><path d="M605.1 575.3v10.1h-3.7l-12.4.3v-9.8c5.7-.7 11.1-.8 16.1-.6z" fill="#C9971C"/><path d="M601.4 585.4v4c-8.8 0-18.9 1.2-30.6 3.8-86.3 19.9-123.3-5-130.8-11.3-166-51.3-239.4 56.4-253.2 79.9l-10.4-10.4c15.5-24.9 69.4-96.5 176.7-97.6v6.1H367v-5.8c23.7.9 49.9 5.5 78.6 14.5l1.7.5 1.3 1.2c.3.3 19.1 17.4 67.9 15.9v5h5l11.1-.1v-6c10.5-1 22.1-2.9 35-5.9 7.7-1.7 14.8-2.8 21.4-3.5v9.8l12.4-.1z" fill="#C9971C"/><path d="M589 252.5v323.3c-6.5.6-13.7 1.8-21.4 3.5-12.9 2.9-24.6 4.9-35 5.9V252.3c4.6-.3 9.2-.4 14.1-.6h3.5c12.3.6 23.9 1 34.9 1 1.3 0 2.5-.2 3.9-.2z" fill="#F59A9B"/><path d="M532.6 585.2v6l-11.1.1h-5v-5c5-.1 10.3-.5 16.1-1.1z" fill="#C9971C"/><path d="M532.6 235.5h-52.2c-51.2-4-71.2-17.9-78.5-30.6-10.9-19.3 4.5-42.6 4.3-42.6 10.9-13.2 22.5-18.8 35.4-17.4 34.9 3.9 73 58.9 91 90.6z" fill="#F59A9B"/><path d="M516.5 370.5v215.9c-48.8 1.5-67.6-15.6-67.9-15.9l-1.3-1.2-1.7-.5c-28.8-9-55-13.6-78.6-14.5V370.5h149.5z" fill="#FFE085"/><path d="M516.5 252.7v101.7H346.7c-7.5 0-13.6-6-13.6-13.6v-75.6c0-7.5 6-13.6 13.6-13.6h135.8c9.2.6 18.8 1 29.3 1 1.5.1 3.1.1 4.7.1z" fill="#FFF0C2"/><path d="M367 554.3v5.8h-13.8V554c4.5 0 9.1 0 13.8.3zM360.6 834c19.2 19.1 19.4 50.3.3 69.4l-21.6 21.9c-9.2 9.3-21.5 14.5-34.7 14.5h-.3c-13 0-25.3-5-34.5-14.1L72.5 730.3C63.3 721 58 708.7 58 695.5s5-25.4 14.2-34.8l21.6-21.9c9.2-9.2 21.5-14.5 34.7-14.5h.3c13 0 25.3 5 34.7 14.2l13 12.9c-3.2 5.1-4.7 8.3-4.9 8.6l12.8 6.1c.1-.1.9-1.7 2.4-4.3L341.5 815H334v12.7l-180.7-179c-6.5-6.4-15.2-10-24.6-10h-.1c-9.3 0-18.2 3.7-24.7 10.2l-21.6 21.9c-6.5 6.5-10 15.3-10 24.7 0 9.3 3.7 18 10.2 24.6l197.3 195.4c6.5 6.5 15.2 10.1 24.4 10.1h.3c9.3-.1 18-3.7 24.6-10.4l21.6-21.7c13.6-13.7 13.4-35.8-.3-49.4l-14.8-14.7H356l4.6 4.6z" fill="#C9971C"/><path d="M356 829.4h-20.3l-1.7-1.7v-12.6h7.5z" fill="#C9971C"/><path d="M350.5 844.1c13.7 13.6 13.8 35.7.3 49.4l-21.6 21.7c-6.5 6.6-15.2 10.2-24.6 10.4h-.3c-9.2 0-17.9-3.6-24.4-10.1L82.6 720.1c-6.5-6.5-10.2-15.2-10.2-24.6 0-9.3 3.5-18.2 10-24.7l21.6-21.9c6.5-6.5 15.3-10.2 24.7-10.2h.1c9.3 0 18 3.6 24.6 10l180.7 179v1.7h1.7l14.7 14.7z" fill="#C9971C"/><path d="M335.7 829.4H334v-1.7zM176.4 651.5l10.4 10.4c-1.5 2.7-2.3 4.2-2.4 4.3l-12.8-6.1c.1-.3 1.7-3.5 4.8-8.6z" fill="#C9971C"/></svg><svg viewBox="0 0 1024 1024" class="anicon" id="gift2" xmlns="http://www.w3.org/2000/svg"><path d="M900.5 370.6v92.6c0 9.4-5.9 17.8-14.8 20.9l-151.9 52.2V396.5l-101.9-33.1 105.6-45.6c11.9-6.1 21.9-12 30-17.8l117.3 48c9.4 3.5 15.7 12.6 15.7 22.6z" fill="#FFD6C0"/><path d="M887.1 492.2v4.4l-12.3 4.2v-8.6z" fill="#EF4666"/><path d="M874.8 500.8v262.3l-141 54V549.2z" fill="#FF9271"/><path d="M912.8 370.6v92.6c0 14.7-9.3 27.8-23.2 32.6l-2.5.9v-4.4h-12.3v8.6l-141 48.4v-13L885.6 484c8.9-3.1 14.8-11.5 14.8-20.9v-92.6c0-10-6.3-19-15.7-22.5l-117.3-48c4.2-2.8 7.9-5.7 11.1-8.6l110.6 45.2c14.2 5.1 23.7 18.8 23.7 34zM771.9 213.5c12.8 17.8 17.5 32.5 14.6 44.9-2.1 9.1-8.4 17.8-19.5 26.8-8.6 6.9-20.1 14-34.8 21.5l-116.4 50.1c-3.8-20.9-24.2-38.3-53-47.2l92.2-101c14.1-19.3 33.3-30.5 54.5-31.5 17.8-1 35.6 6.1 46.2 18l16.2 18.4z" fill="#EF4666"/><path d="m769 287.5 9.6 4c-3.2 3-6.9 5.8-11.1 8.6l-3.1-1.2 4.6-11.4zm-35.2 529.6v6.2h-12.4v-1.5zm0-280.8v12.9l-3.1 1.2-4.1-11.7zm-12.4-130.8v416.3L635 854.9v-419l-58.4-22.4c21.5-9.8 36.2-24.8 39.3-42.4l105.5 34.4zM635 854.9v8.9h-12.4v-4.2z" fill="#EF4666"/><path d="M635 435.9v419l-12.3 4.7V600.2l8.4-3.1-4.3-11.6-4.1 1.5V444.3l-63.8-24.5c6.3-1.6 12.3-3.8 17.8-6.3l58.3 22.4z" fill="#EF4666"/><path d="m764.4 298.8 3.1 1.2c-8.2 5.8-18.2 11.7-30 17.8l-105.6 45.6 101.9 33.1v139.8l-7.2 2.5 4.1 11.6 3.1-1.1v267.8l-12.3 4.7V405.5l-105.6-34.3c.4-2.2.6-4.7.6-7 0-2.5-.2-4.9-.7-7.3l116.4-50.1c14.7-7.5 26.2-14.6 34.8-21.5l2 2.2-4.6 11.3zM626.7 585.5l4.3 11.7-8.4 3V587z" fill="#EF4666"/><path d="M622.6 600.2v259.3l-110 42.1-123-47.4V588.5L497 632.7c6.1 2.6 12.3 3.8 18.8 3.8 5.4 0 11-1 16.3-2.8l90.5-33.5z" fill="#FF9271"/><path d="M622.6 444.3V587l-94.7 35.1c-8.5 3.1-17.7 2.8-26.1-.7l-112.2-46.1V440.9l65.4-29.6c17 8.6 38.9 13.8 63.2 13.8 14.6 0 28.2-1.9 40.5-5.3l63.9 24.5z" fill="#FFD6C0"/><path d="m621.4 233.2-4.7 11.4-8-3.3 8.7-9.7z" fill="#EF4666"/><path d="M781.4 205.8c15.6 21.2 21 39.3 17 55.6-2.6 10.6-8.9 20.4-19.9 30l-9.6-4-2-2.2c11.1-9 17.4-17.7 19.5-26.8 3-12.5-1.7-27.2-14.6-44.9l-16.3-18.3c-10.6-12-28.4-19-46.2-18-21.1 1-40.4 12.2-54.5 31.5l-92.2 101c-4.3-1.4-8.8-2.5-13.5-3.3l59.4-65.1 8 3.3 4.7-11.4-4-1.6 28-30.7c15.8-21.9 38.5-34.9 63.3-36.1 21.7-1.1 42.7 7.2 55.9 22.1l17 18.9zM615.7 356.9c.5 2.3.7 4.8.7 7.3 0 2.3-.2 4.8-.6 7l-7.4-2.5-.1-8.8 4.1-1.6 3.3-1.4z" fill="#EF4666"/><path d="m608.7 241.3-59.4 65.1c-9.6-2.1-20.1-3.1-31-3.1-9.3 0-18.2.7-26.7 2.2l-55.4-71.7 70-24.7c8.5-3.3 17.8-3.2 26.2.4l76.3 31.8z" fill="#FFD6C0"/><path d="m561.1 407.6 15.4 5.9c-5.4 2.5-11.5 4.7-17.8 6.3l-2.1-.7 4.5-11.5zm1.6-97.9-6.8 7.5-9-8.3 2.3-2.6c4.8.9 9.2 2 13.5 3.4zm-44.4 5.9c46.6 0 85.8 22.2 85.8 48.5 0 17.8-17.7 33.6-43.5 42.1-12.5 4.2-27 6.5-42.4 6.5-46.7 0-85.9-22.2-85.9-48.7 0-4.6 1.2-9 3.5-13.3 10.5-19.9 43.9-35.1 82.5-35.1zM506.2 209l-70 24.7-7.9-10.2 73.6-25.9c11.2-4.4 23.8-4.3 35.3.4l80.3 33.7-8.8 9.6-76.3-31.9c-8.4-3.6-17.7-3.7-26.2-.4zm-4.3 412.4c8.4 3.6 17.5 3.8 26.1.7l94.7-35.1v13.2l-90.5 33.5c-5.3 1.9-10.9 2.8-16.3 2.8-6.4 0-12.7-1.2-18.8-3.8l-107.4-44.2v-13.2l112.2 46.1zm-10.3-315.9.1.1-9.8 7.5-3.7-4.8c4.4-1.1 8.8-2.1 13.4-2.8z" fill="#EF4666"/><path d="m384.3 186.8 94 121.5c-22.7 6.2-40.8 17.4-50.5 31.6l-1.6.7-118.4-57.4a43.9 43.9 0 0 1-24.5-33.7c-2.1-14.6 3.5-29.1 14.6-39l33.1-28.9c7.7-6.8 17.5-10 27.8-9 10.2 1 19.2 6.1 25.5 14.2zm58.2 216.6 8.5-3.8 5.1 11.2-1 .5c-4.6-2.5-8.8-5.1-12.6-7.9z" fill="#EF4666"/><path d="m482 313.1 9.8-7.5-.1-.1c8.5-1.5 17.4-2.2 26.7-2.2 10.9 0 21.4 1 31 3.1l-2.3 2.6 9 8.3 6.8-7.5c28.8 8.9 49.1 26.3 53 47.2l-3.3 1.5-4.1 1.6.1 8.8 7.4 2.5c-3.1 17.5-17.8 32.6-39.3 42.4l-15.4-5.9-.5-1.4c25.8-8.5 43.5-24.3 43.5-42.1 0-26.3-39.3-48.5-85.8-48.5-38.5 0-72 15.2-82.5 35.2l-1.1-.5-4.9-11.2-2 .9c9.8-14.2 27.8-25.4 50.5-31.6l3.5 4.4zm-39.5 90.3L377.3 433v416.4l-80.8-31.1V412.2l124.2-55.6c-.5 2.5-.7 4.9-.7 7.5 0 15.1 8.4 28.8 22.5 39.3zm-14.2-179.9 7.9 10.2-8.1 2.9-4-11.6z" fill="#EF4666"/><path d="m451 399.6-8.5 3.8c-14.1-10.5-22.5-24.2-22.5-39.3 0-2.6.2-5.1.7-7.5l14-6.3 1.1.5c-2.2 4.3-3.5 8.8-3.5 13.3 0 26.4 39.3 48.7 85.9 48.7 15.3 0 29.9-2.3 42.4-6.5l.5 1.4-4.4 11.5 2.1.7c-12.3 3.5-25.9 5.3-40.5 5.3-24.3 0-46.2-5.2-63.2-13.8l1-.5-5.1-11.3zm-22.3-57.7-5.3 11.1-1.6-.7c1.1-4 3-7.7 5.2-11.2l1.7.8z" fill="#EF4666"/><path d="m426.2 340.7 1.6-.7c-.2.4-.5.7-.7 1.1l-.9-.4z" fill="#231815"/><path d="m426.2 340.7.9.4c-2.2 3.6-4.1 7.3-5.2 11.2l-10.4-5.1 14.7-6.5z" fill="#EF4666"/><path d="m429.7 339.1 4.9 11.2-14 6.3c.2-1.5.6-3 1.1-4.3l1.6.7 5.3-11.1-1.6-.9c.2-.4.5-.7.7-1.1l2-.8zm-40.1 515.2v4.2h-12.3v-9.1zM389.6 588.5v265.8l-12.3-4.9V584.7h2.9zm0-13.2v13.2l-9.4-3.8 4.7-11.4z" fill="#EF4666"/><path d="M377.3 584.7V433l65.2-29.6c3.8 2.8 8 5.4 12.6 7.9l-65.4 29.6v134.4l-4.7-2-4.7 11.4h-3zm-80.8 233.6v6.9h-12.4v-11.7z" fill="#EF4666"/><path d="M296.5 412.2v406.1l-12.3-4.8v-266l4.3 1.4 3.7-11.7-8-2.5V404.1l127.3-56.9 10.4 5.1c-.5 1.4-.9 2.8-1.1 4.3l-124.3 55.6zm590.6 84.4v274.9L512.6 914.9l-228.9-88.3.4-1.4h12.4v-6.9l80.8 31.1v9.1h12.3v-4.2l123 47.4 110-42.1v4.2H635v-8.9l86.4-33.1v1.5h12.4v-6.2l141-54V500.8z" fill="#EF4666"/><path d="m292.5 289.4-.6-1.6c3.2 2.7 6.7 4.8 10.4 6.7l109.2 52.7-127.3 56.9v130.5L164 496.9v-.2h-.7l-28.3-8.9c-7.4-2.2-12.5-9-12.5-16.8V369.7c0-8.5 5.1-16.1 12.8-19.3l157.2-61z" fill="#FFD6C0"/><path d="m292.2 537.1-3.7 11.8-4.4-1.4v-12.8zm-4.1-259.2 3.8 9.9c-3.1-2.3-5.9-5.1-8.4-8.2l4.6-1.7z" fill="#EF4666"/><path d="M284.1 547.5v266l-101.5-39.1c-11.1-4.3-18.6-15.2-18.6-27.2V509.9l120.1 37.6z" fill="#FF9271"/><path d="M284.1 534.7v12.8L164 509.9v-13zm-13.2-283.4c-2.5-18.8 4.4-37.5 18.8-50l33.1-28.9c10.2-9.1 23.5-13.3 37.2-12 13.6 1.2 25.7 8 34.1 18.9l34.2 44.2-4.2 1.5 4.1 11.6 8-2.8 55.4 71.7c-4.6.7-9 1.7-13.3 2.8l-94-121.5c-6.3-8.2-15.3-13.2-25.6-14.2-10.2-1-20.1 2.2-27.8 9l-33.1 28.9c-11.1 9.9-16.7 24.5-14.6 39 2 14.7 11.1 27.3 24.5 33.7l118.4 57.4-14.7 6.5-109.2-52.7c-3.7-1.9-7.2-4-10.4-6.7l-3.8-9.9-4.6 1.7c-6.5-7.7-11-17.6-12.5-28.2zM164 496.9v13l-12.4-3.9v-9.4h11.7z" fill="#EF4666"/><path d="M164 496.6v.3l-.7-.3z" fill="#231815"/><path d="M151.6 747.2V506l12.3 3.8v237.3c0 12 7.5 22.8 18.6 27.2L284 813.4v11.7l-.5 1.4L178 785.7c-15.6-5.9-26.4-21.5-26.4-38.5z" fill="#EF4666"/><path d="M110.2 369.7c0-13.5 8.2-25.6 20.6-30.7l152.8-59.3c2.5 3.1 5.3 5.8 8.4 8.2l.6 1.6-157.2 61c-7.8 3.2-12.8 10.7-12.8 19.3V471c0 7.8 5.1 14.6 12.5 16.8l28.3 8.9h-11.6v9.4l-20.4-6.4c-12.6-4-21.1-15.4-21.1-28.6V369.7z" fill="#EF4666"/></svg><svg viewBox="0 0 512 512" xml:space="preserve" id="gift3" xmlns="http://www.w3.org/2000/svg"><path style="fill:#f15642" d="M496 479.999c0 8.8-7.2 16-16 16H32c-8.8 0-16-7.2-16-16v-264c0-8.8 7.2-16 16-16h448c8.8 0 16 7.2 16 16v264z"/><path style="fill:#f15642" d="M512 199.999c0 8.8-7.2 16-16 16H16c-8.8 0-16-7.2-16-16v-72c0-8.8 7.2-16 16-16h480c8.8 0 16 7.2 16 16v72z"/><path style="fill:#d2473c" d="M15.992 215.999h480v24h-480z"/><path style="fill:#d3463c" d="M301.92 111.999h-10.216a47.846 47.846 0 0 1-11.704 9.52v9.016a56.06 56.06 0 0 0 21.92-18.536zM232 130.535v-9.016a48.03 48.03 0 0 1-11.704-9.52H210.08A56.173 56.173 0 0 0 232 130.535z"/><path style="fill:#fcd063" d="M231.992 111.999h48v384h-48z"/><path style="fill:#fcd063" d="M15.992 279.999h480v48h-480z"/><path style="fill:#f7b84e" d="m386.288 18.127-89.912 35.968c4.8 7.472 7.624 16.352 7.624 25.904 0 12.312-4.672 23.504-12.296 32H416v-73.76c0-17.6-13.368-26.648-29.712-20.112zM231.992 215.999h48v24h-48zM280 130.535v-9.016c-7.064 4.096-15.248 6.48-24 6.48s-16.936-2.384-24-6.48v9.016c7.28 3.464 15.4 5.464 24 5.464s16.72-2 24-5.464zM125.712 18.127l89.912 35.968c-4.8 7.472-7.624 16.352-7.624 25.904 0 12.312 4.672 23.504 12.296 32H96v-73.76c0-17.6 13.368-26.648 29.712-20.112z"/><path style="fill:#d89c45" d="M416 111.999H288l8-8h120zM224 111.999H96v-8h120z"/><circle style="fill:#fcd063" cx="255.992" cy="79.999" r="48"/><path style="fill:#efc55f" d="M280.952 39.047c4.44 7.28 7.048 15.808 7.048 24.952 0 26.512-21.496 48-48 48-9.16 0-17.672-2.608-24.952-7.048 8.44 13.808 23.6 23.048 40.952 23.048 26.504 0 48-21.488 48-48 0-17.36-9.248-32.52-23.048-40.952z"/><path style="fill:#f7b84e" d="M279.992 279.999h8v48h-8zM223.992 279.999h8v48h-8z"/></svg><svg viewBox="0 0 1024 1024" class="apicon" id="gift4" xmlns="http://www.w3.org/2000/svg"><path d="M188.497 377.512h647.006V960H188.497z" fill="#FF3B30"/><path d="M467.308 399.028h52.471V960h-52.471z" fill="#070707"/><path d="M485.764 399.028h52.471V960h-52.471zM719.989 82.722c-35.235-35.24-108.329-19.276-163.256 35.653-20.618 20.618-35.743 43.795-44.733 66.568-8.991-22.773-24.116-45.95-44.734-66.568-54.928-54.929-128.022-70.893-163.257-35.653-35.235 35.234-19.273 108.331 35.653 163.256 54.929 54.929 128.022 70.893 163.257 35.653 3.602-3.6 6.534-7.69 9.079-12.021 2.546 4.331 5.476 8.421 9.08 12.021 35.237 35.24 108.329 19.276 163.257-35.653 54.929-54.925 70.891-128.022 35.654-163.256zM502.361 281.073c-18.915 18.914-63.108 5.389-98.708-30.21-35.601-35.606-49.127-79.798-30.213-98.713 18.916-18.914 63.108-5.388 98.709 30.216 13.636 13.634 23.961 28.517 30.536 42.767-.939 14.986 1.32 28.883 7.132 40.628-1.191 5.962-3.443 11.297-7.456 15.312zm117.985-30.211c-35.601 35.599-79.793 49.125-98.709 30.21-4.011-4.014-6.263-9.35-7.455-15.311 5.812-11.745 8.07-25.642 7.131-40.628 6.576-14.251 16.9-29.133 30.537-42.767 35.601-35.604 79.792-49.131 98.708-30.216 18.916 18.915 5.388 63.107-30.212 98.712z" fill="#0DB14B"/><path d="M650.67 208.632c-5.876 12.562-14.915 25.53-26.306 37.759h59.533c.143-.145.296-.27.44-.415a211.524 211.524 0 0 0 29.745-37.344H650.67zm-129.356 16.5c2.512-5.442 5.737-10.976 9.32-16.5h-37.268c3.581 5.524 6.808 11.058 9.32 16.5-.465 7.399-.131 14.518 1.005 21.259h16.618c1.137-6.741 1.47-13.859 1.005-21.259zm-142.106-3.938-58.869 2.524c8.079 12.908 7.534 10.471 19.326 22.258.143.145.296.27.44.415h59.533c-11.393-12.228-14.554-12.635-20.43-25.197z" fill="#070707"/><path d="M107.621 246.39h808.758v217.144H107.621z" fill="#FF3B30"/><path d="m834.51 569.946-646.033-73.822v-32.59H834.51z" fill="#070707"/></svg><svg stroke-miterlimit="10" style="fill-rule:nonzero;clip-rule:evenodd;stroke-linecap:round;stroke-linejoin:round" viewBox="0 0 3000 3000" id="instagram" xmlns="http://www.w3.org/2000/svg"><defs><linearGradient gradientUnits="userSpaceOnUse" id="aqa" x1="1500" x2="2805.81" y1="1500" y2="194.188"><stop offset="0" stop-color="#7e7e7e"/><stop offset=".556" stop-color="#c8c8c8"/><stop offset="1" stop-color="#7e7e7e"/></linearGradient></defs><path d="M1500 1189.05c-171.72.07-310.87 139.31-310.83 311.03.04 171.71 139.27 310.89 310.99 310.87 171.71-.02 310.9-139.23 310.9-310.95-.13-171.72-139.34-310.88-311.06-310.95Zm727-239.007a314.806 314.806 0 0 0-177.28-177.275c-122.42-48.327-413.89-37.484-549.72-37.484-135.83 0-427.01-11.251-549.782 37.484a314.792 314.792 0 0 0-177.275 177.275c-48.269 122.417-37.484 414.187-37.484 549.897 0 135.71-10.785 427.13 37.717 549.96a314.76 314.76 0 0 0 177.275 177.27c122.419 48.33 413.899 37.49 549.779 37.49 135.89 0 426.96 11.25 549.73-37.49a314.725 314.725 0 0 0 177.27-177.27c48.68-122.42 37.49-414.19 37.49-549.9 0-135.71 11.19-427.07-37.49-549.898l-.23-.059ZM1500 1978.02c-264 0-478.02-214.02-478.02-478.02S1236 1021.98 1500 1021.98 1978.02 1236 1978.02 1500c.16 126.83-50.16 248.5-139.84 338.18s-211.35 140-338.18 139.84Zm497.72-864.52c-61.63.04-111.61-49.91-111.63-111.54-.02-61.625 49.93-111.6 111.56-111.611 61.63-.011 111.59 49.947 111.59 111.581.13 29.6-11.54 58.03-32.42 79.01a111.367 111.367 0 0 1-78.86 32.8l-.24-.24ZM2526 194.188H474.005c-154.539 0-279.817 125.278-279.817 279.817V2526c0 154.53 125.278 279.81 279.817 279.81H2526c154.53 0 279.81-125.28 279.81-279.81V474.005c0-154.539-125.28-279.817-279.81-279.817Zm-99.81 1690.562c-7.52 149.41-41.62 281.8-150.69 390.58-109.07 108.77-241.34 143.58-390.58 150.69-153.95 8.68-615.54 8.68-769.49 0-149.414-7.52-281.336-41.68-390.581-150.69-109.245-109.02-143.581-241.46-150.693-390.58-8.686-154.02-8.686-615.66 0-769.5 7.52-149.409 41.215-281.797 150.693-390.576 109.478-108.779 241.75-143.173 390.581-150.285 153.95-8.686 615.54-8.686 769.49 0 149.41 7.52 281.74 41.681 390.58 150.693 108.84 109.012 143.58 241.459 150.69 390.868 8.69 153.43 8.69 614.67 0 768.8Z" fill="url(#aqa)"/></svg><svg viewBox="0 0 24 24" fill="none" id="license" xmlns="http://www.w3.org/2000/svg"><path fill-rule="evenodd" clip-rule="evenodd" d="M10.594 2.319a3.261 3.261 0 0 1 2.812 0c.387.185.74.487 1.231.905l.078.066c.238.203.313.265.389.316.193.13.41.219.637.264.09.018.187.027.499.051l.101.008c.642.051 1.106.088 1.51.23.93.33 1.66 1.06 1.99 1.99.142.404.178.868.23 1.51l.008.101c.024.312.033.41.051.499.045.228.135.445.264.638.051.075.113.15.316.388l.066.078c.419.49.72.844.905 1.23.425.89.425 1.924 0 2.813-.184.387-.486.74-.905 1.231l-.066.078a4.758 4.758 0 0 0-.316.389c-.13.193-.219.41-.264.637-.018.09-.026.187-.051.499l-.009.101c-.05.642-.087 1.106-.23 1.51a3.26 3.26 0 0 1-1.989 1.99c-.404.142-.868.178-1.51.23l-.101.008a4.757 4.757 0 0 0-.499.051 1.755 1.755 0 0 0-.637.264c-.076.051-.151.113-.39.316l-.077.066c-.49.419-.844.72-1.23.905a3.261 3.261 0 0 1-2.813 0c-.387-.184-.74-.486-1.231-.905a95.175 95.175 0 0 0-.078-.066 4.779 4.779 0 0 0-.388-.316c-.193-.13-.41-.219-.638-.264a4.759 4.759 0 0 0-.499-.051l-.101-.009c-.642-.05-1.106-.087-1.51-.23a3.261 3.261 0 0 1-1.99-1.989c-.142-.404-.179-.868-.23-1.51l-.008-.101a4.76 4.76 0 0 0-.051-.499 1.756 1.756 0 0 0-.264-.637 4.74 4.74 0 0 0-.316-.39l-.066-.077c-.418-.49-.72-.844-.905-1.23a3.261 3.261 0 0 1 0-2.813c.185-.387.487-.74.905-1.231l.066-.078a4.76 4.76 0 0 0 .316-.388c.13-.193.219-.41.264-.638.018-.09.027-.187.051-.499l.008-.101c.051-.642.088-1.106.23-1.51a3.261 3.261 0 0 1 1.99-1.99c.404-.142.868-.179 1.51-.23l.101-.008c.312-.024.41-.033.499-.051.228-.045.445-.135.638-.264.075-.051.15-.113.388-.316l.078-.066c.49-.418.844-.72 1.23-.905Zm2.163 1.358a1.756 1.756 0 0 0-1.514 0c-.185.088-.38.247-.981.758l-.03.025c-.197.168-.34.291-.497.396-.359.24-.761.407-1.185.49-.185.037-.373.052-.632.073l-.038.003c-.787.063-1.036.089-1.23.157-.5.177-.894.57-1.07 1.071-.07.194-.095.443-.158 1.23l-.003.038c-.02.259-.036.447-.072.632-.084.424-.25.826-.49 1.185-.106.157-.229.3-.397.498l-.025.029c-.511.6-.67.796-.758.98a1.756 1.756 0 0 0 0 1.515c.088.185.247.38.758.981l.025.03c.168.197.291.34.396.497.24.359.407.761.49 1.184.037.186.052.374.073.633l.003.038c.063.787.089 1.036.157 1.23.177.5.57.894 1.071 1.07.194.07.443.095 1.23.158l.038.003c.259.02.447.036.632.072.424.084.826.25 1.185.49.157.106.3.229.498.397l.029.025c.6.511.796.67.98.758a1.756 1.756 0 0 0 1.515 0c.185-.088.38-.247.981-.758l.03-.025c.197-.168.34-.291.497-.396.359-.24.761-.407 1.184-.49a5.53 5.53 0 0 1 .633-.073l.038-.003c.787-.063 1.036-.089 1.23-.157.5-.177.894-.57 1.07-1.071.07-.194.095-.444.158-1.23l.003-.038a5.53 5.53 0 0 1 .072-.633c.084-.423.25-.825.49-1.184.106-.157.229-.3.397-.498l.025-.029c.511-.6.67-.796.758-.98a1.756 1.756 0 0 0 0-1.515c-.088-.185-.247-.38-.758-.981l-.025-.03c-.168-.197-.291-.34-.396-.497a3.262 3.262 0 0 1-.49-1.185 5.531 5.531 0 0 1-.073-.632l-.003-.038c-.063-.787-.089-1.036-.157-1.23-.177-.5-.57-.894-1.071-1.07-.194-.07-.444-.095-1.23-.158l-.038-.003c-.259-.02-.447-.036-.633-.072a3.262 3.262 0 0 1-1.184-.49c-.157-.106-.3-.229-.498-.397l-.029-.025c-.6-.511-.796-.67-.98-.758Zm3.287 5.282a.752.752 0 0 1 0 1.065l-5.017 5.017a.753.753 0 0 1-1.064 0l-2.007-2.007A.753.753 0 1 1 9.02 11.97l1.475 1.474L14.98 8.96a.753.753 0 0 1 1.064 0Z" fill="#1C274C"/></svg><svg fill="#ea6211" viewBox="0 0 32 32" id="licenses" xmlns="http://www.w3.org/2000/svg"><path d="M8 14h6v2H8zM8 6h12v2H8zM8 10h12v2H8zM8 24h6v2H8zM30 24v-2h-2.101a4.968 4.968 0 0 0-.732-1.753l1.49-1.49-1.414-1.414-1.49 1.49A4.968 4.968 0 0 0 24 18.101V16h-2v2.101a4.968 4.968 0 0 0-1.753.732l-1.49-1.49-1.414 1.414 1.49 1.49A4.968 4.968 0 0 0 18.101 22H16v2h2.101a4.968 4.968 0 0 0 .732 1.753l-1.49 1.49 1.414 1.414 1.49-1.49a4.968 4.968 0 0 0 1.753.732V30h2v-2.101a4.968 4.968 0 0 0 1.753-.732l1.49 1.49 1.414-1.414-1.49-1.49A4.968 4.968 0 0 0 27.899 24Zm-7 2a3 3 0 1 1 3-3 3.003 3.003 0 0 1-3 3Z"/><path d="M14 30H6a2.002 2.002 0 0 1-2-2V4a2.002 2.002 0 0 1 2-2h16a2.002 2.002 0 0 1 2 2v10h-2V4H6v24h8Z"/><path data-name="&lt;Transparent Rectangle&gt;" style="fill:none" d="M0 0h32v32H0z"/></svg><svg fill="none" viewBox="0 0 135 28" id="logo_I-Work" xmlns="http://www.w3.org/2000/svg"><path d="M11.799 23.055h6.58v3.871H0v-3.87h6.566V12.417H1.462v-3.8H11.8v14.437Z" fill="#0C3557"/><path d="M9.19 6.532a3.541 3.541 0 0 1-2.423-.68 3.986 3.986 0 0 1 0-4.603A3.541 3.541 0 0 1 9.19.533a3.505 3.505 0 0 1 2.408.716 4.05 4.05 0 0 1 0 4.602 3.505 3.505 0 0 1-2.408.681Z" fill="#7AA959"/><path d="M37.081 8.654h4.997L38.83 26.926h-5.777l-2.23-10.71-2.229 10.71h-5.77l-3.24-18.272h4.989l1.57 12.724 2.645-12.724h4.085l2.638 12.688 1.57-12.688ZM83.016 23.055h6.494l1.871-10.637h-5.082l.716-3.835H97.11l-.495 2.996a21.408 21.408 0 0 1 4.172-2.781 8.407 8.407 0 0 1 3.584-.767c.465.006.93.042 1.391.107l-1.319 4.53a6.1 6.1 0 0 0-2.337 0 6.747 6.747 0 0 0-2.99.89c-1.164.699-2.269 1.492-3.304 2.372l-1.283 7.118h6.552l-.717 3.871H82.32l.696-3.864ZM121.266 26.926l-5.964-7.605-2.265 2.2v5.405h-5.212V1.264h5.212V15.93l7.283-7.312h6.207l-8.301 7.921 8.997 10.387h-5.957ZM79.676 10.296c-1.553-1.482-4.017-2.225-7.39-2.23H53.647c-3.48 0-5.976.78-7.491 2.337-1.515 1.558-2.277 4.022-2.287 7.39 0 3.442.789 5.9 2.373 7.42 1.584 1.52 4.036 2.265 7.405 2.265h18.637c3.446 0 5.926-.779 7.44-2.337 1.52-1.548 2.288-4.014 2.288-7.347 0-3.52-.789-6.014-2.337-7.498Zm-3.943 11.827c-.645.789-1.806 1.183-3.484 1.183H53.612c-1.658 0-2.805-.394-3.44-1.183-.636-.788-.96-2.222-.969-4.3 0-2.151.323-3.642.947-4.409.623-.767 1.784-1.147 3.462-1.147h18.637c1.702 0 2.863.382 3.484 1.147.624.767.946 2.244.946 4.409 0 2.164-.322 3.584-.946 4.3Z" fill="#0C3557"/><path d="M131.875 27.342a3.585 3.585 0 0 1-2.423-.674 3.996 3.996 0 0 1 0-4.61c.7-.51 1.56-.748 2.423-.673.858-.08 1.716.16 2.408.674a4.062 4.062 0 0 1 0 4.609 3.504 3.504 0 0 1-2.408.674Z" fill="#7AA959"/></svg><svg viewBox="0 0 24 24" fill="none" id="phone" xmlns="http://www.w3.org/2000/svg"><path d="m16.556 12.906-.455.453s-1.083 1.076-4.038-1.862-1.872-4.014-1.872-4.014l.286-.286c.707-.702.774-1.83.157-2.654L9.374 2.86C8.61 1.84 7.135 1.705 6.26 2.575l-1.57 1.56c-.433.432-.723.99-.688 1.61.09 1.587.808 5 4.812 8.982 4.247 4.222 8.232 4.39 9.861 4.238.516-.048.964-.31 1.325-.67l1.42-1.412c.96-.953.69-2.588-.538-3.255l-1.91-1.039c-.806-.438-1.787-.309-2.417.317Z" fill="#1C274C"/></svg><svg viewBox="0 0 24 24" fill="none" id="protection" xmlns="http://www.w3.org/2000/svg"><path fill-rule="evenodd" clip-rule="evenodd" d="M6.25 12a5.75 5.75 0 1 1 11.5 0 5.75 5.75 0 0 1-11.5 0Zm5.694-4.232A.128.128 0 0 1 12 7.75c.004 0 .021 0 .056.018a.652.652 0 0 1 .17.134c.153.158.328.431.492.841.162.404.296.901.39 1.466.055.334.095.683.118 1.041h-2.452c.023-.358.063-.707.118-1.04a7.148 7.148 0 0 1 .39-1.467c.164-.41.34-.683.492-.841a.652.652 0 0 1 .17-.134ZM9.27 11.25c.025-.439.073-.871.141-1.286a8.9 8.9 0 0 1 .415-1.617 4.25 4.25 0 0 0-2.01 2.903H9.27Zm-1.454 1.5H9.27c.025.439.073.871.141 1.286a8.9 8.9 0 0 0 .415 1.617 4.25 4.25 0 0 1-2.01-2.903Zm8.366-1.5a4.247 4.247 0 0 0-2.01-2.903c.18.486.318 1.034.415 1.617.068.415.116.847.14 1.286h1.455Zm-1.454 1.5h1.454a4.247 4.247 0 0 1-2.01 2.903c.18-.486.318-1.034.415-1.617.068-.415.116-.847.14-1.286Zm-1.503 0a10.56 10.56 0 0 1-.118 1.04 7.148 7.148 0 0 1-.39 1.467c-.164.41-.34.683-.492.841a.652.652 0 0 1-.17.134.128.128 0 0 1-.056.018c-.004 0-.021 0-.056-.018a.652.652 0 0 1-.17-.134c-.153-.158-.328-.431-.492-.841a7.148 7.148 0 0 1-.39-1.466 10.56 10.56 0 0 1-.118-1.041h2.452Z" fill="#1C274C"/><path fill-rule="evenodd" clip-rule="evenodd" d="M12 1.25c-.938 0-1.833.307-3.277.801l-.727.25c-1.481.506-2.625.898-3.443 1.23-.412.167-.767.33-1.052.495-.275.16-.55.359-.737.626-.185.263-.281.587-.341.9-.063.324-.1.713-.125 1.16-.048.886-.048 2.102-.048 3.678v1.601c0 6.101 4.608 9.026 7.348 10.224l.027.011c.34.149.66.288 1.027.382.387.1.799.142 1.348.142.55 0 .96-.042 1.348-.142.367-.094.687-.233 1.026-.382l.028-.011c2.74-1.198 7.348-4.123 7.348-10.224V10.39c0-1.576 0-2.792-.048-3.679a8.85 8.85 0 0 0-.125-1.16c-.06-.312-.156-.636-.34-.9-.188-.266-.463-.465-.738-.625a8.554 8.554 0 0 0-1.052-.495c-.818-.332-1.962-.724-3.443-1.23l-.727-.25c-1.444-.494-2.34-.801-3.277-.801ZM9.08 3.514c1.615-.552 2.262-.764 2.92-.764.658 0 1.305.212 2.92.764l.572.196c1.513.518 2.616.896 3.39 1.21.387.158.667.29.864.404.097.056.164.102.208.139.038.03.053.048.055.05a.408.408 0 0 1 .032.074c.02.056.042.136.063.248.044.227.077.538.1.958.046.841.046 2.015.046 3.624v1.574c0 5.175-3.87 7.723-6.449 8.849-.371.162-.586.254-.825.315-.228.059-.506.095-.976.095s-.748-.036-.976-.095c-.24-.06-.454-.153-.825-.315-2.58-1.127-6.449-3.674-6.449-8.849v-1.574c0-1.609 0-2.783.046-3.624.023-.42.056-.731.1-.958.021-.112.043-.192.063-.248.018-.05.03-.07.032-.074a.386.386 0 0 1 .055-.05c.044-.037.111-.083.208-.14.197-.114.477-.245.864-.402.774-.315 1.877-.693 3.39-1.21l.573-.197Z" fill="#1C274C"/></svg><svg fill="#ea6211" viewBox="0 0 256 256" xml:space="preserve" id="protection-umbrella" xmlns="http://www.w3.org/2000/svg"><path d="m100.4 113.6 2 1.3 2.3-.8c11-4.1 24-5.2 30.8-5.4h.9V144c0 2.7 2.2 4.8 4.8 4.8s4.8-2.2 4.8-4.8v-35.5h.9c8.3.4 20.4 1.6 30.8 5.4l2.3.8 2-1.3c15.2-9.7 36.3-14.6 57.9-13.6l6.1.3-1.1-6c-7.3-40-50.9-67.3-88.2-72.7-2.9-.4-6-.7-9.2-.8h-1.4v-8.5c0-2.7-2.2-4.8-4.8-4.8s-4.8 2.2-4.8 4.8v8.5h-1.3c-3.4.1-6.5.4-9.4.8-37.4 5.6-81 32.9-88.3 72.8l-1.1 6 6.1-.3c21.6-1 42.7 4 57.9 13.7zm26.7-82.4c2.6-.4 5.3-.6 8.5-.7 3.7-.2 7.5-.2 11.4 0 3 .1 5.7.3 8.3.7 32.1 4.6 69.2 26.6 78.7 59-20.6 0-39.9 4.9-55.2 14-11-3.7-23.1-4.9-31.4-5.2l-3.1-.1h-6l-3.2.1c-8.4.4-20.5 1.6-31.5 5.2-15.3-9.1-34.6-14-55.2-14 9.5-32.4 46.6-54.4 78.7-59zM224 162.3l-59.8 25.1c-2.5 1-3.6 3.9-2.6 6.3 1 2.5 3.9 3.6 6.3 2.6l59.8-25.1c2.6-1.1 5.5-.3 7.2 1.8 1.1 1.4 1.6 3.1 1.3 4.8-.3 1.8-1.3 3.3-2.8 4.2-26.1 17-85.4 50.6-88.2 52.2-.1.1-.2.1-.3.2-7.2 4.3-15.3 5.4-25.5 3.6-.6-.1-14.4-1.8-47.1-5.8l-16.8-2.1v-65.3c2.7-.2 5.1-.3 6.1-.3h.6c22.5-1.4 44.1 2.9 66.9 7.5 2.9.6 5.8 1.2 8.8 1.8 3.1.6 5.4 3.3 5.4 6.5 0 .2 0 .4-.1.8-.2 1.8-1.2 3.1-1.9 3.9-1.2 1.2-2.9 1.9-4.7 1.9H91.1c-2.7 0-4.8 2.2-4.8 4.8s2.2 4.8 4.8 4.8h45.7c4.3 0 8.5-1.7 11.6-4.8 2.6-2.7 4.2-6 4.6-9.4.1-.7.2-1.4.2-2.2 0-7.8-5.5-14.5-13.2-16l-8.7-1.8c-22.4-4.5-45.6-9.2-69.4-7.7h-.5c-1.1 0-3.3.2-5.9.3-.6-2.1-2.4-3.6-4.6-3.6h-36c-2.7 0-4.8 2.2-4.8 4.8v81.4c0 2.7 2.2 4.8 4.8 4.8h36c1.9 0 3.6-1.2 4.4-2.8l16.1 2c19.2 2.4 45.5 5.6 46.6 5.7 3.6.6 7 1 10.3 1 8 0 15.1-1.9 21.6-5.7.1 0 .1-.1.2-.1.6-.3 62-35 88.8-52.5 3.8-2.5 6.3-6.4 7-10.8.7-4.4-.5-8.9-3.3-12.4-4.6-5.3-12-7.2-18.6-4.4zM46 233.1H19.6v-71.7H46v71.7z"/></svg><svg viewBox="0 0 16 16" fill="none" stroke="#ea6211" id="shield" xmlns="http://www.w3.org/2000/svg"><g fill="#ea6211"><path d="M11.28 5.47a.75.75 0 0 1 0 1.06l-4 4a.75.75 0 0 1-1.06 0l-2-2a.75.75 0 0 1 1.06-1.06l1.47 1.47 3.47-3.47a.75.75 0 0 1 1.06 0z"/><path fill-rule="evenodd" d="M7.26.213a2.25 2.25 0 0 1 1.48 0l4.75 1.653A2.25 2.25 0 0 1 15 3.991v4.01c0 2.048-1.181 3.747-2.45 4.991-1.282 1.255-2.757 2.15-3.573 2.598a2.024 2.024 0 0 1-1.954 0c-.816-.447-2.291-1.342-3.572-2.598C2.18 11.748 1 10.05 1 8V3.991c0-.957.606-1.81 1.51-2.125L7.26.213zm.986 1.417a.75.75 0 0 0-.493 0l-4.75 1.653a.75.75 0 0 0-.503.708v4.01c0 1.455.847 2.79 2 3.92 1.142 1.118 2.483 1.937 3.244 2.353.163.09.35.09.512 0 .761-.416 2.102-1.235 3.244-2.353 1.153-1.13 2-2.465 2-3.92V3.99a.75.75 0 0 0-.504-.708L8.246 1.63z" clip-rule="evenodd"/></g></svg><svg viewBox="0 0 24 24" fill="none" id="siren" xmlns="http://www.w3.org/2000/svg"><path d="M12.75 2a.75.75 0 0 0-1.5 0v3a.75.75 0 0 0 1.5 0V2ZM14.572 10.805a.75.75 0 1 0-.563 1.39c.814.33 1.466.981 1.796 1.796a.75.75 0 1 0 1.39-.563 4.764 4.764 0 0 0-2.623-2.623Z" fill="#1C274C"/><path fill-rule="evenodd" clip-rule="evenodd" d="M12 7.25A8.75 8.75 0 0 0 3.25 16v5.25H2a.75.75 0 0 0 0 1.5h20a.75.75 0 0 0 0-1.5h-1.25V16A8.75 8.75 0 0 0 12 7.25Zm.75 14h6.5V16a7.25 7.25 0 1 0-14.5 0v5.25h6.5v-1.628a2.251 2.251 0 1 1 1.5 0v1.628Zm-.75-3a.75.75 0 1 0 0-1.5.75.75 0 0 0 0 1.5Z" fill="#1C274C"/><path d="M21.53 5.47a.75.75 0 0 1 0 1.06l-1.5 1.5a.75.75 0 1 1-1.06-1.06l1.5-1.5a.75.75 0 0 1 1.06 0ZM3.53 5.47a.75.75 0 0 0-1.06 1.06l1.5 1.5a.75.75 0 0 0 1.06-1.06l-1.5-1.5Z" fill="#1C274C"/></svg><svg viewBox="0 0 24 24" fill="none" id="tuning" xmlns="http://www.w3.org/2000/svg"><path fill-rule="evenodd" clip-rule="evenodd" d="M7.25 16a2.75 2.75 0 1 1 5.5 0 2.75 2.75 0 0 1-5.5 0ZM10 14.75a1.25 1.25 0 1 0 0 2.5 1.25 1.25 0 0 0 0-2.5ZM16.75 8a2.75 2.75 0 1 1-5.5 0 2.75 2.75 0 0 1 5.5 0ZM14 9.25a1.25 1.25 0 1 0 0-2.5 1.25 1.25 0 0 0 0 2.5Z" fill="#1C274C"/><path d="M13.25 16a.75.75 0 0 1 .75-.75h5a.75.75 0 0 1 0 1.5h-5a.75.75 0 0 1-.75-.75ZM10 7.25a.75.75 0 0 1 0 1.5H5a.75.75 0 0 1 0-1.5h5ZM4.25 16a.75.75 0 0 1 .75-.75h1a.75.75 0 0 1 0 1.5H5a.75.75 0 0 1-.75-.75ZM19 7.25a.75.75 0 0 1 0 1.5h-1a.75.75 0 0 1 0-1.5h1Z" fill="#1C274C"/><path fill-rule="evenodd" clip-rule="evenodd" d="M11.943 1.25h.114c2.309 0 4.118 0 5.53.19 1.444.194 2.584.6 3.479 1.494.895.895 1.3 2.035 1.494 3.48.19 1.411.19 3.22.19 5.529v.114c0 2.309 0 4.118-.19 5.53-.194 1.444-.6 2.584-1.494 3.479-.895.895-2.035 1.3-3.48 1.494-1.411.19-3.22.19-5.529.19h-.114c-2.309 0-4.118 0-5.53-.19-1.444-.194-2.584-.6-3.479-1.494-.895-.895-1.3-2.035-1.494-3.48-.19-1.411-.19-3.22-.19-5.529v-.114c0-2.309 0-4.118.19-5.53.194-1.444.6-2.584 1.494-3.479.895-.895 2.035-1.3 3.48-1.494 1.411-.19 3.22-.19 5.529-.19Zm-5.33 1.676c-1.278.172-2.049.5-2.618 1.069-.57.57-.897 1.34-1.069 2.619-.174 1.3-.176 3.008-.176 5.386s.002 4.086.176 5.386c.172 1.279.5 2.05 1.069 2.62.57.569 1.34.896 2.619 1.068 1.3.174 3.008.176 5.386.176s4.086-.002 5.386-.176c1.279-.172 2.05-.5 2.62-1.069.569-.57.896-1.34 1.068-2.619.174-1.3.176-3.008.176-5.386s-.002-4.086-.176-5.386c-.172-1.279-.5-2.05-1.069-2.62-.57-.569-1.34-.896-2.619-1.068-1.3-.174-3.008-.176-5.386-.176s-4.086.002-5.386.176Z" fill="#1C274C"/></svg><svg viewBox="0 0 24 24" fill="none" id="umbrella" xmlns="http://www.w3.org/2000/svg"><path fill-rule="evenodd" clip-rule="evenodd" d="M11.524 1.25C5.85 1.25 1.25 5.85 1.25 11.524c0 .677.549 1.226 1.226 1.226h8.774V20a1.25 1.25 0 1 1-2.5 0v-1a.75.75 0 0 0-1.5 0v1a2.75 2.75 0 1 0 5.5 0v-7.25h8.774c.677 0 1.226-.549 1.226-1.226 0-5.674-4.6-10.274-10.274-10.274h-.952Zm-2.68 1.917a8.778 8.778 0 0 0-6.09 8.083h3.661c.176-1.442.526-3.596 1.191-5.512.319-.92.722-1.821 1.238-2.571Zm-.917 8.083c.176-1.382.506-3.32 1.096-5.021.362-1.042.802-1.941 1.325-2.567.514-.616 1.055-.912 1.652-.912s1.138.296 1.652.912c.523.626.963 1.525 1.325 2.567.59 1.701.92 3.64 1.096 5.021H7.927Zm9.658 0c-.176-1.442-.527-3.596-1.191-5.512-.319-.92-.722-1.821-1.238-2.571a8.778 8.778 0 0 1 6.09 8.083h-3.661Z" fill="#1C274C"/></svg></svg>