<svg width="135" height="28" viewBox="0 0 135 28" fill="none" xmlns="http://www.w3.org/2000/svg">
<path d="M11.799 23.0553H18.3795V26.9262H0V23.0553H6.56616V12.4176H1.46232V8.61841H11.799V23.0553Z" fill="#0C3557"/>
<path d="M9.18984 6.53237C8.32607 6.60971 7.46397 6.3674 6.76698 5.85138C6.29115 5.17844 6.03564 4.37453 6.03564 3.55036C6.03564 2.72618 6.29115 1.92228 6.76698 1.24934C7.45898 0.720592 8.32154 0.46539 9.18984 0.532512C10.0537 0.46557 10.9117 0.720937 11.5984 1.24934C12.0654 1.9258 12.3155 2.72834 12.3155 3.55036C12.3155 4.37237 12.0654 5.17492 11.5984 5.85138C10.9067 6.36705 10.0491 6.60951 9.18984 6.53237Z" fill="#7AA959"/>
<path d="M37.0813 8.6543H42.0776L38.8304 26.9263H33.0527L30.8234 16.2168L28.594 26.9263H22.8236L19.5835 8.6543H24.5726L26.1425 21.378L28.7876 8.6543H32.8735L35.5114 21.3422L37.0813 8.6543Z" fill="#0C3557"/>
<path d="M83.0156 23.0553H89.5101L91.381 12.4176H86.2987L87.0155 8.58257H97.1085L96.6139 11.5789C97.8908 10.4916 99.2911 9.55813 100.786 8.79762C101.91 8.2815 103.133 8.0196 104.37 8.03061C104.835 8.03738 105.3 8.0733 105.761 8.13814L104.442 12.6685C103.67 12.5179 102.876 12.5179 102.105 12.6685C101.053 12.7272 100.029 13.0317 99.1156 13.5574C97.9513 14.257 96.8462 15.0505 95.811 15.9301L94.5279 23.0482H101.08L100.363 26.9191H82.3203L83.0156 23.0553Z" fill="#0C3557"/>
<path d="M121.266 26.9261L115.302 19.3206L113.037 21.5213V26.9261H107.825V1.26367H113.037V15.93L120.32 8.61833H126.527L118.226 16.5393L127.223 26.9261H121.266Z" fill="#0C3557"/>
<path d="M79.6757 10.2957C78.1226 8.8143 75.6591 8.07119 72.2852 8.06641H53.6477C50.1687 8.06641 47.6717 8.84537 46.1568 10.4033C44.6419 11.9612 43.8797 14.4247 43.8701 17.7938C43.8701 21.2346 44.6586 23.6933 46.2428 25.213C47.827 26.7326 50.2786 27.4781 53.6477 27.4781H72.2852C75.7308 27.4781 78.211 26.6992 79.7259 25.1413C81.2456 23.5929 82.0126 21.127 82.0126 17.7938C82.0126 14.2742 81.2241 11.7796 79.6757 10.2957ZM75.7332 22.1234C75.088 22.9119 73.9268 23.3062 72.2494 23.3062H53.6118C51.9536 23.3062 50.8066 22.9119 50.1711 22.1234C49.5355 21.3349 49.2129 19.9013 49.2033 17.8225C49.2033 15.672 49.5259 14.181 50.1495 13.414C50.7732 12.6469 51.9344 12.267 53.6118 12.267H72.2494C73.9507 12.267 75.1119 12.6493 75.7332 13.414C76.3568 14.181 76.6794 15.6576 76.6794 17.8225C76.6794 19.9873 76.3568 21.4066 75.7332 22.1234Z" fill="#0C3557"/>
<path d="M131.875 27.3418C131.012 27.4172 130.152 27.1778 129.452 26.668C128.976 25.9935 128.721 25.1885 128.721 24.3634C128.721 23.5382 128.976 22.7332 129.452 22.0588C130.152 21.5489 131.012 21.3095 131.875 21.3849C132.733 21.3058 133.591 21.5456 134.283 22.0588C134.75 22.7367 135 23.5403 135 24.3634C135 25.1864 134.75 25.99 134.283 26.668C133.591 27.1811 132.733 27.421 131.875 27.3418Z" fill="#7AA959"/>
</svg>
