<?xml version="1.0" ?><!DOCTYPE svg PUBLIC "-//W3C//DTD SVG 1.1//EN" "http://www.w3.org/Graphics/SVG/1.1/DTD/svg11.dtd"><svg viewBox="0 0 2000 2000" xmlns="http://www.w3.org/2000/svg" xmlns:xlink="http://www.w3.org/1999/xlink"><style>:root>svg{display:none}:root>svg:target{display:block}</style><svg viewBox="0 0 32 32" id="3706875-control-control-sound-control-volum_108699" xmlns="http://www.w3.org/2000/svg">
    <path d="M6 32H4a2 2 0 0 1-2-2V9.72l1.5.86a2.89 2.89 0 0 0 3 0L8 9.72V30a2 2 0 0 1-2 2ZM4 12.89V30h2V12.89a4.81 4.81 0 0 1-2 0ZM8 6.28l-1.5-.86a2.89 2.89 0 0 0-3 0L2 6.28V2a2 2 0 0 1 2-2h2a2 2 0 0 1 2 2ZM5 3a4.86 4.86 0 0 1 1 .11V2H4v1.11A4.86 4.86 0 0 1 5 3ZM17 32h-2a2 2 0 0 1-2-2v-4.28l1.5.86a2.89 2.89 0 0 0 3 0l1.5-.86V30a2 2 0 0 1-2 2Zm-2-3.11V30h2v-1.11a4.81 4.81 0 0 1-2 0ZM19 22.28l-1.5-.86a2.89 2.89 0 0 0-3 0l-1.5.86V2a2 2 0 0 1 2-2h2a2 2 0 0 1 2 2ZM16 19a4.86 4.86 0 0 1 1 .11V2h-2v17.11a4.86 4.86 0 0 1 1-.11ZM28 32h-2a2 2 0 0 1-2-2V13.72l1.5.86a2.89 2.89 0 0 0 3 0l1.5-.86V30a2 2 0 0 1-2 2Zm-2-15.11V30h2V16.89a4.81 4.81 0 0 1-2 0ZM30 10.28l-1.5-.86a2.89 2.89 0 0 0-3 0l-1.5.86V2a2 2 0 0 1 2-2h2a2 2 0 0 1 2 2ZM27 7a4.86 4.86 0 0 1 1 .11V2h-2v5.11A4.86 4.86 0 0 1 27 7Z"/>
    <path d="M5 13a5 5 0 1 1 5-5 5 5 0 0 1-5 5Zm0-8a3 3 0 1 0 3 3 3 3 0 0 0-3-3ZM16 29a5 5 0 1 1 5-5 5 5 0 0 1-5 5Zm0-8a3 3 0 1 0 3 3 3 3 0 0 0-3-3ZM27 17a5 5 0 1 1 5-5 5 5 0 0 1-5 5Zm0-8a3 3 0 1 0 3 3 3 3 0 0 0-3-3Z"/>
</svg><svg data-name="Layer 1" viewBox="0 0 24 24" id="arrow-up" xmlns="http://www.w3.org/2000/svg">
    <path d="M12 0C5.383 0 0 5.383 0 12s5.383 12 12 12 12-5.383 12-12S18.617 0 12 0Zm4.361 12H13v5a1 1 0 0 1-2 0v-5H7.639c-.695 0-1.044-.852-.552-1.35l4.361-4.418a.773.773 0 0 1 1.104 0l4.361 4.418c.492.498.143 1.35-.552 1.35Z"/>
</svg><svg viewBox="0 0 24 24" id="close" xmlns="http://www.w3.org/2000/svg">
    <g fill="none" fill-rule="evenodd">
        <path d="M0 0h24v24H0z"/>
        <path stroke="#0C0310" stroke-width="2" stroke-linecap="round" d="M17 7 7 17M7 7l10 10"/>
    </g>
</svg><svg id="complex-protection" style="enable-background:new 0 0 512 512" version="1.1" viewBox="0 0 512 512" xml:space="preserve" xmlns="http://www.w3.org/2000/svg">
    <style>.st2{fill:#333}</style>
    <path d="M434 195.6v-.4c0-2.8-1.4-5.3-3.8-6.8l-170-105.9s-.1 0-.1-.1c-.3-.2-.5-.3-.8-.4 0 0-.1 0-.1-.1-.3-.1-.6-.2-1-.3h-.2c-.3-.1-.5-.1-.8-.2h-.2c-.3 0-.7-.1-1-.1s-.7 0-1 .1h-.2c-.3 0-.5.1-.8.2h-.2c-.3.1-.6.2-1 .3 0 0-.1 0-.1.1-.3.1-.5.3-.8.4 0 0-.1 0-.1.1l-170 105.9c-2.3 1.5-3.8 4-3.8 6.8v.4c.1 2.3 0 5.8-.1 10.2-.4 25.5-1.4 78.7 20.1 133.1 26.8 67.9 79.1 114.6 155.6 138.8.4.1.7.2 1.1.3h.2c.4 0 .7.1 1.1.1s.7 0 1.1-.1h.2c.4-.1.7-.1 1.1-.3 76.4-24.2 128.7-70.9 155.5-138.8 21.5-54.4 20.6-107.6 20.1-133.1v-10.2zM248 459C146.7 422.9 111.6 348.9 99.7 287.7H248V459zm167-187.3H264v-168l154 95.9c0 1.9.1 4 .1 6.4.3 14.8.7 38.4-3.1 65.7z" style="fill:#3b4652"/>
    <path d="m494 185.1-89.7-57.6V65c0-5.3-4.3-9.7-9.7-9.7H364c-5.3 0-9.7 4.3-9.7 9.7v30.5l-94-60.3c-2.5-1.6-5.6-1.7-8.2-.3-.3.2-.7.4-1 .6L18 185.2c-3.7 2.4-4.8 7.3-2.4 11.1 1.5 2.4 4.1 3.7 6.7 3.7 1.5 0 3-.4 4.3-1.3L256 51.4l229.3 147.2c3.7 2.4 8.7 1.3 11.1-2.4s1.3-8.7-2.4-11.1z" style="fill:#2b79c2"/>
</svg><svg class="ficon" viewBox="0 0 1024 1024" id="control" xmlns="http://www.w3.org/2000/svg">
    <path d="M880 112H144c-17.7 0-32 14.3-32 32v736c0 17.7 14.3 32 32 32h736c17.7 0 32-14.3 32-32V144c0-17.7-14.3-32-32-32zm-40 728H184V184h656v656zM340 683v77c0 4.4 3.6 8 8 8h48c4.4 0 8-3.6 8-8v-77c-10.1 3.3-20.8 5-32 5s-21.9-1.8-32-5zm64-198V264c0-4.4-3.6-8-8-8h-48c-4.4 0-8 3.6-8 8v221c10.1-3.3 20.8-5 32-5s21.9 1.8 32 5zm-64 198c10.1 3.3 20.8 5 32 5s21.9-1.8 32-5c41.8-13.5 72-52.7 72-99s-30.2-85.5-72-99c-10.1-3.3-20.8-5-32-5s-21.9 1.8-32 5c-41.8 13.5-72 52.7-72 99s30.2 85.5 72 99zm.1-115.7c.3-.6.7-1.2 1-1.8v-.1l1.2-1.8c.1-.2.2-.3.3-.5.3-.5.7-.9 1-1.4.1-.1.2-.3.3-.4.5-.6.9-1.1 1.4-1.6l.3-.3 1.2-1.2.4-.4c.5-.5 1-.9 1.6-1.4.6-.5 1.1-.9 1.7-1.3.2-.1.3-.2.5-.3.5-.3.9-.7 1.4-1 .1-.1.3-.2.4-.3.6-.4 1.2-.7 1.9-1.1.1-.1.3-.1.4-.2.5-.3 1-.5 1.6-.8l.6-.3c.7-.3 1.3-.6 2-.8.7-.3 1.4-.5 2.1-.7.2-.1.4-.1.6-.2.6-.2 1.1-.3 1.7-.4.2 0 .3-.1.5-.1.7-.2 1.5-.3 2.2-.4.2 0 .3 0 .5-.1.6-.1 1.2-.1 1.8-.2h.6c.8 0 1.5-.1 2.3-.1s1.5 0 2.3.1h.6c.6 0 1.2.1 1.8.2.2 0 .3 0 .5.1.7.1 1.5.2 2.2.4.2 0 .3.1.5.1.6.1 1.2.3 1.7.4.2.1.4.1.6.2.7.2 1.4.4 2.1.7.7.2 1.3.5 2 .8l.6.3c.5.2 1.1.5 1.6.8.1.1.3.1.4.2.6.3 1.3.7 1.9 1.1.1.1.3.2.4.3.5.3 1 .6 1.4 1 .2.1.3.2.5.3.6.4 1.2.9 1.7 1.3s1.1.9 1.6 1.4l.4.4 1.2 1.2.3.3c.5.5 1 1.1 1.4 1.6.1.1.2.3.3.4.4.4.7.9 1 1.4.1.2.2.3.3.5l1.2 1.8s0 .1.1.1a36.18 36.18 0 0 1 5.1 18.5c0 6-1.5 11.7-4.1 16.7-.3.6-.7 1.2-1 1.8 0 0 0 .1-.1.1l-1.2 1.8c-.1.2-.2.3-.3.5-.3.5-.7.9-1 1.4-.1.1-.2.3-.3.4-.5.6-.9 1.1-1.4 1.6l-.3.3-1.2 1.2-.4.4c-.5.5-1 .9-1.6 1.4-.6.5-1.1.9-1.7 1.3-.2.1-.3.2-.5.3-.5.3-.9.7-1.4 1-.1.1-.3.2-.4.3-.6.4-1.2.7-1.9 1.1-.1.1-.3.1-.4.2-.5.3-1 .5-1.6.8l-.6.3c-.7.3-1.3.6-2 .8-.7.3-1.4.5-2.1.7-.2.1-.4.1-.6.2-.6.2-1.1.3-1.7.4-.2 0-.3.1-.5.1-.7.2-1.5.3-2.2.4-.2 0-.3 0-.5.1-.6.1-1.2.1-1.8.2h-.6c-.8 0-1.5.1-2.3.1s-1.5 0-2.3-.1h-.6c-.6 0-1.2-.1-1.8-.2-.2 0-.3 0-.5-.1-.7-.1-1.5-.2-2.2-.4-.2 0-.3-.1-.5-.1-.6-.1-1.2-.3-1.7-.4-.2-.1-.4-.1-.6-.2-.7-.2-1.4-.4-2.1-.7-.7-.2-1.3-.5-2-.8l-.6-.3c-.5-.2-1.1-.5-1.6-.8-.1-.1-.3-.1-.4-.2-.6-.3-1.3-.7-1.9-1.1-.1-.1-.3-.2-.4-.3-.5-.3-1-.6-1.4-1-.2-.1-.3-.2-.5-.3-.6-.4-1.2-.9-1.7-1.3s-1.1-.9-1.6-1.4l-.4-.4-1.2-1.2-.3-.3c-.5-.5-1-1.1-1.4-1.6-.1-.1-.2-.3-.3-.4-.4-.4-.7-.9-1-1.4-.1-.2-.2-.3-.3-.5l-1.2-1.8v-.1c-.4-.6-.7-1.2-1-1.8-2.6-5-4.1-10.7-4.1-16.7s1.5-11.7 4.1-16.7zM620 539v221c0 4.4 3.6 8 8 8h48c4.4 0 8-3.6 8-8V539c-10.1 3.3-20.8 5-32 5s-21.9-1.8-32-5zm64-198v-77c0-4.4-3.6-8-8-8h-48c-4.4 0-8 3.6-8 8v77c10.1-3.3 20.8-5 32-5s21.9 1.8 32 5zm-64 198c10.1 3.3 20.8 5 32 5s21.9-1.8 32-5c41.8-13.5 72-52.7 72-99s-30.2-85.5-72-99c-10.1-3.3-20.8-5-32-5s-21.9 1.8-32 5c-41.8 13.5-72 52.7-72 99s30.2 85.5 72 99zm.1-115.7c.3-.6.7-1.2 1-1.8v-.1l1.2-1.8c.1-.2.2-.3.3-.5.3-.5.7-.9 1-1.4.1-.1.2-.3.3-.4.5-.6.9-1.1 1.4-1.6l.3-.3 1.2-1.2.4-.4c.5-.5 1-.9 1.6-1.4.6-.5 1.1-.9 1.7-1.3.2-.1.3-.2.5-.3.5-.3.9-.7 1.4-1 .1-.1.3-.2.4-.3.6-.4 1.2-.7 1.9-1.1.1-.1.3-.1.4-.2.5-.3 1-.5 1.6-.8l.6-.3c.7-.3 1.3-.6 2-.8.7-.3 1.4-.5 2.1-.7.2-.1.4-.1.6-.2.6-.2 1.1-.3 1.7-.4.2 0 .3-.1.5-.1.7-.2 1.5-.3 2.2-.4.2 0 .3 0 .5-.1.6-.1 1.2-.1 1.8-.2h.6c.8 0 1.5-.1 2.3-.1s1.5 0 2.3.1h.6c.6 0 1.2.1 1.8.2.2 0 .3 0 .5.1.7.1 1.5.2 2.2.4.2 0 .3.1.5.1.6.1 1.2.3 1.7.4.2.1.4.1.6.2.7.2 1.4.4 2.1.7.7.2 1.3.5 2 .8l.6.3c.5.2 1.1.5 1.6.8.1.1.3.1.4.2.6.3 1.3.7 1.9 1.1.1.1.3.2.4.3.5.3 1 .6 1.4 1 .2.1.3.2.5.3.6.4 1.2.9 1.7 1.3s1.1.9 1.6 1.4l.4.4 1.2 1.2.3.3c.5.5 1 1.1 1.4 1.6.1.1.2.3.3.4.4.4.7.9 1 1.4.1.2.2.3.3.5l1.2 1.8v.1a36.18 36.18 0 0 1 5.1 18.5c0 6-1.5 11.7-4.1 16.7-.3.6-.7 1.2-1 1.8v.1l-1.2 1.8c-.1.2-.2.3-.3.5-.3.5-.7.9-1 1.4-.1.1-.2.3-.3.4-.5.6-.9 1.1-1.4 1.6l-.3.3-1.2 1.2-.4.4c-.5.5-1 .9-1.6 1.4-.6.5-1.1.9-1.7 1.3-.2.1-.3.2-.5.3-.5.3-.9.7-1.4 1-.1.1-.3.2-.4.3-.6.4-1.2.7-1.9 1.1-.1.1-.3.1-.4.2-.5.3-1 .5-1.6.8l-.6.3c-.7.3-1.3.6-2 .8-.7.3-1.4.5-2.1.7-.2.1-.4.1-.6.2-.6.2-1.1.3-1.7.4-.2 0-.3.1-.5.1-.7.2-1.5.3-2.2.4-.2 0-.3 0-.5.1-.6.1-1.2.1-1.8.2h-.6c-.8 0-1.5.1-2.3.1s-1.5 0-2.3-.1h-.6c-.6 0-1.2-.1-1.8-.2-.2 0-.3 0-.5-.1-.7-.1-1.5-.2-2.2-.4-.2 0-.3-.1-.5-.1-.6-.1-1.2-.3-1.7-.4-.2-.1-.4-.1-.6-.2-.7-.2-1.4-.4-2.1-.7-.7-.2-1.3-.5-2-.8l-.6-.3c-.5-.2-1.1-.5-1.6-.8-.1-.1-.3-.1-.4-.2-.6-.3-1.3-.7-1.9-1.1-.1-.1-.3-.2-.4-.3-.5-.3-1-.6-1.4-1-.2-.1-.3-.2-.5-.3-.6-.4-1.2-.9-1.7-1.3s-1.1-.9-1.6-1.4l-.4-.4-1.2-1.2-.3-.3c-.5-.5-1-1.1-1.4-1.6-.1-.1-.2-.3-.3-.4-.4-.4-.7-.9-1-1.4-.1-.2-.2-.3-.3-.5l-1.2-1.8v-.1c-.4-.6-.7-1.2-1-1.8-2.6-5-4.1-10.7-4.1-16.7s1.5-11.7 4.1-16.7z"/>
</svg><svg viewBox="0 0 1024 1024" class="eicon" id="control-svgrepo-com" xmlns="http://www.w3.org/2000/svg">
    <path d="M880 112H144c-17.7 0-32 14.3-32 32v736c0 17.7 14.3 32 32 32h736c17.7 0 32-14.3 32-32V144c0-17.7-14.3-32-32-32zm-40 728H184V184h656v656zM340 683v77c0 4.4 3.6 8 8 8h48c4.4 0 8-3.6 8-8v-77c-10.1 3.3-20.8 5-32 5s-21.9-1.8-32-5zm64-198V264c0-4.4-3.6-8-8-8h-48c-4.4 0-8 3.6-8 8v221c10.1-3.3 20.8-5 32-5s21.9 1.8 32 5zm-64 198c10.1 3.3 20.8 5 32 5s21.9-1.8 32-5c41.8-13.5 72-52.7 72-99s-30.2-85.5-72-99c-10.1-3.3-20.8-5-32-5s-21.9 1.8-32 5c-41.8 13.5-72 52.7-72 99s30.2 85.5 72 99zm.1-115.7c.3-.6.7-1.2 1-1.8v-.1l1.2-1.8c.1-.2.2-.3.3-.5.3-.5.7-.9 1-1.4.1-.1.2-.3.3-.4.5-.6.9-1.1 1.4-1.6l.3-.3 1.2-1.2.4-.4c.5-.5 1-.9 1.6-1.4.6-.5 1.1-.9 1.7-1.3.2-.1.3-.2.5-.3.5-.3.9-.7 1.4-1 .1-.1.3-.2.4-.3.6-.4 1.2-.7 1.9-1.1.1-.1.3-.1.4-.2.5-.3 1-.5 1.6-.8l.6-.3c.7-.3 1.3-.6 2-.8.7-.3 1.4-.5 2.1-.7.2-.1.4-.1.6-.2.6-.2 1.1-.3 1.7-.4.2 0 .3-.1.5-.1.7-.2 1.5-.3 2.2-.4.2 0 .3 0 .5-.1.6-.1 1.2-.1 1.8-.2h.6c.8 0 1.5-.1 2.3-.1s1.5 0 2.3.1h.6c.6 0 1.2.1 1.8.2.2 0 .3 0 .5.1.7.1 1.5.2 2.2.4.2 0 .3.1.5.1.6.1 1.2.3 1.7.4.2.1.4.1.6.2.7.2 1.4.4 2.1.7.7.2 1.3.5 2 .8l.6.3c.5.2 1.1.5 1.6.8.1.1.3.1.4.2.6.3 1.3.7 1.9 1.1.1.1.3.2.4.3.5.3 1 .6 1.4 1 .2.1.3.2.5.3.6.4 1.2.9 1.7 1.3s1.1.9 1.6 1.4l.4.4 1.2 1.2.3.3c.5.5 1 1.1 1.4 1.6.1.1.2.3.3.4.4.4.7.9 1 1.4.1.2.2.3.3.5l1.2 1.8s0 .1.1.1a36.18 36.18 0 0 1 5.1 18.5c0 6-1.5 11.7-4.1 16.7-.3.6-.7 1.2-1 1.8 0 0 0 .1-.1.1l-1.2 1.8c-.1.2-.2.3-.3.5-.3.5-.7.9-1 1.4-.1.1-.2.3-.3.4-.5.6-.9 1.1-1.4 1.6l-.3.3-1.2 1.2-.4.4c-.5.5-1 .9-1.6 1.4-.6.5-1.1.9-1.7 1.3-.2.1-.3.2-.5.3-.5.3-.9.7-1.4 1-.1.1-.3.2-.4.3-.6.4-1.2.7-1.9 1.1-.1.1-.3.1-.4.2-.5.3-1 .5-1.6.8l-.6.3c-.7.3-1.3.6-2 .8-.7.3-1.4.5-2.1.7-.2.1-.4.1-.6.2-.6.2-1.1.3-1.7.4-.2 0-.3.1-.5.1-.7.2-1.5.3-2.2.4-.2 0-.3 0-.5.1-.6.1-1.2.1-1.8.2h-.6c-.8 0-1.5.1-2.3.1s-1.5 0-2.3-.1h-.6c-.6 0-1.2-.1-1.8-.2-.2 0-.3 0-.5-.1-.7-.1-1.5-.2-2.2-.4-.2 0-.3-.1-.5-.1-.6-.1-1.2-.3-1.7-.4-.2-.1-.4-.1-.6-.2-.7-.2-1.4-.4-2.1-.7-.7-.2-1.3-.5-2-.8l-.6-.3c-.5-.2-1.1-.5-1.6-.8-.1-.1-.3-.1-.4-.2-.6-.3-1.3-.7-1.9-1.1-.1-.1-.3-.2-.4-.3-.5-.3-1-.6-1.4-1-.2-.1-.3-.2-.5-.3-.6-.4-1.2-.9-1.7-1.3s-1.1-.9-1.6-1.4l-.4-.4-1.2-1.2-.3-.3c-.5-.5-1-1.1-1.4-1.6-.1-.1-.2-.3-.3-.4-.4-.4-.7-.9-1-1.4-.1-.2-.2-.3-.3-.5l-1.2-1.8v-.1c-.4-.6-.7-1.2-1-1.8-2.6-5-4.1-10.7-4.1-16.7s1.5-11.7 4.1-16.7zM620 539v221c0 4.4 3.6 8 8 8h48c4.4 0 8-3.6 8-8V539c-10.1 3.3-20.8 5-32 5s-21.9-1.8-32-5zm64-198v-77c0-4.4-3.6-8-8-8h-48c-4.4 0-8 3.6-8 8v77c10.1-3.3 20.8-5 32-5s21.9 1.8 32 5zm-64 198c10.1 3.3 20.8 5 32 5s21.9-1.8 32-5c41.8-13.5 72-52.7 72-99s-30.2-85.5-72-99c-10.1-3.3-20.8-5-32-5s-21.9 1.8-32 5c-41.8 13.5-72 52.7-72 99s30.2 85.5 72 99zm.1-115.7c.3-.6.7-1.2 1-1.8v-.1l1.2-1.8c.1-.2.2-.3.3-.5.3-.5.7-.9 1-1.4.1-.1.2-.3.3-.4.5-.6.9-1.1 1.4-1.6l.3-.3 1.2-1.2.4-.4c.5-.5 1-.9 1.6-1.4.6-.5 1.1-.9 1.7-1.3.2-.1.3-.2.5-.3.5-.3.9-.7 1.4-1 .1-.1.3-.2.4-.3.6-.4 1.2-.7 1.9-1.1.1-.1.3-.1.4-.2.5-.3 1-.5 1.6-.8l.6-.3c.7-.3 1.3-.6 2-.8.7-.3 1.4-.5 2.1-.7.2-.1.4-.1.6-.2.6-.2 1.1-.3 1.7-.4.2 0 .3-.1.5-.1.7-.2 1.5-.3 2.2-.4.2 0 .3 0 .5-.1.6-.1 1.2-.1 1.8-.2h.6c.8 0 1.5-.1 2.3-.1s1.5 0 2.3.1h.6c.6 0 1.2.1 1.8.2.2 0 .3 0 .5.1.7.1 1.5.2 2.2.4.2 0 .3.1.5.1.6.1 1.2.3 1.7.4.2.1.4.1.6.2.7.2 1.4.4 2.1.7.7.2 1.3.5 2 .8l.6.3c.5.2 1.1.5 1.6.8.1.1.3.1.4.2.6.3 1.3.7 1.9 1.1.1.1.3.2.4.3.5.3 1 .6 1.4 1 .2.1.3.2.5.3.6.4 1.2.9 1.7 1.3s1.1.9 1.6 1.4l.4.4 1.2 1.2.3.3c.5.5 1 1.1 1.4 1.6.1.1.2.3.3.4.4.4.7.9 1 1.4.1.2.2.3.3.5l1.2 1.8v.1a36.18 36.18 0 0 1 5.1 18.5c0 6-1.5 11.7-4.1 16.7-.3.6-.7 1.2-1 1.8v.1l-1.2 1.8c-.1.2-.2.3-.3.5-.3.5-.7.9-1 1.4-.1.1-.2.3-.3.4-.5.6-.9 1.1-1.4 1.6l-.3.3-1.2 1.2-.4.4c-.5.5-1 .9-1.6 1.4-.6.5-1.1.9-1.7 1.3-.2.1-.3.2-.5.3-.5.3-.9.7-1.4 1-.1.1-.3.2-.4.3-.6.4-1.2.7-1.9 1.1-.1.1-.3.1-.4.2-.5.3-1 .5-1.6.8l-.6.3c-.7.3-1.3.6-2 .8-.7.3-1.4.5-2.1.7-.2.1-.4.1-.6.2-.6.2-1.1.3-1.7.4-.2 0-.3.1-.5.1-.7.2-1.5.3-2.2.4-.2 0-.3 0-.5.1-.6.1-1.2.1-1.8.2h-.6c-.8 0-1.5.1-2.3.1s-1.5 0-2.3-.1h-.6c-.6 0-1.2-.1-1.8-.2-.2 0-.3 0-.5-.1-.7-.1-1.5-.2-2.2-.4-.2 0-.3-.1-.5-.1-.6-.1-1.2-.3-1.7-.4-.2-.1-.4-.1-.6-.2-.7-.2-1.4-.4-2.1-.7-.7-.2-1.3-.5-2-.8l-.6-.3c-.5-.2-1.1-.5-1.6-.8-.1-.1-.3-.1-.4-.2-.6-.3-1.3-.7-1.9-1.1-.1-.1-.3-.2-.4-.3-.5-.3-1-.6-1.4-1-.2-.1-.3-.2-.5-.3-.6-.4-1.2-.9-1.7-1.3s-1.1-.9-1.6-1.4l-.4-.4-1.2-1.2-.3-.3c-.5-.5-1-1.1-1.4-1.6-.1-.1-.2-.3-.3-.4-.4-.4-.7-.9-1-1.4-.1-.2-.2-.3-.3-.5l-1.2-1.8v-.1c-.4-.6-.7-1.2-1-1.8-2.6-5-4.1-10.7-4.1-16.7s1.5-11.7 4.1-16.7z"/>
</svg><svg viewBox="-249 151 100 100" style="enable-background:new -249 151 100 100" xml:space="preserve" id="control_panel_icon_125317" xmlns="http://www.w3.org/2000/svg">
    <path d="M-241.9 154.3v93.2c0 1.4 1.1 2.5 2.5 2.5h80.8c1.4 0 2.5-1.1 2.5-2.5v-93.2c0-1.4-1.1-2.5-2.5-2.5h-80.8c-1.4 0-2.5 1.2-2.5 2.5zm80.8 90.7h-75.8v-88.2h75.8V245z"/>
    <path d="M-218.2 185.1h12.7v-6.6h31.1c1.4 0 2.5-1.1 2.5-2.5s-1.1-2.5-2.5-2.5h-31.1v-5.2c0-1.4-1.1-2.5-2.5-2.5h-7.7c-1.4 0-2.5 1.1-2.5 2.5v5.2h-5.4c-1.4 0-2.5 1.1-2.5 2.5s1.1 2.5 2.5 2.5h5.4v6.6zm5-6.7v-7.7h2.7v9.3h-2.7v-1.6zM-186.7 211.1h7.7c1.4 0 2.5-1.1 2.5-2.5v-5.1h2.1c1.4 0 2.5-1.1 2.5-2.5s-1.1-2.5-2.5-2.5h-2.1v-4.2c0-1.4-1.1-2.5-2.5-2.5h-7.7c-1.4 0-2.5 1.1-2.5 2.5v4.2h-34.4c-1.4 0-2.5 1.1-2.5 2.5s1.1 2.5 2.5 2.5h34.4v5.1c0 1.4 1.2 2.5 2.5 2.5zm2.5-7.7v-6.7h2.7v9.3h-2.7v-2.6zM-205.7 236.1h7.7c1.4 0 2.5-1.1 2.5-2.5v-5.1h21.1c1.4 0 2.5-1.1 2.5-2.5s-1.1-2.5-2.5-2.5h-21.1v-4.2c0-1.4-1.1-2.5-2.5-2.5h-7.7c-1.4 0-2.5 1.1-2.5 2.5v4.2h-15.4c-1.4 0-2.5 1.1-2.5 2.5s1.1 2.5 2.5 2.5h15.4v5.1c0 1.4 1.2 2.5 2.5 2.5zm2.5-7.7v-6.7h2.7v9.3h-2.7v-2.6z"/>
</svg><svg viewBox="0 0 1920 1920" id="email" xmlns="http://www.w3.org/2000/svg">
    <path d="M1920 428.266v1189.54l-464.16-580.146-88.203 70.585 468.679 585.904H83.684l468.679-585.904-88.202-70.585L0 1617.805V428.265l959.944 832.441L1920 428.266ZM1919.932 226v52.627l-959.943 832.44L.045 278.628V226h1919.887Z" fill-rule="evenodd"/>
</svg><svg viewBox="0 0 16.933 16.933" id="emergency" xmlns="http://www.w3.org/2000/svg">
    <path d="M1.53 282.644a.32.32 0 0 0-.27.143c-.099.148-.06.349.089.448l1.937 1.291a.323.323 0 0 0 .357-.536L1.71 282.7a.324.324 0 0 0-.18-.056Zm13.876 0a.322.322 0 0 0-.18.055l-1.935 1.291a.323.323 0 0 0 .357.536l1.937-1.291a.323.323 0 0 0-.179-.59zm-9.118.646a1.56 1.56 0 0 0-1.532 1.267l-1.614 5.866c-.119.625.332 1.2.95 1.257H2.659c-.356 0-.645.49-.645 1.097v.549c0 .606.289 1.097.645 1.097h11.295c.356 0 .645-.491.645-1.097v-.55c0-.605-.289-1.096-.645-1.096h-1.434a1.064 1.064 0 0 0 .95-1.257l-1.372-5.866a1.56 1.56 0 0 0-1.533-1.267zm.848.967a.323.323 0 1 1 0 .646 1.233 1.233 0 0 0-1.223 1.03l-1.022 3.725a.323.323 0 0 1-.398.223.323.323 0 0 1-.226-.395l1.024-3.724-.004.027a1.887 1.887 0 0 1 1.849-1.532zm1.169 0h1.291a.323.323 0 1 1 0 .646H8.305a.323.323 0 0 1 0-.646zm-6.842 1.291a.323.323 0 0 0 0 .645h1.68a.323.323 0 0 0 0-.645zm12.328 0a.323.323 0 0 0 0 .645h1.68a.323.323 0 0 0 0-.645zm-5.486.323c.357 0 .646.29.646.646v5.163H7.66v-5.163c0-.357.289-.646.645-.646zm-5.5 1.29-.017.002a.319.319 0 0 0-.129.043l-1.527.881a.323.323 0 0 0-.119.44c.09.154.287.207.44.117l1.528-.88a.323.323 0 0 0-.175-.603zm11.32.002a.321.321 0 0 0-.172.6l1.527.881c.154.09.35.037.44-.116a.323.323 0 0 0-.119-.44l-1.526-.882a.322.322 0 0 0-.15-.043z" style="color:#000;font-style:normal;font-variant:normal;font-weight:400;font-stretch:normal;font-size:medium;line-height:normal;font-family:sans-serif;font-variant-ligatures:normal;font-variant-position:normal;font-variant-caps:normal;font-variant-numeric:normal;font-variant-alternates:normal;font-variant-east-asian:normal;font-feature-settings:normal;font-variation-settings:normal;text-indent:0;text-align:start;text-decoration:none;text-decoration-line:none;text-decoration-style:solid;text-decoration-color:#000;letter-spacing:normal;word-spacing:normal;text-transform:none;writing-mode:lr-tb;direction:ltr;text-orientation:mixed;dominant-baseline:auto;baseline-shift:baseline;text-anchor:start;white-space:normal;shape-padding:0;shape-margin:0;inline-size:0;clip-rule:nonzero;display:inline;overflow:visible;visibility:visible;isolation:auto;mix-blend-mode:normal;color-interpolation:sRGB;color-interpolation-filters:linearRGB;solid-color:#000;solid-opacity:1;vector-effect:none;fill:#000;fill-opacity:1;fill-rule:nonzero;stroke:none;stroke-width:.645399;stroke-linecap:round;stroke-linejoin:round;stroke-miterlimit:4;stroke-dasharray:none;stroke-dashoffset:0;stroke-opacity:1;color-rendering:auto;image-rendering:auto;shape-rendering:auto;text-rendering:auto;enable-background:accumulate;stop-color:#000" transform="translate(0 -280.067)"/>
</svg><svg viewBox="0 0 32 32" xml:space="preserve" id="facebook" xmlns="http://www.w3.org/2000/svg">
    <path d="M6 2h20c2.2 0 4 1.8 4 4v20c0 2.2-1.8 4-4 4H6c-2.2 0-4-1.8-4-4V6c0-2.2 1.8-4 4-4z"/>
    <path d="M13.2 16.1v9.7c0 .1.1.3.3.3h3.9c.2 0 .3-.1.3-.3V16h2.8c.1 0 .3-.1.3-.2l.3-3c0-.2-.1-.3-.3-.3h-3.1v-2.1c0-.5.4-.9 1-.9h2.2c.2 0 .3-.1.3-.3V6.3c-.2-.2-.3-.3-.5-.3h-3.6c-2.1 0-3.9 1.6-3.9 3.6v2.9h-1.9c-.2 0-.3.1-.3.3v3c0 .1.1.3.3.3h1.9z" style="fill-rule:evenodd;clip-rule:evenodd;fill:#fff"/>
</svg><svg viewBox="0 0 24 24" fill="none" id="football-helmet-svgrepo-com" xmlns="http://www.w3.org/2000/svg">
    <path fill-rule="evenodd" clip-rule="evenodd" d="M5.97 8.178c1.292.48 2.46 1.45 3.006 2.656a1 1 0 0 1-.105 1.005 4.535 4.535 0 0 0-.113.161H11.268a2 2 0 1 1 1.25 2.941l-2.026 2.43c-.017.39-.06.752-.135 1.087A4.48 4.48 0 0 0 12.5 19a4.488 4.488 0 0 0 3.472-1.637 1 1 0 0 1 .77-.363h2.503A8 8 0 1 0 5.97 8.178ZM9.45 20.24c.91.484 1.948.759 3.051.759a6.484 6.484 0 0 0 4.69-2h2.518a1 1 0 0 0 .745-.333A9.967 9.967 0 0 0 23 12c0-5.523-4.477-10-10-10-4.3 0-7.964 2.714-9.377 6.52a1 1 0 0 0 .845 1.343c.93.086 1.891.657 2.42 1.356-.146.25-.277.51-.39.781H2.5a1 1 0 0 0-.914.593c-.313.704-.504 1.677-.596 2.565-.093.89-.103 1.845.028 2.53.212 1.108.63 2.078.986 2.76a10.947 10.947 0 0 0 .623 1.049l.045.064.014.02.004.006.002.002v.001L3.5 21l-.807.59A1 1 0 0 0 3.5 22v-1 1h.03a7.92 7.92 0 0 0 .343-.009c.225-.008.54-.024.905-.058.716-.065 1.68-.198 2.538-.484.726-.242 1.52-.565 2.133-1.208Zm-2.321-2.08c.208.305.442.591.698.856-.249.192-.605.355-1.142.534-.642.214-1.429.33-2.087.39-.21.02-.402.033-.564.041a9.325 9.325 0 0 1-.744-1.566l3.839-.256Zm1.157-2.082.721-.048L10.698 14H8.027a4.56 4.56 0 0 0 .258 2.079ZM6.019 14a6.58 6.58 0 0 0 .21 2.216l-3.31.22c.001-.322.02-.688.06-1.07.053-.504.136-.979.237-1.366H6.019Z" fill="#000"/>
</svg><svg stroke-miterlimit="10" style="fill-rule:nonzero;clip-rule:evenodd;stroke-linecap:round;stroke-linejoin:round" viewBox="0 0 3000 3000" id="instagram" xmlns="http://www.w3.org/2000/svg">
    <defs>
        <linearGradient gradientUnits="userSpaceOnUse" id="la" x1="1500" x2="2805.81" y1="1500" y2="194.188">
            <stop offset="0" stop-color="#7e7e7e"/>
            <stop offset=".556" stop-color="#c8c8c8"/>
            <stop offset="1" stop-color="#7e7e7e"/>
        </linearGradient>
    </defs>
    <path d="M1500 1189.05c-171.72.07-310.87 139.31-310.83 311.03.04 171.71 139.27 310.89 310.99 310.87 171.71-.02 310.9-139.23 310.9-310.95-.13-171.72-139.34-310.88-311.06-310.95Zm727-239.007a314.806 314.806 0 0 0-177.28-177.275c-122.42-48.327-413.89-37.484-549.72-37.484-135.83 0-427.01-11.251-549.782 37.484a314.792 314.792 0 0 0-177.275 177.275c-48.269 122.417-37.484 414.187-37.484 549.897 0 135.71-10.785 427.13 37.717 549.96a314.76 314.76 0 0 0 177.275 177.27c122.419 48.33 413.899 37.49 549.779 37.49 135.89 0 426.96 11.25 549.73-37.49a314.725 314.725 0 0 0 177.27-177.27c48.68-122.42 37.49-414.19 37.49-549.9 0-135.71 11.19-427.07-37.49-549.898l-.23-.059ZM1500 1978.02c-264 0-478.02-214.02-478.02-478.02S1236 1021.98 1500 1021.98 1978.02 1236 1978.02 1500c.16 126.83-50.16 248.5-139.84 338.18s-211.35 140-338.18 139.84Zm497.72-864.52c-61.63.04-111.61-49.91-111.63-111.54-.02-61.625 49.93-111.6 111.56-111.611 61.63-.011 111.59 49.947 111.59 111.581.13 29.6-11.54 58.03-32.42 79.01a111.367 111.367 0 0 1-78.86 32.8l-.24-.24ZM2526 194.188H474.005c-154.539 0-279.817 125.278-279.817 279.817V2526c0 154.53 125.278 279.81 279.817 279.81H2526c154.53 0 279.81-125.28 279.81-279.81V474.005c0-154.539-125.28-279.817-279.81-279.817Zm-99.81 1690.562c-7.52 149.41-41.62 281.8-150.69 390.58-109.07 108.77-241.34 143.58-390.58 150.69-153.95 8.68-615.54 8.68-769.49 0-149.414-7.52-281.336-41.68-390.581-150.69-109.245-109.02-143.581-241.46-150.693-390.58-8.686-154.02-8.686-615.66 0-769.5 7.52-149.409 41.215-281.797 150.693-390.576 109.478-108.779 241.75-143.173 390.581-150.285 153.95-8.686 615.54-8.686 769.49 0 149.41 7.52 281.74 41.681 390.58 150.693 108.84 109.012 143.58 241.459 150.69 390.868 8.69 153.43 8.69 614.67 0 768.8Z" fill="url(#la)"/>
</svg><svg viewBox="0 0 791.91 791.91" style="enable-background:new 0 0 791.91 791.91" xml:space="preserve" id="license" xmlns="http://www.w3.org/2000/svg">
    <path d="M532.659 322.978c0 9.671-7.701 17.371-17.371 17.371H220.336c-9.671 0-17.371-7.701-17.371-17.371s7.701-17.371 17.371-17.371h293.967c9.67-.985 18.356 6.716 18.356 17.371zM197.144 214.722v-78.349c0-15.491 12.536-29.012 29.012-29.012h279.461c15.491 0 29.012 12.536 29.012 29.012v78.349c0 15.491-12.536 29.012-29.012 29.012H226.156c-16.476 0-29.012-12.626-29.012-29.012zm35.728-6.805h265.94v-64.828h-265.94v64.828zM651.66 612.11l-.985 147.028c0 29.997-20.326 31.877-24.176 31.877-5.82 0-12.536-1.97-18.356-6.805l-48.353-40.652-46.383 38.682c-4.835 3.85-12.536 9.671-21.311 9.671-10.656 0-21.311-7.701-23.191-23.191v-30.892H145.837c-26.146 0-47.368-21.311-47.368-47.368V47.368C98.469 21.221 119.78 0 145.837 0h449.681c26.146 0 47.368 21.311 47.368 47.368v362.646c14.506 10.656 26.146 25.161 34.832 41.548 29.01 54.172 16.475 120.97-26.058 160.548zm-5.82-143.088c-7.701-14.506-19.341-27.042-32.862-35.817-2.865-1.97-5.82-2.865-7.701-4.835-.985 0-1.97-.985-2.865-.985-3.85-1.97-6.805-2.865-10.656-4.835h-.985c-20.326-6.805-43.517-6.805-63.844.985h-.985c-3.85 1.97-7.701 2.865-11.64 5.82-32.862 17.371-51.218 51.218-51.218 86.05 0 15.491 3.85 30.982 11.64 46.383 1.97 3.85 3.85 6.805 6.805 10.656.985.985.985 1.97 1.97 2.865 1.97 2.865 3.85 4.835 5.82 6.805l1.97 1.97c2.865 2.865 5.82 5.82 8.686 7.701l.985.985c2.865 1.97 4.835 3.85 7.701 5.82l.985.985c.985 0 .985.985 1.97.985s1.97.985 2.865.985c.985.985 2.865.985 3.85 1.97 22.206 10.656 47.368 12.536 71.544 5.82.985 0 2.865-.985 3.85-.985.985 0 .985 0 1.97-.985.985 0 1.97-.985 2.865-.985 2.865-.985 5.82-2.865 8.686-3.85 2.865-1.97 5.82-2.865 7.701-4.835 2.865-1.97 4.835-3.85 7.701-5.82 34.832-29.998 46.383-81.306 23.192-122.853zM468.905 700.13v-68.679H220.336c-9.671 0-17.371-7.701-17.371-17.371 0-9.671 7.701-17.371 17.371-17.371h233.078c-.985-1.97-1.97-2.865-3.85-4.835-.985-.985-1.97-1.97-1.97-2.865-1.97-1.97-2.865-4.835-4.835-7.701l-.985-.985c-1.97-3.85-3.85-7.701-5.82-12.536-3.85-10.656-6.805-21.311-8.686-31.877H220.336c-9.671 0-17.371-7.701-17.371-17.371 0-9.671 7.701-17.371 17.371-17.371h206.932c.985-6.805 1.97-13.521 3.85-20.326 4.835-14.506 11.64-28.027 20.326-39.667H220.336c-9.671 0-17.371-7.701-17.371-17.371s7.701-17.371 17.371-17.371h269.79c1.97-.985 3.85-1.97 5.82-3.85 3.85-1.97 7.701-3.85 12.536-5.82h.985c15.491-6.805 32.862-9.671 50.323-9.671 16.476 0 31.877 2.865 46.383 8.686V47.368c0-6.805-4.835-11.64-11.64-11.64H145.837c-6.805 0-11.64 4.835-11.64 11.64v640.226c0 6.805 4.835 11.64 11.64 11.64h322.978v.895h.09zm146.938-62.859c-.985 0-.985 0-1.97.985 0 0-.985 0-.985.985h-.985c-1.97.985-3.85.985-5.82 1.97-.985 0-.985 0-1.97.985-.985 0-1.97.985-2.865.985h-1.97c-.985 0-.985 0-1.97.985h-.985c-.985 0-1.97 0-2.865.985-.985 0-2.865.985-4.835.985-.985 0-2.865.985-3.85.985-1.97 0-3.85.985-6.805.985-.985 0-2.865 0-3.85.985h-16.566c-2.865 0-6.805 0-9.671-.985h-1.97c-12.536-.985-25.161-4.835-35.817-9.671-.985-.985-2.865-.985-3.85-1.97l-.985 105.391 43.517-36.712c2.865-2.865 7.701-3.85 11.641-3.85s8.686.985 11.641 3.85l43.517 36.712.268-104.585z"/>
</svg><svg viewBox="0 0 32 32" id="license-maintenance-svgrepo-com" xmlns="http://www.w3.org/2000/svg">
    <path d="M8 14h6v2H8zM8 6h12v2H8zM8 10h12v2H8zM8 24h6v2H8zM30 24v-2h-2.101a4.968 4.968 0 0 0-.732-1.753l1.49-1.49-1.414-1.414-1.49 1.49A4.968 4.968 0 0 0 24 18.101V16h-2v2.101a4.968 4.968 0 0 0-1.753.732l-1.49-1.49-1.414 1.414 1.49 1.49A4.968 4.968 0 0 0 18.101 22H16v2h2.101a4.968 4.968 0 0 0 .732 1.753l-1.49 1.49 1.414 1.414 1.49-1.49a4.968 4.968 0 0 0 1.753.732V30h2v-2.101a4.968 4.968 0 0 0 1.753-.732l1.49 1.49 1.414-1.414-1.49-1.49A4.968 4.968 0 0 0 27.899 24Zm-7 2a3 3 0 1 1 3-3 3.003 3.003 0 0 1-3 3Z"/>
    <path d="M14 30H6a2.002 2.002 0 0 1-2-2V4a2.002 2.002 0 0 1 2-2h16a2.002 2.002 0 0 1 2 2v10h-2V4H6v24h8Z"/>
    <path data-name="&lt;Transparent Rectangle&gt;" style="fill:none" d="M0 0h32v32H0z"/>
</svg><svg viewBox="0 0 24 24" fill="none" id="phone" xmlns="http://www.w3.org/2000/svg">
    <path d="m16.556 12.906-.455.453s-1.083 1.076-4.038-1.862-1.872-4.014-1.872-4.014l.286-.286c.707-.702.774-1.83.157-2.654L9.374 2.86C8.61 1.84 7.135 1.705 6.26 2.575l-1.57 1.56c-.433.432-.723.99-.688 1.61.09 1.587.808 5 4.812 8.982 4.247 4.222 8.232 4.39 9.861 4.238.516-.048.964-.31 1.325-.67l1.42-1.412c.96-.953.69-2.588-.538-3.255l-1.91-1.039c-.806-.438-1.787-.309-2.417.317Z" fill="#1C274C"/>
</svg><svg viewBox="0 0 256 256" xml:space="preserve" id="protection-rain-umbrella-svgrepo-com" xmlns="http://www.w3.org/2000/svg">
    <path d="m100.4 113.6 2 1.3 2.3-.8c11-4.1 24-5.2 30.8-5.4h.9V144c0 2.7 2.2 4.8 4.8 4.8s4.8-2.2 4.8-4.8v-35.5h.9c8.3.4 20.4 1.6 30.8 5.4l2.3.8 2-1.3c15.2-9.7 36.3-14.6 57.9-13.6l6.1.3-1.1-6c-7.3-40-50.9-67.3-88.2-72.7-2.9-.4-6-.7-9.2-.8h-1.4v-8.5c0-2.7-2.2-4.8-4.8-4.8s-4.8 2.2-4.8 4.8v8.5h-1.3c-3.4.1-6.5.4-9.4.8-37.4 5.6-81 32.9-88.3 72.8l-1.1 6 6.1-.3c21.6-1 42.7 4 57.9 13.7zm26.7-82.4c2.6-.4 5.3-.6 8.5-.7 3.7-.2 7.5-.2 11.4 0 3 .1 5.7.3 8.3.7 32.1 4.6 69.2 26.6 78.7 59-20.6 0-39.9 4.9-55.2 14-11-3.7-23.1-4.9-31.4-5.2l-3.1-.1h-6l-3.2.1c-8.4.4-20.5 1.6-31.5 5.2-15.3-9.1-34.6-14-55.2-14 9.5-32.4 46.6-54.4 78.7-59zM224 162.3l-59.8 25.1c-2.5 1-3.6 3.9-2.6 6.3 1 2.5 3.9 3.6 6.3 2.6l59.8-25.1c2.6-1.1 5.5-.3 7.2 1.8 1.1 1.4 1.6 3.1 1.3 4.8-.3 1.8-1.3 3.3-2.8 4.2-26.1 17-85.4 50.6-88.2 52.2-.1.1-.2.1-.3.2-7.2 4.3-15.3 5.4-25.5 3.6-.6-.1-14.4-1.8-47.1-5.8l-16.8-2.1v-65.3c2.7-.2 5.1-.3 6.1-.3h.6c22.5-1.4 44.1 2.9 66.9 7.5 2.9.6 5.8 1.2 8.8 1.8 3.1.6 5.4 3.3 5.4 6.5 0 .2 0 .4-.1.8-.2 1.8-1.2 3.1-1.9 3.9-1.2 1.2-2.9 1.9-4.7 1.9H91.1c-2.7 0-4.8 2.2-4.8 4.8s2.2 4.8 4.8 4.8h45.7c4.3 0 8.5-1.7 11.6-4.8 2.6-2.7 4.2-6 4.6-9.4.1-.7.2-1.4.2-2.2 0-7.8-5.5-14.5-13.2-16l-8.7-1.8c-22.4-4.5-45.6-9.2-69.4-7.7h-.5c-1.1 0-3.3.2-5.9.3-.6-2.1-2.4-3.6-4.6-3.6h-36c-2.7 0-4.8 2.2-4.8 4.8v81.4c0 2.7 2.2 4.8 4.8 4.8h36c1.9 0 3.6-1.2 4.4-2.8l16.1 2c19.2 2.4 45.5 5.6 46.6 5.7 3.6.6 7 1 10.3 1 8 0 15.1-1.9 21.6-5.7.1 0 .1-.1.2-.1.6-.3 62-35 88.8-52.5 3.8-2.5 6.3-6.4 7-10.8.7-4.4-.5-8.9-3.3-12.4-4.6-5.3-12-7.2-18.6-4.4zM46 233.1H19.6v-71.7H46v71.7z"/>
</svg><svg viewBox="0 0 24 24" id="shield" xmlns="http://www.w3.org/2000/svg">
    <path d="M20 4c-3.609 0-7.363-2.772-7.4-2.8a1 1 0 0 0-1.2 0C11.363 1.228 7.609 4 4 4a1 1 0 0 0-1 1c0 .6.1 14.73 8.649 17.937a1.009 1.009 0 0 0 .7 0C20.9 19.73 21 5.6 21 5a1 1 0 0 0-1-1Zm-8 16.921C6.2 18.4 5.205 8.973 5.035 5.943A16.968 16.968 0 0 0 12 3.216a16.968 16.968 0 0 0 6.965 2.727C18.8 8.973 17.8 18.4 12 20.921Z"/>
    <path d="M8 11a4 4 0 1 0 4-4 4 4 0 0 0-4 4Zm6 0a2 2 0 1 1-2-2 2 2 0 0 1 2 2Z"/>
</svg><svg viewBox="0 0 16 16" fill="none" id="shield-check-svgrepo-com" xmlns="http://www.w3.org/2000/svg">
    <g fill="#000">
        <path d="M11.28 5.47a.75.75 0 0 1 0 1.06l-4 4a.75.75 0 0 1-1.06 0l-2-2a.75.75 0 0 1 1.06-1.06l1.47 1.47 3.47-3.47a.75.75 0 0 1 1.06 0z"/>
        <path fill-rule="evenodd" d="M7.26.213a2.25 2.25 0 0 1 1.48 0l4.75 1.653A2.25 2.25 0 0 1 15 3.991v4.01c0 2.048-1.181 3.747-2.45 4.991-1.282 1.255-2.757 2.15-3.573 2.598a2.024 2.024 0 0 1-1.954 0c-.816-.447-2.291-1.342-3.572-2.598C2.18 11.748 1 10.05 1 8V3.991c0-.957.606-1.81 1.51-2.125L7.26.213zm.986 1.417a.75.75 0 0 0-.493 0l-4.75 1.653a.75.75 0 0 0-.503.708v4.01c0 1.455.847 2.79 2 3.92 1.142 1.118 2.483 1.937 3.244 2.353.163.09.35.09.512 0 .761-.416 2.102-1.235 3.244-2.353 1.153-1.13 2-2.465 2-3.92V3.99a.75.75 0 0 0-.504-.708L8.246 1.63z" clip-rule="evenodd"/>
    </g>
</svg><svg viewBox="0 0 16.933 16.933" id="siren_hooter_police_emergency_icon_191252" xmlns="http://www.w3.org/2000/svg">
    <path d="M1.528 282.284a.32.32 0 0 0-.267.144c-.099.148-.06.348.089.447l1.936 1.291a.323.323 0 0 0 .358-.538l-1.937-1.289a.322.322 0 0 0-.179-.055zm13.878 0a.322.322 0 0 0-.181.055l-1.937 1.29c-.148.099-.187.299-.088.447.098.149.3.19.448.09l1.937-1.29a.323.323 0 0 0-.18-.591zm-8.956.236c-.906 0-1.682.663-1.849 1.565l.005-.023-1.615 6.11-.005.023c-.07.378.023.743.215 1.039h-.544c-.269 0-.562.11-.824.355-.262.244-.464.636-.464 1.145v.548c0 .504.19.897.45 1.143.26.247.563.358.838.358h11.618c.275 0 .58-.111.84-.358.26-.246.45-.639.45-1.143v-.548c0-.509-.202-.901-.464-1.145s-.558-.355-.826-.355h-.541c.192-.296.284-.661.214-1.039l-.005-.012-1.367-6.098c-.167-.902-.945-1.565-1.85-1.565zm0 .646h4.275a1.245 1.245 0 0 1 1.218 1.05l1.37 6.096c.09.488-.263.922-.732.922H9.434v-2.906h.646c.352 0 .645-.29.645-.643v-.97a.65.65 0 0 0-.645-.645h-.654a.969.969 0 0 0-.959-.882.97.97 0 0 0-.96.883l-.01-.001h-.642a.65.65 0 0 0-.646.645v.97a.65.65 0 0 0 .646.643h.643v2.906H4.353c-.469 0-.821-.434-.73-.922l1.607-6.084a.248.248 0 0 0 .005-.023c.113-.61.623-1.04 1.215-1.04zm.726.646c-.902 0-1.68.643-1.848 1.529l-.736 2.727a.323.323 0 0 0 .624.17l.74-2.752.005-.024a1.233 1.233 0 0 1 1.215-1.005.323.323 0 0 0 0-.645zm1.129 0a.323.323 0 0 0 0 .645h.484a.323.323 0 1 0 0-.645zm-6.84 1.376a.323.323 0 0 0 0 .646h1.678a.323.323 0 0 0 0-.646zm12.326 0a.323.323 0 0 0 0 .646h1.68a.323.323 0 0 0 0-.646zm-5.324.646c.182 0 .322.14.322.321v5.079h-.646v-5.079c0-.182.142-.321.324-.321zm-1.612.881h.643v.97h-.643Zm2.58 0h.645v.97h-.646Zm4.662.086a.324.324 0 0 0-.144.602l1.527.882a.323.323 0 1 0 .322-.558l-1.527-.88a.323.323 0 0 0-.178-.046zm-11.29 0-.019.002a.329.329 0 0 0-.13.043l-1.528.88a.323.323 0 0 0 .324.558l1.527-.881a.323.323 0 0 0-.175-.601zm-.15 5.078c3.877.005 7.74 0 11.618 0 .053 0 .244.05.385.18.141.132.26.328.26.675v.548c0 .35-.115.548-.25.677a.66.66 0 0 1-.395.178H2.657a.66.66 0 0 1-.395-.178c-.135-.129-.247-.327-.247-.677v-.548c0-.347.118-.543.26-.674a.71.71 0 0 1 .382-.181z" style="color:#000;font-style:normal;font-variant:normal;font-weight:400;font-stretch:normal;font-size:medium;line-height:normal;font-family:sans-serif;font-variant-ligatures:normal;font-variant-position:normal;font-variant-caps:normal;font-variant-numeric:normal;font-variant-alternates:normal;font-variant-east-asian:normal;font-feature-settings:normal;font-variation-settings:normal;text-indent:0;text-align:start;text-decoration:none;text-decoration-line:none;text-decoration-style:solid;text-decoration-color:#000;letter-spacing:normal;word-spacing:normal;text-transform:none;writing-mode:lr-tb;direction:ltr;text-orientation:mixed;dominant-baseline:auto;baseline-shift:baseline;text-anchor:start;white-space:normal;shape-padding:0;shape-margin:0;inline-size:0;clip-rule:nonzero;display:inline;overflow:visible;visibility:visible;opacity:1;isolation:auto;mix-blend-mode:normal;color-interpolation:sRGB;color-interpolation-filters:linearRGB;solid-color:#000;solid-opacity:1;vector-effect:none;fill:#000;fill-opacity:1;fill-rule:nonzero;stroke:none;stroke-width:.645365;stroke-linecap:round;stroke-linejoin:round;stroke-miterlimit:4;stroke-dasharray:none;stroke-dashoffset:0;stroke-opacity:1;color-rendering:auto;image-rendering:auto;shape-rendering:auto;text-rendering:auto;enable-background:accumulate;stop-color:#000;stop-opacity:1" transform="translate(0 -280.067)"/>
</svg><svg viewBox="0 0 512 512" style="enable-background:new 0 0 512 512" xml:space="preserve" id="weapon_security_defense_durable_shield_icon_259718" xmlns="http://www.w3.org/2000/svg">
    <path style="fill:#dc5461" d="M334.477 185.628c-21.572-21.572-54.856-22.904-77.85-5.863-23.018-17.045-56.287-15.701-77.85 5.863-23.37 23.37-23.388 61.249.001 84.638l70.19 70.191c4.311 4.407 11.082 4.236 15.17.146l70.339-70.338c23.335-23.334 23.335-61.302 0-84.637zm-15.026 69.611-62.823 62.823-62.823-62.823c-15.068-15.066-15.082-39.505 0-54.585 15.083-15.083 39.503-15.094 54.599.005l.716.715c4.132 4.124 10.812 4.144 14.966.049l.78-.769c15.084-15.086 39.499-15.088 54.585 0 15.049 15.05 15.049 39.536 0 54.585z"/>
    <path style="fill:#283954" d="M477.883 126.989c-2.197-38.129-1.945-35.878-2.419-37.527-1.223-4.262-4.953-7.274-9.247-7.658l-35.127-3.188c-52.107-4.726-101.514-24.088-142.877-55.991L263.064 3.214a10.625 10.625 0 0 0-13.036.04l-25.033 19.571C183.841 55 134.561 74.684 82.482 79.749L45.41 83.361a10.626 10.626 0 0 0-9.581 10.035l-1.793 35.184c-.187 3.285-5.492 103.884 28.625 182.616 12.75 29.397 29.454 57.35 49.647 83.082 3.635 4.629 10.316 5.41 14.919 1.799 4.616-3.623 5.421-10.302 1.799-14.919-19.073-24.303-34.843-50.687-46.868-78.414-31.991-73.827-26.967-171.961-26.907-172.931.111-2.061-.371 7.281 1.334-26.189L84.54 100.9c56.106-5.457 109.2-26.665 153.543-61.333l18.53-14.487 18.619 14.37c44.57 34.377 97.802 55.239 153.939 60.33l26.003 2.359 1.495 26.084c.238 4.035 5.467 99.688-25.828 173.202-41.088 96.522-116.196 152.136-157.309 176.695l-16.586 9.904c-10.377-6.537-54.801-28.771-100.666-75.786-4.1-4.201-10.824-4.283-15.025-.186-4.2 4.097-4.283 10.824-.186 15.025 32.945 33.77 66.455 56.516 88.769 69.653l21.759 12.803a10.629 10.629 0 0 0 10.836-.035l21.995-13.134c43.334-25.886 122.519-84.552 165.966-186.615 33.227-78.055 27.738-178.538 27.489-182.76z"/>
    <path style="fill:#283954" d="M412.97 217.745c5.809.721 11.126-3.423 11.843-9.247 3.767-30.598 3.856-57.418 3.573-70.682a10.625 10.625 0 0 0-9.416-10.33c-56.383-6.442-110.286-27.662-155.882-61.367a10.623 10.623 0 0 0-12.687.042c-45.928 34.413-100.382 56.064-157.476 62.612a10.625 10.625 0 0 0-9.411 10.319c-.207 9.234-1.257 91.956 24.886 152.277 37.611 86.759 105.667 137.555 142.888 160.113a10.623 10.623 0 0 0 11.061-.029c37.17-22.793 105.068-74.048 142.176-161.23 4.902-11.51 9.134-24.528 12.577-38.692 1.386-5.702-2.113-11.448-7.814-12.834-5.701-1.385-11.448 2.112-12.834 7.814-3.17 13.037-7.032 24.943-11.48 35.388-33.037 77.619-92.337 125.012-128.211 147.979-35.932-22.74-95.382-69.723-128.864-146.96-20.466-47.221-23.013-110.175-23.188-134.237 54.822-7.813 107.083-28.727 152.106-60.883 44.649 31.453 96.318 51.925 150.42 59.608 0 14.005-.632 35.099-3.512 58.498-.719 5.822 3.421 11.124 9.245 11.841z"/>
</svg></svg>