<?xml version="1.0" encoding="UTF-8"?><!DOCTYPE svg PUBLIC "-//W3C//DTD SVG 1.1//EN" "http://www.w3.org/Graphics/SVG/1.1/DTD/svg11.dtd"><svg viewBox="0 0 2000 2000" xmlns="http://www.w3.org/2000/svg" xmlns:xlink="http://www.w3.org/1999/xlink"><style>:root>svg{display:none}:root>svg:target{display:block}</style><svg data-name="Layer 1" viewBox="0 0 24 24" id="arrow-up" xmlns="http://www.w3.org/2000/svg">
    <path d="M12 0C5.383 0 0 5.383 0 12s5.383 12 12 12 12-5.383 12-12S18.617 0 12 0Zm4.361 12H13v5a1 1 0 0 1-2 0v-5H7.639c-.695 0-1.044-.852-.552-1.35l4.361-4.418a.773.773 0 0 1 1.104 0l4.361 4.418c.492.498.143 1.35-.552 1.35Z"/>
</svg><svg viewBox="0 0 24 24" id="close" xmlns="http://www.w3.org/2000/svg">
    <g fill="none" fill-rule="evenodd">
        <path d="M0 0h24v24H0z"/>
        <path stroke="#0C0310" stroke-width="2" stroke-linecap="round" d="M17 7 7 17M7 7l10 10"/>
    </g>
</svg><svg id="complex-protection" style="enable-background:new 0 0 512 512" version="1.1" viewBox="0 0 512 512" xml:space="preserve" xmlns="http://www.w3.org/2000/svg">
    <style>.st2{fill:#333}</style>
    <path d="M434 195.6v-.4c0-2.8-1.4-5.3-3.8-6.8l-170-105.9s-.1 0-.1-.1c-.3-.2-.5-.3-.8-.4 0 0-.1 0-.1-.1-.3-.1-.6-.2-1-.3h-.2c-.3-.1-.5-.1-.8-.2h-.2c-.3 0-.7-.1-1-.1s-.7 0-1 .1h-.2c-.3 0-.5.1-.8.2h-.2c-.3.1-.6.2-1 .3 0 0-.1 0-.1.1-.3.1-.5.3-.8.4 0 0-.1 0-.1.1l-170 105.9c-2.3 1.5-3.8 4-3.8 6.8v.4c.1 2.3 0 5.8-.1 10.2-.4 25.5-1.4 78.7 20.1 133.1 26.8 67.9 79.1 114.6 155.6 138.8.4.1.7.2 1.1.3h.2c.4 0 .7.1 1.1.1s.7 0 1.1-.1h.2c.4-.1.7-.1 1.1-.3 76.4-24.2 128.7-70.9 155.5-138.8 21.5-54.4 20.6-107.6 20.1-133.1v-10.2zM248 459C146.7 422.9 111.6 348.9 99.7 287.7H248V459zm167-187.3H264v-168l154 95.9c0 1.9.1 4 .1 6.4.3 14.8.7 38.4-3.1 65.7z" style="fill:#3b4652"/>
    <path d="m494 185.1-89.7-57.6V65c0-5.3-4.3-9.7-9.7-9.7H364c-5.3 0-9.7 4.3-9.7 9.7v30.5l-94-60.3c-2.5-1.6-5.6-1.7-8.2-.3-.3.2-.7.4-1 .6L18 185.2c-3.7 2.4-4.8 7.3-2.4 11.1 1.5 2.4 4.1 3.7 6.7 3.7 1.5 0 3-.4 4.3-1.3L256 51.4l229.3 147.2c3.7 2.4 8.7 1.3 11.1-2.4s1.3-8.7-2.4-11.1z" style="fill:#2b79c2"/>
</svg><svg class="dicon" viewBox="0 0 1024 1024" id="control" xmlns="http://www.w3.org/2000/svg">
    <path d="M880 112H144c-17.7 0-32 14.3-32 32v736c0 17.7 14.3 32 32 32h736c17.7 0 32-14.3 32-32V144c0-17.7-14.3-32-32-32zm-40 728H184V184h656v656zM340 683v77c0 4.4 3.6 8 8 8h48c4.4 0 8-3.6 8-8v-77c-10.1 3.3-20.8 5-32 5s-21.9-1.8-32-5zm64-198V264c0-4.4-3.6-8-8-8h-48c-4.4 0-8 3.6-8 8v221c10.1-3.3 20.8-5 32-5s21.9 1.8 32 5zm-64 198c10.1 3.3 20.8 5 32 5s21.9-1.8 32-5c41.8-13.5 72-52.7 72-99s-30.2-85.5-72-99c-10.1-3.3-20.8-5-32-5s-21.9 1.8-32 5c-41.8 13.5-72 52.7-72 99s30.2 85.5 72 99zm.1-115.7c.3-.6.7-1.2 1-1.8v-.1l1.2-1.8c.1-.2.2-.3.3-.5.3-.5.7-.9 1-1.4.1-.1.2-.3.3-.4.5-.6.9-1.1 1.4-1.6l.3-.3 1.2-1.2.4-.4c.5-.5 1-.9 1.6-1.4.6-.5 1.1-.9 1.7-1.3.2-.1.3-.2.5-.3.5-.3.9-.7 1.4-1 .1-.1.3-.2.4-.3.6-.4 1.2-.7 1.9-1.1.1-.1.3-.1.4-.2.5-.3 1-.5 1.6-.8l.6-.3c.7-.3 1.3-.6 2-.8.7-.3 1.4-.5 2.1-.7.2-.1.4-.1.6-.2.6-.2 1.1-.3 1.7-.4.2 0 .3-.1.5-.1.7-.2 1.5-.3 2.2-.4.2 0 .3 0 .5-.1.6-.1 1.2-.1 1.8-.2h.6c.8 0 1.5-.1 2.3-.1s1.5 0 2.3.1h.6c.6 0 1.2.1 1.8.2.2 0 .3 0 .5.1.7.1 1.5.2 2.2.4.2 0 .3.1.5.1.6.1 1.2.3 1.7.4.2.1.4.1.6.2.7.2 1.4.4 2.1.7.7.2 1.3.5 2 .8l.6.3c.5.2 1.1.5 1.6.8.1.1.3.1.4.2.6.3 1.3.7 1.9 1.1.1.1.3.2.4.3.5.3 1 .6 1.4 1 .2.1.3.2.5.3.6.4 1.2.9 1.7 1.3s1.1.9 1.6 1.4l.4.4 1.2 1.2.3.3c.5.5 1 1.1 1.4 1.6.1.1.2.3.3.4.4.4.7.9 1 1.4.1.2.2.3.3.5l1.2 1.8s0 .1.1.1a36.18 36.18 0 0 1 5.1 18.5c0 6-1.5 11.7-4.1 16.7-.3.6-.7 1.2-1 1.8 0 0 0 .1-.1.1l-1.2 1.8c-.1.2-.2.3-.3.5-.3.5-.7.9-1 1.4-.1.1-.2.3-.3.4-.5.6-.9 1.1-1.4 1.6l-.3.3-1.2 1.2-.4.4c-.5.5-1 .9-1.6 1.4-.6.5-1.1.9-1.7 1.3-.2.1-.3.2-.5.3-.5.3-.9.7-1.4 1-.1.1-.3.2-.4.3-.6.4-1.2.7-1.9 1.1-.1.1-.3.1-.4.2-.5.3-1 .5-1.6.8l-.6.3c-.7.3-1.3.6-2 .8-.7.3-1.4.5-2.1.7-.2.1-.4.1-.6.2-.6.2-1.1.3-1.7.4-.2 0-.3.1-.5.1-.7.2-1.5.3-2.2.4-.2 0-.3 0-.5.1-.6.1-1.2.1-1.8.2h-.6c-.8 0-1.5.1-2.3.1s-1.5 0-2.3-.1h-.6c-.6 0-1.2-.1-1.8-.2-.2 0-.3 0-.5-.1-.7-.1-1.5-.2-2.2-.4-.2 0-.3-.1-.5-.1-.6-.1-1.2-.3-1.7-.4-.2-.1-.4-.1-.6-.2-.7-.2-1.4-.4-2.1-.7-.7-.2-1.3-.5-2-.8l-.6-.3c-.5-.2-1.1-.5-1.6-.8-.1-.1-.3-.1-.4-.2-.6-.3-1.3-.7-1.9-1.1-.1-.1-.3-.2-.4-.3-.5-.3-1-.6-1.4-1-.2-.1-.3-.2-.5-.3-.6-.4-1.2-.9-1.7-1.3s-1.1-.9-1.6-1.4l-.4-.4-1.2-1.2-.3-.3c-.5-.5-1-1.1-1.4-1.6-.1-.1-.2-.3-.3-.4-.4-.4-.7-.9-1-1.4-.1-.2-.2-.3-.3-.5l-1.2-1.8v-.1c-.4-.6-.7-1.2-1-1.8-2.6-5-4.1-10.7-4.1-16.7s1.5-11.7 4.1-16.7zM620 539v221c0 4.4 3.6 8 8 8h48c4.4 0 8-3.6 8-8V539c-10.1 3.3-20.8 5-32 5s-21.9-1.8-32-5zm64-198v-77c0-4.4-3.6-8-8-8h-48c-4.4 0-8 3.6-8 8v77c10.1-3.3 20.8-5 32-5s21.9 1.8 32 5zm-64 198c10.1 3.3 20.8 5 32 5s21.9-1.8 32-5c41.8-13.5 72-52.7 72-99s-30.2-85.5-72-99c-10.1-3.3-20.8-5-32-5s-21.9 1.8-32 5c-41.8 13.5-72 52.7-72 99s30.2 85.5 72 99zm.1-115.7c.3-.6.7-1.2 1-1.8v-.1l1.2-1.8c.1-.2.2-.3.3-.5.3-.5.7-.9 1-1.4.1-.1.2-.3.3-.4.5-.6.9-1.1 1.4-1.6l.3-.3 1.2-1.2.4-.4c.5-.5 1-.9 1.6-1.4.6-.5 1.1-.9 1.7-1.3.2-.1.3-.2.5-.3.5-.3.9-.7 1.4-1 .1-.1.3-.2.4-.3.6-.4 1.2-.7 1.9-1.1.1-.1.3-.1.4-.2.5-.3 1-.5 1.6-.8l.6-.3c.7-.3 1.3-.6 2-.8.7-.3 1.4-.5 2.1-.7.2-.1.4-.1.6-.2.6-.2 1.1-.3 1.7-.4.2 0 .3-.1.5-.1.7-.2 1.5-.3 2.2-.4.2 0 .3 0 .5-.1.6-.1 1.2-.1 1.8-.2h.6c.8 0 1.5-.1 2.3-.1s1.5 0 2.3.1h.6c.6 0 1.2.1 1.8.2.2 0 .3 0 .5.1.7.1 1.5.2 2.2.4.2 0 .3.1.5.1.6.1 1.2.3 1.7.4.2.1.4.1.6.2.7.2 1.4.4 2.1.7.7.2 1.3.5 2 .8l.6.3c.5.2 1.1.5 1.6.8.1.1.3.1.4.2.6.3 1.3.7 1.9 1.1.1.1.3.2.4.3.5.3 1 .6 1.4 1 .2.1.3.2.5.3.6.4 1.2.9 1.7 1.3s1.1.9 1.6 1.4l.4.4 1.2 1.2.3.3c.5.5 1 1.1 1.4 1.6.1.1.2.3.3.4.4.4.7.9 1 1.4.1.2.2.3.3.5l1.2 1.8v.1a36.18 36.18 0 0 1 5.1 18.5c0 6-1.5 11.7-4.1 16.7-.3.6-.7 1.2-1 1.8v.1l-1.2 1.8c-.1.2-.2.3-.3.5-.3.5-.7.9-1 1.4-.1.1-.2.3-.3.4-.5.6-.9 1.1-1.4 1.6l-.3.3-1.2 1.2-.4.4c-.5.5-1 .9-1.6 1.4-.6.5-1.1.9-1.7 1.3-.2.1-.3.2-.5.3-.5.3-.9.7-1.4 1-.1.1-.3.2-.4.3-.6.4-1.2.7-1.9 1.1-.1.1-.3.1-.4.2-.5.3-1 .5-1.6.8l-.6.3c-.7.3-1.3.6-2 .8-.7.3-1.4.5-2.1.7-.2.1-.4.1-.6.2-.6.2-1.1.3-1.7.4-.2 0-.3.1-.5.1-.7.2-1.5.3-2.2.4-.2 0-.3 0-.5.1-.6.1-1.2.1-1.8.2h-.6c-.8 0-1.5.1-2.3.1s-1.5 0-2.3-.1h-.6c-.6 0-1.2-.1-1.8-.2-.2 0-.3 0-.5-.1-.7-.1-1.5-.2-2.2-.4-.2 0-.3-.1-.5-.1-.6-.1-1.2-.3-1.7-.4-.2-.1-.4-.1-.6-.2-.7-.2-1.4-.4-2.1-.7-.7-.2-1.3-.5-2-.8l-.6-.3c-.5-.2-1.1-.5-1.6-.8-.1-.1-.3-.1-.4-.2-.6-.3-1.3-.7-1.9-1.1-.1-.1-.3-.2-.4-.3-.5-.3-1-.6-1.4-1-.2-.1-.3-.2-.5-.3-.6-.4-1.2-.9-1.7-1.3s-1.1-.9-1.6-1.4l-.4-.4-1.2-1.2-.3-.3c-.5-.5-1-1.1-1.4-1.6-.1-.1-.2-.3-.3-.4-.4-.4-.7-.9-1-1.4-.1-.2-.2-.3-.3-.5l-1.2-1.8v-.1c-.4-.6-.7-1.2-1-1.8-2.6-5-4.1-10.7-4.1-16.7s1.5-11.7 4.1-16.7z"/>
</svg><svg viewBox="0 0 1920 1920" id="email" xmlns="http://www.w3.org/2000/svg">
    <path d="M1920 428.266v1189.54l-464.16-580.146-88.203 70.585 468.679 585.904H83.684l468.679-585.904-88.202-70.585L0 1617.805V428.265l959.944 832.441L1920 428.266ZM1919.932 226v52.627l-959.943 832.44L.045 278.628V226h1919.887Z" fill-rule="evenodd"/>
</svg><svg viewBox="0 0 16.933 16.933" id="emergency" xmlns="http://www.w3.org/2000/svg">
    <path d="M1.53 282.644a.32.32 0 0 0-.27.143c-.099.148-.06.349.089.448l1.937 1.291a.323.323 0 0 0 .357-.536L1.71 282.7a.324.324 0 0 0-.18-.056Zm13.876 0a.322.322 0 0 0-.18.055l-1.935 1.291a.323.323 0 0 0 .357.536l1.937-1.291a.323.323 0 0 0-.179-.59zm-9.118.646a1.56 1.56 0 0 0-1.532 1.267l-1.614 5.866c-.119.625.332 1.2.95 1.257H2.659c-.356 0-.645.49-.645 1.097v.549c0 .606.289 1.097.645 1.097h11.295c.356 0 .645-.491.645-1.097v-.55c0-.605-.289-1.096-.645-1.096h-1.434a1.064 1.064 0 0 0 .95-1.257l-1.372-5.866a1.56 1.56 0 0 0-1.533-1.267zm.848.967a.323.323 0 1 1 0 .646 1.233 1.233 0 0 0-1.223 1.03l-1.022 3.725a.323.323 0 0 1-.398.223.323.323 0 0 1-.226-.395l1.024-3.724-.004.027a1.887 1.887 0 0 1 1.849-1.532zm1.169 0h1.291a.323.323 0 1 1 0 .646H8.305a.323.323 0 0 1 0-.646zm-6.842 1.291a.323.323 0 0 0 0 .645h1.68a.323.323 0 0 0 0-.645zm12.328 0a.323.323 0 0 0 0 .645h1.68a.323.323 0 0 0 0-.645zm-5.486.323c.357 0 .646.29.646.646v5.163H7.66v-5.163c0-.357.289-.646.645-.646zm-5.5 1.29-.017.002a.319.319 0 0 0-.129.043l-1.527.881a.323.323 0 0 0-.119.44c.09.154.287.207.44.117l1.528-.88a.323.323 0 0 0-.175-.603zm11.32.002a.321.321 0 0 0-.172.6l1.527.881c.154.09.35.037.44-.116a.323.323 0 0 0-.119-.44l-1.526-.882a.322.322 0 0 0-.15-.043z" style="color:#000;font-style:normal;font-variant:normal;font-weight:400;font-stretch:normal;font-size:medium;line-height:normal;font-family:sans-serif;font-variant-ligatures:normal;font-variant-position:normal;font-variant-caps:normal;font-variant-numeric:normal;font-variant-alternates:normal;font-variant-east-asian:normal;font-feature-settings:normal;font-variation-settings:normal;text-indent:0;text-align:start;text-decoration:none;text-decoration-line:none;text-decoration-style:solid;text-decoration-color:#000;letter-spacing:normal;word-spacing:normal;text-transform:none;writing-mode:lr-tb;direction:ltr;text-orientation:mixed;dominant-baseline:auto;baseline-shift:baseline;text-anchor:start;white-space:normal;shape-padding:0;shape-margin:0;inline-size:0;clip-rule:nonzero;display:inline;overflow:visible;visibility:visible;isolation:auto;mix-blend-mode:normal;color-interpolation:sRGB;color-interpolation-filters:linearRGB;solid-color:#000;solid-opacity:1;vector-effect:none;fill:#000;fill-opacity:1;fill-rule:nonzero;stroke:none;stroke-width:.645399;stroke-linecap:round;stroke-linejoin:round;stroke-miterlimit:4;stroke-dasharray:none;stroke-dashoffset:0;stroke-opacity:1;color-rendering:auto;image-rendering:auto;shape-rendering:auto;text-rendering:auto;enable-background:accumulate;stop-color:#000" transform="translate(0 -280.067)"/>
</svg><svg viewBox="0 0 32 32" xml:space="preserve" id="facebook" xmlns="http://www.w3.org/2000/svg">
    <path d="M6 2h20c2.2 0 4 1.8 4 4v20c0 2.2-1.8 4-4 4H6c-2.2 0-4-1.8-4-4V6c0-2.2 1.8-4 4-4z"/>
    <path d="M13.2 16.1v9.7c0 .1.1.3.3.3h3.9c.2 0 .3-.1.3-.3V16h2.8c.1 0 .3-.1.3-.2l.3-3c0-.2-.1-.3-.3-.3h-3.1v-2.1c0-.5.4-.9 1-.9h2.2c.2 0 .3-.1.3-.3V6.3c-.2-.2-.3-.3-.5-.3h-3.6c-2.1 0-3.9 1.6-3.9 3.6v2.9h-1.9c-.2 0-.3.1-.3.3v3c0 .1.1.3.3.3h1.9z" style="fill-rule:evenodd;clip-rule:evenodd;fill:#fff"/>
</svg><svg stroke-miterlimit="10" style="fill-rule:nonzero;clip-rule:evenodd;stroke-linecap:round;stroke-linejoin:round" viewBox="0 0 3000 3000" id="instagram" xmlns="http://www.w3.org/2000/svg">
    <defs>
        <linearGradient gradientUnits="userSpaceOnUse" id="ha" x1="1500" x2="2805.81" y1="1500" y2="194.188">
            <stop offset="0" stop-color="#7e7e7e"/>
            <stop offset=".556" stop-color="#c8c8c8"/>
            <stop offset="1" stop-color="#7e7e7e"/>
        </linearGradient>
    </defs>
    <path d="M1500 1189.05c-171.72.07-310.87 139.31-310.83 311.03.04 171.71 139.27 310.89 310.99 310.87 171.71-.02 310.9-139.23 310.9-310.95-.13-171.72-139.34-310.88-311.06-310.95Zm727-239.007a314.806 314.806 0 0 0-177.28-177.275c-122.42-48.327-413.89-37.484-549.72-37.484-135.83 0-427.01-11.251-549.782 37.484a314.792 314.792 0 0 0-177.275 177.275c-48.269 122.417-37.484 414.187-37.484 549.897 0 135.71-10.785 427.13 37.717 549.96a314.76 314.76 0 0 0 177.275 177.27c122.419 48.33 413.899 37.49 549.779 37.49 135.89 0 426.96 11.25 549.73-37.49a314.725 314.725 0 0 0 177.27-177.27c48.68-122.42 37.49-414.19 37.49-549.9 0-135.71 11.19-427.07-37.49-549.898l-.23-.059ZM1500 1978.02c-264 0-478.02-214.02-478.02-478.02S1236 1021.98 1500 1021.98 1978.02 1236 1978.02 1500c.16 126.83-50.16 248.5-139.84 338.18s-211.35 140-338.18 139.84Zm497.72-864.52c-61.63.04-111.61-49.91-111.63-111.54-.02-61.625 49.93-111.6 111.56-111.611 61.63-.011 111.59 49.947 111.59 111.581.13 29.6-11.54 58.03-32.42 79.01a111.367 111.367 0 0 1-78.86 32.8l-.24-.24ZM2526 194.188H474.005c-154.539 0-279.817 125.278-279.817 279.817V2526c0 154.53 125.278 279.81 279.817 279.81H2526c154.53 0 279.81-125.28 279.81-279.81V474.005c0-154.539-125.28-279.817-279.81-279.817Zm-99.81 1690.562c-7.52 149.41-41.62 281.8-150.69 390.58-109.07 108.77-241.34 143.58-390.58 150.69-153.95 8.68-615.54 8.68-769.49 0-149.414-7.52-281.336-41.68-390.581-150.69-109.245-109.02-143.581-241.46-150.693-390.58-8.686-154.02-8.686-615.66 0-769.5 7.52-149.409 41.215-281.797 150.693-390.576 109.478-108.779 241.75-143.173 390.581-150.285 153.95-8.686 615.54-8.686 769.49 0 149.41 7.52 281.74 41.681 390.58 150.693 108.84 109.012 143.58 241.459 150.69 390.868 8.69 153.43 8.69 614.67 0 768.8Z" fill="url(#ha)"/>
</svg><svg viewBox="0 0 791.91 791.91" style="enable-background:new 0 0 791.91 791.91" xml:space="preserve" id="license" xmlns="http://www.w3.org/2000/svg">
    <path d="M532.659 322.978c0 9.671-7.701 17.371-17.371 17.371H220.336c-9.671 0-17.371-7.701-17.371-17.371s7.701-17.371 17.371-17.371h293.967c9.67-.985 18.356 6.716 18.356 17.371zM197.144 214.722v-78.349c0-15.491 12.536-29.012 29.012-29.012h279.461c15.491 0 29.012 12.536 29.012 29.012v78.349c0 15.491-12.536 29.012-29.012 29.012H226.156c-16.476 0-29.012-12.626-29.012-29.012zm35.728-6.805h265.94v-64.828h-265.94v64.828zM651.66 612.11l-.985 147.028c0 29.997-20.326 31.877-24.176 31.877-5.82 0-12.536-1.97-18.356-6.805l-48.353-40.652-46.383 38.682c-4.835 3.85-12.536 9.671-21.311 9.671-10.656 0-21.311-7.701-23.191-23.191v-30.892H145.837c-26.146 0-47.368-21.311-47.368-47.368V47.368C98.469 21.221 119.78 0 145.837 0h449.681c26.146 0 47.368 21.311 47.368 47.368v362.646c14.506 10.656 26.146 25.161 34.832 41.548 29.01 54.172 16.475 120.97-26.058 160.548zm-5.82-143.088c-7.701-14.506-19.341-27.042-32.862-35.817-2.865-1.97-5.82-2.865-7.701-4.835-.985 0-1.97-.985-2.865-.985-3.85-1.97-6.805-2.865-10.656-4.835h-.985c-20.326-6.805-43.517-6.805-63.844.985h-.985c-3.85 1.97-7.701 2.865-11.64 5.82-32.862 17.371-51.218 51.218-51.218 86.05 0 15.491 3.85 30.982 11.64 46.383 1.97 3.85 3.85 6.805 6.805 10.656.985.985.985 1.97 1.97 2.865 1.97 2.865 3.85 4.835 5.82 6.805l1.97 1.97c2.865 2.865 5.82 5.82 8.686 7.701l.985.985c2.865 1.97 4.835 3.85 7.701 5.82l.985.985c.985 0 .985.985 1.97.985s1.97.985 2.865.985c.985.985 2.865.985 3.85 1.97 22.206 10.656 47.368 12.536 71.544 5.82.985 0 2.865-.985 3.85-.985.985 0 .985 0 1.97-.985.985 0 1.97-.985 2.865-.985 2.865-.985 5.82-2.865 8.686-3.85 2.865-1.97 5.82-2.865 7.701-4.835 2.865-1.97 4.835-3.85 7.701-5.82 34.832-29.998 46.383-81.306 23.192-122.853zM468.905 700.13v-68.679H220.336c-9.671 0-17.371-7.701-17.371-17.371 0-9.671 7.701-17.371 17.371-17.371h233.078c-.985-1.97-1.97-2.865-3.85-4.835-.985-.985-1.97-1.97-1.97-2.865-1.97-1.97-2.865-4.835-4.835-7.701l-.985-.985c-1.97-3.85-3.85-7.701-5.82-12.536-3.85-10.656-6.805-21.311-8.686-31.877H220.336c-9.671 0-17.371-7.701-17.371-17.371 0-9.671 7.701-17.371 17.371-17.371h206.932c.985-6.805 1.97-13.521 3.85-20.326 4.835-14.506 11.64-28.027 20.326-39.667H220.336c-9.671 0-17.371-7.701-17.371-17.371s7.701-17.371 17.371-17.371h269.79c1.97-.985 3.85-1.97 5.82-3.85 3.85-1.97 7.701-3.85 12.536-5.82h.985c15.491-6.805 32.862-9.671 50.323-9.671 16.476 0 31.877 2.865 46.383 8.686V47.368c0-6.805-4.835-11.64-11.64-11.64H145.837c-6.805 0-11.64 4.835-11.64 11.64v640.226c0 6.805 4.835 11.64 11.64 11.64h322.978v.895h.09zm146.938-62.859c-.985 0-.985 0-1.97.985 0 0-.985 0-.985.985h-.985c-1.97.985-3.85.985-5.82 1.97-.985 0-.985 0-1.97.985-.985 0-1.97.985-2.865.985h-1.97c-.985 0-.985 0-1.97.985h-.985c-.985 0-1.97 0-2.865.985-.985 0-2.865.985-4.835.985-.985 0-2.865.985-3.85.985-1.97 0-3.85.985-6.805.985-.985 0-2.865 0-3.85.985h-16.566c-2.865 0-6.805 0-9.671-.985h-1.97c-12.536-.985-25.161-4.835-35.817-9.671-.985-.985-2.865-.985-3.85-1.97l-.985 105.391 43.517-36.712c2.865-2.865 7.701-3.85 11.641-3.85s8.686.985 11.641 3.85l43.517 36.712.268-104.585z"/>
</svg><svg viewBox="0 0 24 24" fill="none" id="phone" xmlns="http://www.w3.org/2000/svg">
    <path d="m16.556 12.906-.455.453s-1.083 1.076-4.038-1.862-1.872-4.014-1.872-4.014l.286-.286c.707-.702.774-1.83.157-2.654L9.374 2.86C8.61 1.84 7.135 1.705 6.26 2.575l-1.57 1.56c-.433.432-.723.99-.688 1.61.09 1.587.808 5 4.812 8.982 4.247 4.222 8.232 4.39 9.861 4.238.516-.048.964-.31 1.325-.67l1.42-1.412c.96-.953.69-2.588-.538-3.255l-1.91-1.039c-.806-.438-1.787-.309-2.417.317Z" fill="#1C274C"/>
</svg><svg viewBox="0 0 24 24" id="shield" xmlns="http://www.w3.org/2000/svg">
    <path d="M20 4c-3.609 0-7.363-2.772-7.4-2.8a1 1 0 0 0-1.2 0C11.363 1.228 7.609 4 4 4a1 1 0 0 0-1 1c0 .6.1 14.73 8.649 17.937a1.009 1.009 0 0 0 .7 0C20.9 19.73 21 5.6 21 5a1 1 0 0 0-1-1Zm-8 16.921C6.2 18.4 5.205 8.973 5.035 5.943A16.968 16.968 0 0 0 12 3.216a16.968 16.968 0 0 0 6.965 2.727C18.8 8.973 17.8 18.4 12 20.921Z"/>
    <path d="M8 11a4 4 0 1 0 4-4 4 4 0 0 0-4 4Zm6 0a2 2 0 1 1-2-2 2 2 0 0 1 2 2Z"/>
</svg></svg>