<?xml version="1.0" encoding="UTF-8"?><!DOCTYPE svg PUBLIC "-//W3C//DTD SVG 1.1//EN" "http://www.w3.org/Graphics/SVG/1.1/DTD/svg11.dtd"><svg viewBox="0 0 2000 2000" xmlns="http://www.w3.org/2000/svg" xmlns:xlink="http://www.w3.org/1999/xlink"><style>:root>svg{display:none}:root>svg:target{display:block}</style><svg data-name="Layer 1" viewBox="0 0 24 24" id="arrow-up" xmlns="http://www.w3.org/2000/svg">
    <path d="M12 0C5.383 0 0 5.383 0 12s5.383 12 12 12 12-5.383 12-12S18.617 0 12 0Zm4.361 12H13v5a1 1 0 0 1-2 0v-5H7.639c-.695 0-1.044-.852-.552-1.35l4.361-4.418a.773.773 0 0 1 1.104 0l4.361 4.418c.492.498.143 1.35-.552 1.35Z"/>
</svg><svg viewBox="0 0 24 24" id="close" xmlns="http://www.w3.org/2000/svg">
    <g fill="none" fill-rule="evenodd">
        <path d="M0 0h24v24H0z"/>
        <path stroke="#0C0310" stroke-width="2" stroke-linecap="round" d="M17 7 7 17M7 7l10 10"/>
    </g>
</svg><svg viewBox="0 0 24 24" fill="none" id="cloud" xmlns="http://www.w3.org/2000/svg">
    <path fill-rule="evenodd" clip-rule="evenodd" d="M11.47 15.47a.75.75 0 0 1 1.06 0l2 2a.75.75 0 1 1-1.06 1.06l-.72-.72V22a.75.75 0 0 1-1.5 0v-4.19l-.72.72a.75.75 0 1 1-1.06-1.06l2-2Z" fill="#1C274C"/>
    <path d="M12.476 3.75c-2.75 0-4.964 2.2-4.964 4.897 0 .462.065.909.185 1.331.497.144.963.36 1.383.64a.75.75 0 1 1-.827 1.25 3.54 3.54 0 0 0-1.967-.589c-1.961 0-3.536 1.57-3.536 3.486 0 1.916 1.575 3.485 3.536 3.485a.75.75 0 0 1 0 1.5c-2.773 0-5.036-2.224-5.036-4.985 0-2.705 2.17-4.893 4.864-4.983a6.366 6.366 0 0 1-.102-1.135c0-3.541 2.902-6.397 6.464-6.397 3.158 0 5.796 2.244 6.355 5.221 2.3.977 3.919 3.238 3.919 5.882 0 3.074-2.188 5.631-5.093 6.253a.75.75 0 0 1-.314-1.467c2.24-.48 3.907-2.446 3.907-4.786 0-2.137-1.39-3.962-3.338-4.628a5.018 5.018 0 0 0-1.626-.27c-.583 0-1.14.1-1.658.28a.75.75 0 0 1-.494-1.416 6.517 6.517 0 0 1 3.024-.305 4.962 4.962 0 0 0-4.682-3.264Z" fill="#1C274C"/>
</svg><svg id="complex-protection" style="enable-background:new 0 0 512 512" version="1.1" viewBox="0 0 512 512" xml:space="preserve" xmlns="http://www.w3.org/2000/svg">
    <style>.st2{fill:#333}</style>
    <path d="M434 195.6v-.4c0-2.8-1.4-5.3-3.8-6.8l-170-105.9s-.1 0-.1-.1c-.3-.2-.5-.3-.8-.4 0 0-.1 0-.1-.1-.3-.1-.6-.2-1-.3h-.2c-.3-.1-.5-.1-.8-.2h-.2c-.3 0-.7-.1-1-.1s-.7 0-1 .1h-.2c-.3 0-.5.1-.8.2h-.2c-.3.1-.6.2-1 .3 0 0-.1 0-.1.1-.3.1-.5.3-.8.4 0 0-.1 0-.1.1l-170 105.9c-2.3 1.5-3.8 4-3.8 6.8v.4c.1 2.3 0 5.8-.1 10.2-.4 25.5-1.4 78.7 20.1 133.1 26.8 67.9 79.1 114.6 155.6 138.8.4.1.7.2 1.1.3h.2c.4 0 .7.1 1.1.1s.7 0 1.1-.1h.2c.4-.1.7-.1 1.1-.3 76.4-24.2 128.7-70.9 155.5-138.8 21.5-54.4 20.6-107.6 20.1-133.1v-10.2zM248 459C146.7 422.9 111.6 348.9 99.7 287.7H248V459zm167-187.3H264v-168l154 95.9c0 1.9.1 4 .1 6.4.3 14.8.7 38.4-3.1 65.7z" style="fill:#ea6211"/>
    <path d="m494 185.1-89.7-57.6V65c0-5.3-4.3-9.7-9.7-9.7H364c-5.3 0-9.7 4.3-9.7 9.7v30.5l-94-60.3c-2.5-1.6-5.6-1.7-8.2-.3-.3.2-.7.4-1 .6L18 185.2c-3.7 2.4-4.8 7.3-2.4 11.1 1.5 2.4 4.1 3.7 6.7 3.7 1.5 0 3-.4 4.3-1.3L256 51.4l229.3 147.2c3.7 2.4 8.7 1.3 11.1-2.4s1.3-8.7-2.4-11.1z" style="fill:#2b79c2"/>
</svg><svg viewBox="-249 151 100 100" style="enable-background:new -249 151 100 100" xml:space="preserve" fill="#ea6211" stroke="#ea6211" stroke-width=".01" id="control" xmlns="http://www.w3.org/2000/svg">
    <path d="M-241.9 154.3v93.2c0 1.4 1.1 2.5 2.5 2.5h80.8c1.4 0 2.5-1.1 2.5-2.5v-93.2c0-1.4-1.1-2.5-2.5-2.5h-80.8c-1.4 0-2.5 1.2-2.5 2.5zm80.8 90.7h-75.8v-88.2h75.8V245z"/>
    <path d="M-218.2 185.1h12.7v-6.6h31.1c1.4 0 2.5-1.1 2.5-2.5s-1.1-2.5-2.5-2.5h-31.1v-5.2c0-1.4-1.1-2.5-2.5-2.5h-7.7c-1.4 0-2.5 1.1-2.5 2.5v5.2h-5.4c-1.4 0-2.5 1.1-2.5 2.5s1.1 2.5 2.5 2.5h5.4v6.6zm5-6.7v-7.7h2.7v9.3h-2.7v-1.6zM-186.7 211.1h7.7c1.4 0 2.5-1.1 2.5-2.5v-5.1h2.1c1.4 0 2.5-1.1 2.5-2.5s-1.1-2.5-2.5-2.5h-2.1v-4.2c0-1.4-1.1-2.5-2.5-2.5h-7.7c-1.4 0-2.5 1.1-2.5 2.5v4.2h-34.4c-1.4 0-2.5 1.1-2.5 2.5s1.1 2.5 2.5 2.5h34.4v5.1c0 1.4 1.2 2.5 2.5 2.5zm2.5-7.7v-6.7h2.7v9.3h-2.7v-2.6zM-205.7 236.1h7.7c1.4 0 2.5-1.1 2.5-2.5v-5.1h21.1c1.4 0 2.5-1.1 2.5-2.5s-1.1-2.5-2.5-2.5h-21.1v-4.2c0-1.4-1.1-2.5-2.5-2.5h-7.7c-1.4 0-2.5 1.1-2.5 2.5v4.2h-15.4c-1.4 0-2.5 1.1-2.5 2.5s1.1 2.5 2.5 2.5h15.4v5.1c0 1.4 1.2 2.5 2.5 2.5zm2.5-7.7v-6.7h2.7v9.3h-2.7v-2.6z"/>
</svg><svg viewBox="0 0 1920 1920" id="email" xmlns="http://www.w3.org/2000/svg">
    <path d="M1920 428.266v1189.54l-464.16-580.146-88.203 70.585 468.679 585.904H83.684l468.679-585.904-88.202-70.585L0 1617.805V428.265l959.944 832.441L1920 428.266ZM1919.932 226v52.627l-959.943 832.44L.045 278.628V226h1919.887Z" fill-rule="evenodd"/>
</svg><svg viewBox="0 0 16.933 16.933" id="emergency" xmlns="http://www.w3.org/2000/svg">
    <path d="M1.528 282.284a.32.32 0 0 0-.267.144c-.099.148-.06.348.089.447l1.936 1.291a.323.323 0 0 0 .358-.538l-1.937-1.289a.322.322 0 0 0-.179-.055zm13.878 0a.322.322 0 0 0-.181.055l-1.937 1.29c-.148.099-.187.299-.088.447.098.149.3.19.448.09l1.937-1.29a.323.323 0 0 0-.18-.591zm-8.956.236c-.906 0-1.682.663-1.849 1.565l.005-.023-1.615 6.11-.005.023c-.07.378.023.743.215 1.039h-.544c-.269 0-.562.11-.824.355-.262.244-.464.636-.464 1.145v.548c0 .504.19.897.45 1.143.26.247.563.358.838.358h11.618c.275 0 .58-.111.84-.358.26-.246.45-.639.45-1.143v-.548c0-.509-.202-.901-.464-1.145s-.558-.355-.826-.355h-.541c.192-.296.284-.661.214-1.039l-.005-.012-1.367-6.098c-.167-.902-.945-1.565-1.85-1.565zm0 .646h4.275a1.245 1.245 0 0 1 1.218 1.05l1.37 6.096c.09.488-.263.922-.732.922H9.434v-2.906h.646c.352 0 .645-.29.645-.643v-.97a.65.65 0 0 0-.645-.645h-.654a.969.969 0 0 0-.959-.882.97.97 0 0 0-.96.883l-.01-.001h-.642a.65.65 0 0 0-.646.645v.97a.65.65 0 0 0 .646.643h.643v2.906H4.353c-.469 0-.821-.434-.73-.922l1.607-6.084a.248.248 0 0 0 .005-.023c.113-.61.623-1.04 1.215-1.04zm.726.646c-.902 0-1.68.643-1.848 1.529l-.736 2.727a.323.323 0 0 0 .624.17l.74-2.752.005-.024a1.233 1.233 0 0 1 1.215-1.005.323.323 0 0 0 0-.645zm1.129 0a.323.323 0 0 0 0 .645h.484a.323.323 0 1 0 0-.645zm-6.84 1.376a.323.323 0 0 0 0 .646h1.678a.323.323 0 0 0 0-.646zm12.326 0a.323.323 0 0 0 0 .646h1.68a.323.323 0 0 0 0-.646zm-5.324.646c.182 0 .322.14.322.321v5.079h-.646v-5.079c0-.182.142-.321.324-.321zm-1.612.881h.643v.97h-.643Zm2.58 0h.645v.97h-.646Zm4.662.086a.324.324 0 0 0-.144.602l1.527.882a.323.323 0 1 0 .322-.558l-1.527-.88a.323.323 0 0 0-.178-.046zm-11.29 0-.019.002a.329.329 0 0 0-.13.043l-1.528.88a.323.323 0 0 0 .324.558l1.527-.881a.323.323 0 0 0-.175-.601zm-.15 5.078c3.877.005 7.74 0 11.618 0 .053 0 .244.05.385.18.141.132.26.328.26.675v.548c0 .35-.115.548-.25.677a.66.66 0 0 1-.395.178H2.657a.66.66 0 0 1-.395-.178c-.135-.129-.247-.327-.247-.677v-.548c0-.347.118-.543.26-.674a.71.71 0 0 1 .382-.181z" style="color:#000;font-style:normal;font-variant:normal;font-weight:400;font-stretch:normal;font-size:medium;line-height:normal;font-family:sans-serif;font-variant-ligatures:normal;font-variant-position:normal;font-variant-caps:normal;font-variant-numeric:normal;font-variant-alternates:normal;font-variant-east-asian:normal;font-feature-settings:normal;font-variation-settings:normal;text-indent:0;text-align:start;text-decoration:none;text-decoration-line:none;text-decoration-style:solid;text-decoration-color:#000;letter-spacing:normal;word-spacing:normal;text-transform:none;writing-mode:lr-tb;direction:ltr;text-orientation:mixed;dominant-baseline:auto;baseline-shift:baseline;text-anchor:start;white-space:normal;shape-padding:0;shape-margin:0;inline-size:0;clip-rule:nonzero;display:inline;overflow:visible;visibility:visible;opacity:1;isolation:auto;mix-blend-mode:normal;color-interpolation:sRGB;color-interpolation-filters:linearRGB;solid-color:#000;solid-opacity:1;vector-effect:none;fill:#ea6211;fill-opacity:1;fill-rule:nonzero;stroke:none;stroke-width:.645365;stroke-linecap:round;stroke-linejoin:round;stroke-miterlimit:4;stroke-dasharray:none;stroke-dashoffset:0;stroke-opacity:1;color-rendering:auto;image-rendering:auto;shape-rendering:auto;text-rendering:auto;enable-background:accumulate;stop-color:#000;stop-opacity:1" transform="translate(0 -280.067)"/>
</svg><svg viewBox="0 0 32 32" xml:space="preserve" id="facebook" xmlns="http://www.w3.org/2000/svg">
    <path d="M6 2h20c2.2 0 4 1.8 4 4v20c0 2.2-1.8 4-4 4H6c-2.2 0-4-1.8-4-4V6c0-2.2 1.8-4 4-4z"/>
    <path d="M13.2 16.1v9.7c0 .1.1.3.3.3h3.9c.2 0 .3-.1.3-.3V16h2.8c.1 0 .3-.1.3-.2l.3-3c0-.2-.1-.3-.3-.3h-3.1v-2.1c0-.5.4-.9 1-.9h2.2c.2 0 .3-.1.3-.3V6.3c-.2-.2-.3-.3-.5-.3h-3.6c-2.1 0-3.9 1.6-3.9 3.6v2.9h-1.9c-.2 0-.3.1-.3.3v3c0 .1.1.3.3.3h1.9z" style="fill-rule:evenodd;clip-rule:evenodd;fill:#fff"/>
</svg><svg stroke-miterlimit="10" style="fill-rule:nonzero;clip-rule:evenodd;stroke-linecap:round;stroke-linejoin:round" viewBox="0 0 3000 3000" id="instagram" xmlns="http://www.w3.org/2000/svg">
    <defs>
        <linearGradient gradientUnits="userSpaceOnUse" id="ia" x1="1500" x2="2805.81" y1="1500" y2="194.188">
            <stop offset="0" stop-color="#7e7e7e"/>
            <stop offset=".556" stop-color="#c8c8c8"/>
            <stop offset="1" stop-color="#7e7e7e"/>
        </linearGradient>
    </defs>
    <path d="M1500 1189.05c-171.72.07-310.87 139.31-310.83 311.03.04 171.71 139.27 310.89 310.99 310.87 171.71-.02 310.9-139.23 310.9-310.95-.13-171.72-139.34-310.88-311.06-310.95Zm727-239.007a314.806 314.806 0 0 0-177.28-177.275c-122.42-48.327-413.89-37.484-549.72-37.484-135.83 0-427.01-11.251-549.782 37.484a314.792 314.792 0 0 0-177.275 177.275c-48.269 122.417-37.484 414.187-37.484 549.897 0 135.71-10.785 427.13 37.717 549.96a314.76 314.76 0 0 0 177.275 177.27c122.419 48.33 413.899 37.49 549.779 37.49 135.89 0 426.96 11.25 549.73-37.49a314.725 314.725 0 0 0 177.27-177.27c48.68-122.42 37.49-414.19 37.49-549.9 0-135.71 11.19-427.07-37.49-549.898l-.23-.059ZM1500 1978.02c-264 0-478.02-214.02-478.02-478.02S1236 1021.98 1500 1021.98 1978.02 1236 1978.02 1500c.16 126.83-50.16 248.5-139.84 338.18s-211.35 140-338.18 139.84Zm497.72-864.52c-61.63.04-111.61-49.91-111.63-111.54-.02-61.625 49.93-111.6 111.56-111.611 61.63-.011 111.59 49.947 111.59 111.581.13 29.6-11.54 58.03-32.42 79.01a111.367 111.367 0 0 1-78.86 32.8l-.24-.24ZM2526 194.188H474.005c-154.539 0-279.817 125.278-279.817 279.817V2526c0 154.53 125.278 279.81 279.817 279.81H2526c154.53 0 279.81-125.28 279.81-279.81V474.005c0-154.539-125.28-279.817-279.81-279.817Zm-99.81 1690.562c-7.52 149.41-41.62 281.8-150.69 390.58-109.07 108.77-241.34 143.58-390.58 150.69-153.95 8.68-615.54 8.68-769.49 0-149.414-7.52-281.336-41.68-390.581-150.69-109.245-109.02-143.581-241.46-150.693-390.58-8.686-154.02-8.686-615.66 0-769.5 7.52-149.409 41.215-281.797 150.693-390.576 109.478-108.779 241.75-143.173 390.581-150.285 153.95-8.686 615.54-8.686 769.49 0 149.41 7.52 281.74 41.681 390.58 150.693 108.84 109.012 143.58 241.459 150.69 390.868 8.69 153.43 8.69 614.67 0 768.8Z" fill="url(#ia)"/>
</svg><svg viewBox="0 0 24 24" fill="none" id="license" xmlns="http://www.w3.org/2000/svg">
    <path fill-rule="evenodd" clip-rule="evenodd" d="M10.594 2.319a3.261 3.261 0 0 1 2.812 0c.387.185.74.487 1.231.905l.078.066c.238.203.313.265.389.316.193.13.41.219.637.264.09.018.187.027.499.051l.101.008c.642.051 1.106.088 1.51.23.93.33 1.66 1.06 1.99 1.99.142.404.178.868.23 1.51l.008.101c.024.312.033.41.051.499.045.228.135.445.264.638.051.075.113.15.316.388l.066.078c.419.49.72.844.905 1.23.425.89.425 1.924 0 2.813-.184.387-.486.74-.905 1.231l-.066.078a4.758 4.758 0 0 0-.316.389c-.13.193-.219.41-.264.637-.018.09-.026.187-.051.499l-.009.101c-.05.642-.087 1.106-.23 1.51a3.26 3.26 0 0 1-1.989 1.99c-.404.142-.868.178-1.51.23l-.101.008a4.757 4.757 0 0 0-.499.051 1.755 1.755 0 0 0-.637.264c-.076.051-.151.113-.39.316l-.077.066c-.49.419-.844.72-1.23.905a3.261 3.261 0 0 1-2.813 0c-.387-.184-.74-.486-1.231-.905a95.175 95.175 0 0 0-.078-.066 4.779 4.779 0 0 0-.388-.316c-.193-.13-.41-.219-.638-.264a4.759 4.759 0 0 0-.499-.051l-.101-.009c-.642-.05-1.106-.087-1.51-.23a3.261 3.261 0 0 1-1.99-1.989c-.142-.404-.179-.868-.23-1.51l-.008-.101a4.76 4.76 0 0 0-.051-.499 1.756 1.756 0 0 0-.264-.637 4.74 4.74 0 0 0-.316-.39l-.066-.077c-.418-.49-.72-.844-.905-1.23a3.261 3.261 0 0 1 0-2.813c.185-.387.487-.74.905-1.231l.066-.078a4.76 4.76 0 0 0 .316-.388c.13-.193.219-.41.264-.638.018-.09.027-.187.051-.499l.008-.101c.051-.642.088-1.106.23-1.51a3.261 3.261 0 0 1 1.99-1.99c.404-.142.868-.179 1.51-.23l.101-.008c.312-.024.41-.033.499-.051.228-.045.445-.135.638-.264.075-.051.15-.113.388-.316l.078-.066c.49-.418.844-.72 1.23-.905Zm2.163 1.358a1.756 1.756 0 0 0-1.514 0c-.185.088-.38.247-.981.758l-.03.025c-.197.168-.34.291-.497.396-.359.24-.761.407-1.185.49-.185.037-.373.052-.632.073l-.038.003c-.787.063-1.036.089-1.23.157-.5.177-.894.57-1.07 1.071-.07.194-.095.443-.158 1.23l-.003.038c-.02.259-.036.447-.072.632-.084.424-.25.826-.49 1.185-.106.157-.229.3-.397.498l-.025.029c-.511.6-.67.796-.758.98a1.756 1.756 0 0 0 0 1.515c.088.185.247.38.758.981l.025.03c.168.197.291.34.396.497.24.359.407.761.49 1.184.037.186.052.374.073.633l.003.038c.063.787.089 1.036.157 1.23.177.5.57.894 1.071 1.07.194.07.443.095 1.23.158l.038.003c.259.02.447.036.632.072.424.084.826.25 1.185.49.157.106.3.229.498.397l.029.025c.6.511.796.67.98.758a1.756 1.756 0 0 0 1.515 0c.185-.088.38-.247.981-.758l.03-.025c.197-.168.34-.291.497-.396.359-.24.761-.407 1.184-.49a5.53 5.53 0 0 1 .633-.073l.038-.003c.787-.063 1.036-.089 1.23-.157.5-.177.894-.57 1.07-1.071.07-.194.095-.444.158-1.23l.003-.038a5.53 5.53 0 0 1 .072-.633c.084-.423.25-.825.49-1.184.106-.157.229-.3.397-.498l.025-.029c.511-.6.67-.796.758-.98a1.756 1.756 0 0 0 0-1.515c-.088-.185-.247-.38-.758-.981l-.025-.03c-.168-.197-.291-.34-.396-.497a3.262 3.262 0 0 1-.49-1.185 5.531 5.531 0 0 1-.073-.632l-.003-.038c-.063-.787-.089-1.036-.157-1.23-.177-.5-.57-.894-1.071-1.07-.194-.07-.444-.095-1.23-.158l-.038-.003c-.259-.02-.447-.036-.633-.072a3.262 3.262 0 0 1-1.184-.49c-.157-.106-.3-.229-.498-.397l-.029-.025c-.6-.511-.796-.67-.98-.758Zm3.287 5.282a.752.752 0 0 1 0 1.065l-5.017 5.017a.753.753 0 0 1-1.064 0l-2.007-2.007A.753.753 0 1 1 9.02 11.97l1.475 1.474L14.98 8.96a.753.753 0 0 1 1.064 0Z" fill="#1C274C"/>
</svg><svg fill="#ea6211" viewBox="0 0 32 32" id="licenses" xmlns="http://www.w3.org/2000/svg">
    <path d="M8 14h6v2H8zM8 6h12v2H8zM8 10h12v2H8zM8 24h6v2H8zM30 24v-2h-2.101a4.968 4.968 0 0 0-.732-1.753l1.49-1.49-1.414-1.414-1.49 1.49A4.968 4.968 0 0 0 24 18.101V16h-2v2.101a4.968 4.968 0 0 0-1.753.732l-1.49-1.49-1.414 1.414 1.49 1.49A4.968 4.968 0 0 0 18.101 22H16v2h2.101a4.968 4.968 0 0 0 .732 1.753l-1.49 1.49 1.414 1.414 1.49-1.49a4.968 4.968 0 0 0 1.753.732V30h2v-2.101a4.968 4.968 0 0 0 1.753-.732l1.49 1.49 1.414-1.414-1.49-1.49A4.968 4.968 0 0 0 27.899 24Zm-7 2a3 3 0 1 1 3-3 3.003 3.003 0 0 1-3 3Z"/>
    <path d="M14 30H6a2.002 2.002 0 0 1-2-2V4a2.002 2.002 0 0 1 2-2h16a2.002 2.002 0 0 1 2 2v10h-2V4H6v24h8Z"/>
    <path data-name="&lt;Transparent Rectangle&gt;" style="fill:none" d="M0 0h32v32H0z"/>
</svg><svg viewBox="0 0 24 24" fill="none" id="phone" xmlns="http://www.w3.org/2000/svg">
    <path d="m16.556 12.906-.455.453s-1.083 1.076-4.038-1.862-1.872-4.014-1.872-4.014l.286-.286c.707-.702.774-1.83.157-2.654L9.374 2.86C8.61 1.84 7.135 1.705 6.26 2.575l-1.57 1.56c-.433.432-.723.99-.688 1.61.09 1.587.808 5 4.812 8.982 4.247 4.222 8.232 4.39 9.861 4.238.516-.048.964-.31 1.325-.67l1.42-1.412c.96-.953.69-2.588-.538-3.255l-1.91-1.039c-.806-.438-1.787-.309-2.417.317Z" fill="#1C274C"/>
</svg><svg viewBox="0 0 24 24" fill="none" id="protection" xmlns="http://www.w3.org/2000/svg">
    <path fill-rule="evenodd" clip-rule="evenodd" d="M6.25 12a5.75 5.75 0 1 1 11.5 0 5.75 5.75 0 0 1-11.5 0Zm5.694-4.232A.128.128 0 0 1 12 7.75c.004 0 .021 0 .056.018a.652.652 0 0 1 .17.134c.153.158.328.431.492.841.162.404.296.901.39 1.466.055.334.095.683.118 1.041h-2.452c.023-.358.063-.707.118-1.04a7.148 7.148 0 0 1 .39-1.467c.164-.41.34-.683.492-.841a.652.652 0 0 1 .17-.134ZM9.27 11.25c.025-.439.073-.871.141-1.286a8.9 8.9 0 0 1 .415-1.617 4.25 4.25 0 0 0-2.01 2.903H9.27Zm-1.454 1.5H9.27c.025.439.073.871.141 1.286a8.9 8.9 0 0 0 .415 1.617 4.25 4.25 0 0 1-2.01-2.903Zm8.366-1.5a4.247 4.247 0 0 0-2.01-2.903c.18.486.318 1.034.415 1.617.068.415.116.847.14 1.286h1.455Zm-1.454 1.5h1.454a4.247 4.247 0 0 1-2.01 2.903c.18-.486.318-1.034.415-1.617.068-.415.116-.847.14-1.286Zm-1.503 0a10.56 10.56 0 0 1-.118 1.04 7.148 7.148 0 0 1-.39 1.467c-.164.41-.34.683-.492.841a.652.652 0 0 1-.17.134.128.128 0 0 1-.056.018c-.004 0-.021 0-.056-.018a.652.652 0 0 1-.17-.134c-.153-.158-.328-.431-.492-.841a7.148 7.148 0 0 1-.39-1.466 10.56 10.56 0 0 1-.118-1.041h2.452Z" fill="#1C274C"/>
    <path fill-rule="evenodd" clip-rule="evenodd" d="M12 1.25c-.938 0-1.833.307-3.277.801l-.727.25c-1.481.506-2.625.898-3.443 1.23-.412.167-.767.33-1.052.495-.275.16-.55.359-.737.626-.185.263-.281.587-.341.9-.063.324-.1.713-.125 1.16-.048.886-.048 2.102-.048 3.678v1.601c0 6.101 4.608 9.026 7.348 10.224l.027.011c.34.149.66.288 1.027.382.387.1.799.142 1.348.142.55 0 .96-.042 1.348-.142.367-.094.687-.233 1.026-.382l.028-.011c2.74-1.198 7.348-4.123 7.348-10.224V10.39c0-1.576 0-2.792-.048-3.679a8.85 8.85 0 0 0-.125-1.16c-.06-.312-.156-.636-.34-.9-.188-.266-.463-.465-.738-.625a8.554 8.554 0 0 0-1.052-.495c-.818-.332-1.962-.724-3.443-1.23l-.727-.25c-1.444-.494-2.34-.801-3.277-.801ZM9.08 3.514c1.615-.552 2.262-.764 2.92-.764.658 0 1.305.212 2.92.764l.572.196c1.513.518 2.616.896 3.39 1.21.387.158.667.29.864.404.097.056.164.102.208.139.038.03.053.048.055.05a.408.408 0 0 1 .032.074c.02.056.042.136.063.248.044.227.077.538.1.958.046.841.046 2.015.046 3.624v1.574c0 5.175-3.87 7.723-6.449 8.849-.371.162-.586.254-.825.315-.228.059-.506.095-.976.095s-.748-.036-.976-.095c-.24-.06-.454-.153-.825-.315-2.58-1.127-6.449-3.674-6.449-8.849v-1.574c0-1.609 0-2.783.046-3.624.023-.42.056-.731.1-.958.021-.112.043-.192.063-.248.018-.05.03-.07.032-.074a.386.386 0 0 1 .055-.05c.044-.037.111-.083.208-.14.197-.114.477-.245.864-.402.774-.315 1.877-.693 3.39-1.21l.573-.197Z" fill="#1C274C"/>
</svg><svg fill="#ea6211" viewBox="0 0 256 256" xml:space="preserve" id="protection-umbrella" xmlns="http://www.w3.org/2000/svg">
    <path d="m100.4 113.6 2 1.3 2.3-.8c11-4.1 24-5.2 30.8-5.4h.9V144c0 2.7 2.2 4.8 4.8 4.8s4.8-2.2 4.8-4.8v-35.5h.9c8.3.4 20.4 1.6 30.8 5.4l2.3.8 2-1.3c15.2-9.7 36.3-14.6 57.9-13.6l6.1.3-1.1-6c-7.3-40-50.9-67.3-88.2-72.7-2.9-.4-6-.7-9.2-.8h-1.4v-8.5c0-2.7-2.2-4.8-4.8-4.8s-4.8 2.2-4.8 4.8v8.5h-1.3c-3.4.1-6.5.4-9.4.8-37.4 5.6-81 32.9-88.3 72.8l-1.1 6 6.1-.3c21.6-1 42.7 4 57.9 13.7zm26.7-82.4c2.6-.4 5.3-.6 8.5-.7 3.7-.2 7.5-.2 11.4 0 3 .1 5.7.3 8.3.7 32.1 4.6 69.2 26.6 78.7 59-20.6 0-39.9 4.9-55.2 14-11-3.7-23.1-4.9-31.4-5.2l-3.1-.1h-6l-3.2.1c-8.4.4-20.5 1.6-31.5 5.2-15.3-9.1-34.6-14-55.2-14 9.5-32.4 46.6-54.4 78.7-59zM224 162.3l-59.8 25.1c-2.5 1-3.6 3.9-2.6 6.3 1 2.5 3.9 3.6 6.3 2.6l59.8-25.1c2.6-1.1 5.5-.3 7.2 1.8 1.1 1.4 1.6 3.1 1.3 4.8-.3 1.8-1.3 3.3-2.8 4.2-26.1 17-85.4 50.6-88.2 52.2-.1.1-.2.1-.3.2-7.2 4.3-15.3 5.4-25.5 3.6-.6-.1-14.4-1.8-47.1-5.8l-16.8-2.1v-65.3c2.7-.2 5.1-.3 6.1-.3h.6c22.5-1.4 44.1 2.9 66.9 7.5 2.9.6 5.8 1.2 8.8 1.8 3.1.6 5.4 3.3 5.4 6.5 0 .2 0 .4-.1.8-.2 1.8-1.2 3.1-1.9 3.9-1.2 1.2-2.9 1.9-4.7 1.9H91.1c-2.7 0-4.8 2.2-4.8 4.8s2.2 4.8 4.8 4.8h45.7c4.3 0 8.5-1.7 11.6-4.8 2.6-2.7 4.2-6 4.6-9.4.1-.7.2-1.4.2-2.2 0-7.8-5.5-14.5-13.2-16l-8.7-1.8c-22.4-4.5-45.6-9.2-69.4-7.7h-.5c-1.1 0-3.3.2-5.9.3-.6-2.1-2.4-3.6-4.6-3.6h-36c-2.7 0-4.8 2.2-4.8 4.8v81.4c0 2.7 2.2 4.8 4.8 4.8h36c1.9 0 3.6-1.2 4.4-2.8l16.1 2c19.2 2.4 45.5 5.6 46.6 5.7 3.6.6 7 1 10.3 1 8 0 15.1-1.9 21.6-5.7.1 0 .1-.1.2-.1.6-.3 62-35 88.8-52.5 3.8-2.5 6.3-6.4 7-10.8.7-4.4-.5-8.9-3.3-12.4-4.6-5.3-12-7.2-18.6-4.4zM46 233.1H19.6v-71.7H46v71.7z"/>
</svg><svg viewBox="0 0 16 16" fill="none" stroke="#ea6211" id="shield" xmlns="http://www.w3.org/2000/svg">
    <g fill="#ea6211">
        <path d="M11.28 5.47a.75.75 0 0 1 0 1.06l-4 4a.75.75 0 0 1-1.06 0l-2-2a.75.75 0 0 1 1.06-1.06l1.47 1.47 3.47-3.47a.75.75 0 0 1 1.06 0z"/>
        <path fill-rule="evenodd" d="M7.26.213a2.25 2.25 0 0 1 1.48 0l4.75 1.653A2.25 2.25 0 0 1 15 3.991v4.01c0 2.048-1.181 3.747-2.45 4.991-1.282 1.255-2.757 2.15-3.573 2.598a2.024 2.024 0 0 1-1.954 0c-.816-.447-2.291-1.342-3.572-2.598C2.18 11.748 1 10.05 1 8V3.991c0-.957.606-1.81 1.51-2.125L7.26.213zm.986 1.417a.75.75 0 0 0-.493 0l-4.75 1.653a.75.75 0 0 0-.503.708v4.01c0 1.455.847 2.79 2 3.92 1.142 1.118 2.483 1.937 3.244 2.353.163.09.35.09.512 0 .761-.416 2.102-1.235 3.244-2.353 1.153-1.13 2-2.465 2-3.92V3.99a.75.75 0 0 0-.504-.708L8.246 1.63z" clip-rule="evenodd"/>
    </g>
</svg><svg viewBox="0 0 24 24" fill="none" id="siren" xmlns="http://www.w3.org/2000/svg">
    <path d="M12.75 2a.75.75 0 0 0-1.5 0v3a.75.75 0 0 0 1.5 0V2ZM14.572 10.805a.75.75 0 1 0-.563 1.39c.814.33 1.466.981 1.796 1.796a.75.75 0 1 0 1.39-.563 4.764 4.764 0 0 0-2.623-2.623Z" fill="#1C274C"/>
    <path fill-rule="evenodd" clip-rule="evenodd" d="M12 7.25A8.75 8.75 0 0 0 3.25 16v5.25H2a.75.75 0 0 0 0 1.5h20a.75.75 0 0 0 0-1.5h-1.25V16A8.75 8.75 0 0 0 12 7.25Zm.75 14h6.5V16a7.25 7.25 0 1 0-14.5 0v5.25h6.5v-1.628a2.251 2.251 0 1 1 1.5 0v1.628Zm-.75-3a.75.75 0 1 0 0-1.5.75.75 0 0 0 0 1.5Z" fill="#1C274C"/>
    <path d="M21.53 5.47a.75.75 0 0 1 0 1.06l-1.5 1.5a.75.75 0 1 1-1.06-1.06l1.5-1.5a.75.75 0 0 1 1.06 0ZM3.53 5.47a.75.75 0 0 0-1.06 1.06l1.5 1.5a.75.75 0 0 0 1.06-1.06l-1.5-1.5Z" fill="#1C274C"/>
</svg><svg aria-label="Telegram" viewBox="0 0 512 512" id="telegram" xmlns="http://www.w3.org/2000/svg">
    <rect width="512" height="512" rx="15%" fill="#37aee2"/>
    <path fill="#c8daea" d="M199 404c-11 0-10-4-13-14l-32-105 245-144"/>
    <path fill="#a9c9dd" d="M199 404c7 0 11-4 16-8l45-43-56-34"/>
    <path fill="#f6fbfe" d="m204 319 135 99c14 9 26 4 30-14l55-258c5-22-9-32-24-25L79 245c-21 8-21 21-4 26l83 26 190-121c9-5 17-3 11 4"/>
</svg><svg viewBox="0 0 24 24" fill="none" id="tuning" xmlns="http://www.w3.org/2000/svg">
    <path fill-rule="evenodd" clip-rule="evenodd" d="M7.25 16a2.75 2.75 0 1 1 5.5 0 2.75 2.75 0 0 1-5.5 0ZM10 14.75a1.25 1.25 0 1 0 0 2.5 1.25 1.25 0 0 0 0-2.5ZM16.75 8a2.75 2.75 0 1 1-5.5 0 2.75 2.75 0 0 1 5.5 0ZM14 9.25a1.25 1.25 0 1 0 0-2.5 1.25 1.25 0 0 0 0 2.5Z" fill="#1C274C"/>
    <path d="M13.25 16a.75.75 0 0 1 .75-.75h5a.75.75 0 0 1 0 1.5h-5a.75.75 0 0 1-.75-.75ZM10 7.25a.75.75 0 0 1 0 1.5H5a.75.75 0 0 1 0-1.5h5ZM4.25 16a.75.75 0 0 1 .75-.75h1a.75.75 0 0 1 0 1.5H5a.75.75 0 0 1-.75-.75ZM19 7.25a.75.75 0 0 1 0 1.5h-1a.75.75 0 0 1 0-1.5h1Z" fill="#1C274C"/>
    <path fill-rule="evenodd" clip-rule="evenodd" d="M11.943 1.25h.114c2.309 0 4.118 0 5.53.19 1.444.194 2.584.6 3.479 1.494.895.895 1.3 2.035 1.494 3.48.19 1.411.19 3.22.19 5.529v.114c0 2.309 0 4.118-.19 5.53-.194 1.444-.6 2.584-1.494 3.479-.895.895-2.035 1.3-3.48 1.494-1.411.19-3.22.19-5.529.19h-.114c-2.309 0-4.118 0-5.53-.19-1.444-.194-2.584-.6-3.479-1.494-.895-.895-1.3-2.035-1.494-3.48-.19-1.411-.19-3.22-.19-5.529v-.114c0-2.309 0-4.118.19-5.53.194-1.444.6-2.584 1.494-3.479.895-.895 2.035-1.3 3.48-1.494 1.411-.19 3.22-.19 5.529-.19Zm-5.33 1.676c-1.278.172-2.049.5-2.618 1.069-.57.57-.897 1.34-1.069 2.619-.174 1.3-.176 3.008-.176 5.386s.002 4.086.176 5.386c.172 1.279.5 2.05 1.069 2.62.57.569 1.34.896 2.619 1.068 1.3.174 3.008.176 5.386.176s4.086-.002 5.386-.176c1.279-.172 2.05-.5 2.62-1.069.569-.57.896-1.34 1.068-2.619.174-1.3.176-3.008.176-5.386s-.002-4.086-.176-5.386c-.172-1.279-.5-2.05-1.069-2.62-.57-.569-1.34-.896-2.619-1.068-1.3-.174-3.008-.176-5.386-.176s-4.086.002-5.386.176Z" fill="#1C274C"/>
</svg><svg viewBox="0 0 24 24" fill="none" id="umbrella" xmlns="http://www.w3.org/2000/svg">
    <path fill-rule="evenodd" clip-rule="evenodd" d="M11.524 1.25C5.85 1.25 1.25 5.85 1.25 11.524c0 .677.549 1.226 1.226 1.226h8.774V20a1.25 1.25 0 1 1-2.5 0v-1a.75.75 0 0 0-1.5 0v1a2.75 2.75 0 1 0 5.5 0v-7.25h8.774c.677 0 1.226-.549 1.226-1.226 0-5.674-4.6-10.274-10.274-10.274h-.952Zm-2.68 1.917a8.778 8.778 0 0 0-6.09 8.083h3.661c.176-1.442.526-3.596 1.191-5.512.319-.92.722-1.821 1.238-2.571Zm-.917 8.083c.176-1.382.506-3.32 1.096-5.021.362-1.042.802-1.941 1.325-2.567.514-.616 1.055-.912 1.652-.912s1.138.296 1.652.912c.523.626.963 1.525 1.325 2.567.59 1.701.92 3.64 1.096 5.021H7.927Zm9.658 0c-.176-1.442-.527-3.596-1.191-5.512-.319-.92-.722-1.821-1.238-2.571a8.778 8.778 0 0 1 6.09 8.083h-3.661Z" fill="#1C274C"/>
</svg><svg aria-label="WhatsApp" viewBox="0 0 512 512" id="whatsapp" xmlns="http://www.w3.org/2000/svg">
    <rect width="512" height="512" rx="15%" fill="#25d366"/>
    <path fill="#25d366" stroke="#fff" stroke-width="26" d="m123 393 14-65a138 138 0 1 1 50 47z"/>
    <path fill="#fff" d="M308 273c-3-2-6-3-9 1l-12 16c-3 2-5 3-9 1-15-8-36-17-54-47-1-4 1-6 3-8l9-14c2-2 1-4 0-6l-12-29c-3-8-6-7-9-7h-8c-2 0-6 1-10 5-22 22-13 53 3 73 3 4 23 40 66 59 32 14 39 12 48 10 11-1 22-10 27-19 1-3 6-16 2-18"/>
</svg></svg>