<?xml version="1.0" encoding="UTF-8" standalone="no"?>
<svg
   xmlns:dc="http://purl.org/dc/elements/1.1/"
   xmlns:cc="http://creativecommons.org/ns#"
   xmlns:rdf="http://www.w3.org/1999/02/22-rdf-syntax-ns#"
   xmlns:svg="http://www.w3.org/2000/svg"
   xmlns="http://www.w3.org/2000/svg"
   xmlns:sodipodi="http://sodipodi.sourceforge.net/DTD/sodipodi-0.dtd"
   xmlns:inkscape="http://www.inkscape.org/namespaces/inkscape"
   inkscape:export-ydpi="768"
   inkscape:export-xdpi="768"
   inkscape:export-filename="E:\S  Y  N  T  X  Y\Dokument Desain\CARLOS\Export\3 - Bullets.png"
   sodipodi:docname="4 - Siren.svg"
   inkscape:version="1.0 (4035a4fb49, 2020-05-01)"
   id="svg979"
   version="1.1"
   viewBox="0 0 16.933334 16.933333"
   height="48pt"
   width="48pt">
  <defs
     id="defs973" />
  <sodipodi:namedview
     inkscape:snap-nodes="false"
     inkscape:bbox-nodes="true"
     inkscape:snap-bbox="true"
     inkscape:document-rotation="0"
     inkscape:window-maximized="1"
     inkscape:window-y="-8"
     inkscape:window-x="-8"
     inkscape:window-height="715"
     inkscape:window-width="1366"
     units="pt"
     showgrid="false"
     inkscape:current-layer="layer1"
     inkscape:document-units="pt"
     inkscape:cy="23.300758"
     inkscape:cx="7.3002642"
     inkscape:zoom="6.0435533"
     inkscape:pageshadow="2"
     inkscape:pageopacity="0.0"
     borderopacity="1.0"
     bordercolor="#666666"
     pagecolor="#ffffff"
     id="base">
    <inkscape:grid
       id="grid1526"
       type="xygrid" />
    <sodipodi:guide
       inkscape:locked="false"
       id="guide1528"
       orientation="56.666615,0"
       position="0.97013909,15.963209" />
    <sodipodi:guide
       inkscape:locked="false"
       id="guide1530"
       orientation="0,56.666667"
       position="0.97013909,0.97016731" />
    <sodipodi:guide
       inkscape:locked="false"
       id="guide1532"
       orientation="-56.666615,0"
       position="15.963195,0.97016731" />
    <sodipodi:guide
       inkscape:locked="false"
       id="guide1534"
       orientation="0,-56.666667"
       position="15.963195,15.963209" />
  </sodipodi:namedview>
  <metadata
     id="metadata976">
    <rdf:RDF>
      <cc:Work
         rdf:about="">
        <dc:format>image/svg+xml</dc:format>
        <dc:type
           rdf:resource="http://purl.org/dc/dcmitype/StillImage" />
        <dc:title></dc:title>
      </cc:Work>
    </rdf:RDF>
  </metadata>
  <g
     transform="translate(0,-280.06668)"
     id="layer1"
     inkscape:groupmode="layer"
     inkscape:label="Layer 1">
    <path
       d="m 1.529889,282.64376 c -0.00715,-3e-5 -0.014296,1.9e-4 -0.02143,6.4e-4 -0.1002334,0.006 -0.1917961,0.059 -0.247697,0.14245 -0.09953,0.14807 -0.060002,0.34883 0.088238,0.44812 l 1.9368268,1.29143 c 0.148615,0.0985 0.3490403,0.0579 0.4474933,-0.0907 0.097444,-0.14808 0.057203,-0.34703 -0.090129,-0.4456 L 1.7088853,282.6993 C 1.6560193,282.6636 1.593727,282.6442 1.529888,282.6438 Z m 13.876074,6.4e-4 c -0.06442,-1.8e-4 -0.127415,0.0189 -0.180887,0.0549 l -1.934305,1.29079 c -0.147552,0.0983 -0.18808,0.29736 -0.09075,0.4456 0.09849,0.14912 0.299384,0.1898 0.448123,0.0907 l 1.936825,-1.29142 c 0.148023,-0.0995 0.187263,-0.30021 0.08761,-0.44813 -0.05976,-0.0888 -0.159619,-0.14209 -0.266607,-0.14244 z m -9.1175173,0.64541 c -0.7489464,0 -1.3926854,0.53174 -1.5328231,1.26747 l -1.613497,5.86595 c -0.1189831,0.62466 0.3316994,1.19914 0.9504505,1.25675 H 2.6580765 c -0.3564431,0 -0.6453989,0.49073 -0.6453989,1.09668 v 0.54897 c 0,0.60598 0.2889558,1.0973 0.6453989,1.0973 H 13.952557 c 0.356444,0 0.645399,-0.49132 0.645399,-1.0973 v -0.54897 c 0,-0.60595 -0.288955,-1.09668 -0.645399,-1.09668 h -1.433241 c 0.61837,-0.0579 1.068132,-0.63231 0.949192,-1.25675 l -1.371473,-5.86595 c -0.140139,-0.73573 -0.783879,-1.26747 -1.532822,-1.26747 z m 0.8470856,0.96683 c 0.1792083,-7.1e-4 0.3246578,0.14476 0.3239577,0.32396 -3.232e-4,0.17847 -0.1454922,0.32277 -0.3239577,0.32207 -0.5960484,0 -1.103638,0.41977 -1.2151654,1.00529 -0.00195,0.009 -0.00427,0.0173 -0.00695,0.0259 l -1.0223015,3.72365 c -0.048052,0.17159 -0.2260958,0.27176 -0.3977018,0.22375 -0.1713525,-0.047 -0.2724971,-0.22363 -0.2262679,-0.39518 l 1.0241929,-3.72366 -0.00439,0.0265 c 0.1687461,-0.88592 0.9467482,-1.5322 1.8485901,-1.5322 z m 1.1691554,0 h 1.2914278 c 0.179207,-7.1e-4 0.3246577,0.14476 0.3239576,0.32396 -3.232e-4,0.17847 -0.1454922,0.32277 -0.3239576,0.32207 H 8.3046867 c -0.1774837,-6.8e-4 -0.3210952,-0.14459 -0.3214404,-0.32207 -6.452e-4,-0.17823 0.1432176,-0.32327 0.3214404,-0.32396 z m -6.8416065,1.29142 c -0.1782166,7.2e-4 -0.3221279,0.14574 -0.321439,0.32396 6.777e-4,0.17724 0.1442002,0.32074 0.321439,0.32143 h 1.6796756 c 0.1772387,-6.8e-4 0.320748,-0.14419 0.321439,-0.32143 7.099e-4,-0.17823 -0.1432166,-0.32327 -0.321439,-0.32397 z m 12.3281268,0 c -0.17847,3.6e-4 -0.322768,0.1455 -0.32207,0.32397 6.45e-4,0.17748 0.144585,0.3211 0.32207,0.32144 h 1.679044 c 0.177239,-6.9e-4 0.32075,-0.1442 0.32144,-0.32144 6.46e-4,-0.17823 -0.143216,-0.32327 -0.32144,-0.32397 z m -5.485891,0.32333 c 0.3564443,0 0.6453992,0.28895 0.6453992,0.64541 v 5.16318 H 7.659918 v -5.16318 c 0,-0.35646 0.2889549,-0.64541 0.645398,-0.64541 z m -5.4997559,1.29018 c -0.00589,2.5e-4 -0.011782,6.8e-4 -0.017648,0.001 -0.045456,0.005 -0.089285,0.02 -0.1285754,0.0435 l -1.5271498,0.88112 c -0.15455651,0.0888 -0.20789039,0.28601 -0.1191222,0.44055 0.089622,0.15365 0.2866691,0.20581 0.4405605,0.1166 l 1.5271498,-0.88112 c 0.1545566,-0.0888 0.2078901,-0.28601 0.1191209,-0.44057 -0.06022,-0.10464 -0.1737717,-0.16683 -0.2943355,-0.16134 z m 11.3190599,0.001 c -0.118965,-0.005 -0.230647,0.0572 -0.290556,0.1601 -0.08877,0.15455 -0.03543,0.35179 0.119123,0.44056 l 1.526519,0.88112 c 0.153892,0.0892 0.350939,0.0371 0.440563,-0.1166 0.08877,-0.15454 0.03543,-0.35179 -0.119123,-0.44055 l -1.526517,-0.88112 c -0.04569,-0.0266 -0.09719,-0.0415 -0.150006,-0.0435 z"
       style="color:#000000;font-style:normal;font-variant:normal;font-weight:normal;font-stretch:normal;font-size:medium;line-height:normal;font-family:sans-serif;font-variant-ligatures:normal;font-variant-position:normal;font-variant-caps:normal;font-variant-numeric:normal;font-variant-alternates:normal;font-variant-east-asian:normal;font-feature-settings:normal;font-variation-settings:normal;text-indent:0;text-align:start;text-decoration:none;text-decoration-line:none;text-decoration-style:solid;text-decoration-color:#000000;letter-spacing:normal;word-spacing:normal;text-transform:none;writing-mode:lr-tb;direction:ltr;text-orientation:mixed;dominant-baseline:auto;baseline-shift:baseline;text-anchor:start;white-space:normal;shape-padding:0;shape-margin:0;inline-size:0;clip-rule:nonzero;display:inline;overflow:visible;visibility:visible;isolation:auto;mix-blend-mode:normal;color-interpolation:sRGB;color-interpolation-filters:linearRGB;solid-color:#000000;solid-opacity:1;vector-effect:none;fill:#000000;fill-opacity:1;fill-rule:nonzero;stroke:none;stroke-width:0.645399;stroke-linecap:round;stroke-linejoin:round;stroke-miterlimit:4;stroke-dasharray:none;stroke-dashoffset:0;stroke-opacity:1;color-rendering:auto;image-rendering:auto;shape-rendering:auto;text-rendering:auto;enable-background:accumulate;stop-color:#000000"
       id="path1491"
       sodipodi:nodetypes="ccccccccccccccccccscccsssssssscccssscccccccccssccccccccsccscccsccsccssccssscccccccsscccccccc" />
  </g>
</svg>
