<?xml version="1.0" encoding="UTF-8" standalone="no"?>
<svg
   xmlns:dc="http://purl.org/dc/elements/1.1/"
   xmlns:cc="http://creativecommons.org/ns#"
   xmlns:rdf="http://www.w3.org/1999/02/22-rdf-syntax-ns#"
   xmlns:svg="http://www.w3.org/2000/svg"
   xmlns="http://www.w3.org/2000/svg"
   xmlns:sodipodi="http://sodipodi.sourceforge.net/DTD/sodipodi-0.dtd"
   xmlns:inkscape="http://www.inkscape.org/namespaces/inkscape"
   inkscape:export-ydpi="768"
   inkscape:export-xdpi="768"
   inkscape:export-filename="E:\S  Y  N  T  X  Y\Dokument Desain\CARLOS\Files\Beginner - Security And Crime - 48x\Beginner - Security And Crime - Expanded - 48px\Export\10. Siren.png"
   width="48pt"
   height="48pt"
   viewBox="0 0 16.933334 16.933333"
   version="1.1"
   id="svg979"
   inkscape:version="1.0 (4035a4fb49, 2020-05-01)"
   sodipodi:docname="10. Siren.svg">
  <defs
     id="defs973" />
  <sodipodi:namedview
     id="base"
     pagecolor="#ffffff"
     bordercolor="#666666"
     borderopacity="1.0"
     inkscape:pageopacity="0.0"
     inkscape:pageshadow="2"
     inkscape:zoom="6.0435533"
     inkscape:cx="27.659409"
     inkscape:cy="30.473392"
     inkscape:document-units="pt"
     inkscape:current-layer="layer1"
     showgrid="false"
     units="pt"
     inkscape:window-width="1366"
     inkscape:window-height="715"
     inkscape:window-x="-8"
     inkscape:window-y="-8"
     inkscape:window-maximized="1"
     inkscape:document-rotation="0"
     inkscape:snap-bbox="true"
     inkscape:bbox-nodes="true"
     inkscape:snap-nodes="false">
    <inkscape:grid
       type="xygrid"
       id="grid1526" />
    <sodipodi:guide
       position="0.97013909,15.963209"
       orientation="56.666615,0"
       id="guide1528"
       inkscape:locked="false" />
    <sodipodi:guide
       position="0.97013909,0.97016731"
       orientation="0,56.666667"
       id="guide1530"
       inkscape:locked="false" />
    <sodipodi:guide
       position="15.963195,0.97016731"
       orientation="-56.666615,0"
       id="guide1532"
       inkscape:locked="false" />
    <sodipodi:guide
       position="15.963195,15.963209"
       orientation="0,-56.666667"
       id="guide1534"
       inkscape:locked="false" />
  </sodipodi:namedview>
  <metadata
     id="metadata976">
    <rdf:RDF>
      <cc:Work
         rdf:about="">
        <dc:format>image/svg+xml</dc:format>
        <dc:type
           rdf:resource="http://purl.org/dc/dcmitype/StillImage" />
        <dc:title></dc:title>
      </cc:Work>
    </rdf:RDF>
  </metadata>
  <g
     inkscape:label="Layer 1"
     inkscape:groupmode="layer"
     id="layer1"
     transform="translate(0,-280.06668)">
    <path
       sodipodi:nodetypes="cccccccccccccccccscccccssssscssssssccccsssscccsccsccsscscssccsccscccsccccccccsccsccsccccccccccccccccssccssccccccccccccccccccccccccccccccssssssssssc"
       d="m 1.5279724,282.28391 c -0.00694,-10e-6 -0.013875,2e-4 -0.020781,6.4e-4 -0.099661,0.007 -0.1904277,0.0599 -0.2457937,0.14306 -0.099093,0.14796 -0.059606,0.34821 0.088235,0.44746 l 1.9367236,1.29137 c 0.1486079,0.0985 0.3490226,0.0579 0.44747,-0.0907 0.098726,-0.14845 0.058369,-0.34882 -0.090127,-0.44747 l -1.9367235,-1.28883 c -0.052865,-0.0359 -0.1151522,-0.0551 -0.1789886,-0.0555 z m 13.8778636,6.4e-4 c -0.06442,-2e-4 -0.12741,0.0189 -0.180879,0.0549 l -1.936724,1.28884 c -0.14784,0.0993 -0.187327,0.29951 -0.08824,0.44746 0.09848,0.14911 0.299368,0.18979 0.4481,0.0907 l 1.936723,-1.29137 c 0.147623,-0.0994 0.186822,-0.29968 0.0876,-0.44747 -0.05961,-0.0889 -0.159492,-0.14257 -0.266591,-0.14306 z m -8.9563259,0.23571 c -0.9058858,0 -1.6811527,0.66282 -1.8484922,1.56487 l 0.005,-0.0233 -1.6153024,6.10953 c -0.00159,0.009 -0.00329,0.016 -0.00439,0.0239 -0.070041,0.37758 0.022428,0.74251 0.2142801,1.03863 H 2.657341 c -0.2689008,0 -0.5621868,0.11074 -0.82435,0.35483 -0.2621665,0.24403 -0.4644883,0.63653 -0.4644883,1.14578 v 0.54766 c 0,0.50399 0.1912118,0.89706 0.4506227,1.14326 0.2594107,0.2462 0.5626288,0.35735 0.8382156,0.35735 3.8721911,10e-6 7.745005,10e-6 11.617196,0 0.275588,0 0.58133,-0.11111 0.84074,-0.35735 0.259411,-0.2462 0.449991,-0.63927 0.449991,-1.14326 v -0.54766 c 0,-0.50925 -0.202323,-0.90175 -0.464489,-1.14578 -0.262163,-0.24403 -0.55734,-0.35483 -0.826242,-0.35483 h -0.540744 c 0.191851,-0.29612 0.284323,-0.66105 0.214281,-1.03863 -0.0016,-0.004 -0.0033,-0.009 -0.005,-0.0122 l -1.366976,-6.09819 c -0.167341,-0.90204 -0.945131,-1.56488 -1.851013,-1.56488 z m 0,0.64535 h 4.2755409 c 0.591923,0 1.102179,0.42993 1.2151,1.03864 6.45e-4,0.004 0.0016,0.009 0.0026,0.0122 l 1.369508,6.09566 c 0.09053,0.488 -0.262072,0.92205 -0.731079,0.92205 H 9.4343547 v -2.90603 H 10.07972 c 0.352604,0 0.645359,-0.29089 0.645365,-0.64348 v -0.96931 c -6e-6,-0.3526 -0.292773,-0.64536 -0.645365,-0.64536 H 9.4343547 c -0.00293,0 -0.00585,5.8e-4 -0.00878,6.4e-4 -0.04421,-0.49097 -0.456856,-0.88233 -0.9585915,-0.88233 -0.5017356,0 -0.916034,0.39136 -0.9604831,0.88233 -0.00293,-3e-5 -0.00585,-6.4e-4 -0.00878,-6.4e-4 H 6.8548727 c -0.3525911,0 -0.6459907,0.29276 -0.6459968,0.64536 v 0.96931 c 6.1e-6,0.35259 0.2933886,0.64348 0.6459968,0.64348 h 0.6428417 v 2.90603 H 4.3534527 c -0.4690055,0 -0.8216038,-0.43405 -0.7310751,-0.92205 l 1.6077385,-6.08369 c 0.00195,-0.007 0.00366,-0.0159 0.005,-0.0239 0.1129215,-0.60871 0.6225441,-1.03864 1.2144693,-1.03864 z m 0.7266639,0.64601 c -0.9017929,0 -1.6797514,0.6431 -1.8484886,1.52896 l -0.7361218,2.72766 c -0.046052,0.17232 0.056418,0.34931 0.2287786,0.39516 0.1715447,0.0462 0.3481872,-0.0549 0.3951596,-0.22624 l 0.7411599,-2.751 c 0.00159,-0.009 0.00329,-0.016 0.00439,-0.0239 0.111519,-0.58549 0.6190817,-1.00524 1.2150987,-1.00524 0.1782108,-7e-4 0.3221172,-0.14573 0.3214208,-0.32393 -6.451e-4,-0.17723 -0.1441905,-0.32074 -0.3214208,-0.32142 z m 1.1287593,0 c -0.1772304,6.8e-4 -0.3207331,0.14419 -0.3214233,0.32142 -6.452e-4,0.17821 0.1432087,0.32324 0.3214233,0.32393 h 0.4840234 c 0.1791988,7.2e-4 0.3246418,-0.14474 0.3239406,-0.32393 -6.452e-4,-0.17822 -0.1457297,-0.32212 -0.3239406,-0.32142 z m -6.8406132,1.37644 c -0.1784596,3.5e-4 -0.3227503,0.14548 -0.3220533,0.32394 3.227e-4,0.17772 0.1443326,0.3217 0.3220533,0.32205 h 1.678955 c 0.1774755,-6.7e-4 0.3210782,-0.14457 0.3214233,-0.32205 6.452e-4,-0.17822 -0.1432087,-0.32325 -0.3214233,-0.32394 z m 12.3268429,0 c -0.17846,3.5e-4 -0.32275,0.14548 -0.322053,0.32394 3.22e-4,0.17772 0.144332,0.3217 0.322053,0.32205 h 1.678959 c 0.177475,-7.1e-4 0.321074,-0.14457 0.32142,-0.32205 6.46e-4,-0.17822 -0.14321,-0.32325 -0.32142,-0.32394 z m -5.3242589,0.64599 c 0.1820319,0 0.3220526,0.13938 0.3220526,0.32142 v 5.07847 H 8.1429599 v -5.07847 c 0,-0.18204 0.1419124,-0.32142 0.3239442,-0.32142 z m -1.6121497,0.88107 h 0.6428405 v 0.96931 H 6.8547544 Z m 2.5795674,0 h 0.6453652 v 0.96931 H 9.4343218 Z m 4.6631382,0.0857 c -0.109653,0.006 -0.208902,0.0667 -0.263441,0.16197 -0.08876,0.15455 -0.03543,0.35178 0.119117,0.44054 l 1.526439,0.8817 c 0.154049,0.089 0.351137,0.0366 0.440539,-0.1172 0.08887,-0.15437 0.03583,-0.35157 -0.118483,-0.44054 l -1.527069,-0.88106 c -0.04551,-0.0272 -0.09703,-0.0428 -0.149998,-0.0454 -0.009,-3.9e-4 -0.01807,-3.9e-4 -0.02711,0 z m -11.2913623,0.001 c -0.0059,2.6e-4 -0.011781,6.8e-4 -0.017651,10e-4 -0.046276,0.005 -0.090993,0.0193 -0.1310896,0.0428 l -1.5270683,0.88108 c -0.15363551,0.0896 -0.20578419,0.28665 -0.116595,0.44054 0.089403,0.15386 0.2864904,0.2063 0.4405389,0.1172 l 1.5270691,-0.88159 c 0.1545484,-0.0888 0.2078773,-0.286 0.119117,-0.44053 -0.060382,-0.1044 -0.1738972,-0.16633 -0.2943224,-0.16072 z m -0.1487373,5.07721 c 3.8764183,0.005 7.7405736,0 11.6171966,0 0.05378,0 0.24452,0.0494 0.385705,0.18088 0.141187,0.13141 0.25966,0.3272 0.25966,0.67435 v 0.54768 c 0,0.34988 -0.114702,0.54827 -0.250204,0.67688 -0.135507,0.1286 -0.314326,0.17835 -0.395161,0.17835 -3.872188,10e-6 -7.7450091,10e-6 -11.6171966,0 -0.080835,0 -0.2596528,-0.0498 -0.3951567,-0.17835 -0.1355072,-0.12861 -0.2476845,-0.327 -0.2476845,-0.67688 v -0.54768 c 0,-0.34715 0.1184731,-0.54294 0.259656,-0.67435 0.1411864,-0.13142 0.3293973,-0.18088 0.3831852,-0.18088 z"
       style="color:#000000;font-style:normal;font-variant:normal;font-weight:normal;font-stretch:normal;font-size:medium;line-height:normal;font-family:sans-serif;font-variant-ligatures:normal;font-variant-position:normal;font-variant-caps:normal;font-variant-numeric:normal;font-variant-alternates:normal;font-variant-east-asian:normal;font-feature-settings:normal;font-variation-settings:normal;text-indent:0;text-align:start;text-decoration:none;text-decoration-line:none;text-decoration-style:solid;text-decoration-color:#000000;letter-spacing:normal;word-spacing:normal;text-transform:none;writing-mode:lr-tb;direction:ltr;text-orientation:mixed;dominant-baseline:auto;baseline-shift:baseline;text-anchor:start;white-space:normal;shape-padding:0;shape-margin:0;inline-size:0;clip-rule:nonzero;display:inline;overflow:visible;visibility:visible;opacity:1;isolation:auto;mix-blend-mode:normal;color-interpolation:sRGB;color-interpolation-filters:linearRGB;solid-color:#000000;solid-opacity:1;vector-effect:none;fill:#000000;fill-opacity:1;fill-rule:nonzero;stroke:none;stroke-width:0.645365;stroke-linecap:round;stroke-linejoin:round;stroke-miterlimit:4;stroke-dasharray:none;stroke-dashoffset:0;stroke-opacity:1;color-rendering:auto;image-rendering:auto;shape-rendering:auto;text-rendering:auto;enable-background:accumulate;stop-color:#000000;stop-opacity:1"
       id="path983" />
  </g>
</svg>
